<svg id="Layer_1" data-name="Layer 1" xmlns="http://www.w3.org/2000/svg" viewBox="0 0 300 300"><defs><style>.cls-1{fill:#010101;}</style></defs><title>Artboard 1 copy 2</title><path class="cls-1" d="M6.86,216.27a4.32,4.32,0,0,0-.25.77,19.53,19.53,0,0,1-.41-4.91l.13-.11a10.54,10.54,0,0,1,1,1.64,4.73,4.73,0,0,1,.35,1.8C7.7,215.69,7,216,6.86,216.27Zm40.38,3.54c.19-.29.38-.57.56-.86l0,0A2.06,2.06,0,0,0,47.24,219.81Zm11.63-39.47c-.5,2.12-.76,3.18-1.29,5.3a2.62,2.62,0,0,0-1.39-.76,1.74,1.74,0,0,0-1,.2c-1.32.61-2.58,3-2,4a1.4,1.4,0,0,0,1.35.67,1.5,1.5,0,0,1,1.87.54c-.33,1.31-.5,2-.83,3.29l-.34.26c-1.71-.6-1.65-.64-2.6-2-.27-.41-1-.5-1.47-.73-.28.42-.72.88-.94,1.28,0-.23-.1-.42-.24-.49a1.74,1.74,0,0,0-1.29.32,10.39,10.39,0,0,0-1.19,1.2c-.7.69-.91,1.3-.27,1.83s.51,1,0,1.67a11.59,11.59,0,0,0-.7,1.19c-.36,1.2-.07,1.44.9.95a7.66,7.66,0,0,0,1.6-1.06c.74-.64,1.17-1.46.6-2.1s-.4-1.3.21-2.08a2.39,2.39,0,0,0,.28-.45c.11.79.39,1.53.56,2.31a1.83,1.83,0,0,1,.11.92c-.29,1,0,1.37,1,1.4a6.13,6.13,0,0,0,2.94-1.07c-.22.88-.33,1.32-.54,2.19-1.69-.14-4,.81-4.44,2.88,0,.09,0,.27-.06.45-.12,1.45.23,1.62,1.7,1.07a4.07,4.07,0,0,1,1.63-.1.5.5,0,0,1,.13,0c-.22,1-.33,1.43-.54,2.38a6.3,6.3,0,0,0-1.59,4,1.56,1.56,0,0,0,.38,1.07c-.31,1.05-.69,2.08-1.1,3.1a5.39,5.39,0,0,1-2.26,0c-1.54-.22-2.78.76-3.06,2.79.14,1.6.32,3.48.6,5.42-.75,1-1.54,1.95-2.41,2.88l-.11.11a27.5,27.5,0,0,1-2.39,2.09,1.8,1.8,0,0,0-1.09-.1c-1.28-.5-1.62.71-2.12,1.45a1,1,0,0,0-.15,1c-.61.35-1.22.67-1.85,1l-.41.18a2.06,2.06,0,0,1,.73-1.28c.8-.5,1.11-1,.73-1.86s-1.84-1.5-2.3-1c-.76.86-2.56,1.09-2.05,2.82a7.59,7.59,0,0,0,.11,1.59,2.34,2.34,0,0,0,.28.62,19.06,19.06,0,0,1-2.69.62,1.14,1.14,0,0,0,0-1.41,5.43,5.43,0,0,1-.85-2.74c-.11-.5-.3-1-1-.73s-1.31.45-2,.68a2.31,2.31,0,0,0-1.61,2.09,1.71,1.71,0,0,1-.17,1.07,12.52,12.52,0,0,1-.83,1.09,20,20,0,0,1-9.87-4.11c0-.74.06-1.49,0-2.23a5.29,5.29,0,0,0-.32-1.52c-.2-.58-.51-1.12-.74-1.7-.65-1.63-1.94-2.43-4.28-1.36l-.12,0a18.22,18.22,0,0,1-1.15-3,1.25,1.25,0,0,0,.56.07,3.75,3.75,0,0,0,2.73-2.24c.31-.61.51-1.26.86-1.86.76-1.3,1.37-2.82.54-3.76s-2.19-1.05-3.32-1.53c0,0-.09,0-.11,0-.35-.16-.83-.22-1-.5a5.45,5.45,0,0,0-.51-.68c.13-.6.19-.9.32-1.49a3,3,0,0,0,1-.64,15.9,15.9,0,0,0,1.22-1.24l-1-1.18,1.2-.88c-.71-1-.48-3.43.32-4.47a1.77,1.77,0,0,1,.42-.44A3.52,3.52,0,0,0,12,194.36c0-.44-.12-1.2-.28-1.19a3.22,3.22,0,0,0-1.6.54c2.18-8.6,3.41-12.9,5.13-21.5a2.91,2.91,0,0,0,0,.31c.15.93,0,2.17.54,2.7.74.73.48,1.23-.11,1.94s-.63,1.18-.12,1.61c.72.6,1.42.22,2.1-.65.34.53.8.91.86,1.42.09.87.27,1.55,1.29,1.54a3.14,3.14,0,0,0,2.72-1.6,11.62,11.62,0,0,0,1-2.31c.44-1.32.05-1.63-1.32-1.13-.78.28-1.54.63-2.3.94a4,4,0,0,0-.25-1.43c-.52-.75-1.16-1.39-.67-2.57a.42.42,0,0,0-.2-.43c-1.22-.66-.84-1.92-.65-3.09s-.11-1.51-1.34-1.18a5.5,5.5,0,0,0-1,.37c.45-2.56.65-3.84,1-6.4a2.47,2.47,0,0,0,.08-.6c.27-2.2.38-3.3.54-5.5.15.39.3.75.41,1.13.26.84.67,1.48,1.73,1.22a2,2,0,0,0,1.4-2c0-.55.13-1.11.1-1.66a1.61,1.61,0,0,0-.36-1.12c-.22-.19-.75-.06-1.13,0s-.93.22-1.5.36a8.09,8.09,0,0,0,.13-1.16,4.16,4.16,0,0,0-.13-1.06,1.17,1.17,0,0,0-.44-.75c0-2,0-3-.08-5a.86.86,0,0,1,.41.06c1,.43.92,1.18.61,2,0,.1-.11.23-.08.3.15.31.3.83.49.85a3.7,3.7,0,0,0,1.88-.13,2.55,2.55,0,0,1,1.88-.29,1.23,1.23,0,0,0,1.56-1.09c.07-.43-.18-1.27-.44-1.35-.81-.24-.86-.75-1-1.38a2.27,2.27,0,0,0-2.84-1.6c-.59.31-.71.05-.94-.41a2,2,0,0,0-1.86-1.08c-.09-1-.14-1.52-.26-2.54a2.38,2.38,0,0,0,1.29.38,1.3,1.3,0,0,0,1-.49c.13-.26-.18-.74-.25-1.13a6.46,6.46,0,0,1-.16-1.62c0-.13.63-.14,1-.17s.7.09,1,0c1-.4,1.62-.07,2,1a4.13,4.13,0,0,0,.47.72c-1.48.66-1.69,1.34-.79,2.71a9.18,9.18,0,0,0,1.78,2c1.05.9,2.1.72,2.45-.52a8.55,8.55,0,0,0,0-2.94,18.27,18.27,0,0,0-.44-2.63,6,6,0,0,0-.66-1.52c-.34-.59-.79-1.13-1.17-1.7-1.1-1.63-2.64-2.44-4.67-1.36a3.56,3.56,0,0,1-3,.61,2,2,0,0,0-.71-.08c-.64-3.78-1-5.67-1.88-9.45l.32-.42a19.47,19.47,0,0,1,1.7,1.64,6.43,6.43,0,0,1,1,1.8c.08.22-.54.49-.55.81a4.32,4.32,0,0,0,.29,1.83,1.57,1.57,0,0,0,1.19.41A2.33,2.33,0,0,0,20.22,127c.09-.6.05-1.25.16-1.85.25-1.3.24-2.82-1-3.77s-2.64-1-4-1.52c0,0-.07,0-.1,0a3.78,3.78,0,0,1-1.23-.5,9.39,9.39,0,0,0-.82-.68c-.14-.6-.22-.9-.36-1.5.2,0,.4-.25.68-.63a8,8,0,0,0,.63-1.24l-1.62-1.18.78-.88c-1.17-1-2.18-3.43-1.9-4.47a1,1,0,0,1,.21-.44c1-.82.87-2,.22-3.25-.23-.44-.73-1.21-.89-1.19a1.91,1.91,0,0,0-1.32.54c-1.29-5.1-1.93-7.65-3-12.76a21.69,21.69,0,0,1-.41-6.27,2,2,0,0,0,.51.54c1,.72,1,1.23.67,1.94A1.17,1.17,0,0,0,8,89.5c1,.61,1.52.22,1.83-.64a7.7,7.7,0,0,1,1.47,1.41c.47.87,1,1.56,2,1.55a1.84,1.84,0,0,0,2-1.6,9.34,9.34,0,0,0,.06-2.31c-.11-1.32-.61-1.63-1.78-1.13-.66.28-1.29.63-1.92.94a6.13,6.13,0,0,0-.83-1.43c-.81-.75-1.7-1.4-1.65-2.58,0-.12-.2-.36-.35-.43a2.76,2.76,0,0,1-1.6-2.44A20.08,20.08,0,0,1,8.48,78c.08-.06.16-.11.24-.18a13.1,13.1,0,0,0,.95,1.65c.26.33.72.76,1,.75s.6-.49.71-.84a3.78,3.78,0,0,0-1.24-4l.23-.33a22.08,22.08,0,0,1,1.67-1.8,2.3,2.3,0,0,0,.67.1c1.71,0,2.94-1.22,3.38-3.12a19.76,19.76,0,0,1,5.29-2,1,1,0,0,0-.08.11,28,28,0,0,0-2.08,3.41c-.51,1.1-.84,2.25-2.3,2.59,1.23,1.42,3.56,1.2,4.1-.23.24-.62.44-1.26.73-1.86.12-.25.43-.59.63-.57a1.7,1.7,0,0,0,2-1.54,24.18,24.18,0,0,0,.43-2.43c.41,0,.83,0,1.24,0a12.58,12.58,0,0,0-.27,3.07c.05,1.34.45,1.54,1.69,1.17.27-.09.76-.13.87,0a1.55,1.55,0,0,1,.16,1c0,.5-.14,1-.13,1.48s.46.75.9.51a1.29,1.29,0,0,0,.65-.75c.28-1.38.51-2.78.79-4.14-.26-.74-.47-1.42-.68-2.07a21.43,21.43,0,0,1,3.32.8,4.33,4.33,0,0,0-.1,3.12,2.22,2.22,0,0,1,0,.89,19.33,19.33,0,0,0-.21,2.74c.08,1.29.37,2.58.57,3.88A7,7,0,0,0,35.41,83a4.43,4.43,0,0,1,1,1.61,6,6,0,0,0,2.86,3.54,1.75,1.75,0,0,0,1.19.08,14.74,14.74,0,0,0,2.46-1c.48-.27,1.09-.65,1.19-1.14a14.87,14.87,0,0,0,.24-3.55,2.37,2.37,0,0,0-.86-1.64,1.81,1.81,0,0,0-2.18,0c-1.11.83-2,1.66-1,3.32a1.43,1.43,0,0,1-1.78-1c-.28-.88-.29-1.8-.55-2.68a4.84,4.84,0,0,0-.94-2c-1.29-1.33-1.51-1.92-.76-3.43a20.37,20.37,0,0,1,1-1.83c.37-.57,1.15-1.15.56-1.84-.36-.42-1.24-.39-1.91-.57a2.24,2.24,0,0,1,.25-.45,2.52,2.52,0,0,0,.3-.48A23.88,23.88,0,0,1,40,72.1,5.11,5.11,0,0,0,40,76.44c.72,1.35,1.14,1.45,2.1.44a2.54,2.54,0,0,1,.26.48,1.23,1.23,0,0,0,1.54,1.06c.84-.14,1-.75.86-1.5,0,0,0-.1,0-.15a35.83,35.83,0,0,1,4.7,7.35.45.45,0,0,0-.1.14,3.81,3.81,0,0,0-.42,2,7,7,0,0,0,3,4.83c.05.21.12.42.16.63.4,1.88.61,2.82,1,4.69a4.35,4.35,0,0,0-1.75-.76,1.34,1.34,0,0,0-.88.19c-1,.62-1.13,3-.08,4a2.32,2.32,0,0,0,1.69.67,2.1,2.1,0,0,1,2.13.53l.82,3.3-.2.26a6.83,6.83,0,0,1-3.62-2,6.28,6.28,0,0,0-1.84-.74,13.24,13.24,0,0,0-.3,1.29,1.15,1.15,0,0,0-.49-.49,1.24,1.24,0,0,0-1.13.32c-.3.3-.36.81-.57,1.2-.36.68-.26,1.3.65,1.82a1.46,1.46,0,0,1,.86,1.68,8.83,8.83,0,0,0-.1,1.19c.25,1.2.65,1.43,1.37.94a3.73,3.73,0,0,0,1.08-1.05,1.44,1.44,0,0,0-.46-2.1,1.71,1.71,0,0,1-.85-2.08,1.7,1.7,0,0,0,.06-.46c.51.79,1.16,1.54,1.73,2.32a3,3,0,0,1,.57.92,1.55,1.55,0,0,0,1.69,1.4,3.79,3.79,0,0,0,2.4-1.07l.55,2.19c-1.76-.15-3.57.81-3,2.88,0,.09.09.27.16.44.58,1.45,1,1.63,2.22,1.08a3.75,3.75,0,0,1,1.59-.1l.14,0c.23,1,.35,1.43.59,2.38a5.37,5.37,0,0,0,.23,4,2.35,2.35,0,0,0,1,1.14c.25,1.09.38,1.63.61,2.73-.83.59-1.79.4-2.86.26-1.63-.22-2.46.76-2,2.78,1,2.18,2.11,4.87,3.23,7.54a6.49,6.49,0,0,0,1.15,1.69,5.3,5.3,0,0,0,1.17.78,8.68,8.68,0,0,0,.48-1.38,1.53,1.53,0,0,0-.3-.82c-.65-1.19-1.34-2.37-2-3.54a1.74,1.74,0,0,1-.12-2c.72-1.08,1.36-1.54,2.13-1.44a106.36,106.36,0,0,1,2.13,14.92,2,2,0,0,1-1.38-2.56,3,3,0,0,0-.22-1c-.48.07-1.13,0-1.41.26a4.69,4.69,0,0,0-.89,1.72c-.5,1.34-.21,2.09,1,2.95.51.36,1,.74,1.51,1.11.73.54.88,1.07.21,1.78a3.47,3.47,0,0,0-.55,1.1,2.54,2.54,0,0,0,1.6,2.66,2,2,0,0,0,.34.05,78,78,0,0,1-.52,8.35,5.51,5.51,0,0,1-.56-.82c-.24-.4-.89-.9-1.22-.79a2.6,2.6,0,0,0-1.35,1.25,10.83,10.83,0,0,0-.48,2.32,23.45,23.45,0,0,0,.3,2.85,1.59,1.59,0,0,0,1,1.08,6,6,0,0,0,1.5.1l-.3,1.81c-.88.69-1.21,1.8-1.25,3.6a1.24,1.24,0,0,0,.39,1c-.08.41-.12.62-.21,1a1.47,1.47,0,0,0-1.4.43,5.94,5.94,0,0,0-1.17,2A4.83,4.83,0,0,0,58.87,180.34ZM51.44,122a4.56,4.56,0,0,0,.12,1.07,3.32,3.32,0,0,0,1.2-.09c.85-.44,1.73-3.33,1.39-4.33a.59.59,0,0,0-.19-.29c-.74-.47-1.49-.92-2.24-1.38l-.19.24a4.22,4.22,0,0,0,.21.69,3.16,3.16,0,0,1,.13,2.77A5.83,5.83,0,0,0,51.44,122Zm2.73,32.53c.41-.66,1-1.49.24-2.25a6.86,6.86,0,0,0-1.77-1.36c-.45-.21-1.39-.29-1.55-.05a16.9,16.9,0,0,0-1.24,2.65,3.15,3.15,0,0,0,.19.65c.46.9.92,1.8,1.4,2.68a6.81,6.81,0,0,0,.93,1.36c.55.58,1.23.46,1.54-.35A2.57,2.57,0,0,0,54,156,1.3,1.3,0,0,1,54.17,154.51Zm-7.84,7.31a28.14,28.14,0,0,0-.78,2.74c-.23,1.29-.28,2.58-.48,3.88a5.75,5.75,0,0,0,.54,3.82,3,3,0,0,1,.36,1.61,3.8,3.8,0,0,0,1.45,3.54,1.53,1.53,0,0,0,1.15.08,21.83,21.83,0,0,0,2.88-1,3.83,3.83,0,0,0,1.65-1.13,16.47,16.47,0,0,0,1.56-3.56,1.53,1.53,0,0,0-2.47-1.68c-1.39.83-2.5,1.66-2.22,3.33-1,.16-1.43-.31-1.4-1,0-.88.34-1.8.36-2.68a3.62,3.62,0,0,0-.31-2c-.91-1.33-1-1.93.12-3.44.46-.62.92-1.24,1.42-1.82s1.36-1.15.88-1.84c-.3-.42-1.18-.4-1.82-.58a2.39,2.39,0,0,1,.31-.45,1.6,1.6,0,0,0,.15-2.4,4.66,4.66,0,0,1-.53-.78c-.36-.68-.8-.6-1.24,0a5.66,5.66,0,0,0-1.44,4.56A2.18,2.18,0,0,1,46.33,161.82Zm6.15-33.44a3.68,3.68,0,0,0-1.25-2.89c-.88-.5-1.14.28-1.59.65,0,0-.09.11-.15.11-1.59,0-1.58,1.33-1.88,2.43a11.75,11.75,0,0,1-.94,2.63,2.55,2.55,0,0,0,.9,3.32,1.72,1.72,0,0,0,1.47.11c.3-.2.32-.87.29-1.35s-.33-1-.39-1.48c-.1-.91.71-2,1.36-2s1.39,1.1,1.49,2.21a6.88,6.88,0,0,0,.28,1.15c.23.9.69.78,1.17.4.74-.6,1.5-1.06.83-2.47C53.6,130.22,53.73,129,52.48,128.38Zm2.26,15.22c.12-.52,0-1.18.34-1.56a2,2,0,0,0,.18-2.47c-.61-.93-1.26-2-2.67-1.7-1.37-.51-1.49.71-1.87,1.45s.13,1.34.83,1.83a1,1,0,0,1,.35.75c0,.7-.23,1.38-.31,2.08,0,.29,0,.81.18.89.77.36,1.59.61,2.39.9C54.36,145.05,54.57,144.33,54.74,143.6Zm-7.27-30.09c-.78,0-1.37.9-1.3,1.92a2,2,0,0,0,.19.85,2,2,0,0,1,0,2.19,6.39,6.39,0,0,0-.44,2.84,1.86,1.86,0,0,0,1.64,1.83c1.08.2,1.66-.3,1.62-1.27,0-1.15-.28-2.32-.46-3.59a7.07,7.07,0,0,0,1.2-.65,2,2,0,0,0,0-2.62A2.88,2.88,0,0,0,47.47,113.51Zm-2.39-6.62a7,7,0,0,0,.06-2.64,1.82,1.82,0,0,0-1-.92,1.28,1.28,0,0,0-1.16.38c-1.08,1.52-.93,3.25.41,5.24.85,1.27,1.19,1.62,2.69,1.83l1.41-1L46,108.5a.3.3,0,0,0-.1,0C45.09,108.08,44.87,107.67,45.08,106.89ZM17,76.08a5.83,5.83,0,0,0,4.41,3.79c.32.07.82.08.92.26.73,1.26,1.69.86,2.62.79.31,0,.7-.13.92,0,1.66,1.08,1.71,1.07,3.16.22,1.09-.63,2-1.25,1.47-2.9a12.39,12.39,0,0,1-.19-3l-4.07,2.62c-.3-.66-.51-1.25-.81-1.8s-.67-1-1-1.55l-1.22,1.29a.31.31,0,0,1-.12.07,5.2,5.2,0,0,0-1.57-.46c-1,0-2,.25-3,.39Zm-2,6.57a21.65,21.65,0,0,0,.51,2.16A7.32,7.32,0,0,0,16.2,86a5.68,5.68,0,0,0,1.18-.76,1.43,1.43,0,0,0,.23-1,18.94,18.94,0,0,0-2.13-7.49c-.25-.48-.62-.75-1.14-.36a5.44,5.44,0,0,0-1.49,5.47C13.36,83.29,13.64,83.42,15,82.65Zm.33,18.7a2.39,2.39,0,0,0,3.36,1,2.21,2.21,0,0,1,2.07-.17c1,.39,1.58,0,1.59-1a4.8,4.8,0,0,0-.19-1.49c-.51-1.72-1.07-3.43-1.65-5.37a1.2,1.2,0,0,0-1.15-1.39,3.14,3.14,0,0,0-3.5,3.92,1.8,1.8,0,0,1-.17,1.46A3,3,0,0,0,15.36,101.35Zm-2.27.68c.58-.26.46-1,.1-1.68-.62-1.23-.78-2.33,0-3.36a2.2,2.2,0,0,0-.08-2.12,42.51,42.51,0,0,0-3.38-3.62c-.44.85-.56,1.61-1,2-1,.7-.7,1.64-.3,2.72q.88,2.39,1.69,4.8c.2.57.23,1.27,1,1.4A3.74,3.74,0,0,0,13.09,102Zm6.23,10.66c0-.15-.11-.34-.16-.52-.34-1.12-.75-2.24-1-3.36s-.16-2-.39-3.08c-.1-.48-.6-1.3-.92-1.38a5,5,0,0,0-2.76-.12c-1,.43-1,1.7-.39,2.73.13.23.27.62.17.75-.55.69,0,1.4.44,2.08s.86,1.15,1.18,1.57A5.19,5.19,0,0,0,15,113a19.67,19.67,0,0,0,.47,2.41c.15.85-.5,2.11,1.44,2,.05,0,.13.08.19.12,1.13.67,1.48.64,1.67-.39C19,115.67,19.16,114.17,19.32,112.69Zm3.19,45.89c-.06.88,0,1.5.91,1.49s1.72-.77,1.58-1.45a4.29,4.29,0,0,1,.76-3.28,4,4,0,0,1,1.78-1.88A2.32,2.32,0,0,0,29,151a2,2,0,0,0-.86-1.36c-.28-.17-1,.08-1.31.35a4.45,4.45,0,0,0-1.2,1.52c-.89,1.89-1.77,3.83-2.7,5.76A8.68,8.68,0,0,0,22.51,158.58Zm-.12,5.67a15.14,15.14,0,0,1-1.68-1.72c-.51-.68-1.05-.63-1.4.11-.59,1.23-1,2.53-1.51,3.82-.06.17.07.4.15.58.43.9,1.21.91,2.63,0a11.18,11.18,0,0,0,.47,1.64c.16.34.48.76.79.76s.75-.5,1-.85A3.21,3.21,0,0,0,22.39,164.25Zm3.28-1.74a4.47,4.47,0,0,0,4.08-3.69c.17-.64,0-1.52,1.1-1.64.11,0,.35-.51.29-.7a13.83,13.83,0,0,0-.71-1.85c-.23-.54-.57-.54-1-.16a3.74,3.74,0,0,0-1.57,2.67,1.21,1.21,0,0,1-.25.78c-.84.74-1.73,1.43-2.62,2.11-.49.37-1.06.63-.85,1.37A1.4,1.4,0,0,0,25.67,162.51Zm-.32,9.4c-.11.82-.25,1.5-.28,2.16a5.2,5.2,0,0,0,.2,1.18,8.61,8.61,0,0,0,1.48-.76,2.06,2.06,0,0,0,.6-1,13.7,13.7,0,0,0,.26-7.49c-.12-.48-.42-.75-1-.36a7.63,7.63,0,0,0-3.13,5.47C23.47,172.55,23.69,172.68,25.35,171.91Zm-8,18.7c0,1.25,1.17,1.7,2.84,1a2.48,2.48,0,0,1,2.16-.17c.82.4,1.6,0,2.11-1a5.75,5.75,0,0,0,.56-1.49c.33-1.72.62-3.43,1-5.37.22-.52.51-1.21-.51-1.39-2.05-.36-4.93,1.78-5.35,3.92a2.72,2.72,0,0,1-.89,1.46A4.63,4.63,0,0,0,17.39,190.61Zm-2.61.68a1.61,1.61,0,0,0,.93-1.67,4,4,0,0,1,1.66-3.37,2.82,2.82,0,0,0,.94-2.12,20,20,0,0,0-1.72-3.62,11.06,11.06,0,0,1-1.92,2,2.9,2.9,0,0,0-1.58,2.72c-.18,1.59-.41,3.19-.66,4.8-.1.57-.42,1.28.29,1.4A3.92,3.92,0,0,0,14.78,191.29ZM15.66,202c.09-.14.05-.34.09-.51a33,33,0,0,1,.69-3.37c.3-1,.87-2,1.16-3.08.14-.47.06-1.3-.22-1.37a4.61,4.61,0,0,0-2.7-.13,2.82,2.82,0,0,0-1.78,2.73,1,1,0,0,1-.2.75,1.82,1.82,0,0,0-.61,2.08,11.85,11.85,0,0,0,.4,1.57,8.93,8.93,0,0,0-1.31,1.63,20.09,20.09,0,0,0-.69,2.41c-.25.85-1.5,2.11.51,2,.05,0,.08.09.13.13.82.66,1.18.63,1.85-.4C13.93,204.94,14.77,203.44,15.66,202Zm1,19a4,4,0,0,0,.11-1.48c-.12-.37-.63-.57-1-.83-.86-.62-.76-1.3.32-1.86a7.18,7.18,0,0,1,1.16-.46c.63-.2,1-.05,1.14.6a11.69,11.69,0,0,0,.95,2.47.94.94,0,0,0,.81.43c.19,0,.53-.45.59-.71a1.72,1.72,0,0,1,1.05-1.34,1.3,1.3,0,0,0,.53-1c-.16-.88-.48-1.71-.72-2.55-.15-.52-.43-.74-1.1-.59a1.11,1.11,0,0,1-1-.4,1,1,0,0,0-1.51-.55,15.25,15.25,0,0,1-1.53.25c-.56.15-1.32.25-1.64.63-1,1.19-2.7,2.1-2.37,3.91,0,.1-.12.26-.2.37-.71,1.08-.66,1.24.47,1.44.2,0,.38.12.62.19-.06.45-.12.85-.19,1.42l1.3-.59a4.42,4.42,0,0,0,1.06.68A4.16,4.16,0,0,0,16.7,220.93Zm4.78,8.91c-.43-.7.35-2.16-1.3-2.11-1.18,0-1.54-.55-1.34-1.75a6.74,6.74,0,0,0,.17-.75c.09-.78,0-1.48-.93-1.59s-1.65.79-1.78,1.56a3.76,3.76,0,0,1-.52,1.41c-.88,1.28-.61,2.11.67,2.58.25.38.41,1,.77,1.12a22,22,0,0,0,2.93.87.46.46,0,0,0,.4-.07C20.9,230.69,21.58,230,21.48,229.84Zm3-4.68a13.12,13.12,0,0,1-.5-2c0-1.32-1.17-1.62-1.94-2.21a11,11,0,0,0-1.54,1.34,7,7,0,0,0-.74.7c-.43.57-.58,1.23,0,1.6.31.2.87,0,1.55,0,.06.61.14,1.44.22,2.13.83-.13,1.47-.24,2.11-.32C24.51,226.32,24.61,225.77,24.49,225.16Zm8.58-4.06a2.2,2.2,0,0,0-3.08.37,11.84,11.84,0,0,0-1.42,2c-.14.24-.2.77-.06.86a1.72,1.72,0,0,0,1,.13c.33,0,.79-.28,1-.15.55.38.93.09,1.17-.34C32.15,223.06,32.57,222.1,33.07,221.1Zm9.65-.63c-.17-1,.36-2.18-.66-2.83.42-.81.36-2.48-.19-2.89s-1.25.29-1.84.65c-.06,0-.14.11-.2.11-1.59,0-2.07,1.34-2.74,2.43a20.63,20.63,0,0,1-1.79,2.63c-.89,1-1,2.65,0,3.32a1.65,1.65,0,0,0,1.45.11c.34-.2.53-.87.64-1.35s-.06-1,0-1.48c.16-.91,1.33-2,2-2s1,1.11.81,2.21a6.33,6.33,0,0,0-.05,1.15c0,.9.49.79,1.06.4C42.08,222.35,43,221.88,42.72,220.47Zm.78-9.23a4.29,4.29,0,0,0-.33,1.07,3.58,3.58,0,0,0,1.23-.09,9.29,9.29,0,0,0,3.27-4.33.39.39,0,0,0-.05-.29c-.53-.47-1.07-.92-1.61-1.38l-.29.24a4.27,4.27,0,0,0-.12.7,4,4,0,0,1-1.1,2.76A8.34,8.34,0,0,0,43.5,211.24Zm-.1-8.47a3,3,0,0,0-2.21,1.92,2.15,2.15,0,0,0-.22.85,2.71,2.71,0,0,1-1,2.19,9.33,9.33,0,0,0-1.7,2.84c-.36.87-.12,1.65.87,1.84a1.83,1.83,0,0,0,2.15-1.28c.44-1.14.73-2.32,1.13-3.58a11.69,11.69,0,0,0,1.5-.66,2.58,2.58,0,0,0,1.21-2.62A1.59,1.59,0,0,0,43.4,202.77Zm.91-6.61a10.13,10.13,0,0,0,1.39-2.64c.11-.29-.25-.84-.56-.93a1.87,1.87,0,0,0-1.35.39,5.32,5.32,0,0,0-2.24,5.23c.22,1.27.39,1.62,1.78,1.83l1.89-1-.82-1.3s0,0-.08,0C43.72,197.34,43.71,196.93,44.31,196.16Zm7.18-9.2a27.29,27.29,0,0,0,.21-4.5c0-.18-.17-.34-.31-.45a15.91,15.91,0,0,1-1.53-1.13,4.11,4.11,0,0,0-3.73-1.17,2.8,2.8,0,0,0-1,.47,9.3,9.3,0,0,1-1.72,1.09,3.72,3.72,0,0,0-1.85,1.06c.31-1.28.47-1.92.76-3.19a3.34,3.34,0,0,0,.36-1,10.2,10.2,0,0,1,.93-2.88,1.29,1.29,0,0,0-.13-1.36c2.14-10.23,3-15.34,2.83-25.57a1.2,1.2,0,0,0,.85.3A18.68,18.68,0,0,0,50,147.44c.85-.52.73-1.21-.15-1.73-1.61-1-3-.43-3.52,1.17-.07-2-.14-2.93-.31-4.89a1.71,1.71,0,0,0,1.8,1.09c1-.12.77-.94.82-1.65a1.8,1.8,0,0,1,.56-1.28,1.18,1.18,0,0,0,.43-1.86c-.51-.8-2.13-1.5-2.49-1s-1.08.8-1.48,1.3c-.47-3.86-.79-5.79-1.54-9.65.14-.11.29-.24.46-.4a2.22,2.22,0,0,0,.69-1.91,9.34,9.34,0,0,0-1.43-2.88,2.84,2.84,0,0,0-1-.94c-.18-.83-.28-1.25-.47-2.08a1.55,1.55,0,0,0,.85-.25c1.86-1.65,1-6.42-1.59-8.46a3.19,3.19,0,0,0-1,1.75l-.35-1.36a.72.72,0,0,0,.1-.24,3.08,3.08,0,0,0-.51-2.37.85.85,0,0,0-.31-.25c-.16-.61-.23-.91-.39-1.52.66.12,1.12-.17,1.1-.78a12.77,12.77,0,0,0-.46-3.27,8.5,8.5,0,0,0-2.63-3.9c-.46-1.89-.69-2.83-1.12-4.73a8.14,8.14,0,0,0,1.41,2.1,4.1,4.1,0,0,0,2.39,1.17c1,.06,1.21-1,1.58-1.64l-1.7-1.2.16-.45a8.67,8.67,0,0,1,2.16.47,8.21,8.21,0,0,1,1.53,1.34c.75.62.76,1.08.2,1.58-.24.22-.49.74-.35,1a2.5,2.5,0,0,0,1.19.86c2,.57,3.64-.88,3-2.86a45.12,45.12,0,0,0-1.93-4.5,1.25,1.25,0,0,0-.53-.45c-.67-.39-1.4-.69-2-1.14a5.7,5.7,0,0,0-4.25-1.16,1.7,1.7,0,0,0-.76.47c-.42.36-.72.9-1.22,1.09-.77.3-1.22.58-1.37,1.06l-.3-1.38a8.93,8.93,0,0,0-.42-1.45,3.18,3.18,0,0,0,0-1.34A8.42,8.42,0,0,1,34.57,86a1.85,1.85,0,0,0-1.78-1.81,2.93,2.93,0,0,0-1.55,1.29,5.09,5.09,0,0,0-3.18-1.21,4.11,4.11,0,0,0-3.59,2,7,7,0,0,0-.75,1.4,10.56,10.56,0,0,0-2.92-4,1.68,1.68,0,0,0-1.15,2.19,4.72,4.72,0,0,1-.37,2.05c-.16.51-.58.92-.63,1.44a1.82,1.82,0,0,0,.56,1.31,2.45,2.45,0,0,0,3.2.11,7.59,7.59,0,0,0,.88-1.07,8.2,8.2,0,0,0,.17,2c.19.88.28,1.32.48,2.21l-.21,0c-.88.12-.91.76-.64,1.4a51.67,51.67,0,0,0,2.36,5c.35,1.46.54,2.19.9,3.65a2.78,2.78,0,0,1-.83-.76,1.27,1.27,0,0,0-2.13.16c-.51.85-.4,2.22-2,2.2-.36,0-.71.65-.78,1.11a18,18,0,0,0-.08,2.66,3.69,3.69,0,0,0,2,2.5,1.68,1.68,0,0,0,2.17-.41,1.83,1.83,0,0,0,.16-2.71.72.72,0,0,1-.05-.73,1,1,0,0,1,.84-.14,2,2,0,0,1,1.45,2.32c-.12,1,.27,1.48,1.25,1.59l.68,2.7a.72.72,0,0,0-.19.24c-.42,1.09-1.17,1.24-2.39.43-.46-.31-.87-.73-1.32-1.07-1-.79-1.57-.74-2.1.12a.68.68,0,0,1-.47.27,1.2,1.2,0,0,0-1.06,1.43c.08,1.17.17,2.34.36,3.52a3,3,0,0,0,2.46,2.08c.81,0,1.31-1,1.06-2,0-.13,0-.26-.07-.43.76-.09,1.73-.51,2.13-.19a2.85,2.85,0,0,0,2.78.49c.66,2.77,1,4.16,1.55,6.94-.31-.46-.64-.92-1-1.38a1.11,1.11,0,0,0-1.32-.59,1.57,1.57,0,0,1-1.2-.4c-.59-.62-1.05-.87-1.74-.55a12.54,12.54,0,0,1-1.43.24c-.5.15-1.22.25-1.39.64-.52,1.19-1.86,2.1-.9,3.91.05.1,0,.25-.06.37-.35,1.08-.25,1.24.95,1.44.2,0,.41.12.67.19.09.45.16.85.26,1.42l1.12-.59a6.75,6.75,0,0,0,1.26.67,3.89,3.89,0,0,0,1.18,0,4.17,4.17,0,0,0-.35-1.48,4,4,0,0,0-1.25-.83c-1.07-.62-1.21-1.3-.33-1.86a4.8,4.8,0,0,1,1-.46c.55-.2,1-.06,1.35.6a21.55,21.55,0,0,0,1.79,2.47,1.34,1.34,0,0,0,1,.42c.18,0,.39-.44.36-.71a1.17,1.17,0,0,1,.5-1.26c.3,1.52.44,2.28.7,3.79-.18.24-.37.49-.52.67a4,4,0,0,0-.55.7,1.1,1.1,0,0,0,.42,1.6,2.25,2.25,0,0,0,1.13.06c.19,1.25.28,1.88.43,3.14a1.64,1.64,0,0,0-.52-.05c-1.17,0-1.63-.56-1.68-1.76,0-.25,0-.49,0-.74-.09-.78-.39-1.48-1.31-1.59s-1.45.78-1.41,1.56a3,3,0,0,1-.22,1.4c-.62,1.28-.23,2.12,1.12,2.59.31.38.55,1,.93,1.12a26.07,26.07,0,0,0,3,.87.48.48,0,0,0,.4-.07v0c.15,1.61.21,2.41.28,4l-1.26-.54c-.66-.31-1.34-.6-2-1a9.59,9.59,0,0,1-1.1-.84c-1.25,0-2.83,1.19-2.93,2a3.15,3.15,0,0,0,.19,1.15c.09.31.33.6.34.91.05,1.25.86,1.43,1.77,1.23,1.44-.33,3.26.27,4.17-1.44,0,0,.06,0,.09-.06l.75-.64c0,1.38.07,2.08.07,3.46a4.72,4.72,0,0,0-1.48,1.21,10.83,10.83,0,0,0-.91,2.64c-.07.24,0,.68.1.75a1.08,1.08,0,0,0,.88,0,5.32,5.32,0,0,0,1.33-1c-.08,2-.16,3-.34,5a26.64,26.64,0,0,0-1.67,2.28c-.69,1.1-1.25,2.26-2.78,2.59a2.53,2.53,0,0,0,3.85.14c-.06.48-.1.72-.17,1.2-.83.08-1.67.23-2.51.34l-1.54.22a4.11,4.11,0,0,0,3.33,3.78c-.38,2.08-.59,3.12-1,5.19a4,4,0,0,0-.86-1.4,2.65,2.65,0,0,0-2,2.19,6.39,6.39,0,0,1-1.2,2,16,16,0,0,0-1.23,1.44,1.46,1.46,0,0,0,0,1.32,2.37,2.37,0,0,0,3.16.1c.36-.25.71-.53,1.05-.82-.37,1.58-.56,2.38-.95,4l-.24.05a1.37,1.37,0,0,0-1.29,1.39,46.77,46.77,0,0,0-.09,5l-.92,3.65a1.31,1.31,0,0,1-.45-.75c-.21-.8-1.39-.6-2.22.15s-1.51,2.22-3.08,2.2c-.36,0-1,.65-1.34,1.11a28.33,28.33,0,0,0-1.42,2.66c-.14,1.06-.2,2,.71,2.5a2.11,2.11,0,0,0,2.38-.41c1-.72,1.83-1.5,1.5-2.71a.93.93,0,0,1,.32-.73,1.2,1.2,0,0,1,.91-.13c.9.36,1,1.19.29,2.31s-.47,1.48.46,1.6c-.26,1.08-.39,1.62-.64,2.7a1.14,1.14,0,0,0-.3.23c-.94,1.09-1.76,1.24-2.6.44a12.05,12.05,0,0,1-.8-1.08c-.65-.79-1.22-.74-2.16.12a1.22,1.22,0,0,1-.6.27,2.2,2.2,0,0,0-1.74,1.43A34.49,34.49,0,0,0,15,208.69a1.71,1.71,0,0,0,1.54,2.08,2.48,2.48,0,0,0,1.95-2c0-.13.08-.27.12-.44.81-.09,2-.51,2.22-.19.7.88,1.6.66,2.57.49a7.38,7.38,0,0,0,0,2.65c-.31.76-.28,1.46.53,1.74l.11,0q.2.34.42.69a3.84,3.84,0,0,0,2.21,1.6c-.66.81-1.38,1.59-2,2.42-.21.29-.35,1-.22,1.09.95.58.66,1.87,1.36,2.56.19.19.36.54.58.53a1.87,1.87,0,0,0,1.17-.36,4.85,4.85,0,0,0,.81-1.12,7.19,7.19,0,0,1-.23-2.39c.13-.52.82-1,1.33-1.45,1.51-1.24,1.77-1.16,2.22.53.51,1.88.56,2,2.38.71a3.5,3.5,0,0,0,1.38-1.92,7.79,7.79,0,0,0-.31-2.88,1.78,1.78,0,0,0-1.32-1.29,10.3,10.3,0,0,0,.91-1.7,2.67,2.67,0,0,0,1.15-.28c2.58-1.65,3.91-6.41,2.37-8.46a6.35,6.35,0,0,0-1.81,1.76c.13-.55.19-.83.32-1.37a2.34,2.34,0,0,0,.22-.23,3.28,3.28,0,0,0,.67-2.38.43.43,0,0,0-.19-.24c.15-.61.22-.92.37-1.53a1.34,1.34,0,0,0,1.49-.78,15.23,15.23,0,0,0,1.2-3.27,5.1,5.1,0,0,0-.68-3.9c.48-1.89.72-2.83,1.19-4.72a5.37,5.37,0,0,0,.4,2.09,2.29,2.29,0,0,0,1.82,1.17c1,.06,1.68-1,2.38-1.64l-1.12-1.2.37-.45a6.73,6.73,0,0,1,1.94.47c.44.26.57.91.88,1.34.45.62.24,1.09-.57,1.59-.35.21-.86.74-.82.94a1.2,1.2,0,0,0,.76.86A3.73,3.73,0,0,0,51.49,187Zm5.39-20.78a7.55,7.55,0,0,0-.08-1.58c-.17-1-.54-2,.12-3.16a1.91,1.91,0,0,0-.33-1.88c-.57-.52-1.43-.23-2.18.33a6.05,6.05,0,0,0-2.17,5.81c.37,1.35.77,1.45,2,.44a1.5,1.5,0,0,1,.13.48c0,.84.39,1.2,1.25,1.06A1.43,1.43,0,0,0,56.88,166.18Zm2.76-11a2.08,2.08,0,0,0,2.14-1.93,1.94,1.94,0,0,0-1.92-2.13,2.14,2.14,0,0,0-2.12,1.95A1.93,1.93,0,0,0,59.64,155.18ZM26.37,232.49h.19q.77,0,1.53-.06c0-.2,0-.41-.05-.63C27.26,231.74,26.65,231.84,26.37,232.49Zm31.21-5.08a2.29,2.29,0,0,0-.55-1.83,6.17,6.17,0,0,1-.88-1.36c-.19,2.12-.26,3.19-.34,5.31a3.1,3.1,0,0,1,.52,1.16h2C57.07,229.62,57.05,229.08,57.58,227.41Zm41.16-52.69c-.15.73-.23,1.09-.4,1.82A7.54,7.54,0,0,0,98.74,174.72Zm5.6,55.8a1.51,1.51,0,0,0,.1.17h-3l0-.79a22.92,22.92,0,0,0,0-2.62,5.75,5.75,0,0,0-.34-1.53c-.21-.58-.52-1.12-.76-1.69-.68-1.64-2-2.44-4.3-1.37-1,.47-2,1-3.18.61a2,2,0,0,0-2.41,2.45,8.63,8.63,0,0,0,.7,1.67c-.16.43-.48.89-.42,1.26A2.36,2.36,0,0,0,93,230.36a1.53,1.53,0,0,0,1.08-.5c.16-.25-.07-.74-.07-1.13a5.4,5.4,0,0,1,.14-1.61c0-.13.66-.15,1-.18a3.42,3.42,0,0,0,1,0c1.07-.41,1.62-.08,1.79,1a2.93,2.93,0,0,0,.35.72c-1.31.54-1.75,1.11-1.47,2h-9c0-.91,0-1.37.08-2.29a2,2,0,0,0,1.17-.15,1.45,1.45,0,0,0,.66-1c0-1-.11-2-.09-3s-.37-1.32-1.31-1.38c.24-2.28.4-3.43.75-5.71a3.32,3.32,0,0,0,1.19-.43,25,25,0,0,0,2.46-2.17c.5-.45,1-.89,1.33-1.16a12.45,12.45,0,0,1,1,1.64,4.74,4.74,0,0,1,.36,1.8c0,.23-.72.49-.84.81a4.17,4.17,0,0,0-.34,1.84c0,.22.69.46,1.06.41A3.73,3.73,0,0,0,98,217.6c.31-.61.5-1.26.84-1.85.75-1.31,1.35-2.83.51-3.77s-2.2-1-3.33-1.53c0,0-.09,0-.11,0-.35-.15-.83-.21-1-.49-.93-1.44-1.47-1.51-3.19-.17-.3-.64-.68-1-1.14-1.08.25-1.22.38-1.82.66-3,.24-.14.46-.27.66-.41a.68.68,0,0,0,.09-.66,1.46,1.46,0,0,1-.36-.68c1.06-4.57,1.65-6.86,2.81-11.44a1,1,0,0,0,.12.16c.76.85,1.9.6,2.75-.59a8.86,8.86,0,0,0,1.42-4.87,10.13,10.13,0,0,0-.09-1.46l-.43-.06c-.92,1-1.88,2-2.79,3,.48-1.92.72-2.87,1.19-4.78a2.26,2.26,0,0,0,1.82-.74,8.54,8.54,0,0,0,3-6,1,1,0,0,0-.22-.75c-.79-.86-.62-2-.28-3.16.4-1.42.25-2.62-1-3.33a1.67,1.67,0,0,1-.16-.12c.39-2.12.57-3.18.89-5.3a2.86,2.86,0,0,1,.44,2c-.15.91.15,1.33,1,1.39s1.3-.46,1.52-1.22c.18-.61.12-1.33.46-1.8a3,3,0,0,0-.22-4.11,10.5,10.5,0,0,0-2.52-1.92c.26-2.62.35-3.93.42-6.55h-.24c-.14-.29-.35-.58-.49-.88l-.77.88H95.94l-.42-.67a2.92,2.92,0,0,0-.62.65v0H86.53c-.07,2.29-.14,3.44-.34,5.73a9.11,9.11,0,0,0-.2-1.57c-.1-.46-.63-1.09-1-1.11a4.09,4.09,0,0,0-3.42,1.14,2,2,0,0,0-.36,2.4c.23.41.47.81.87,1.51-.85-.25-1.4-.39-1.94-.57a2.07,2.07,0,0,0-2.4.55,2,2,0,0,0-.34,2.41c.28.69.58,1.36.8,1.88a7.29,7.29,0,0,0-1,1.61c-.22.86-.62,1.42-2,1.58.52.6.78,1.25,1.19,1.28a2.47,2.47,0,0,0,1.87-.62A5.91,5.91,0,0,1,82.05,166c.65-.21,1-.42,1.1-1.07a6.53,6.53,0,0,1,2.07-3.67A3.33,3.33,0,0,0,86,160c-.26,2.43-.43,3.65-.82,6.08-.86.63-.72,1.49-.72,2.28a3.37,3.37,0,0,0,.16,1l-.3,1.57a2,2,0,0,1-1.54,1c-.19,0-.33-.23-.49-.37a5,5,0,0,0-1.29-1,17.24,17.24,0,0,0-2.31-.52,2,2,0,0,0-2.53,1.72c-.43,2.28.57,3.41,2.88,3.2,1.43-.13,1.94.23,2.11,1.55.07.54,0,1.11.1,1.65a2.77,2.77,0,0,0,.33,1.34,1.52,1.52,0,0,0,.8.43c-1.25,5.32-2,8-3.31,13.29a5,5,0,0,0-1,3.8c-.64,2.57-1,3.86-1.55,6.43a2,2,0,0,0-.51-1.36,1,1,0,0,1-.23-1.25,2.23,2.23,0,0,0-.59-2.6.73.73,0,0,0-.61-.22,3.17,3.17,0,0,0-2.41,3.37,5.28,5.28,0,0,0,.81,1.75c.71,1.07,1.64,2,1.57,3.53,0,.17.2.31.31.45A3.78,3.78,0,0,0,76,205.7c-.87,3.88-1.27,5.82-1.92,9.71-.18,1.11-.27,1.66-.43,2.77a1.14,1.14,0,0,0-.68,0c-.36.11-.63.65-1,1.06a13.83,13.83,0,0,0,1,3.07l.08.08c0,.36-.06.54-.09.9a.23.23,0,0,1-.07-.07,3.46,3.46,0,0,0-1.46-1c-.51-.15-1.37-.21-1.53.63a14.54,14.54,0,0,0-.28,3.65,1.8,1.8,0,0,0,2,1.8,1.33,1.33,0,0,0,1-.39c-.06,1.12-.08,1.68-.1,2.8H67.4s0,0,0,0a1.59,1.59,0,0,1-.3-1.91c-.14-.78-.23-1.6-.43-2.38a1.05,1.05,0,0,0-.73-.61c-.24,0-.79.24-.8.38-.08,1-.85,1.56-1.35,2.3a2.1,2.1,0,0,0-.12,1.64,3,3,0,0,0,.28.6H59.56a1.16,1.16,0,0,0,0-.37,10.38,10.38,0,0,1,.66-5.83c1,.12,2,.48,2.69-.88a11.63,11.63,0,0,0,1.62,1.27,1.63,1.63,0,0,0,1.28.09,1.32,1.32,0,0,0,.44-1.1,9.3,9.3,0,0,0-.66-2c-.64-1.59-1.36-1.92-3.09-1.67a2.76,2.76,0,0,1-1.31-.3,32.51,32.51,0,0,0-3.37-1.36,1.23,1.23,0,0,0-1,.12c.24-1.71.38-2.56.67-4.27a7.35,7.35,0,0,0,.86,1.09,1.06,1.06,0,0,0,.91.27,23.94,23.94,0,0,0,3.12-1c1.58-.67,1.93-1.47,1.65-3a16.29,16.29,0,0,1-.2-3A1.68,1.68,0,0,0,62.58,207c-.93,1.29-1.84,2.56-2.93,4.12l-1.09-2.29c.46-2.17.7-3.26,1.21-5.43l.92-.47c.15.4.26.74.41,1.06a5.59,5.59,0,0,0,.57,1c.63.85,1.75.65,2.4-.46a5.58,5.58,0,0,0,.65-1.8,5.09,5.09,0,0,0-.85-3.94c-1-1.56-1.72-1.64-3-.13.28-1.14.42-1.71.71-2.86a1.7,1.7,0,0,0,.57-.83,5.34,5.34,0,0,1,1.1-2.6c.34-.53-.07-1.39-.25-2.16,1.17-4.61,1.77-6.91,2.83-11.52q1.67-2.82,3.23-5.65a2.82,2.82,0,0,0,.36-2.77,24,24,0,0,0-1.87,1.51l-.29.33c.25-1.26.37-1.89.59-3.14L68,169c.08.15.1.35.23.43a.7.7,0,0,0,.56.08.8.8,0,0,0,.35-.51,25.73,25.73,0,0,0,.06-3.92,3.18,3.18,0,0,0-.44-1.25,89.61,89.61,0,0,0,1-9.9c.11.62.39,1.15,1.09,1.17.5,0,1.07-.77,1.6-1.21a1.31,1.31,0,0,0,.17-.28c1.09-1.94,1.06-1.94-1-2.29l-.21,0c-1-.17-1.38-.14-1.56.32,0-1,0-1.48,0-2.47.15-.77.27-1.53.39-2.3a5.78,5.78,0,0,0-.48-1c-.08-1.47-.13-2.2-.26-3.67a7.18,7.18,0,0,0,.8,0,6.73,6.73,0,0,0-1-1.88c-.22-2.13-.37-3.19-.69-5.31a8.72,8.72,0,0,0,1.19,1.36,2.71,2.71,0,0,1,.93,1.83c-.24,1.79-.15,2.27,1.47,3.51a4.05,4.05,0,0,0,.94.35,2.77,2.77,0,0,0,0-.95,12.62,12.62,0,0,1-.4-5.83c1,.12,2.13.48,2.46-.88a17.41,17.41,0,0,0,1.93,1.26,1.67,1.67,0,0,0,1.3.1c.24-.12.33-.77.19-1.1a11.16,11.16,0,0,0-1.2-2c-1.09-1.58-1.94-1.92-3.59-1.66a3.39,3.39,0,0,1-1.4-.31c-1.27-.44-2.53-1-3.81-1.36a1.13,1.13,0,0,0-1,.13c-.33-1.71-.5-2.56-.87-4.27A14.85,14.85,0,0,0,68,126.23a1.44,1.44,0,0,0,1,.27,15.47,15.47,0,0,0,2.75-1c1.33-.66,1.37-1.46.47-3a25.18,25.18,0,0,1-1.5-3,3,3,0,0,0-2.09-1.88c-.33,1.29-.67,2.56-1.1,4.12l-2.08-2.29c-.52-2.17-.79-3.26-1.33-5.44l.7-.46c.34.39.62.74.92,1.06a12.59,12.59,0,0,0,1,1c1,.84,2.07.65,2.19-.46a4.71,4.71,0,0,0-.22-1.8,8.52,8.52,0,0,0-2.8-4c-1.83-1.55-2.54-1.64-3-.12l-.73-2.86a1.08,1.08,0,0,0,.15-.83,4.22,4.22,0,0,1-.22-2.6c.08-.53-.77-1.4-1.33-2.16-1.13-4.61-1.68-6.91-2.6-11.52.31-1.88.62-3.76,1-5.65A3,3,0,0,0,58.56,81a13,13,0,0,0-1.35,1.51,3.47,3.47,0,0,0-.18.33c-.2-1.26-.29-1.89-.45-3.15l.09.09c.13.14.22.35.37.43a.78.78,0,0,0,.58.08.54.54,0,0,0,.19-.51c-.33-1.31-.58-2.65-1-3.92a4.09,4.09,0,0,0-.73-1.25c-.16-2-.22-3.06-.27-5.1h1.3a2.33,2.33,0,0,0,2.74,2.19c.22.34.35.82.62.92a12.19,12.19,0,0,0,2,.49,7.33,7.33,0,0,0,.08-1.55A18.65,18.65,0,0,0,62,69.49h5.61a1.39,1.39,0,0,1,.06.13c.28.41.58.81,1.08,1.51-.89-.25-1.46-.4-2-.57a1.91,1.91,0,0,0-2.33.55,2,2,0,0,0,.09,2.41c.43.68.88,1.36,1.22,1.88A5,5,0,0,0,65.12,77c0,.86-.23,1.42-1.52,1.58.7.59,1.15,1.25,1.58,1.28.6,0,1.56-.22,1.68-.62.46-1.55,1.76-2,3.06-2.48.59-.21.89-.42.83-1.07A4.83,4.83,0,0,1,72.06,72a2.87,2.87,0,0,0,.56-1.28c.1,2.43.19,3.65.44,6.08-.69.63-.32,1.49-.08,2.28a4.5,4.5,0,0,0,.46,1c.08.62.13.94.22,1.57a1.32,1.32,0,0,1-1.19,1c-.18,0-.41-.24-.61-.37a9,9,0,0,0-1.65-1.06c-.81-.28-1.66-.32-2.49-.52-1.35-.31-2.16.38-1.94,1.72a3.45,3.45,0,0,0,4,3.21,2.36,2.36,0,0,1,2.74,1.54c.29.55.49,1.12.79,1.66a4,4,0,0,0,.91,1.34,2.55,2.55,0,0,0,1,.43C76.34,96,77,98.63,78.34,104a5,5,0,0,0,1,3.8c.66,2.57,1,3.85,1.63,6.42a3.51,3.51,0,0,0-1.17-1.35,1.53,1.53,0,0,1-.84-1.25A3.7,3.7,0,0,0,77,109a1.14,1.14,0,0,0-.71-.21c-1.33.35-1.71,2-.74,3.37a11,11,0,0,0,1.67,1.75c1.23,1.07,2.6,2,3.25,3.53.07.17.33.3.51.45a2.15,2.15,0,0,0,.48-1.42c1,3.89,1.42,5.83,2.23,9.72.24,1.1.35,1.66.56,2.76a1.34,1.34,0,0,0-.68,0c-.32.12-.41.66-.64,1.07a23.84,23.84,0,0,0,2,3.07l.11.08c.06.36.09.54.14.9l-.08-.07a5,5,0,0,0-1.73-1c-.56-.15-1.42-.2-1.36.64a20.85,20.85,0,0,0,.58,3.65,2.28,2.28,0,0,0,2.3,1.8c1.2,0,1.3-.91,1.18-2.08l2.11.94c.8.34,1.41.24,1.78-.52a1.66,1.66,0,0,0,.07-1.47h1.64a16.1,16.1,0,0,0,0,2.08c0,.38.56,1.11.79,1.1,1,0,1.22.52,1.25,1.27a3,3,0,0,1,2.21,3.72c-.59-.26-1.12-1.07-1.8-.15a2.31,2.31,0,0,0,.41,3.47,33.91,33.91,0,0,0,3.18,2c.75.43,1.53.42,1.89-.49.5-1.25,1.54-2.4.73-3.94-.07-.16,0-.42.1-.62a3.53,3.53,0,0,0-.7-3.09,1.89,1.89,0,0,0-2.13-1,1.27,1.27,0,0,1-1.48-1.08A6.37,6.37,0,0,0,94,135.89h4.85a1.41,1.41,0,0,0,0,.2,1.29,1.29,0,0,0,.67.9,1.08,1.08,0,0,1,.8,1.16c0,.32.31.88.53.94a2.08,2.08,0,0,0,1.4-.1,1.14,1.14,0,0,0,.47-1c-.15-1-.51-2-.74-3a1.58,1.58,0,0,0-1.66-1.37c-.37-2.29-.58-3.43-1-5.71a2.38,2.38,0,0,0,1-.43,13,13,0,0,0,1.63-2.17c.33-.45.67-.89.88-1.16a19,19,0,0,1,1.68,1.64,6.16,6.16,0,0,1,1,1.8c.08.23-.54.49-.55.81a4.22,4.22,0,0,0,.28,1.84c.09.22.83.46,1.18.4a2.34,2.34,0,0,0,2-2.24c.1-.61.06-1.26.18-1.86.26-1.3.26-2.82-1-3.76s-2.64-1-4-1.53c0,0-.07,0-.1,0a3.78,3.78,0,0,1-1.23-.5c-1.55-1.44-2.12-1.51-3.26-.16a2.88,2.88,0,0,0-1.62-1.08c-.29-1.22-.43-1.83-.73-3a3.25,3.25,0,0,0,.47-.42c.08-.08-.06-.54-.22-.65a2.74,2.74,0,0,1-.68-.68c-1.15-4.57-1.75-6.86-2.9-11.44l.19.16c1.19.85,2.21.6,2.46-.59.34-1.6-.33-3.24-1-4.87a13,13,0,0,0-.8-1.46l-.46-.07c-.44,1-.92,2-1.33,3-.46-1.91-.69-2.86-1.12-4.78a1.4,1.4,0,0,0,1.47-.74c1.19-1.69,1-3.75.34-5.94a1.57,1.57,0,0,0-.52-.75A4,4,0,0,1,91.07,84,3.7,3.7,0,0,0,88.9,80.7a2.12,2.12,0,0,1-.2-.12c-.29-2.12-.41-3.18-.59-5.31a3.78,3.78,0,0,1,.93,2,1.35,1.35,0,0,0,1.41,1.39c.91.07,1.17-.47,1.18-1.23,0-.6-.23-1.32,0-1.8.79-1.64.09-3-1-4.11a14.69,14.69,0,0,0-2.79-1.92v-.08h4.5c.34.77.83,1.32,1.8,1.08a1.52,1.52,0,0,0,1.07-1.08h2a10.79,10.79,0,0,0-.22,1.16c.06.88.23,1.5,1.13,1.49s1.6-.77,1.37-1.45a3.55,3.55,0,0,1-.2-1.2h2.88a.81.81,0,0,1-.16.5c-.75.74-1.54,1.43-2.33,2.11-.42.37-1,.63-.6,1.37a1.77,1.77,0,0,0,1.75,1.11c1.88,0,3.17-1.46,3.43-3.69.06-.47-.06-1.06.3-1.4h.09c.08,3.17.2,4.76.54,7.92h0l0,.09a114.78,114.78,0,0,0,2,12.46,1.66,1.66,0,0,0-.26.7,1.85,1.85,0,0,0,.57,1.32l.12.08.5,2.29a2,2,0,0,0-.43-.12,3.13,3.13,0,0,0-3.48,3.92,1.76,1.76,0,0,1-.16,1.46,3,3,0,0,0-.35,3.06,2.39,2.39,0,0,0,3.36,1,2.21,2.21,0,0,1,2.07-.17,1.26,1.26,0,0,0,1.19,0c.28,1.13.42,1.69.71,2.82a1.38,1.38,0,0,1-1.27.58c-.36,0-.7.65-.77,1.11a19.49,19.49,0,0,0-.09,2.66,3.74,3.74,0,0,0,2,2.5,1.69,1.69,0,0,0,1.87-.13c.23.9.34,1.34.56,2.23-.92-.65-1.44-.57-1.94.24a.68.68,0,0,1-.47.27,1.21,1.21,0,0,0-1.06,1.43c.08,1.17.16,2.34.34,3.52a3,3,0,0,0,2.45,2.08c.81,0,1.32-1,1.07-2,0-.13,0-.27-.07-.44.28,0,.58-.11.87-.17.41,1.75.61,2.62,1,4.38a1.18,1.18,0,0,0-.64.11,12.52,12.52,0,0,1-1.43.25c-.5.15-1.22.25-1.39.63-.53,1.19-1.88,2.1-.93,3.91,0,.1,0,.26-.07.37-.35,1.08-.25,1.24.94,1.44.21,0,.42.12.68.19.07.45.14.85.24,1.42l1.12-.59a6.83,6.83,0,0,0,1.26.68,4.24,4.24,0,0,0,1.18,0,4.17,4.17,0,0,0-.34-1.48c-.24-.37-.81-.57-1.24-.83-1.07-.62-1.2-1.3-.32-1.86a5.78,5.78,0,0,1,1-.46,1,1,0,0,1,.71,0c.61,3.1.89,4.65,1.33,7.74a1.65,1.65,0,0,0-.47,1.18,2.91,2.91,0,0,1-.25,1.41c-.63,1.28-.25,2.11,1.09,2.58a4.43,4.43,0,0,1,.29.42c.12,1.35.18,2,.25,3.36l-.28-.23c-1.25,0-2.84,1.18-3,2a3.11,3.11,0,0,0,.18,1.15c.07.31.31.61.32.91,0,1.26.84,1.43,1.75,1.23a6.12,6.12,0,0,1,1.14-.12c0,2.45,0,3.68-.22,6.14l-.06-.15c-.22-.53-.56-.54-1-.16a3.84,3.84,0,0,0-1.61,2.68,1.21,1.21,0,0,1-.26.77c-.85.74-1.74,1.43-2.65,2.11-.49.37-1.07.64-.86,1.37a1.38,1.38,0,0,0,1.51,1.11,4.54,4.54,0,0,0,4.13-3.69c.14-.5.09-1.15.59-1.46-.31,3.19-.53,4.79-1.06,8h0s0,.06,0,.09c-.82,5-1.37,7.47-2.53,12.46a3,3,0,0,0-.56.7,1.43,1.43,0,0,0,0,1.32l.08.09-.55,2.28a1.42,1.42,0,0,0-.38-.12c-2-.36-4.93,1.78-5.36,3.92a2.61,2.61,0,0,1-.89,1.46,4.67,4.67,0,0,0-1.87,3.06c0,1.25,1.17,1.7,2.84,1a2.49,2.49,0,0,1,2.16-.18,1.28,1.28,0,0,0,1.19,0l-.72,2.82a2.28,2.28,0,0,1-1.56.58c-.35,0-1,.66-1.33,1.11a25.3,25.3,0,0,0-1.42,2.67c-.14,1.05-.19,2,.72,2.5a1.87,1.87,0,0,0,1.94-.14c-.21.9-.31,1.34-.51,2.24-.61-.66-1.17-.58-2.05.23a1.32,1.32,0,0,1-.6.28,2.16,2.16,0,0,0-1.74,1.43,35.94,35.94,0,0,0-1.24,3.52,1.72,1.72,0,0,0,1.57,2.07,2.46,2.46,0,0,0,1.93-2c0-.13.07-.26.12-.44a8.94,8.94,0,0,0,.94-.17c-.36,1.75-.53,2.63-.84,4.38a1.44,1.44,0,0,0-.69.11,12.68,12.68,0,0,1-1.52.25c-.56.15-1.32.25-1.64.63-1,1.19-2.68,2.1-2.33,3.91,0,.1-.11.26-.19.38-.7,1.08-.64,1.23.49,1.44a5,5,0,0,1,.61.18c0,.45-.1.86-.16,1.42l1.28-.59a4.9,4.9,0,0,0,1.07.68,3.89,3.89,0,0,0,1.18,0,4,4,0,0,0,.09-1.48c-.13-.37-.64-.57-1-.82-.87-.62-.78-1.31.3-1.87a6.79,6.79,0,0,1,1.16-.45,1,1,0,0,1,.72,0c-.46,3.1-.66,4.65-.9,7.75a2,2,0,0,0-.73,1.17,3.56,3.56,0,0,1-.5,1.41C102.77,229.22,103.05,230.05,104.34,230.52ZM76.52,120.41c-.44-.63-1-1.54-.86-2.08.36-1.68-.63-3.33-1.08-5a2.27,2.27,0,0,0-1.19-1.17,1.5,1.5,0,0,0-1.29.48c-.82,1-.68,2.09.34,3.54.81,1.14,1.43,2.23,1,3.48-.31.94.14,1.85,1.18,2.61a1.46,1.46,0,0,1,.5,1,1.76,1.76,0,0,0,1.26,1.85A4.36,4.36,0,0,1,78.93,127a2.93,2.93,0,0,0,.84.64c.92.5,1.3.33,1.37-.6a17.09,17.09,0,0,0,.17-3.12,17.51,17.51,0,0,0-.81-3.61c-.11-.34-.72-.63-1.1-1a4.24,4.24,0,0,0-.59,1,10.33,10.33,0,0,0-.14,1.59l-.44.18A11.78,11.78,0,0,1,76.52,120.41Zm-5.59-10a11.2,11.2,0,0,0,2.42.5.74.74,0,0,0,.61-.23c.56-.73.15-3.21-.95-4.59,0,1.47-1,1.54-2,1.6a1.54,1.54,0,0,0-.81.33C69.25,108.74,69.59,109.92,70.93,110.43ZM62.49,88.54c1.45-.25,1.94-1.36,1.79-3.51-.64-1.28-1.21-2.57-1.86-3.83-.26-.52-.89-1-1.13-.23a25.66,25.66,0,0,0-1.37,5.54C59.78,88,61,88.78,62.49,88.54Zm1.62,10.08A4.5,4.5,0,0,0,64,97.37c-.17-1.52.26-2.19,1.76-2.21s2.35-.47,2.49-2.07a2.46,2.46,0,0,0-.77-2.47,9.16,9.16,0,0,0-2.76-1c-.14,0-.3.13-.44.21-1.2.65-1.54,1.8-1.39,3.27-1.73-.27-2.41.15-2.48,1.55a5.58,5.58,0,0,0,1.74,4.2C62.93,99.64,64,99.51,64.11,98.62Zm6.42,7.79c.24-.45.39-1,.65-1.4.52-.91,1.43-.87,2.49,0,.21.17.93.1,1,0a4.12,4.12,0,0,0,.05-1.82c-.27-1.21-.24-2.16.89-2.69a1.36,1.36,0,0,0,.68-1.08c.1-1.61-2.2-5.25-3.82-6.2-1.27-.74-2-.43-1.62.9a27.39,27.39,0,0,0,1.36,3.61c.38.93.8,1.85.15,2.64-1.6-.88-2.12-.86-3.18.07a14,14,0,0,1-1.33,1.09,1.44,1.44,0,0,1-2.06-.49c-.59-.74-1.26-1.09-2-.8s-.94,1-.56,1.91a9.84,9.84,0,0,0,4.85,5C69.34,107.68,70,107.43,70.53,106.41ZM79,130.9c.67-.5.49-1.24-.11-1.87a27.66,27.66,0,0,0-2.71-2.48,10.18,10.18,0,0,0-1.93-1A23.82,23.82,0,0,0,72,127.41c-.14.13.12.85.39,1.13a1.71,1.71,0,0,0,2.21.28c.76-.4,1.35,0,1.93.58.27.29.52.59.77.89C77.8,130.85,78.33,131.39,79,130.9Zm-1.84,9.93a3.86,3.86,0,0,0,2.64,2.24c.37.1,1,0,1.13-.19a1.72,1.72,0,0,0,0-1.47,1.77,1.77,0,0,1-.57-1.92,21.2,21.2,0,0,0-.86-2.37,1.37,1.37,0,0,0-.86-.61c-.24,0-.74.24-.72.38.14,1-.53,1.56-.92,2.29A2.19,2.19,0,0,0,77.15,140.83Zm-1.5,6.63c.82,0,1.21-.38.86-1.1s-1-1.45-.37-2.26a9.85,9.85,0,0,0-.47-1.19c-.51-1-.73-1-1.62-.45a3.77,3.77,0,0,1-1.15.42,1.13,1.13,0,0,0-.94,1.57A5.57,5.57,0,0,0,75.65,147.46Zm-2.6,13.48c.15.34.2.82.45.93a12.77,12.77,0,0,0,1.89.49,7.47,7.47,0,0,0,.36-1.56,16.28,16.28,0,0,0-.25-2.2c-.15-1-1.08-1.95-1.82-1.62-1,.47-1.35,0-1.56-.73-1.17.1-1.46.5-1.51,1.95C70.54,160.18,71.24,161,73.05,160.94ZM70.52,177.8c1.56-.24,2.53-1.36,3.2-3.5-.14-1.29-.26-2.58-.48-3.84-.1-.52-.58-.94-1.06-.23a54.78,54.78,0,0,0-3.39,5.54C68.08,177.21,69,178.05,70.52,177.8Zm-2.29,40.49a18.6,18.6,0,0,0-1.82-2.48,6.36,6.36,0,0,0-1.57-1c-1,.61-2,1.15-2.91,1.82-.18.14-.17.85,0,1.13.47.77,1.33.63,2.11.28a1.19,1.19,0,0,1,1.74.58c.17.29.32.6.49.89.31.56.67,1.1,1.48.61A1.25,1.25,0,0,0,68.23,218.29Zm.15-18.6a8.39,8.39,0,0,0,2.17.5,1.15,1.15,0,0,0,.73-.23,5.55,5.55,0,0,0,1.36-4.58A2.83,2.83,0,0,1,69.81,197a2.53,2.53,0,0,0-1,.33C67.55,198,67.3,199.18,68.38,199.69Zm.87,10a2.86,2.86,0,0,1,.07-2.08c1.13-1.68.93-3.33,1.27-5a1.16,1.16,0,0,0-.62-1.16,2.22,2.22,0,0,0-1.52.47,3.14,3.14,0,0,0-1.36,3.54,3.65,3.65,0,0,1-.57,3.48,1.83,1.83,0,0,0,0,2.61,1.08,1.08,0,0,1,.1,1c-.34.87-.26,1.69.51,1.85,1.11.23,1.43,1,1.84,1.84a1.63,1.63,0,0,0,.61.64c.74.5,1.17.33,1.59-.6a30.48,30.48,0,0,0,1.37-3.12,21.73,21.73,0,0,0,.71-3.61c0-.33-.44-.63-.68-.94a7.47,7.47,0,0,0-1,1,12.66,12.66,0,0,0-.83,1.59l-.51.18A6.23,6.23,0,0,1,69.25,209.67Zm2.42-20.06c-.62.38-1.24.77-1.88,1.09-.9.46-1.57.31-1.81-.49a1.09,1.09,0,0,0-1.57-.8,2.12,2.12,0,0,0-1.52,1.91,5.14,5.14,0,0,0,2.32,5c1,.62,1.76.37,2.79-.65.47-.45.88-1,1.36-1.4,1-.91,1.88-.87,2.51,0,.13.17.88.1,1,0a6.35,6.35,0,0,0,1-1.83,3.5,3.5,0,0,1,2.23-2.68,2.74,2.74,0,0,0,1.22-1.09c.89-1.6.34-5.25-.85-6.2-.93-.74-1.74-.42-2,.9A26.14,26.14,0,0,0,76,186.9a3.06,3.06,0,0,1-1.15,2.64C73.71,188.66,73.19,188.68,71.67,189.61Zm.63-10.71c-.11,0-.35.14-.53.21a5.23,5.23,0,0,0-2.85,3.27,2.59,2.59,0,0,0-3.2,1.55,4.58,4.58,0,0,0-.29,4.2c.38.78,1.46.65,2.06-.24a6,6,0,0,0,.53-1.26c.56-1.52,1.31-2.19,2.82-2.21a3.5,3.5,0,0,0,3.45-2.07c.54-1,.91-1.89.35-2.47A6,6,0,0,0,72.3,178.9Zm9.43-26.59a2.38,2.38,0,0,0-1.39-.4c-.51-.06-1,.06-1.55,0-1.13-.11-2.24-.27-3.45-.43,0,.74-.15,1.49.12,1.72A31.34,31.34,0,0,0,79.13,156c.54.34,1.07,0,1.36-.7s.67-1.07.92-1.63S81.9,152.51,81.73,152.31Zm2.58-3.9-.08-.08A2.59,2.59,0,0,1,83,146.16a1.2,1.2,0,0,0-.62-.8,2,2,0,0,0-2.63.74,15.92,15.92,0,0,0-.95,1.78,2.29,2.29,0,0,0,.31,2.7c1,.75,1.67,0,2.38-.49a.62.62,0,0,1,.14,0c.44.23.81.45,1.21.61a1.82,1.82,0,0,0,2.24-.57C85.62,149.33,84.68,148.93,84.31,148.41Zm7-3.29c0-.45-.7-1-1-1.45-1-1.41-1.06-1.42-2.71-1.09a3.6,3.6,0,0,1-1.66,0c-1.07-.33-1.36-.18-1.26,1.22a12,12,0,0,0,3.55,5.28c.75.58,2.12.38,2.39-.37A12,12,0,0,0,91.36,145.12Zm19.75,27.34c0,1.43.23,1.55,1.9.78-.12.82-.26,1.5-.29,2.16a4.69,4.69,0,0,0,.19,1.18,8.56,8.56,0,0,0,1.48-.75,2.08,2.08,0,0,0,.61-1,13.69,13.69,0,0,0,.32-7.48c-.12-.49-.41-.76-1-.37A7.72,7.72,0,0,0,111.11,172.46Zm-1-6.88a14.28,14.28,0,0,1-1.67-1.72c-.49-.68-1-.62-1.39.11-.61,1.23-1,2.54-1.55,3.82-.07.17.06.4.14.58.42.9,1.2.92,2.63,0a11.76,11.76,0,0,0,.46,1.65c.15.33.47.75.78.75s.76-.49,1-.85C111.5,168.24,111.34,166.76,110.12,165.58Zm4.63-14.24a4.57,4.57,0,0,0-1.22,1.51c-.92,1.9-1.83,3.83-2.79,5.77a9,9,0,0,0-.44,1.29c-.06.88,0,1.51.9,1.49s1.73-.77,1.6-1.45a4.28,4.28,0,0,1,.8-3.28,4.08,4.08,0,0,1,1.81-1.88,2.35,2.35,0,0,0,1.49-2.45,2,2,0,0,0-.84-1.36C115.79,150.82,115.09,151.06,114.75,151.34ZM101,83.2c.53,1.42.8,1.55,2.18.78.2.82.31,1.5.54,2.16a7,7,0,0,0,.67,1.18,5.3,5.3,0,0,0,1.18-.76,1.41,1.41,0,0,0,.22-1,19.09,19.09,0,0,0-2.22-7.49c-.25-.48-.62-.75-1.14-.36A5.4,5.4,0,0,0,101,83.2Zm-7.12-4.67c0,.17.18.4.32.58.69.9,1.47.92,2.63,0a12.46,12.46,0,0,0,1,1.64c.26.34.72.76,1,.76s.59-.5.69-.85a3.9,3.9,0,0,0-1.62-4.34A19.39,19.39,0,0,1,95.8,74.6c-.65-.68-1.18-.63-1.37.11A24.27,24.27,0,0,0,93.86,78.53Zm-1.5,4.12a16.78,16.78,0,0,1,1,1.94c.49.93.83,2.17,1.59,2.7,1,.73,1,1.23.68,1.94a1.21,1.21,0,0,0,.57,1.61c1,.6,1.52.22,1.82-.65a7.24,7.24,0,0,1,1.48,1.42c.48.87,1,1.55,2,1.54a1.83,1.83,0,0,0,2-1.6,9.36,9.36,0,0,0,0-2.31c-.12-1.32-.62-1.62-1.79-1.13-.66.28-1.29.63-1.92.94A6.51,6.51,0,0,0,99,87.62c-.82-.75-1.72-1.39-1.68-2.57a.68.68,0,0,0-.36-.43C95.47,84,95.4,82.7,95.2,81.53s-.58-1.51-1.71-1.18a3.73,3.73,0,0,0-.93.42C91.62,81.35,91.65,81.66,92.36,82.65Zm9.08,15.67a2.2,2.2,0,0,0-.1-2.12,41.21,41.21,0,0,0-3.4-3.62c-.43.85-.55,1.61-1,2-1,.71-.69,1.64-.29,2.72.6,1.59,1.16,3.19,1.71,4.8.2.57.23,1.28,1,1.4a3.75,3.75,0,0,0,2-.08c.58-.26.46-1,.09-1.68A3,3,0,0,1,101.44,98.32Zm-1.3,8.11c-.22-.44-.73-1.2-.88-1.19-.54.05-1.24.24-1.4.64a4.9,4.9,0,0,0-.46,3.51,5.54,5.54,0,0,1,.12,2.28,2.39,2.39,0,0,0,1.21,2.76c-.49,1.51-.49,1.51,1,2.93a2.11,2.11,0,0,1,.25.27c.92,1.15,1.12,1.19,1.81.26a7.25,7.25,0,0,0,.64-1.24l-1.61-1.18.77-.88c-1.16-1-2.17-3.43-1.89-4.47a.91.91,0,0,1,.21-.44C100.89,108.86,100.8,107.72,100.14,106.43Zm7.45,7.59a2,2,0,0,0-.17-.51c-.33-1.13-.74-2.25-1-3.37s-.16-2-.39-3.08c-.1-.47-.6-1.3-.92-1.37a4.89,4.89,0,0,0-2.76-.13c-1,.43-1,1.7-.4,2.73.14.23.28.63.18.75-.56.69,0,1.4.44,2.08s.86,1.15,1.18,1.57a5,5,0,0,0-.52,1.63,19.67,19.67,0,0,0,.47,2.41c.15.85-.51,2.11,1.43,2,0,0,.13.09.2.13,1.12.66,1.47.63,1.67-.4C107.29,117,107.42,115.51,107.59,114Zm-4.4,22.47a12.7,12.7,0,0,0,1,1.67c-.08.43-.33.88-.21,1.26a2.84,2.84,0,0,0,2.46,1.68,1.38,1.38,0,0,0,1-.5c.12-.26-.18-.74-.24-1.13a6.4,6.4,0,0,1-.15-1.61c0-.13.64-.15,1-.18a4.36,4.36,0,0,0,1,0c1-.41,1.62-.08,2,1a4,4,0,0,0,.46.72c-1.49.66-1.71,1.34-.83,2.71a9.38,9.38,0,0,0,1.76,2c1,.89,2.09.71,2.45-.53a8.52,8.52,0,0,0,0-2.94,15.8,15.8,0,0,0-.41-2.63,5.73,5.73,0,0,0-.64-1.52c-.33-.58-.77-1.12-1.15-1.7-1.08-1.63-2.61-2.43-4.66-1.36a3.52,3.52,0,0,1-3,.61C103.45,133.57,102.52,134.93,103.19,136.49ZM102,151.21a3.55,3.55,0,0,0,2.47-2.47c.33-1,1-1.56,1.62-1.29,1,.43.91,1.18.58,2,0,.1-.12.23-.08.31.14.3.28.83.47.85a3.74,3.74,0,0,0,1.89-.14,2.55,2.55,0,0,1,1.88-.29,1.26,1.26,0,0,0,1.58-1.09c.07-.43-.16-1.27-.43-1.35-.8-.24-.84-.74-.93-1.38a2.25,2.25,0,0,0-2.82-1.6c-.59.31-.71,0-.94-.41a2,2,0,0,0-3.15-.51c-.6.66-.84,1.72-2,1.84-.2,0-.46.61-.44.93C101.75,148.06,101.9,149.53,102,151.21Zm3.8,7.4c.24.85.64,1.48,1.71,1.22a2,2,0,0,0,1.42-2c0-.56.15-1.12.13-1.67a1.7,1.7,0,0,0-.34-1.12c-.23-.18-.75-.06-1.14,0s-.93.22-1.5.36a10.84,10.84,0,0,0,.15-1.16,4.66,4.66,0,0,0-.12-1.06c-.22-.89-.63-1-1.39-.51a4.19,4.19,0,0,0-1.77,3.36,1.17,1.17,0,0,0,1.37,1.4,9.2,9.2,0,0,0,1-.19C105.44,157.71,105.63,158.15,105.77,158.61Zm-3.09,13.31a10.8,10.8,0,0,1,.27,1.94c.15.93,0,2.16.53,2.7.74.72.47,1.22-.12,1.93s-.64,1.18-.13,1.61c.71.61,1.42.22,2.1-.65.34.53.8.91.85,1.42.09.87.27,1.55,1.28,1.54a3.16,3.16,0,0,0,2.73-1.59,12,12,0,0,0,1.06-2.31c.44-1.32.06-1.63-1.32-1.14-.78.29-1.55.63-2.31.94a3.75,3.75,0,0,0-.24-1.42c-.51-.75-1.14-1.4-.65-2.58a.44.44,0,0,0-.19-.43c-1.22-.66-.83-1.92-.63-3.09s-.1-1.51-1.33-1.18a5.65,5.65,0,0,0-1.07.42C102.39,170.61,102.31,170.92,102.68,171.92ZM105,187.58a2.77,2.77,0,0,0,.93-2.12,19.88,19.88,0,0,0-1.7-3.62,11.05,11.05,0,0,1-1.93,1.95,2.92,2.92,0,0,0-1.59,2.72c-.17,1.59-.41,3.2-.66,4.8-.1.57-.42,1.28.29,1.41a4.13,4.13,0,0,0,2.06-.09,1.62,1.62,0,0,0,.93-1.68A4,4,0,0,1,105,187.58Zm-5.36,8.11c0-.44-.12-1.2-.29-1.19a2.92,2.92,0,0,0-1.72.64,7.88,7.88,0,0,0-2.23,3.51,7.23,7.23,0,0,1-1,2.29c-.82,1.28-.9,1.83-.14,2.75-1.21,1.51-1.21,1.52-.36,2.94a1.26,1.26,0,0,1,.13.26c.38,1.15.56,1.19,1.68.27a16,16,0,0,0,1.22-1.25c-.41-.45-.72-.79-1.06-1.18l1.2-.88c-.71-.95-.5-3.43.3-4.47a1.57,1.57,0,0,1,.42-.43A3.53,3.53,0,0,0,99.61,195.69Zm3.66,7.6a1.5,1.5,0,0,0,.09-.52,33.51,33.51,0,0,1,.68-3.37c.29-1,.86-2.05,1.16-3.08.13-.47,0-1.3-.23-1.37a4.77,4.77,0,0,0-2.7-.13,2.81,2.81,0,0,0-1.77,2.73c0,.24,0,.63-.21.75-.89.69-.68,1.4-.59,2.08a11.45,11.45,0,0,0,.4,1.57,9.06,9.06,0,0,0-1.3,1.63,18.8,18.8,0,0,0-.68,2.41c-.25.85-1.48,2.11.52,2,0,0,.09.09.13.13.82.66,1.18.64,1.85-.4C101.56,206.27,102.39,204.77,103.27,203.29ZM89.46,85.46c.13.72.19,1.09.33,1.82A8.7,8.7,0,0,0,89.46,85.46ZM188,114.32c0-.17,0-.26,0-.43l-.22.25ZM151.78,230.69h.77a3.25,3.25,0,0,1-.76-.56C151.79,230.35,151.78,230.47,151.78,230.69Zm35.68-87.08v0c0-.24,0-.36.07-.6C187.48,143.23,187.38,143.47,187.46,143.61ZM169.17,217.4a6.06,6.06,0,0,0,.32,2.09c-.24,1.82-.35,2.74-.52,4.56a14.2,14.2,0,0,0-1.11-1.22c-.39-.4-1-.51-1.25.44a21.13,21.13,0,0,0-.67,2.63c0,.38.35,1.11.58,1.1,1,0,1.13.52,1,1.27a3.16,3.16,0,0,1,1.08.61c0,.72,0,1.09-.06,1.81h-5.4c-.42-.46-.79-.41-2-.18a3.6,3.6,0,0,1-1.66.05c-.65-.2-1-.22-1.2.13h-3.79c.2-.43.35-1.09.14-1.35a1.6,1.6,0,0,1-.27-1.92c-.13-.77-.2-1.59-.4-2.37a1,1,0,0,0-.72-.61c-.23,0-.79.24-.8.38A2.29,2.29,0,0,1,152,226c.07-.94.11-1.41.21-2.35a1.52,1.52,0,0,0,1,0,1.34,1.34,0,0,0,.46-1.1,8.8,8.8,0,0,0-.64-2,4,4,0,0,0-.37-.75c.15-1.1.23-1.64.4-2.74l.18.28c.17.29.32.59.48.89.3.56.66,1.1,1.48.6a1.25,1.25,0,0,0,.51-1.86,18.71,18.71,0,0,0-1.8-2.48,1.91,1.91,0,0,0-.38-.31c.26-1.48.4-2.21.7-3.69a1.28,1.28,0,0,1,0,.7c-.35.88-.28,1.7.49,1.86,1.11.23,1.43,1,1.82,1.84a1.7,1.7,0,0,0,.61.64c.74.5,1.17.33,1.59-.6a30.77,30.77,0,0,0,1.4-3.12,20,20,0,0,0,.74-3.61c0-.34-.43-.63-.67-.95a6.6,6.6,0,0,0-1,1,12.73,12.73,0,0,0-.84,1.59l-.52.18a6.42,6.42,0,0,1-1-1.67,2.81,2.81,0,0,1,.09-2.08c1.13-1.68.94-3.33,1.29-5a1.18,1.18,0,0,0-.61-1.17,1.79,1.79,0,0,0-1.08.22c.17-.67.25-1,.41-1.68.41.08.84.14,1.25.21a1.17,1.17,0,0,0,.73-.23,5.57,5.57,0,0,0,1.37-4.59,2.71,2.71,0,0,1-2.59,1.58c.18-.72.27-1.08.46-1.81a11.63,11.63,0,0,1,.85-.87c1-.91,1.88-.87,2.51,0a1.11,1.11,0,0,0,1-.05,6.17,6.17,0,0,0,1-1.82,3.53,3.53,0,0,1,2.23-2.69,2.66,2.66,0,0,0,1.22-1.08c.89-1.61.33-5.25-.86-6.2-.93-.74-1.75-.43-2,.9a27.76,27.76,0,0,0-.36,3.61,3.06,3.06,0,0,1-1.15,2.64c-1.09-.82-1.63-.85-2.93-.1.61-2.38.91-3.57,1.49-6a4.55,4.55,0,0,0,.84-1.13c.53-1,.9-1.9.33-2.47a1.71,1.71,0,0,0-.27-.2c.84-3.67,1.23-5.5,1.9-9.16,0-.57,0-.85,0-1.42l.12,0a2.51,2.51,0,0,0,1.87-.62,5.78,5.78,0,0,1,3.73-2.48c.64-.21,1-.43,1.09-1.07a6.47,6.47,0,0,1,2-3.68,3.27,3.27,0,0,0,.88-1.84,8.57,8.57,0,0,0-.18-3c-.1-.46-.65-1.09-1.05-1.11a4,4,0,0,0-3.4,1.14,1.94,1.94,0,0,0-.33,2.4c.23.41.48.81.89,1.51-.86-.25-1.41-.4-1.95-.57a2.14,2.14,0,0,0-2.71,3c.29.68.6,1.36.82,1.87a8.25,8.25,0,0,0-1,1.62,1.77,1.77,0,0,1-.9,1.29,83.43,83.43,0,0,0-3-21.11,4.43,4.43,0,0,0,2.09,1c.83.05,1.21-.38.84-1.11s-1-1.44-.4-2.25a10.7,10.7,0,0,0-.48-1.2c-.52-1-.74-1-1.63-.44a3.84,3.84,0,0,1-1.15.42l-.23.08c-.14-.48-.21-.72-.36-1.2a6,6,0,0,0,.75.24,2.53,2.53,0,0,0,0-.95,12.75,12.75,0,0,1-.47-5.82c1.05.12,2.14.48,2.46-.89a16.31,16.31,0,0,0,1.94,1.27,1.67,1.67,0,0,0,1.3.1c.24-.13.32-.77.18-1.11a12.23,12.23,0,0,0-1.22-2c-1.1-1.58-1.95-1.92-3.6-1.67a3.22,3.22,0,0,1-1.4-.3c-1.28-.44-2.54-1-3.83-1.36a1.7,1.7,0,0,0-.58,0c-.78-1.93-1.18-2.89-2-4.82a14.88,14.88,0,0,0,2,1.81,1.4,1.4,0,0,0,1,.26,14.7,14.7,0,0,0,2.75-1c1.32-.66,1.36-1.47.44-3a26,26,0,0,1-1.5-3,3,3,0,0,0-2.1-1.88c-.33,1.29-.66,2.56-1.08,4.12-1.26-1.38-2.47-2.7-3.71-4a2,2,0,0,0-.52.39c-.15-.34-.23-.52-.39-.86a1.33,1.33,0,0,0,0-1.22,1.21,1.21,0,0,1,.63-1.69c.4-.2.75-.48,1.21-.77.34.39.62.74.92,1.06a14.41,14.41,0,0,0,1.05,1c1,.84,2.07.65,2.19-.47a4.66,4.66,0,0,0-.22-1.79,8.54,8.54,0,0,0-2.81-4c-2.06-1.75-2.7-1.65-3.21.52-1-.31-1.85-.09-2.23.78a5.19,5.19,0,0,0-.23.62c-1.11-2.43-1.67-3.65-2.76-6.07a3,3,0,0,0,.18-1.35.35.35,0,0,0,0-.11c-.19-.32-.34-.79-.6-.92a1.06,1.06,0,0,0-.64,0c-.18-.41-.27-.61-.46-1,.39-1.53-.67-3.68-2.21-5-1.14-2.67-1.7-4-2.76-6.68a11.7,11.7,0,0,0,2.61,2,3.67,3.67,0,0,0,2.67.07,3.11,3.11,0,0,0,2-2.76q.48-2.83,1-5.69a3,3,0,0,0-.57-2.78,13.33,13.33,0,0,0-1.37,1.52,18.35,18.35,0,0,1-1.14,2,1.71,1.71,0,0,0-.29,2.35,1,1,0,0,1-.32,1.55c-.56.33-1.14.64-1.87,1.06-.38-1.08-.64-2-1-3a10.9,10.9,0,0,0-1.34-2.34,1.21,1.21,0,0,0-1.87.05,4.76,4.76,0,0,0-.36,1,98.57,98.57,0,0,1-4.32-14.44h1.4c0,.45,0,.94,0,1.5a16.61,16.61,0,0,0,.85,2.84,2.11,2.11,0,0,0,1.27,1.08c2.45.46,3.82-.37,4.64-2.93A14.29,14.29,0,0,1,141,69.49h3.81a2.36,2.36,0,0,0,2.21.85c.21.35.34.82.6.93a8.82,8.82,0,0,0,1.53.4A115.2,115.2,0,0,0,155.08,90a1.73,1.73,0,0,0-.59-.72,9.36,9.36,0,0,0-2.75-1c-.13,0-.3.13-.44.21-1.21.65-1.55,1.8-1.42,3.26-1.72-.26-2.4.16-2.48,1.55a5.49,5.49,0,0,0,1.72,4.21c.75.77,1.78.64,1.94-.25A4.6,4.6,0,0,0,151,96c-.16-1.52.28-2.18,1.78-2.2s2.34-.47,2.5-2.07a3.87,3.87,0,0,0-.11-1.61c1.33,3.39,2,5.09,3.5,8.48a1.92,1.92,0,0,0-2.56.38,12.73,12.73,0,0,1-1.33,1.1,1.45,1.45,0,0,1-2.06-.49c-.59-.74-1.26-1.09-2-.81s-1,1-.58,1.92a9.77,9.77,0,0,0,4.84,5c1.27.62,1.95.37,2.47-.64.23-.46.39-1,.64-1.41.53-.91,1.44-.86,2.5,0a.53.53,0,0,0,.25.08c.71,1.61,1.06,2.41,1.78,4a2.21,2.21,0,0,0-.12,3,10.27,10.27,0,0,0,1.67,1.76l.92.78c2.51,5.69,3.77,8.53,6,14.22a1,1,0,0,0-.49,0c-.32.12-.41.65-.63,1.07a23.12,23.12,0,0,0,2,3.06,2.7,2.7,0,0,0,1.92.66,2.29,2.29,0,0,1,1.71.37,1.06,1.06,0,0,0,1.68-.45c.39-.68-.09-1-.75-1.31-.27-.13-.44-.54-.71-.75a17.84,17.84,0,0,0-1.68-1.21,21.21,21.21,0,0,0-2.15-1.15c0-.42,0-.63,0-1a4,4,0,0,0,1.32.6c1.09.3,2.19.56,3.28.79a1,1,0,0,0,.7-.17,14.56,14.56,0,0,1,.14-2.67,5.82,5.82,0,0,0-1.1-3.78.52.52,0,0,1-.06-.42c.56-1.34-.91-1.89-1.66-2.66a1.31,1.31,0,0,0-1.23-.16,1.47,1.47,0,0,0-.36,1.21,2.9,2.9,0,0,0,.63,1.1,1.44,1.44,0,0,1,.07,1.87,1.32,1.32,0,0,1-1.81.54v-.16a3.39,3.39,0,0,0,.26-.67,1.22,1.22,0,0,0-.33-1.17c-.11-3-.2-4.46-.37-7.44a16.1,16.1,0,0,0,.86,1.58,2.32,2.32,0,0,0,2.76,1.09,3.63,3.63,0,0,1,1.3.06c.37,0,.75.23,1.11.26,1,.09,2.19-1.15,1.63-1.82-1-1.18-.88-2.39-1.34-3.57a4.63,4.63,0,0,0-1-1.51c-.57-.54-1.19-.57-1.36.13a18.48,18.48,0,0,0-.21,2.07c-.59-.07-1.08-.24-.85-1.07.06-.2-.11-.53-.22-.8a16.67,16.67,0,0,1-.95-2.19,1.28,1.28,0,0,0-1.29-1.09,2.63,2.63,0,0,0-.81.07c-.38-6.14-.59-9.21-.7-15.34a2.12,2.12,0,0,0,.21-.27c.3-.47.54-1.16,1.3-.74a6.06,6.06,0,0,1,1.35,1.48,12.22,12.22,0,0,0,1.44,1.8c.81.64,1.34.4,1.37-.5,0-.63-.08-1.28-.11-1.92-.25-.68-.44-1.37-.72-2-1-2.41-2.56-3.51-4.86-3.18.06-4.08.15-6.13.55-10.21a14.19,14.19,0,0,0,.83,2.91,3,3,0,0,0,1.51,1.36c.27.11.77-.56,1.32-1,1.28,3.11,3.17,6.15,1.89,9.41a3.79,3.79,0,0,0,.43,3.44c.94,1.52,2,1.74,2.91.53,1.21-1.69,1.06-3.76.39-5.94a1.65,1.65,0,0,0-.52-.76,3.9,3.9,0,0,1-1.48-3.15A3.67,3.67,0,0,0,176,79.37,4.3,4.3,0,0,1,173.88,77a11.71,11.71,0,0,0-1-2.21,1.73,1.73,0,0,0-1.28-.73,1,1,0,0,0-.55.38c.22-2,.35-2.94.68-4.9h1.06c-.17.56-.31,1.11-.45,1.67,0,1.15.37,1.77,1.65,2a3.28,3.28,0,0,1,2.21,2.79,1.33,1.33,0,0,0,1.39,1.39c.91.07,1.18-.47,1.2-1.23,0-.6-.21-1.32,0-1.8.82-1.64.14-3-1-4.11a7.35,7.35,0,0,0-.79-.67h7.16c.06.79.26,1.33,1.09,1.32s1.49-.68,1.41-1.32h1.61c-.48.44-1,.86-1.46,1.28s-1,.63-.62,1.37a1.75,1.75,0,0,0,1.73,1.11l.14,0a97.73,97.73,0,0,0-1,14.36l-.26.13a6.52,6.52,0,0,0-.82-1.43c-.82-.75-1.71-1.4-1.66-2.58,0-.12-.2-.36-.35-.43-1.45-.65-1.51-1.92-1.7-3.08s-.57-1.51-1.7-1.18a3.61,3.61,0,0,0-.94.42c-.93.57-.92.89-.22,1.88a16.72,16.72,0,0,1,1,1.94c.48.93.8,2.16,1.56,2.7,1,.72,1,1.23.67,1.94a1.17,1.17,0,0,0,.56,1.6c1,.61,1.51.22,1.82-.64a7.7,7.7,0,0,1,1.47,1.41,5.17,5.17,0,0,0,.58.9c0,.91,0,1.37,0,2.28-.7-.74-1.45-1.46-2.16-2.2-.43.85-.56,1.61-1,2-1,.7-.7,1.64-.3,2.72.59,1.59,1.15,3.19,1.7,4.8.19.57.22,1.27,1,1.4a6,6,0,0,0,1.12.09c.19,4.15.32,6.22.53,10.37-.87-1.15-1.5-2.94-1.27-3.79a.89.89,0,0,1,.2-.44c1-.82.88-2,.22-3.25-.23-.44-.73-1.21-.89-1.19-.53,0-1.23.24-1.4.64a4.9,4.9,0,0,0-.45,3.51,5.37,5.37,0,0,1,.11,2.28c-.18,1.28,0,1.83,1.22,2.75-.48,1.52-.48,1.52,1,2.94a1.6,1.6,0,0,1,.25.27c.59.73.88,1,1.2.87,0,.54,0,.81.06,1.35-.85-.52-1.38-.3-2.21.68-1.18-1.29-2.25-1.56-2.83-.08l-.85-.62c-.6.43-1.15.77-1.62,1.18-.31.27-.75.62-.71,1,.17,1.46-.47,2.5-.88,3.71a6.81,6.81,0,0,0,.41,3.76,11.77,11.77,0,0,0,3.13,4.6c.74.75,1.4.81,1.91.09a5.5,5.5,0,0,0,.48-1,14.69,14.69,0,0,1-1.32-1.53,4.24,4.24,0,0,1-.42-1.21c-.27-1-.79-2.05-.26-3.11.77.81,1.41,1.5,2.15.71,0,0,.22.07.31,0a4.84,4.84,0,0,0,1.81-.61,6.43,6.43,0,0,0,1.07-1.35c0,3.11,0,4.66-.05,7.76a2.27,2.27,0,0,0-1.25-.29c.18.76.24,1.35-.68,1.44-.26,0-.49.7-.49,1.11a1.35,1.35,0,0,0,.69.9,1.1,1.1,0,0,1,.81,1.16c0,.32.32.88.54.94l.11,0c-.13,1.73-.2,2.59-.4,4.32a4,4,0,0,0-.85-2.19,1.92,1.92,0,0,0-2.14-1,1.28,1.28,0,0,1-1.49-1.08c-.46-1.86-1.83-3.08-3.28-4.23-.5-.4-1.16-.51-1.14.44s-.13,1.75,0,2.63c0,.38.57,1.1.8,1.1,1,0,1.23.52,1.27,1.27a3,3,0,0,1,2.25,3.72c-.59-.27-1.13-1.08-1.8-.15a2.33,2.33,0,0,0,.46,3.47,34.36,34.36,0,0,0,3.21,2c.75.43,1.54.41,1.89-.49,0-.12.09-.23.14-.35-.37,2.22-.59,3.32-1.11,5.54-.55.31-1.12.48-1.37.3-.56-.41-.78-1.25-1.16-1.91,0,0,0-.08,0-.1l-.48-.76c-.21.22-.5.4-.61.66a3.06,3.06,0,0,0,3,4.16h.06a110.29,110.29,0,0,1-4.6,14.1c-.45,2.47-.7,3.71-1.24,6.17l-.35,0a2.85,2.85,0,0,1-3.33-1.43c-.46-.74-1.31-.59-1.77.33a14.12,14.12,0,0,0-.58,2c-.1.34-.21.84-.43,1a1.27,1.27,0,0,0-.7,1.61,4.31,4.31,0,0,0,1,1.42c0,.06.4,0,.49-.14,1.14-1.36,1.49-.59,1.9.22s1,.79,1.75.07a4,4,0,0,1,1-.82c-.59,2.54-.9,3.81-1.54,6.34a6.62,6.62,0,0,0-3.1,4c-.22.94,0,1.85.9,2.08a1.57,1.57,0,0,1,.58.29c-.63,2.49-1,3.74-1.56,6.23a1.37,1.37,0,0,0-.6.49,23.09,23.09,0,0,0-1.24,2.07c-.56-.07-1-.24-.32-1.07a1.5,1.5,0,0,0,.18-.8,13.31,13.31,0,0,1,.14-2.18c.18-.76-.08-1-.74-1.1a3.71,3.71,0,0,0-3.76,3.55c0,.52,0,1,0,1.58a24.37,24.37,0,0,0,.09,3.32c.17,1.09,1,1.37,2.24,1.08a3.44,3.44,0,0,1,1.28.06c.34,0,.64.23,1,.26H172c-.66,3-1,4.42-1.51,7.38-.11.13-.21.27-.32.42A6.88,6.88,0,0,0,169.17,217.4ZM181,77.2c0,.17.17.4.31.58.67.9,1.46.91,2.63,0a12,12,0,0,0,1,1.65c.25.33.71.76,1,.75s.6-.49.7-.84A3.85,3.85,0,0,0,185,75,19,19,0,0,1,183,73.27c-.64-.68-1.18-.63-1.38.1A24.45,24.45,0,0,0,181,77.2Zm-.49,24.86c1.18.85,2.2.59,2.46-.59.34-1.6-.33-3.24-1-4.87a16.13,16.13,0,0,0-.79-1.47l-.46-.06c-.6,1.35-1.27,2.65-1.74,4.06C178.69,100,179.49,101.35,180.49,102.06Zm-.72,7.85a31.61,31.61,0,0,0,1.53,4.27c.23.51.93.93,1.53,1.5a10.14,10.14,0,0,0,1.26-1c.08-.08-.06-.54-.22-.65-1.6-1.13-1.13-2.67-1.68-4-.35-.82-.67-1.23-1.32-1.3S179.55,109.12,179.77,109.91Zm-1.78-4c.88.16,1.45-.29,1.15-1.13a11.36,11.36,0,0,0-1.34-2c.08-.21.45-.71.3-.93-.78-1.12-1.7-2.17-2.57-3.23a.68.68,0,0,0-.42-.21c-1.15.09-1.84-.67-2.39-1.81a3.83,3.83,0,0,0-1.27,4.14,2.77,2.77,0,0,0,2,2.08,3.15,3.15,0,0,1,1.92,1.44A4.14,4.14,0,0,0,178,105.92ZM144.91,78.43c-.31-1.32-.55-2.65-1-3.92-.22-.65-.79-1.56-1.3-1.67-.9-.2-1.24.75-1.41,1.51a1.77,1.77,0,0,1-1.69,1.43,7.21,7.21,0,0,0-2.08.65c-1.21.63-1.37,1.81-.7,4,.37,1.2,1.29,1.34,2.31,1.55a8.65,8.65,0,0,0-.27-1.76c-.37-1-.1-1.35.92-1.21a1.54,1.54,0,0,0,1.66-.71c.69-1,1.51-.87,2.4.13.13.14.21.35.36.43a.74.74,0,0,0,.59.07A.53.53,0,0,0,144.91,78.43Zm4.59,8.78c1.46-.25,1.95-1.36,1.82-3.51-.62-1.28-1.18-2.58-1.82-3.84-.26-.51-.87-.94-1.12-.22A25.79,25.79,0,0,0,147,85.18C146.8,86.61,148,87.45,149.5,87.21Zm-1.95,12.12s0-.08,0-.1L146,97.68a12.86,12.86,0,0,0-1.1,1.45c-.12.21,0,.62,0,.73a12.37,12.37,0,0,0,2.81,5.09,5.51,5.51,0,0,0,1.14.72c.14-.44.53-.94.37-1.32a4.25,4.25,0,0,1-.22-2.61C149.14,101.16,148.09,100.15,147.55,99.33ZM169,192.82c-.05-.52,0-1.06-.05-1.6l.09-.37a5,5,0,0,0-1.7.35c-1.56,1-2.34,4.28-1.28,5.26a.92.92,0,0,0,.88.13A4.68,4.68,0,0,0,169,192.82Zm.89-9.6c-1.4,1.08-1.64,1.81-1,3.17a2.75,2.75,0,0,0-1,3c.41,1.15,1.64,1.24,2.66,1.56.24.08,1-.39,1.21-.72a44.48,44.48,0,0,0,2.4-4.78,2.34,2.34,0,0,0-.93-3.18C172.05,181.59,171,182.39,169.92,183.22Zm9.41-26.13-.7-.05c-1.65-.12-2.83,1.07-3,3-.12,1.26.77,2,2.44,1.76,1.38-.16,2.76-.41,4.13-.68,1.08-.21,1.68-.9,1.39-1.88a7.27,7.27,0,0,0-1.52-2.88C181,155.12,180,155.45,179.33,157.09Zm-1.47-5.2c-.18,0-.36.2-.56.32-.28-.39-.53-.72-.78-1.05l-.45,0a18.77,18.77,0,0,0-.77,2.67,1.52,1.52,0,0,0,2.15,1.65,5.3,5.3,0,0,0,2.11-1.66,2.07,2.07,0,0,0-.09-1.84C179.33,151.69,178.42,151.86,177.86,151.89Zm-7.45-20.29c-.56-.15-1.43-.2-1.36.64a20,20,0,0,0,.62,3.65,2.31,2.31,0,0,0,2.32,1.8c1.2,0,1.28-.91,1.16-2.08.82.36,1.46.66,2.12.94s1.41.24,1.77-.52a1.45,1.45,0,0,0-.39-1.95c-.72-.48-1.84-1.06-2.39-.85-1,.36-1.43-.06-2.11-.63A5,5,0,0,0,170.41,131.6Zm-6.95-12.52a3.62,3.62,0,0,1-.86-2.08c.36-1.68-.64-3.33-1.09-5a2.25,2.25,0,0,0-1.2-1.17,1.45,1.45,0,0,0-1.28.48c-.83,1-.68,2.08.34,3.54.81,1.14,1.44,2.22,1,3.47A2.31,2.31,0,0,0,161.6,121a1.54,1.54,0,0,1,.51,1,1.77,1.77,0,0,0,1.26,1.86,4.41,4.41,0,0,1,2.54,1.83,3.15,3.15,0,0,0,.85.65c.93.5,1.3.33,1.37-.6a19.2,19.2,0,0,0,.15-3.13,18.32,18.32,0,0,0-.83-3.6c-.11-.34-.72-.63-1.1-1a3.51,3.51,0,0,0-.59,1,10.13,10.13,0,0,0-.13,1.59l-.44.18A13.08,13.08,0,0,1,163.46,119.08Zm-5.61-10a11.42,11.42,0,0,0,2.42.49.7.7,0,0,0,.61-.22c.57-.73.15-3.21-.94-4.59,0,1.46-1,1.53-2,1.6a1.53,1.53,0,0,0-.81.32C156.17,107.4,156.51,108.59,157.85,109.1ZM166,129.56c.66-.5.48-1.23-.13-1.86a28.1,28.1,0,0,0-2.73-2.49,11.29,11.29,0,0,0-1.94-1,26.66,26.66,0,0,0-2.22,1.83c-.13.13.14.84.41,1.12a1.7,1.7,0,0,0,2.2.29c.77-.4,1.36,0,1.94.58.27.29.52.59.79.89C164.82,129.52,165.35,130.06,166,129.56Zm-1.74,9.94a3.93,3.93,0,0,0,2.67,2.24c.37.09,1,0,1.13-.19a1.72,1.72,0,0,0,0-1.47,1.79,1.79,0,0,1-.6-1.92,23.61,23.61,0,0,0-.88-2.37,1.42,1.42,0,0,0-.87-.61c-.24-.05-.73.24-.71.37.14,1-.52,1.56-.9,2.3A2.25,2.25,0,0,0,164.27,139.5ZM169,151a2.34,2.34,0,0,0-1.4-.4c-.51-.06-1,0-1.55,0-1.13-.1-2.24-.27-3.46-.42.06.74-.12,1.49.15,1.72a32.74,32.74,0,0,0,3.72,2.75c.54.34,1.07,0,1.35-.7s.65-1.07.89-1.63S169.2,151.18,169,151Zm2.51-3.9-.08-.08a2.67,2.67,0,0,1-1.27-2.17c0-.26-.34-.66-.62-.81a2,2,0,0,0-2.62.75,14.31,14.31,0,0,0-.93,1.78,2.3,2.3,0,0,0,.35,2.7c1,.75,1.67.05,2.38-.49,0,0,.07,0,.13,0,.45.23.82.45,1.22.61a1.8,1.8,0,0,0,2.23-.57C172.86,148,171.91,147.6,171.53,147.08Zm3.94.72c.76.58,2.12.38,2.39-.37a11.91,11.91,0,0,0,.68-3.65c0-.44-.71-.94-1.07-1.44-1-1.41-1.08-1.42-2.73-1.1a3.46,3.46,0,0,1-1.66.06c-1.07-.33-1.36-.19-1.24,1.22A12.16,12.16,0,0,0,175.47,147.8Zm-5,30.86c.18,0,.58-.68.76-1.08a11.25,11.25,0,0,0,.38-1.29c1-3,2.42-5.39,5.95-6.13,2-.42,2.71-1.52,3-3.81,0-.36.07-.72.11-1.08.14-1.22-.49-1.81-1.68-1.45a3.26,3.26,0,0,0-1.31.85,1.08,1.08,0,0,1-1.45.33c-.3-.16-.6-.32-.91-.45a2.57,2.57,0,0,0-2.6.18c-.89.63-.74,1.5-.73,2.31a3.7,3.7,0,0,0,.2,1.11,2.22,2.22,0,0,1-1.84,2.49c-.19,0-.34-.24-.5-.37a5.4,5.4,0,0,0-1.29-1.06,21.37,21.37,0,0,0-2.33-.52,2,2,0,0,0-2.5,1.72c-.42,2.28.58,3.41,2.89,3.21,1.44-.13,2,.22,2.13,1.54.07.55,0,1.12.11,1.66a2.66,2.66,0,0,0,.34,1.34A1.77,1.77,0,0,0,170.44,178.66Zm-8.3,26.67c0,.17.2.3.31.45,1.57-1.12,2.25-4,1.17-5a1,1,0,0,1-.22-1.25,2.24,2.24,0,0,0-.59-2.61.7.7,0,0,0-.6-.21,3.17,3.17,0,0,0-2.42,3.37,5.07,5.07,0,0,0,.8,1.75C161.29,202.87,162.22,203.8,162.14,205.33Zm2.35,18c-.6-.47-1.55-1.06-2.17-.85-1.06.37-1.41-.06-1.93-.63a3.45,3.45,0,0,0-1.45-1c-.51-.15-1.37-.2-1.54.64a15.08,15.08,0,0,0-.33,3.65A1.78,1.78,0,0,0,159,227c1.21,0,1.46-.91,1.6-2.08.74.36,1.32.66,1.91.94a1.36,1.36,0,0,0,1.89-.52C164.89,224.59,165.08,223.81,164.49,223.34Zm.78-3.13c-.24-.13-.28-.54-.48-.75a10.34,10.34,0,0,0-1.28-1.2,11.87,11.87,0,0,0-1.8-1.18,1.8,1.8,0,0,0-1.24-.27c-.36.12-.64.66-1,1.07a13.49,13.49,0,0,0,1,3.07,2.09,2.09,0,0,0,1.73.65,1.91,1.91,0,0,1,1.6.37c.61.54,1.29.15,1.81-.45S165.83,220.52,165.27,220.21Zm3.27-9.39a.59.59,0,0,1,.13-.42c1.13-1.34-.09-1.88-.48-2.66-.13-.24-.86-.34-1.16-.16a2.4,2.4,0,0,0-.91,1.22,2,2,0,0,0,.14,1.1,1.71,1.71,0,0,1-.72,1.86c-.62.53-1.26,1-2.1.52a8.8,8.8,0,0,0,.66-.81c.5-.79.28-1.36-.38-1.65s-1.17.28-1.36.93a33.26,33.26,0,0,0-.76,3.33,2.09,2.09,0,0,0,1.61,2.58c1,.29,2,.56,3,.78a1.24,1.24,0,0,0,.76-.17,15.29,15.29,0,0,1,1.13-2.66A5.59,5.59,0,0,0,168.54,210.82Zm17,16.5a2.78,2.78,0,0,1-.33-.72c-.16-1.08-.71-1.41-1.78-1h0c-.35,2-.5,3.06-.74,5.09h2a7.23,7.23,0,0,1-.4-.66C183.6,228.66,184,228,185.55,227.32Zm48.94-97.59a1.74,1.74,0,0,0,.12,2c.71,1.17,1.4,2.35,2,3.54l.06.1c-.62-2.54-1-3.81-1.69-6.35A8.13,8.13,0,0,0,234.49,129.73Zm-1.84,95.53c0,2.17.07,3.26.22,5.43h-.68a3,3,0,0,0-.53-1.18,1.41,1.41,0,0,1-.21-1.92,1.46,1.46,0,0,0-.17-1.87c-.44-.49-.95-.92-1.46-1.4-1.65,3.08-1.82,3.74-1.64,4.8a2.38,2.38,0,0,0,1.06,1.57h-5.48a2.93,2.93,0,0,1,.14-.78,2.71,2.71,0,0,0-.07-1c-.49.08-1.13,0-1.44.26a4.91,4.91,0,0,0-1,1.53h-4.28a1.87,1.87,0,0,0,.07-1.86,3.05,3.05,0,0,0-1.29-1.6c-.05-1.61-.07-2.41-.06-4a1.9,1.9,0,0,0,.58-.28c.9-.59,1.78-1.06,1.54-2.47-.17-1,.36-2.18-.67-2.83.42-.81.37-2.48-.19-2.89a.78.78,0,0,0-.9,0c.11-1.49.18-2.24.33-3.74.41-1.1.69-2.23,1.07-3.43a11.11,11.11,0,0,0,1.5-.66,2.59,2.59,0,0,0,1.22-2.62,1.6,1.6,0,0,0-1.68-1.5,2.11,2.11,0,0,0-1.2.54c.19-1.36.29-2,.49-3.41a4,4,0,0,0,.63.14l1.9-1c-.28-.43-.55-.86-.82-1.3,0,0-.06,0-.09,0-.59-.38-.61-.79,0-1.56a10.17,10.17,0,0,0,1.4-2.64.94.94,0,0,0-.57-.93A1.87,1.87,0,0,0,219,193l0,0c.24-1.49.36-2.23.59-3.72H215a7.21,7.21,0,0,0-.93-1.11,16.45,16.45,0,0,0-2,1.11H211l-.87,2.48a15.38,15.38,0,0,1-2,1.42,2.83,2.83,0,0,0-1.29,2.87,1.84,1.84,0,0,0,1.29,1.34c-.38,1.08-.56,1.62-.93,2.7a4.48,4.48,0,0,0-2.11,3.11,18.61,18.61,0,0,0-.2,3.93c-.87,2.78-1.29,4.17-2,7a3.92,3.92,0,0,0-.45.52c-.79,1.09-1.76,2-2.55,3.12-.22.29-.36,1-.22,1.09.94.58.65,1.87,1.35,2.56a.27.27,0,0,0,.07.08,82.18,82.18,0,0,0-1.56,9.22h-3.4c.32-.36.64-.73.57-.85-.42-.7.36-2.16-1.3-2.11-1.18,0-1.54-.55-1.33-1.75,0-.25.14-.5.17-.75.09-.78-.05-1.48-.93-1.59a1.93,1.93,0,0,0-1.78,1.56,3.61,3.61,0,0,1-.53,1.41c-.88,1.28-.6,2.11.67,2.58.25.38.42,1,.78,1.12a10.36,10.36,0,0,0,1.11.38h-4.94c.11-.69.11-1.42.16-2.12a25.7,25.7,0,0,0,.05-2.63,5.29,5.29,0,0,0-.32-1.52c-.2-.58-.5-1.12-.73-1.7A2.55,2.55,0,0,0,184.3,221c.4-1.85.62-2.77,1.09-4.62l.09-.15c.31-.61.52-1.26.86-1.86.74-1.26,1.33-2.73.61-3.67.54-1.87.83-2.8,1.42-4.67.86-1.35,1.66-2.74,2.48-4.12a1.4,1.4,0,0,0,.09-.51c.22-1.13.36-2.25.69-3.37s.87-2,1.17-3.08c.13-.47,0-1.3-.23-1.37h0l.65-1.87a2.57,2.57,0,0,0,2.22-.11,2.51,2.51,0,0,1,2.17-.17c.82.4,1.59,0,2.11-1a6.11,6.11,0,0,0,.55-1.49c.34-1.72.62-3.43.95-5.37.23-.52.52-1.21-.51-1.39-2.05-.36-4.93,1.78-5.35,3.92a2.76,2.76,0,0,1-.58,1.16c1-2.8,1.46-4.2,2.38-7a3.36,3.36,0,0,0,.63-.76,11.07,11.07,0,0,0,1-2.31c.29-.86.22-1.28-.25-1.34.45-1.42.67-2.13,1.09-3.56a6.89,6.89,0,0,0,.89-.36c-.11.82-.25,1.5-.28,2.16a5.82,5.82,0,0,0,.2,1.18,8.7,8.7,0,0,0,1.49-.76,2,2,0,0,0,.59-1,13.7,13.7,0,0,0,.26-7.49c-.12-.48-.42-.75-1-.36a3.27,3.27,0,0,0-.37.28c.37-1.49.55-2.24.88-3.73a4.85,4.85,0,0,0,2.67-3.39c.17-.64,0-1.52,1.1-1.64.12,0,.35-.51.3-.7a15.39,15.39,0,0,0-.72-1.85c-.22-.54-.57-.54-1-.16a5.59,5.59,0,0,0-1.09,1.2c.23-1.42.33-2.13.49-3.54a2.32,2.32,0,0,0,.17-1.12.53.53,0,0,0,0-.12c.09-.83.13-1.25.2-2.08l.32-.05c1.44-.33,3.25.27,4.16-1.44,0,0,.06,0,.09-.06l1.35-1.15c-.63-.27-1.27-.53-1.89-.82a20.23,20.23,0,0,1-2-1,8.76,8.76,0,0,1-1.1-.84,2.37,2.37,0,0,0-.69.11c0-1.53,0-2.29,0-3.81l.38.16c.31.38.55,1,.93,1.12a26.66,26.66,0,0,0,3,.87.48.48,0,0,0,.4-.07c.3-.42.9-1.11.77-1.27-.52-.7,0-2.16-1.63-2.11-1.17,0-1.63-.56-1.67-1.76,0-.25,0-.49,0-.74-.08-.78-.39-1.48-1.31-1.59a1.16,1.16,0,0,0-1.07.53c-.17-2.89-.3-4.34-.61-7.23a22.09,22.09,0,0,0,1.76,2.43,1.34,1.34,0,0,0,.95.42c.19,0,.39-.44.36-.71a1.17,1.17,0,0,1,.6-1.33c.23-.12.32-.75.17-1-.48-.88-1.11-1.71-1.68-2.55a1.12,1.12,0,0,0-1.33-.59,1.58,1.58,0,0,1-1.2-.4l-.08-.07c-.25-2-.38-2.95-.67-4.92a2.94,2.94,0,0,0,2.81.39,6.88,6.88,0,0,1,1.13,0c0,1-.11,1.82-.1,2.68a1.67,1.67,0,0,0,1.24,1.74,1.07,1.07,0,0,0,1.55-.84,3.08,3.08,0,0,0,.16-.79c0-2.34-1.16-4.59-2.34-6.78-.59-1.11-2.82-1.42-3.14-.59a1.18,1.18,0,0,1-1.82.75c-.47-3-.71-4.51-1.19-7.52a2,2,0,0,1,1.26,2.24c-.13,1.09.33,1.57,1.52,1.62a2,2,0,0,1,1,.34c.62.43.94.33,1.24-.13,1-1.5.72-3.08-.75-4.85-.32-.39-.82-.92-.8-1.26.07-1-.64-1.14-1.35-1.35a3.82,3.82,0,0,1-2.41-1.33,1.33,1.33,0,0,0-.52-.41c-.29-1.91-.44-2.86-.71-4.77A30.79,30.79,0,0,0,201,101a5.15,5.15,0,0,0,2.22,1.7c1.23.53,2.22-.43,1.66-1.61a8.66,8.66,0,0,0-2-2.64c-1.39-1.25-1.92-2.57-1.23-3.88.13-.22.24-.46.39-.76-.75-.79-1.36-1.24-2-.42a1.8,1.8,0,0,1-1.12.58h0c-.22-1.66-.31-2.5-.49-4.17l.66-.94a.77.77,0,0,0,.07-.68c-.35-.69-.69-1.38-1.08-2.05-.2-2.29-.27-3.44-.36-5.73.7.94,1.59.62,2.45.55.3,0,.69-.13.91,0,1.66,1.08,1.71,1.07,3.16.22,1.09-.63,2-1.25,1.48-2.9a11.83,11.83,0,0,1-.2-3l-4.07,2.62c-.3-.66-.51-1.25-.8-1.8s-.68-1-1-1.55l-1.22,1.29a.32.32,0,0,1-.11.07c-.23-.07-.45-.16-.67-.25,0-1.66,0-2.49.1-4.15A1.71,1.71,0,0,0,199.56,70c0-.16.07-.33.11-.5H201a9.93,9.93,0,0,0,0,1.09c0,1.34.45,1.54,1.68,1.17.28-.09.76-.13.87,0a1.55,1.55,0,0,1,.16,1c0,.5-.14,1-.13,1.48s.46.75.9.51a1.31,1.31,0,0,0,.66-.75c.28-1.38.5-2.78.79-4.14,0-.11-.08-.22-.11-.33h2.47a4.24,4.24,0,0,0,.18,2.18,2.22,2.22,0,0,1,0,.89,18,18,0,0,0-.2,2.74c.08,1.29.37,2.58.56,3.88A7,7,0,0,0,210.6,83a4.6,4.6,0,0,1,1,1.61,6,6,0,0,0,2.86,3.54,1.72,1.72,0,0,0,1.18.08,14.74,14.74,0,0,0,2.46-1c.49-.27,1.1-.65,1.2-1.14a14.87,14.87,0,0,0,.23-3.55,2.37,2.37,0,0,0-.86-1.64,1.81,1.81,0,0,0-2.18,0c-1.11.83-2,1.66-1,3.32a1.43,1.43,0,0,1-1.78-1c-.27-.88-.29-1.8-.54-2.68a5.1,5.1,0,0,0-.94-2c-1.29-1.33-1.52-1.92-.77-3.43a18.25,18.25,0,0,1,1-1.83c.36-.57,1.15-1.15.55-1.84-.36-.42-1.24-.39-1.91-.57a2.24,2.24,0,0,1,.25-.45,2,2,0,0,0,.42-.82h6c0,.22,0,.33.07.55a2.11,2.11,0,0,0-1.56.58,5,5,0,0,0-1,5.82c.72,1.35,1.15,1.45,2.1.44a2.07,2.07,0,0,1,.26.48,1.23,1.23,0,0,0,1.54,1.06l.07,0c2,9.47,3.64,14.21,6.88,23.68-.28-.09-.57-.16-.84-.27-.1.58-.46,1.23-.22,1.7a23.94,23.94,0,0,0,2.07,2.88,3,3,0,0,1,.57.92,1.67,1.67,0,0,0,.6,1.07l1,3a2.39,2.39,0,0,0,0,1.38c0,.09.09.27.16.44.3.76.57,1.16.92,1.3,1.42,4.14,2.12,6.2,3.41,10.34l-.82-.11c-1.63-.22-2.46.76-2,2.78,1,2.18,2.11,4.87,3.23,7.54a6.49,6.49,0,0,0,1.15,1.69,5.3,5.3,0,0,0,1.17.78,8.57,8.57,0,0,0,.44-1.26c.64,2.72.93,4.08,1.4,6.8a2,2,0,0,1-.95-2.36,3,3,0,0,0-.22-1c-.48.07-1.13,0-1.41.26a4.69,4.69,0,0,0-.89,1.72c-.5,1.34-.21,2.09,1.05,2.95.51.36,1,.74,1.51,1.11.73.54.88,1.07.21,1.78a3.27,3.27,0,0,0-.55,1.1,2.54,2.54,0,0,0,1.6,2.66,1.66,1.66,0,0,0,.7,0,75.7,75.7,0,0,1,.27,8c-.84.92-1,.78-1.71-.41-.24-.4-.89-.9-1.22-.79a2.6,2.6,0,0,0-1.35,1.25,10.83,10.83,0,0,0-.48,2.32,23.45,23.45,0,0,0,.3,2.85,1.59,1.59,0,0,0,1,1.08,4.2,4.2,0,0,0,3.24-.49c0,.63,0,.94-.1,1.56A7.76,7.76,0,0,0,238,167c-1.37.64-1.84,1.81-1.88,4,0,1.2.84,1.34,1.78,1.56a8.37,8.37,0,0,0,.33-1.77c0-.82.21-1.2.84-1.23-.31,3.5-.53,5.25-1,8.74l-1,.44a26.27,26.27,0,0,0,.16-2.95,7,7,0,0,0-.47-2.34c-.23-.58-1.39-.54-1.89.06a5.94,5.94,0,0,0-1.17,2,5.09,5.09,0,0,0,2.09,5.91,2.63,2.63,0,0,0,1.78.23c-.47,3.2-.73,4.8-1.24,8l-.11.09a1.57,1.57,0,0,0-.31.73,8.88,8.88,0,0,0-.22,3.18c-.36,2.24-.54,3.36-.87,5.6a2.82,2.82,0,0,0-1.26.83,7.46,7.46,0,0,0-2.38,5.62c0,.49.46,1.22.83,1.21a1.59,1.59,0,0,0,1.45-1.54,1.91,1.91,0,0,1,.65-1.21c-.18,1.29-.26,1.94-.42,3.23l-.15-.34a2.5,2.5,0,0,0-1.75,2.59,10.34,10.34,0,0,0,1.22,4.35c-.15,1.85-.22,2.78-.31,4.64a1.78,1.78,0,0,0-.9,1.19A5.84,5.84,0,0,0,232.65,225.26ZM229,189.08a1.39,1.39,0,0,0,1.35.67c1.24-.38,1.66.24,2.15.9.21.27.44.52.68.79a2.26,2.26,0,0,0,.26-.15c1.81-2.23,1-6-1.43-6.41a1.74,1.74,0,0,0-1,.2C229.76,185.69,228.5,188.05,229,189.08Zm4.56-36a1.93,1.93,0,0,0,1.9,2.11,2.08,2.08,0,0,0,2.14-1.93,1.94,1.94,0,0,0-1.92-2.13A2.14,2.14,0,0,0,233.6,153.07ZM226,192.78a13.47,13.47,0,0,0,.61,2.87,1.83,1.83,0,0,1,.11.92c-.29,1,.05,1.37,1,1.4,1.93.06,5.92-2.78,6.59-4.72a.14.14,0,0,0,0-.11c0-.32.06-.78-.14-.91a1.19,1.19,0,0,0-1,.11c-.67.42-1.29.95-2,1.5-1.7-.6-1.64-.64-2.59-2-.27-.41-1-.5-1.47-.73C226.64,191.65,226,192.3,226,192.78Zm.93,17c.05.67.25,1.37,1,1.17a2.63,2.63,0,0,0,1.49-1.22,9.56,9.56,0,0,0,.68-5.35A6.71,6.71,0,0,0,226.88,209.81Zm2-6.42a5.31,5.31,0,0,1,1.06.27,5.67,5.67,0,0,0,.49-1.33,24.84,24.84,0,0,0,.11-2.72c0-.2-.13-.48-.28-.51-1.7-.25-4.18.72-4.65,2.87,0,.09,0,.27-.06.45-.12,1.45.23,1.62,1.69,1.07A4.13,4.13,0,0,1,228.88,203.39ZM216.72,162c-.11.49-.33,1-.43,1.47s.3.75.79.52a1.77,1.77,0,0,0,.82-.75c.57-1.38,1-2.79,1.49-4.15-.26-1.18-.46-2.2-.78-3.18a14.63,14.63,0,0,0-1-2c-.15-.3-.32-.58-.49-.87a3.65,3.65,0,0,0-.86.73,15.25,15.25,0,0,0-1.91,6.12c-.14,1.33.2,1.54,1.5,1.16.29-.09.78-.13.87,0A1.5,1.5,0,0,1,216.72,162Zm-3.65-20.06c-.34.67-.91,1.22-1.22,1.91-.49,1.12.13,2,1.55,2.12.18-.84.19-1.89,1.49-1.83.12,0,.29-.31.31-.5.12-1,.78-1.16,1.7-1.09.09.47.16.88.22,1.29,1.39,0,2.38-1.34,1.51-2.27a7.07,7.07,0,0,1-1.24-2.74c-.19-.51-.47-1-1.14-.73l-1.84.68a2,2,0,0,0-1.29,2.09A1.51,1.51,0,0,1,213.07,141.93Zm3.53-22.17.36,1.08c.48-.1,1.1-.06,1.41-.33,1.86-1.65,1-6.42-1.59-8.46-1.07,1.18-1.2,2-.71,3.66a2.24,2.24,0,0,1,0,1.23c-.24.79-.89,1.51.4,2.41C216.58,119.41,216.56,119.62,216.6,119.76Zm-2.43-6.1a2.66,2.66,0,0,0,1.42-1.46,3.13,3.13,0,0,0-.52-2.37c-.56-.68-1.23-.14-1.5.24-.92-.09-1.78-.41-2.23-.17-1.51.79-2.65,1.76-2,4a30.07,30.07,0,0,0,1.84,4.33,2.08,2.08,0,0,0,2.44,1.06c1-.36.56-1.19.21-2a4.52,4.52,0,0,0-.3-.51C212.62,115.24,212.84,114.37,214.17,113.66Zm-2.78-9a9.83,9.83,0,0,1,1.12,2.06c.24,1,1,1.16,1.7,1.36s1.28-.1,1.26-.76A12.35,12.35,0,0,0,215,104a9.52,9.52,0,0,0-4.2-5.09c-.48.43-1.52.83-1.53,1.48a4.64,4.64,0,0,1-1.86,3.53c-.71.66-.52,2,.16,2.87a3.57,3.57,0,0,0,2.84,1.46c.69,0,1-.26.53-1A2,2,0,0,1,211.39,104.62Zm11.37,30a1.72,1.72,0,0,0,1.47.11c.3-.2.32-.87.3-1.35s-.34-1-.39-1.48c-.11-.91.7-2,1.36-2s1.39,1.1,1.48,2.21a6.88,6.88,0,0,0,.28,1.15c.24.9.7.78,1.17.4.74-.6,1.51-1.06.83-2.47-.47-1-.34-2.18-1.59-2.83a3.71,3.71,0,0,0-1.24-2.89c-.89-.5-1.15.28-1.6.65-.05,0-.09.11-.15.11-1.58,0-1.57,1.33-1.87,2.43a11.78,11.78,0,0,1-.95,2.63A2.56,2.56,0,0,0,222.76,134.63Zm-2.49-27.74a6.84,6.84,0,0,0,.06-2.64c0-.28-.67-.84-1-.92a1.26,1.26,0,0,0-1.15.38c-1.09,1.52-.93,3.25.41,5.24.84,1.27,1.19,1.62,2.69,1.83l1.4-1-1.47-1.3-.11,0C220.28,108.08,220.06,107.67,220.27,106.89Zm.8,14.42a1.86,1.86,0,0,0,1.64,1.83c1.08.2,1.66-.3,1.62-1.27,0-1.15-.28-2.32-.45-3.59a7.4,7.4,0,0,0,1.19-.65,2,2,0,0,0,0-2.62,2.86,2.86,0,0,0-2.4-1.5c-.78,0-1.37.9-1.29,1.92a2.13,2.13,0,0,0,.18.85,2,2,0,0,1,0,2.19A6.25,6.25,0,0,0,221.07,121.31Zm8.3,33.2c.4-.66,1-1.49.24-2.25a7.08,7.08,0,0,0-1.78-1.36c-.45-.21-1.39-.29-1.54-.05A16.94,16.94,0,0,0,225,153.5a3.93,3.93,0,0,0,.19.65c.47.9.92,1.8,1.4,2.68a6.81,6.81,0,0,0,.93,1.36c.56.58,1.23.46,1.54-.35a2.63,2.63,0,0,0,.12-1.82A1.3,1.3,0,0,1,229.37,154.51Zm.56-10.91c.12-.52,0-1.18.34-1.56a2,2,0,0,0,.18-2.47c-.61-.93-1.26-2-2.66-1.7-1.38-.51-1.49.71-1.87,1.45s.13,1.34.82,1.83a1,1,0,0,1,.35.75c-.05.7-.23,1.38-.3,2.08,0,.29,0,.81.17.89.77.36,1.59.61,2.4.9C229.56,145.05,229.76,144.33,229.93,143.6Zm-9.18-3.46a8.44,8.44,0,0,0,.31,1.59,1.81,1.81,0,0,0,1.93,1.35c1-.12.76-.94.81-1.65a1.8,1.8,0,0,1,.56-1.28,1.18,1.18,0,0,0,.43-1.86c-.51-.8-2.13-1.5-2.49-1C221.72,138.18,220,138.41,220.75,140.14Zm-.95-8.3c-1.47-.77-2.38-.53-3,.37a8.68,8.68,0,0,0-.87,2c-.08.24,0,.76.15.86a1.93,1.93,0,0,0,1,.13c.33,0,.72-.28.94-.15.65.38,1,.09,1.09-.35C219.43,133.8,219.59,132.84,219.8,131.84Zm-8.41,15.94a3,3,0,0,0,.54.58,18.71,18.71,0,0,0,1.77,1c.73.37,1.48.69,1.91.89,1.65,0,3.49-1.37,3.64-2.64a1.61,1.61,0,0,0-.47-1.21c-.16-.15-.79,0-1.08.25a6.55,6.55,0,0,0-1.1,1.13,1.45,1.45,0,0,1-1.93.35,12.35,12.35,0,0,0-1.35-.7,3,3,0,0,0-1.25-.23C211.83,147.27,211.62,147.6,211.39,147.78Zm5,25.11h4.64a3,3,0,0,1,.11,1,3.81,3.81,0,0,0,1.46,3.54,1.53,1.53,0,0,0,1.15.08,22.21,22.21,0,0,0,2.87-1,3.77,3.77,0,0,0,1.65-1.13,16.47,16.47,0,0,0,1.56-3.56,1.78,1.78,0,0,0-.3-1.64,1.76,1.76,0,0,0-2.17,0c-1.39.83-2.5,1.66-2.22,3.33-1,.16-1.43-.31-1.39-1,0-.88.33-1.8.36-2.68a3.61,3.61,0,0,0-.32-2c-.91-1.33-1-1.93.13-3.44.45-.62.92-1.24,1.41-1.82s1.37-1.15.88-1.84c-.29-.42-1.18-.4-1.82-.58a4.2,4.2,0,0,1,.31-.45,1.6,1.6,0,0,0,.15-2.4,4.66,4.66,0,0,1-.53-.78c-.36-.68-.8-.6-1.24,0-.15.19-.28.38-.41.57a74.73,74.73,0,0,0-.51-8.31l.2,0a18.8,18.8,0,0,0,2.79-1.21c.85-.52.72-1.21-.16-1.73-1.31-.77-2.49-.58-3.15.37-.12-.82-.18-1.23-.31-2.05,0,1.26-.06,1.89-.14,3.14,0,.07,0,.12,0,.2a1.67,1.67,0,0,0,0,.67C220.66,158,219.38,163,216.41,172.89Zm14.39-5.21a1.43,1.43,0,0,0,1.27-1.5,6.93,6.93,0,0,0-.08-1.58c-.17-1-.54-2,.12-3.16a1.91,1.91,0,0,0-.33-1.88c-.56-.52-1.43-.23-2.18.33a6,6,0,0,0-2.16,5.81c.37,1.35.76,1.45,2,.44a1.85,1.85,0,0,1,.14.48C229.53,167.46,229.94,167.82,230.8,167.68Zm-1.65-49.34c-.74-.47-1.49-.92-2.24-1.38l-.19.24a5.49,5.49,0,0,0,.21.69,3.13,3.13,0,0,1,.14,2.77,5.37,5.37,0,0,0-.43,1.32,4.52,4.52,0,0,0,.11,1.07A3.3,3.3,0,0,0,228,123c.85-.44,1.73-3.33,1.39-4.33A.53.53,0,0,0,229.15,118.34ZM224.6,103.7c-.2-.4-.5-1-.82-1.09a1.24,1.24,0,0,0-1.13.32c-.3.3-.37.81-.58,1.2-.36.68-.26,1.3.65,1.82a1.46,1.46,0,0,1,.86,1.68,10.87,10.87,0,0,0-.1,1.19c.25,1.2.65,1.43,1.38.94a3.69,3.69,0,0,0,1.07-1.05,1.44,1.44,0,0,0-.46-2.1,1.71,1.71,0,0,1-.84-2.08A1.19,1.19,0,0,0,224.6,103.7Zm-13.69-9.17a8.54,8.54,0,0,0,1.77,3,4.07,4.07,0,0,0,2.39,1.17c1,.06,1.2-1,1.58-1.64l-1.71-1.2.16-.45a8.85,8.85,0,0,1,2.17.47,8.5,8.5,0,0,1,1.52,1.34c.75.62.77,1.08.2,1.58-.24.22-.48.74-.35,1a2.48,2.48,0,0,0,1.2.86c2,.57,3.64-.88,3-2.86a45.12,45.12,0,0,0-1.93-4.5,1.28,1.28,0,0,0-.52-.45c-.68-.39-1.4-.69-2-1.14a5.71,5.71,0,0,0-4.25-1.16,1.68,1.68,0,0,0-.77.47c-.42.36-.72.9-1.22,1.09C210.79,92.53,210.37,93,210.91,94.53Zm-5.32-7c.79,1.44,1.56,2.9,2.45,4.3.29.46,1.07,1.07,1.34.44A5.73,5.73,0,0,0,210,88.9a8,8,0,0,1-.26-2.88A1.87,1.87,0,0,0,208,84.21C207,84.34,205.61,86.41,205.59,87.49ZM204,93.93a1.65,1.65,0,0,1,.87,1,8.65,8.65,0,0,0,1.61,4.89,2,2,0,0,0,.59.65.55.55,0,0,0,.53-.29c.37-1.51.69-3,1-4.44l-1-2.18c-.69-1.49-1.35-3-2-4.47A10.18,10.18,0,0,0,204.43,87c-.85-1.07-2.18-1-2.36.07a23.06,23.06,0,0,0-.29,4.57C201.83,92.83,202.7,93.56,204,93.93Zm6.5,35.64c1.14.58,1.25,1.86,2.15,2.56.25.19.52.53.73.53a1.45,1.45,0,0,0,1.07-.36,3.38,3.38,0,0,0,.48-1.12,9.73,9.73,0,0,1-1-2.39c0-.52.46-1,.82-1.45,1.06-1.24,1.36-1.17,2.41.53,1.17,1.88,1.23,1.95,2.62.7a2.23,2.23,0,0,0,.7-1.91,9.8,9.8,0,0,0-1.43-2.88c-.9-1.41-3.08-1.85-3.46-.7-.23.69-.67.78-1.31.75a2.23,2.23,0,0,0-2.52,1.53c-.37,1.08-1,2-1.41,3.12A1.37,1.37,0,0,0,210.46,129.57Zm1.29,7.59c.8-.1.79-.65.53-1.26a19.56,19.56,0,0,1-1-2c-.39-1.32-1.63-1.62-2.57-2.21-.11-.07-.76.87-1.15,1.34a4,4,0,0,0-.55.7,1.1,1.1,0,0,0,.43,1.6c.36.2.88,0,1.56,0,.2.61.46,1.44.68,2.13C210.5,137.36,211.12,137.25,211.75,137.16Zm-4.28,17.52a1.08,1.08,0,0,0,.88,0,5.69,5.69,0,0,0,2.74-3.51c.2-.7-.18-1.08-1.07-1.25a6.43,6.43,0,0,0-1.75,1.39,11.27,11.27,0,0,0-.91,2.64C207.29,154.17,207.33,154.61,207.47,154.68Zm-2.59,8.77a2.55,2.55,0,0,0,4.15-.22c.37-.62.69-1.27,1.08-1.87.16-.25.54-.59.73-.56a2,2,0,0,0,2.2-1.55,25.94,25.94,0,0,0,1.06-4.32c0-.17-.37-.55-.61-.57a1.64,1.64,0,0,0-1.84,1,13.35,13.35,0,0,1-1.46,2.06c-.83,1.13-1.78,2.21-2.52,3.41S206.41,163.12,204.88,163.45Zm-.36,1.9a4.11,4.11,0,0,0,3.34,3.79c.3.06.8.07.85.25.32,1.26,1.41.86,2.36.79.31,0,.74-.13.91,0,1.31,1.08,1.36,1.07,3.08.22,1.31-.63,2.43-1.24,2.38-2.9a16.28,16.28,0,0,1,.57-3c-1.79,1-3.24,1.8-4.74,2.62a15.55,15.55,0,0,0-.33-1.79,15.1,15.1,0,0,0-.65-1.56c-.5.43-1,.87-1.52,1.29a.55.55,0,0,1-.13.07,4.6,4.6,0,0,0-1.46-.45c-1,0-2.09.24-3.13.38Zm.16,14.67a23.5,23.5,0,0,0,2.32-1.93,1.07,1.07,0,0,0,.36-.68c-.15-1.63-.26-3.3-1.41-4.49a2.65,2.65,0,0,0-2,2.19,6.21,6.21,0,0,1-1.2,2,16,16,0,0,0-1.23,1.44,1.46,1.46,0,0,0,0,1.32A2.36,2.36,0,0,0,204.68,180Zm-11,18.61c-.14,1.06-.2,2,.71,2.5a2.11,2.11,0,0,0,2.38-.41c1-.72,1.84-1.5,1.5-2.71a.94.94,0,0,1,.33-.73,1.18,1.18,0,0,1,.9-.13c.91.36,1,1.19.29,2.31s-.45,1.57.71,1.62a1.36,1.36,0,0,1,.83.34c.4.44.78.33,1.3-.13,1.7-1.5,2.25-3.07,1.68-4.85-.13-.39-.36-.92-.17-1.26.6-1.05-.06-1.14-.67-1.35s-1.5-.39-1.73-1.32-1.39-.6-2.21.15-1.52,2.22-3.09,2.2c-.35,0-1,.65-1.34,1.11A28.33,28.33,0,0,0,193.73,198.63Zm1.67,21.17c.2,0,.54-.45.59-.71a1.72,1.72,0,0,1,1-1.34,1.27,1.27,0,0,0,.53-1,24,24,0,0,0-.72-2.55c-.15-.52-.43-.74-1.1-.59a1.09,1.09,0,0,1-1-.4,1,1,0,0,0-1.52-.55,15.05,15.05,0,0,1-1.52.25c-.57.15-1.33.25-1.65.63-1,1.19-2.7,2.1-2.37,3.91,0,.1-.12.26-.19.37-.72,1.08-.66,1.24.46,1.44.2,0,.38.12.62.19-.06.45-.11.85-.18,1.42l1.29-.59a4.62,4.62,0,0,0,1.06.68,4.24,4.24,0,0,0,1.18,0,4,4,0,0,0,.1-1.48c-.12-.37-.62-.57-1-.83-.86-.62-.76-1.3.32-1.86a6.94,6.94,0,0,1,1.17-.46c.62-.2,1-.05,1.14.6a11.66,11.66,0,0,0,.94,2.47A1,1,0,0,0,195.4,219.8Zm1.84,1.14a11,11,0,0,0-1.54,1.34,6.07,6.07,0,0,0-.73.7c-.44.57-.59,1.23,0,1.6.32.2.87,0,1.55,0,.06.61.14,1.44.22,2.13.83-.13,1.47-.24,2.11-.32.83-.11.93-.66.81-1.27a13.08,13.08,0,0,1-.49-2C199.14,221.83,198,221.53,197.24,220.94Zm5-16.36c-.06-1.11-2.14-1.42-2.87-.59-.94,1.09-1.76,1.24-2.59.44-.32-.31-.52-.74-.81-1.08-.64-.79-1.22-.74-2.16.12a1.22,1.22,0,0,1-.6.27,2.2,2.2,0,0,0-1.74,1.43,37.07,37.07,0,0,0-1.26,3.52,1.71,1.71,0,0,0,1.55,2.08,2.5,2.5,0,0,0,1.95-2,3.75,3.75,0,0,1,.12-.44c.8-.09,2-.51,2.22-.19.72.92,1.67.64,2.69.46a7.08,7.08,0,0,1,1.14,0c-.47,1-.92,1.82-1.27,2.69s-.29,1.46.52,1.74a1.57,1.57,0,0,0,1.9-.85,4.63,4.63,0,0,0,.48-.79A14.3,14.3,0,0,0,202.23,204.58Zm4.8-14.26a4.91,4.91,0,0,0-.64-2.64,2.87,2.87,0,0,1,.64-3.87l.75-.76c-.38-.8-.79-1.24-1.84-.43a3.16,3.16,0,0,1-1.39.59,1.37,1.37,0,0,0-1.3,1.39,40.78,40.78,0,0,0-.05,5.63,2.5,2.5,0,0,0,1.36,1.7A1.86,1.86,0,0,0,207,190.32Zm6.33-5.33c0-.86,0-1.52,0-2.18,0-1.49,0-3,0-4.47a6.55,6.55,0,0,0-.22-2.11c-.42-1.08-1.77-1-2.39.06a40.2,40.2,0,0,0-2.24,4.57,1.57,1.57,0,0,0,1.1,2.34.93.93,0,0,1,.41,1,8,8,0,0,0-.77,4.89c.05.24.1.54.27.65a.91.91,0,0,0,.68-.29C211.29,187.93,212.36,186.4,213.36,185Zm2.44-3.5a8.41,8.41,0,0,0,2.11-3.33,10.51,10.51,0,0,1,.92-2.88,1.22,1.22,0,0,0-1.09-1.81c-1,.13-3.21,2.2-3.68,3.28.2,1.44.34,2.9.6,4.31C214.74,181.51,215.25,182.12,215.8,181.49ZM226.69,187a29.67,29.67,0,0,0,.21-4.5c0-.18-.18-.34-.32-.45a17.26,17.26,0,0,1-1.53-1.13,4.11,4.11,0,0,0-3.73-1.17,2.89,2.89,0,0,0-1,.47,9.24,9.24,0,0,1-1.71,1.09c-1.57.52-2.19,1-2.38,2.52a5.76,5.76,0,0,0,.36,3,2.26,2.26,0,0,0,1.81,1.17c1,.06,1.69-1,2.39-1.64l-1.13-1.2.37-.45a6.88,6.88,0,0,1,1.95.47c.43.26.56.91.87,1.34.45.62.24,1.09-.57,1.59-.34.21-.85.74-.82.94a1.21,1.21,0,0,0,.77.86A3.74,3.74,0,0,0,226.69,187ZM222.64,199a7.41,7.41,0,0,0,1.6-1.06c.74-.64,1.17-1.46.6-2.1s-.4-1.3.21-2.08a1.58,1.58,0,0,0,.39-.82c0-.41,0-1-.27-1.1a1.75,1.75,0,0,0-1.29.32,9.58,9.58,0,0,0-1.18,1.2c-.71.69-.92,1.3-.27,1.83s.5,1,0,1.67c-.31.45-.56.94-.7,1.19C221.39,199.28,221.67,199.52,222.64,199Zm.23,8.86a.39.39,0,0,0-.06-.29c-.53-.47-1.07-.92-1.6-1.38l-.3.24a3.4,3.4,0,0,0-.11.7,4,4,0,0,1-1.11,2.76,8.92,8.92,0,0,0-1,1.32,4.77,4.77,0,0,0-.34,1.07,3.64,3.64,0,0,0,1.24-.09A9.36,9.36,0,0,0,222.87,207.89Zm4.52,13.29a.84.84,0,0,0-.78.15,5.69,5.69,0,0,0-.3,4.94c.7-.23,1.27-.38,1.82-.61a1.1,1.1,0,0,0,.49-.55C229,224.14,228.21,221.64,227.39,221.18Zm2-6.93c-.05,0-.07-.11-.09-.17a1.34,1.34,0,0,0-2.11-.6,3.93,3.93,0,0,1-3.3.46c-1.54-.22-2.78.76-3.06,2.79.19,2.17.46,4.86.93,7.53a4.54,4.54,0,0,0,.77,1.69,3.78,3.78,0,0,0,1,.78,10.28,10.28,0,0,0,.76-1.38,1.41,1.41,0,0,0-.1-.82c-.37-1.19-.74-2.36-1.1-3.54a1.84,1.84,0,0,1,.5-2c2-2,3-2,4.38,0a.52.52,0,0,0,.12.16c.34.23.68.44,1,.66.26-.4.68-.79.75-1.19C230.17,217.05,231.25,215.26,229.4,214.25Zm38.75,16a22.38,22.38,0,0,1-5.64,1.45,4.72,4.72,0,0,0-.51-1.21,1.66,1.66,0,0,0-2-1,1.08,1.08,0,0,1-1.32-1.08,6.53,6.53,0,0,0-2.36-4.24c-.4-.39-1-.51-1.25.44a19.31,19.31,0,0,0-.63,2.63c0,.38.36,1.11.59,1.11,1,0,1.14.51,1.06,1.26a2.92,2.92,0,0,1,2,2.24,22,22,0,0,1-7.75-1.91,20.87,20.87,0,0,1-2.93-1.65h.09c1.21,0,1.45-.91,1.58-2.08.73.37,1.32.67,1.92.94a1.32,1.32,0,0,0,1.87-.52c.48-.7.66-1.48.06-2s-1.57-1-2.18-.85c-1.05.37-1.41-.06-1.94-.63a3.46,3.46,0,0,0-1.46-1c-.52-.15-1.37-.21-1.53.63a14.54,14.54,0,0,0-.28,3.65,1.7,1.7,0,0,0,.07.46,18.15,18.15,0,0,1-2.44-2.44,19.71,19.71,0,0,1-1.63-2.35c0-.09-.07-.19-.11-.27a3.61,3.61,0,0,0-.69-1.17,20.51,20.51,0,0,1-1.05-2.56l.17-.07a1.19,1.19,0,0,1,1.74.58c.17.29.32.6.48.89.31.56.68,1.1,1.49.61a1.25,1.25,0,0,0,.49-1.87,19.52,19.52,0,0,0-1.82-2.48,6.55,6.55,0,0,0-1.57-1c-.55.33-1.1.65-1.63,1-.09-.45-.16-.91-.22-1.37a2.15,2.15,0,0,0,1-2.65,15.45,15.45,0,0,1-.2-3,1.92,1.92,0,0,0-.44-1.36c.27-1.19.4-1.78.68-3h0a5.58,5.58,0,0,0,.65-1.8,5.39,5.39,0,0,0,.08-1.25c.58-2.35.89-3.53,1.5-5.88a5.59,5.59,0,0,0,.91.75c1,.62,1.76.37,2.79-.65.47-.45.88-1,1.36-1.4,1-.91,1.88-.87,2.51,0,.13.17.88.1,1,0a6.35,6.35,0,0,0,1-1.83,3.5,3.5,0,0,1,2.23-2.68,2.74,2.74,0,0,0,1.22-1.09c.89-1.6.34-5.25-.85-6.2-.93-.74-1.74-.42-2,.9a26.14,26.14,0,0,0-.37,3.61,3.06,3.06,0,0,1-1.15,2.64c-1.17-.88-1.69-.86-3.21.07-.62.38-1.24.77-1.88,1.09-.9.46-1.57.3-1.81-.49a2,2,0,0,0-.18-.39c.51-1.94.77-2.91,1.26-4.85a2.78,2.78,0,0,1,1.78-.55,3.5,3.5,0,0,0,3.45-2.07c.54-1,.91-1.89.35-2.47a1.24,1.24,0,0,0-.26-.19h7.43a1.94,1.94,0,0,0,1.06.31c.07,0,.19-.13.31-.31h1.42a1.8,1.8,0,0,0,.06.53,4.42,4.42,0,0,0,1,1.43.66.66,0,0,0,.5-.15,4.31,4.31,0,0,1,.48-.48l-.7,2.81a3.13,3.13,0,0,0-.3-.2c-1.2-.7-2.26.09-3.33.92-1.41,1.09-1.65,1.81-1.06,3.18a2.71,2.71,0,0,0-1,3c.4,1.15,1.64,1.24,2.66,1.56a1.47,1.47,0,0,0,.88-.39l-1.45,5.57a3.68,3.68,0,0,0-2.61,3.39c0,.52,0,1.06,0,1.58a22.79,22.79,0,0,0,.11,3.32,1.4,1.4,0,0,0,.33.75c-.11.47-.17.71-.27,1.19a7.37,7.37,0,0,0-.15,1.11.82.82,0,0,0-.3.08,2.53,2.53,0,0,0-.9,1.22,2,2,0,0,0,.15,1.1,1.7,1.7,0,0,1-.7,1.86c-.62.53-1.25,1-2.1.52.27-.33.5-.55.66-.8.48-.79.26-1.37-.4-1.66s-1.17.28-1.35.93a33.07,33.07,0,0,0-.73,3.33,2.11,2.11,0,0,0,1.64,2.58c1,.29,2,.56,3,.79a1.23,1.23,0,0,0,.76-.18,14.75,14.75,0,0,1,1.1-2.66,8.06,8.06,0,0,0,.6-2.71,4.51,4.51,0,0,0,1.8,1.29c-.11.15-.23.3-.34.46a6.77,6.77,0,0,0-1,3.75,7.56,7.56,0,0,0,1.72,4.61c.55.75,1.19.81,1.89.08a6.9,6.9,0,0,0,.77-1,9,9,0,0,1-.87-1.53,3.49,3.49,0,0,1,0-1.21,4.3,4.3,0,0,1,.83-3.12c.47.81.86,1.5,1.88.72.06-.05.2.07.3,0a6.48,6.48,0,0,0,2-.61,25,25,0,0,0,2.46-2.17c.5-.45,1-.89,1.33-1.16a12.45,12.45,0,0,1,1,1.64,4.74,4.74,0,0,1,.36,1.8c0,.23-.72.49-.84.81a4.17,4.17,0,0,0-.34,1.84c0,.22.69.46,1.06.41a3.73,3.73,0,0,0,2.71-2.25c.31-.61.5-1.26.84-1.85.75-1.31,1.35-2.83.51-3.77s-2.2-1-3.34-1.53c0,0-.08,0-.1,0-.35-.15-.83-.21-1-.49-.66-1-1.13-1.35-2-1a11,11,0,0,0,.38-1.31l.32-1.42.21.36a1.26,1.26,0,0,1,.13.26c.38,1.15.56,1.19,1.68.27a16,16,0,0,0,1.22-1.25c-.41-.45-.72-.79-1.06-1.18l1.2-.88c-.71-.95-.5-3.43.3-4.47a1.57,1.57,0,0,1,.42-.43,3.55,3.55,0,0,0,1.86-3.26c0-.44-.12-1.2-.29-1.19a2.92,2.92,0,0,0-1.72.64,11,11,0,0,0-1.81,2.37c.54-2.1.81-3.15,1.36-5.26a1.46,1.46,0,0,0,.16-.19,8.86,8.86,0,0,0,1.42-4.87,5.06,5.06,0,0,0,0-.87c.5-1.94.75-2.91,1.23-4.85a9,9,0,0,0,1.47-4.27,1,1,0,0,0-.22-.75,2,2,0,0,1-.4-.64c0-.6,0-1.21-.06-1.82.05-.23.11-.46.17-.7.37-1.29.27-2.4-.72-3.13a30.23,30.23,0,0,0-1.33-4.54,56.19,56.19,0,0,0-3.45-7.39c-1.43-2.57-2.76-4.83-4-6.9l-1.33-2a1,1,0,0,0,.58-.55,12,12,0,0,0,.74-3.64c0-.45-.7-1-1.05-1.45-1-1.41-1.06-1.42-2.72-1.09a3.55,3.55,0,0,1-1.65,0,4.28,4.28,0,0,0-.62-.14c-.07-.11-.15-.21-.23-.32-2.25-3.19-4.53-6.51-6.74-9.86-.66-1-1.29-2-1.92-3l.11.11c.27.29.51.59.77.89.49.56,1,1.1,1.68.61s.49-1.24-.11-1.87a27.66,27.66,0,0,0-2.71-2.48,10.67,10.67,0,0,0-1.89-1c-.73-1.3-1.44-2.61-2.1-3.93a58.16,58.16,0,0,1-4.34-11.58c-.38-1.48-.57-2.22-.94-3.7a10.18,10.18,0,0,0,1.17.67c1.26.62,1.94.37,2.46-.65.23-.45.39-1,.64-1.4.53-.91,1.44-.87,2.5,0,.21.17.93.1,1,0a4.27,4.27,0,0,0,0-1.82c-.27-1.21-.24-2.16.89-2.69a1.33,1.33,0,0,0,.67-1.08c.1-1.61-2.19-5.25-3.81-6.2-1.27-.74-1.95-.43-1.62.9A27.39,27.39,0,0,0,248,97.64c.38.93.8,1.85.15,2.64-1.61-.88-2.12-.86-3.18.07a14,14,0,0,1-1.33,1.09,1.44,1.44,0,0,1-2.06-.49,3,3,0,0,0-.29-.32c-.49-2-.72-3-1.18-4.94a1.83,1.83,0,0,1,1.5-.53c1.51,0,2.35-.47,2.49-2.07a2.46,2.46,0,0,0-.77-2.47,9.26,9.26,0,0,0-2.76-1c-.14,0-.3.13-.44.21a2.58,2.58,0,0,0-1,.89,20,20,0,0,1-.12-2.44c.89-.47,1.2-1.52,1.08-3.27-.19-.37-.36-.74-.54-1.11a.64.64,0,0,0,0-.07,19.86,19.86,0,0,1,1.44-4c.6,0,1.54-.22,1.66-.62.46-1.55,1.76-2,3.06-2.48.59-.21.89-.42.83-1.07a4.81,4.81,0,0,1,1.19-3.51,20.49,20.49,0,0,1,2.67-1.52c.24-.12.5-.22.75-.33a3.34,3.34,0,0,0-.3,1.73c.09,1.26,1.13,2,2.77,1.76,1.34-.16,2.67-.41,4-.68,1-.21,1.52-.9,1.08-1.88a10.45,10.45,0,0,0-1.46-2.45c.81-.08,1.63-.13,2.47-.13a22.63,22.63,0,0,1,9.4,2,25.8,25.8,0,0,1,7.74,5.42c.5.5,1,1,1.46,1.57l-.1.07a5.4,5.4,0,0,0-1.43,5.47c.53,1.42.8,1.55,2.18.78.2.82.31,1.5.54,2.16a7,7,0,0,0,.67,1.18,5.3,5.3,0,0,0,1.18-.76,1.36,1.36,0,0,0,.21-1,17.54,17.54,0,0,0-1.28-5.44,39.41,39.41,0,0,1,2.42,3.71c.37.64.71,1.29,1,1.94a2.19,2.19,0,0,0-.11,1.4,4.39,4.39,0,0,1-.36,2c-.14.51-.57.92-.61,1.44a1.85,1.85,0,0,0,.57,1.32,2.55,2.55,0,0,0,2.9.33c.06.26.13.52.18.77.27,1.2.4,1.8.68,3a1.88,1.88,0,0,0,.11.5c.7,3,1.08,4.52,1.83,7.53a1.31,1.31,0,0,0-1.47.61c-.5.85-.39,2.22-2,2.2-.36,0-.7.65-.77,1.11a19.49,19.49,0,0,0-.09,2.66,3.75,3.75,0,0,0,1.95,2.5,1.69,1.69,0,0,0,2.18-.41,1.83,1.83,0,0,0,.15-2.71c-.14-.18-.17-.62,0-.73a1,1,0,0,1,.84-.13,2.48,2.48,0,0,1,.59.28c.76,3,1.14,4.46,1.86,7.43-.42.17-1,0-1.66-.43-.46-.31-.87-.74-1.32-1.08-1-.79-1.57-.74-2.1.12a.68.68,0,0,1-.47.27,1.21,1.21,0,0,0-1.06,1.43l0,.45H283c.19-1.21.32-2.44.46-3.67a2,2,0,0,0-.17-.51c-.33-1.13-.75-2.25-1-3.37s-.16-2-.39-3.08c-.1-.47-.6-1.3-.92-1.37a4.89,4.89,0,0,0-2.76-.13c-1,.43-1,1.7-.4,2.73.13.23.27.63.18.75-.56.69,0,1.4.44,2.08s.86,1.15,1.17,1.57a5.19,5.19,0,0,0-.51,1.63,19.67,19.67,0,0,0,.47,2.41,6.15,6.15,0,0,1,0,1h-1.79c.2-.32.34-.69.52-1l-1.62-1.18.78-.88c-1.16-1-2.17-3.43-1.89-4.47a.91.91,0,0,1,.21-.44c1-.82.87-2,.21-3.25-.22-.44-.73-1.2-.88-1.19-.54.05-1.24.24-1.4.64a7.08,7.08,0,0,0-.59,2c-.51-2-.77-3-1.27-5,0,0,0,0,0,0,.34-1.6-.33-3.24-1-4.87a6.49,6.49,0,0,0-.38-.74c-.38-1.64-.57-2.46-.93-4.1a8.12,8.12,0,0,0-.22-.81,8,8,0,0,0-.37-4.34,1.57,1.57,0,0,0-.52-.75A4,4,0,0,1,266.93,84a3.7,3.7,0,0,0-2.17-3.33,4.32,4.32,0,0,1-2.14-2.42,12.44,12.44,0,0,0-1.05-2.21,1.79,1.79,0,0,0-1.3-.73,1.24,1.24,0,0,0-.83,1,15.46,15.46,0,0,0,1,3.77A3,3,0,0,0,262,81.5c.27.11.76-.56,1.3-1,.94,2.21,2.17,4.38,2.36,6.63a6.71,6.71,0,0,0-4.23-1.44,4.74,4.74,0,0,0-4,1.79A4.83,4.83,0,0,1,255,86c-.74-.74-1.55-.59-1.64.33a10.18,10.18,0,0,0,.23,2c0,.34.14.84,0,1-.66.45-.36,1.13,0,1.61a8.33,8.33,0,0,0,1.67,1.43.47.47,0,0,0,.43-.15,1.66,1.66,0,0,1,.35-.58,9,9,0,0,0,.18,1.43c.13.6.2.89.33,1.49a3,3,0,0,0-.4-.21c-1.53-.71-2.22.09-2.9.92-.89,1.08-.78,1.81.48,3.17a2.51,2.51,0,0,0,.55,3c1,1.15,2.26,1.24,3.43,1.56.22.06.58-.19.75-.45.56,2.23.85,3.35,1.41,5.59-1.29.41-1.85,1.91-1,3.43.28.52.49,1,.75,1.58a37.11,37.11,0,0,0,1.7,3.32,2.26,2.26,0,0,0,2.1,1.18c.09.16.16.32.25.48,1.36,2.42,2.89,4.84,4.52,7.23a2.83,2.83,0,0,0-.11.31,6.65,6.65,0,0,0,.37,3.75,11.77,11.77,0,0,0,3.09,4.61c.74.74,1.39.8,1.91.08a4.52,4.52,0,0,0,.46-1l1,1.26.42.52h-.06c-.26,0-.49.7-.5,1.11a1.33,1.33,0,0,0,.68.9,1.08,1.08,0,0,1,.8,1.16c0,.32.31.88.53.94a2.08,2.08,0,0,0,1.4-.1.79.79,0,0,0,.2-.17c.86,1.09,1.69,2.16,2.48,3.2l.06.09.84,1.17a1.84,1.84,0,0,0-1.71.54c-.6.66-.84,1.72-2,1.84-.2,0-.46.61-.44.93.08,1.47.23,2.94.3,4.62a3.52,3.52,0,0,0,2.46-2.47c.34-1,1-1.56,1.63-1.29,1,.43.9,1.18.58,2,0,.1-.12.23-.08.31.14.3.28.83.47.85a3.74,3.74,0,0,0,1.89-.14,2.82,2.82,0,0,1,1.54-.34l.28.44c.78,1.2,1.49,2.42,2.15,3.65q-1,2.19-2.15,4.42a9,9,0,0,0-.44,1.29c-.06.88,0,1.51.9,1.49s1.73-.77,1.59-1.45a4.33,4.33,0,0,1,.81-3.28l.3-.48c.51,1.05,1,2.1,1.39,3.16-.81.7-1.66,1.36-2.53,2-.49.37-1.07.64-.86,1.37a1.38,1.38,0,0,0,1.51,1.11,4,4,0,0,0,3-1.43,38.68,38.68,0,0,1,1,4.22l-.34.05a5.58,5.58,0,0,0,.65,2c0,.27.08.54.11.81a28.84,28.84,0,0,1,.1,5,2.6,2.6,0,0,0-1.48,2,6.5,6.5,0,0,1-1.21,2,16.27,16.27,0,0,0-1.25,1.44,1.49,1.49,0,0,0,0,1.32,2.25,2.25,0,0,0,2.78.32c-.37,1.51-.55,2.27-.93,3.79a1.36,1.36,0,0,0-.12.49c-.76,3-1.15,4.52-1.91,7.53a2.08,2.08,0,0,0-1.79.62c-.93.84-1.51,2.21-3.08,2.19-.35,0-1,.66-1.33,1.11A25.3,25.3,0,0,0,282,200c-.14,1.05-.19,2,.72,2.5a2.15,2.15,0,0,0,2.38-.41c1-.73,1.83-1.51,1.49-2.72a.93.93,0,0,1,.32-.73,1.25,1.25,0,0,1,.91-.13,1.29,1.29,0,0,1,.45.29c-.74,3-1.09,4.45-1.75,7.42a1.37,1.37,0,0,1-1.46-.43,12.66,12.66,0,0,1-.81-1.08c-.65-.79-1.22-.74-2.16.12a1.24,1.24,0,0,1-.59.28,2.15,2.15,0,0,0-1.74,1.43,35.94,35.94,0,0,0-1.24,3.52,1.72,1.72,0,0,0,1.56,2.07,2.46,2.46,0,0,0,1.94-2c0-.13.07-.26.12-.44.8-.08,2-.51,2.22-.19a1.57,1.57,0,0,0,1.22.64,32.76,32.76,0,0,1-1.89,4.8,1,1,0,0,1-.62-.38,1,1,0,0,0-1.52-.55,12.68,12.68,0,0,1-1.52.25c-.56.15-1.32.25-1.64.63-1,1.19-2.68,2.1-2.33,3.91,0,.1-.11.26-.19.38-.7,1.08-.65,1.23.48,1.44a4.62,4.62,0,0,1,.62.18c-.05.45-.1.86-.16,1.42l1.28-.59c.29.19.54.42.82.57-.7.83-1.42,1.64-2.19,2.39l-.2.18c-.11-.22-.22-.44-.31-.66-.68-1.64-2-2.44-4.3-1.37-1,.47-2,1-3.18.61a2,2,0,0,0-2.41,2.45,8,8,0,0,0,.7,1.67c-.16.43-.48.89-.42,1.26A2.33,2.33,0,0,0,268.15,230.26ZM277.2,96.2a42.77,42.77,0,0,0-3.4-3.62c-.43.85-.55,1.61-1,2-1,.71-.68,1.64-.28,2.72.6,1.59,1.16,3.19,1.71,4.8.2.57.23,1.28,1,1.4a3.75,3.75,0,0,0,2-.08c.58-.26.46-1,.09-1.68a3,3,0,0,1,0-3.37A2.2,2.2,0,0,0,277.2,96.2Zm2.79,2a1.79,1.79,0,0,1-.16,1.46,3,3,0,0,0-.35,3.06,2.39,2.39,0,0,0,3.36,1,2.21,2.21,0,0,1,2.07-.17c1,.4,1.58,0,1.59-1a5.17,5.17,0,0,0-.19-1.49c-.52-1.72-1.09-3.43-1.68-5.37a1.2,1.2,0,0,0-1.16-1.39A3.13,3.13,0,0,0,280,98.16ZM269.72,78.53c0,.17.18.4.32.58.69.9,1.47.92,2.63,0a12.46,12.46,0,0,0,1,1.64c.26.34.72.76,1,.76s.59-.5.69-.85a3.9,3.9,0,0,0-1.62-4.34,18.45,18.45,0,0,1-2.08-1.72c-.65-.68-1.18-.63-1.38.11A25.3,25.3,0,0,0,269.72,78.53Zm-.37,1.82a3.73,3.73,0,0,0-.93.42c-.94.58-.91.89-.2,1.88a16.78,16.78,0,0,1,1,1.94c.49.93.83,2.17,1.59,2.7,1,.73,1,1.23.68,1.94a1.21,1.21,0,0,0,.57,1.61c1,.6,1.52.22,1.82-.65a7.51,7.51,0,0,1,1.48,1.42c.48.87,1,1.55,2,1.54a1.83,1.83,0,0,0,2-1.6,9.36,9.36,0,0,0,0-2.31c-.12-1.32-.62-1.62-1.79-1.13-.66.28-1.29.63-1.92.94a6.51,6.51,0,0,0-.83-1.43c-.82-.75-1.72-1.39-1.68-2.57a.68.68,0,0,0-.36-.43c-1.46-.66-1.53-1.92-1.73-3.09S270.48,80,269.35,80.35ZM261,72.49c0,1.15.4,1.78,1.68,2a3.32,3.32,0,0,1,2.25,2.79,1.35,1.35,0,0,0,1.41,1.39c.91.07,1.17-.47,1.18-1.23,0-.6-.23-1.32,0-1.8.79-1.64.09-3-1.05-4.11a16.91,16.91,0,0,0-3.31-2.21c-.68-.39-1.23.08-1.46.67A18.74,18.74,0,0,0,261,72.49ZM283.6,187.42a2.67,2.67,0,0,1-.89,1.46,4.67,4.67,0,0,0-1.87,3.06c0,1.25,1.17,1.7,2.84,1a2.49,2.49,0,0,1,2.16-.18c.82.4,1.6,0,2.11-1a5.83,5.83,0,0,0,.56-1.48c.34-1.72.62-3.44,1-5.38.22-.51.52-1.21-.51-1.39C286.91,183.14,284,185.28,283.6,187.42Zm3.37-15c0,1.43.23,1.55,1.9.78-.12.82-.26,1.5-.29,2.16a4.69,4.69,0,0,0,.19,1.18,8.56,8.56,0,0,0,1.48-.75,2.08,2.08,0,0,0,.61-1,13.69,13.69,0,0,0,.32-7.48c-.12-.49-.41-.76-1-.37A7.72,7.72,0,0,0,287,172.46ZM282.92,164c-.61,1.23-1.05,2.54-1.55,3.82-.07.17.06.4.14.58.42.9,1.2.92,2.63,0a11.76,11.76,0,0,0,.46,1.65c.15.33.47.75.78.75s.76-.49,1-.85c1-1.68.85-3.16-.37-4.34a14.28,14.28,0,0,1-1.67-1.72C283.82,163.18,283.27,163.24,282.92,164Zm-4.14-8a1.17,1.17,0,0,0,1.37,1.4,9.2,9.2,0,0,0,1-.19c.18.5.37.94.51,1.4.24.85.64,1.48,1.71,1.22a2,2,0,0,0,1.42-2c0-.56.15-1.12.13-1.67a1.7,1.7,0,0,0-.34-1.12c-.23-.18-.75-.06-1.14,0s-.93.22-1.5.36a10.84,10.84,0,0,0,.15-1.16,4.16,4.16,0,0,0-.13-1.06c-.21-.89-.62-1-1.38-.51A4.19,4.19,0,0,0,278.78,156ZM256,108.53a1.1,1.1,0,0,0,.94.13c.86-.7.88-2.57.15-3.77-.31-.52-.57-1.06-.85-1.6l-.1-.37c-.52.11-1.2,0-1.53.35C253.49,104.24,254.39,107.55,256,108.53Zm-4.31-17.8c.18,0,.27-.68.29-1.08a9.93,9.93,0,0,0-.17-1.29c-.27-3,.36-5.39,3.65-6.13,1.84-.42,2.17-1.52,1.79-3.81-.05-.36-.12-.72-.17-1.08-.18-1.22-.93-1.81-2-1.45a2.33,2.33,0,0,0-1.11.85.94.94,0,0,1-1.36.33c-.34-.16-.68-.32-1-.45a2.45,2.45,0,0,0-2.55.18c-.73.63-.35,1.5-.1,2.31a4.32,4.32,0,0,0,.52,1.11c.62,1,0,2.5-1,2.49-.18,0-.41-.24-.62-.37a9,9,0,0,0-1.64-1.06c-.81-.28-1.66-.32-2.49-.52-1.35-.31-2.16.38-1.94,1.72a3.45,3.45,0,0,0,4.05,3.21,2.36,2.36,0,0,1,2.74,1.54c.29.55.49,1.12.79,1.66a4.1,4.1,0,0,0,.9,1.34A2.7,2.7,0,0,0,251.64,90.73Zm-.2,21.39a11,11,0,0,0,1.67,1.75c1.22,1.07,2.6,2,3.24,3.53.08.17.34.3.52.45,1.05-1.12.35-4-1.25-5a1.53,1.53,0,0,1-.84-1.25,3.72,3.72,0,0,0-1.89-2.61,1.14,1.14,0,0,0-.71-.21C250.85,109.1,250.47,110.74,251.44,112.12Zm-4.65-1.69a11.2,11.2,0,0,0,2.42.5.74.74,0,0,0,.61-.23c.56-.73.15-3.21-.95-4.59,0,1.47-1,1.54-2,1.6a1.54,1.54,0,0,0-.81.33C245.1,108.74,245.45,109.92,246.79,110.43ZM257,127a17.09,17.09,0,0,0,.17-3.12,17.51,17.51,0,0,0-.81-3.61c-.11-.34-.72-.63-1.1-1a4.24,4.24,0,0,0-.59,1,9.22,9.22,0,0,0-.14,1.59l-.44.18a11.78,11.78,0,0,1-1.71-1.67c-.44-.63-1-1.54-.86-2.08.36-1.68-.63-3.33-1.08-5a2.27,2.27,0,0,0-1.19-1.17,1.5,1.5,0,0,0-1.29.48c-.82,1-.68,2.09.34,3.54.81,1.14,1.43,2.23,1,3.48-.31.94.14,1.85,1.18,2.61a1.46,1.46,0,0,1,.5,1,1.76,1.76,0,0,0,1.26,1.85,4.36,4.36,0,0,1,2.53,1.84,2.93,2.93,0,0,0,.84.64C256.55,128.09,256.93,127.92,257,127Zm8.45,8.42c-.72-.47-1.83-1.06-2.39-.85-1,.37-1.42-.06-2.1-.63a5,5,0,0,0-1.73-1c-.56-.15-1.42-.2-1.36.64a20.85,20.85,0,0,0,.58,3.65,2.28,2.28,0,0,0,2.3,1.8c1.2,0,1.3-.91,1.18-2.08l2.11.94c.8.34,1.41.24,1.78-.52A1.44,1.44,0,0,0,265.45,135.41Zm-.09-3.13c-.27-.13-.43-.54-.7-.75a16,16,0,0,0-1.67-1.2,18,18,0,0,0-2.2-1.18,2.22,2.22,0,0,0-1.34-.27c-.31.12-.4.66-.63,1.07a23.84,23.84,0,0,0,2,3.07,2.72,2.72,0,0,0,1.92.65,2.25,2.25,0,0,1,1.7.37,1.07,1.07,0,0,0,1.69-.45C266.49,132.91,266,132.59,265.36,132.28Zm.77-2.94a13.54,13.54,0,0,1,.16-2.66,5.81,5.81,0,0,0-1.08-3.79.5.5,0,0,1-.06-.41c.57-1.35-.9-1.89-1.65-2.67a1.31,1.31,0,0,0-1.23-.16,1.48,1.48,0,0,0-.36,1.22,2.81,2.81,0,0,0,.62,1.1,1.43,1.43,0,0,1,.07,1.86,1.34,1.34,0,0,1-1.89.52,5.32,5.32,0,0,0,.33-.81,1.42,1.42,0,0,0-1.09-1.65c-.93-.36-1,.28-.95.93.15,1.11.34,2.22.58,3.33a3.32,3.32,0,0,0,2.57,2.58c1.09.29,2.18.56,3.28.78C265.67,129.56,266.14,129.41,266.13,129.34Zm4.21,18a33.91,33.91,0,0,0,3.18,2c.74.43,1.53.42,1.89-.49.5-1.25,1.54-2.4.73-3.94-.08-.16,0-.42.1-.62a3.5,3.5,0,0,0-.71-3.09,1.87,1.87,0,0,0-2.12-1,1.27,1.27,0,0,1-1.48-1.08c-.44-1.86-1.8-3.09-3.24-4.24-.49-.4-1.15-.51-1.14.44s-.15,1.75-.07,2.63c0,.38.56,1.11.79,1.1,1,0,1.22.52,1.25,1.27a3,3,0,0,1,2.21,3.72c-.59-.26-1.12-1.07-1.8-.15A2.31,2.31,0,0,0,270.34,147.38Zm3.34,9.05c1.8,0,3.85-1.85,3.83-3.6,0-.48-.42-1-.65-1.42-.31.35-.62.69-.91,1a1.78,1.78,0,0,0-.17.4c-.38.76-2.27,1.92-2.79,1.53s-.77-1.25-1.13-1.91c0,0,0-.07,0-.1l-.47-.75c-.21.21-.51.39-.62.65A3,3,0,0,0,273.68,156.43Zm5.77,10.24c.18-.61.12-1.33.46-1.8a3,3,0,0,0-.22-4.11,12.63,12.63,0,0,0-3-2.22c-.63-.39-1.23.08-1.54.68-.43.81-.73,1.68-1.1,2.53-.16,1.16.05,1.78,1.28,2,1,.15,1.77,1.59,1.58,2.79-.15.91.15,1.33,1,1.39S279.23,167.43,279.45,166.67Zm-.64,7.19c.14.93,0,2.16.53,2.7.73.72.47,1.22-.12,1.93s-.64,1.18-.14,1.61c.72.61,1.43.22,2.11-.65.34.53.8.91.85,1.42.09.87.27,1.55,1.28,1.54a3.16,3.16,0,0,0,2.73-1.59,11.36,11.36,0,0,0,1.05-2.31c.45-1.32.07-1.63-1.31-1.14-.78.29-1.55.63-2.31.94a3.75,3.75,0,0,0-.24-1.42c-.51-.75-1.15-1.4-.65-2.58a.44.44,0,0,0-.19-.43c-1.22-.66-.83-1.92-.63-3.09s-.1-1.51-1.33-1.18a5.4,5.4,0,0,0-1.07.42c-1.12.58-1.2.89-.84,1.89A10,10,0,0,1,278.81,173.86Zm-.58,18.77a1.62,1.62,0,0,0,.93-1.68,4,4,0,0,1,1.67-3.37,2.77,2.77,0,0,0,.93-2.12,19.88,19.88,0,0,0-1.7-3.62,11.05,11.05,0,0,1-1.93,1.95,2.92,2.92,0,0,0-1.59,2.72c-.17,1.59-.41,3.2-.66,4.8-.1.57-.42,1.28.29,1.41A4.14,4.14,0,0,0,278.23,192.63Zm.9,10.66a1.5,1.5,0,0,0,.09-.52,33.51,33.51,0,0,1,.68-3.37c.29-1,.86-2.05,1.16-3.08.13-.47.05-1.3-.23-1.37a4.77,4.77,0,0,0-2.7-.13,2.81,2.81,0,0,0-1.77,2.73c0,.24,0,.63-.21.75-.89.69-.68,1.4-.59,2.08A11.45,11.45,0,0,0,276,202a9.06,9.06,0,0,0-1.3,1.63A18.8,18.8,0,0,0,274,206c-.25.85-1.48,2.11.52,2,.05,0,.08.09.13.13.82.66,1.18.64,1.85-.4C277.42,206.27,278.25,204.77,279.13,203.29Zm-24.78-5.5a.94.94,0,0,0,.89.13,4.62,4.62,0,0,0,2-3.76c0-.53,0-1.07,0-1.61l.09-.37a5.06,5.06,0,0,0-1.71.35C254.06,193.5,253.29,196.81,254.35,197.79Zm-10.11,1.9a8.39,8.39,0,0,0,2.17.5,1.17,1.17,0,0,0,.73-.23,5.55,5.55,0,0,0,1.36-4.58,2.83,2.83,0,0,1-2.83,1.59,2.53,2.53,0,0,0-1,.33C243.41,198,243.16,199.18,244.24,199.69Zm4.92,9.83c0-.33-.44-.63-.68-.94a7.47,7.47,0,0,0-1,1,12.66,12.66,0,0,0-.83,1.59l-.52.18a6.46,6.46,0,0,1-1-1.67,2.86,2.86,0,0,1,.07-2.08c1.13-1.68.92-3.33,1.27-5a1.16,1.16,0,0,0-.62-1.16,2.22,2.22,0,0,0-1.52.47,3.14,3.14,0,0,0-1.36,3.54,3.65,3.65,0,0,1-.57,3.48,1.82,1.82,0,0,0,.05,2.61,1.08,1.08,0,0,1,.1,1c-.34.87-.26,1.69.51,1.85,1.11.23,1.43,1,1.84,1.84a1.63,1.63,0,0,0,.61.64c.74.5,1.17.33,1.59-.6a30.48,30.48,0,0,0,1.37-3.12A21.73,21.73,0,0,0,249.16,209.52Zm1.28-2.86c0,.17.2.31.31.45,1.57-1.11,2.24-4,1.15-5a1,1,0,0,1-.23-1.25,2.23,2.23,0,0,0-.59-2.6.73.73,0,0,0-.61-.22,3.17,3.17,0,0,0-2.41,3.37,5.28,5.28,0,0,0,.81,1.75C249.58,204.2,250.51,205.13,250.44,206.66Zm3.26,14.88c-.24-.12-.28-.53-.48-.75a11.27,11.27,0,0,0-1.3-1.2,13.38,13.38,0,0,0-1.81-1.18,1.78,1.78,0,0,0-1.25-.26c-.36.11-.63.65-1,1.06a13.83,13.83,0,0,0,1,3.07,2.09,2.09,0,0,0,1.74.65,1.92,1.92,0,0,1,1.61.38c.61.53,1.29.14,1.8-.46S254.26,221.85,253.7,221.54Zm11.85,5.68c0-1-.12-2-.09-3s-.44-1.4-1.59-1.39c0,.76-.12,1.35-1.06,1.43-.27,0-.66.7-.76,1.12a1,1,0,0,0,.49.89c.58.24.64.58.57,1.16,0,.32.15.88.36.94a2.1,2.1,0,0,0,1.42-.1A1.48,1.48,0,0,0,265.55,227.22Zm7.66-94.81-.74-1c0,.05,0,.1.08.14A5,5,0,0,0,273.21,132.41Zm-27,47.28-.1.44a5.26,5.26,0,0,1,.49-.44Zm25.7,47.24a3.42,3.42,0,0,1-1,0c-.36,0-1,.05-1,.18a5.4,5.4,0,0,0-.14,1.61,5.46,5.46,0,0,0,.1.69,25.79,25.79,0,0,0,3.58-2.19C273.23,226.73,272.72,226.63,271.94,226.93Zm3.67-109.57-.12-.11.11.44h.32l-.06-.06A2.11,2.11,0,0,0,275.61,117.36Zm5.29,100.28a6.79,6.79,0,0,0-1.16.45c-1.08.56-1.17,1.25-.3,1.87a7.33,7.33,0,0,1,.79.54q.9-1.22,1.71-2.52C281.75,217.56,281.42,217.47,280.9,217.64Z"/></svg>