<svg id="Layer_1" data-name="Layer 1" xmlns="http://www.w3.org/2000/svg" viewBox="0 0 193.5 193.5"><defs><style>.cls-1{fill:#010101;}</style></defs><title>Artboard 1 copy 3</title><path class="cls-1" d="M138.65,71.44a165.77,165.77,0,0,1,34.19-3.37,103.63,103.63,0,0,0-15.57-30.92c-1.18,1.43-2,2.51-2.94,3.55-1.26,1.44-2.47,2.94-3.85,4.25-4.36,4.14-9.74,6.73-15,9.53-5.61,3-11.22,6-16.86,9q-6.25,3.27-12.59,6.39c-1.07.53-2.24,1-3.42.18.9-3,3.48-5.07,24.18-20,8.6-6.19,16.63-13.24,27.06-17.52-7.4-8.52-14.64-16.39-24.42-21.42-1.34.73-2.44,1.26-3.46,1.91a41.12,41.12,0,0,0-10.49,10.1,125.06,125.06,0,0,0-13.71,23.16C101,48,100,49.57,99.14,51.2l-.77-.07c-.43-1-1.27-2-1.21-2.88A32,32,0,0,1,98.28,40c4.18-12.41,12.39-21.87,22.53-29.83a16.26,16.26,0,0,0,1.34-1.37c-.89-.22-1.38-.39-1.88-.46a38.56,38.56,0,0,0-16,1.2A26.52,26.52,0,0,0,85,36.81c.31,4.09,1.79,7.77,3.36,11.48A8.77,8.77,0,0,1,72.23,55.2c-.4-.87-.77-1.76-1.17-2.63A26.42,26.42,0,0,0,44.45,37.31c-8.73,1-15.43,5.56-21,12.07-.17.2-.12.6-.2,1a3.52,3.52,0,0,0,.93-.13c5-2.57,9.33-1,13.18,2.43A63,63,0,0,1,43,58.49a23.42,23.42,0,0,0,13,7.72c3.75.85,7.45,1.88,11.13,3a19.41,19.41,0,0,1,3.31,1.68c-.24,1.58-.91,2.21-2.15,2.28s-2.62.3-3.91.24c-10-.43-19.51-2.52-27.72-8.84a72.32,72.32,0,0,0-9.51-6,10.21,10.21,0,0,0-8.75-.72c-4,9-2.95,18.39-2.69,27.82a7.49,7.49,0,0,0,1-.06c.65-.24,1.32-.46,1.95-.75A22.56,22.56,0,0,1,32.8,83.34a44.29,44.29,0,0,1,4.85,1.12,39.47,39.47,0,0,0,21.18.46C64,83.7,69.18,82.5,74.38,81.42c2.17-.46,4.42-.57,6.82-.86.21,1.54.35,2.62.51,3.84-1.14.61-2.11,1.19-3.12,1.65-2.3,1-4.68,1.91-6.93,3-5.54,2.8-11.14,5.25-17.38,6.3-8.66,1.47-17.25,3.39-25.84,5.27-3.13.68-6.16,1.79-9.54,2.8A100.74,100.74,0,0,0,30.29,131.3a17.82,17.82,0,0,1,7.52-7.8,127,127,0,0,1,12.46-6.1c10-4.11,19.53-8.85,27.79-15.88,0-.07,5.44-4,7.86-6.15S91,97,88.6,99.11c-2,1.78-26.34,18.41-36.08,23.37a80.77,80.77,0,0,0-10.27,6.24A17.11,17.11,0,0,0,35.05,139a100.33,100.33,0,0,0,11.41,13.63c.66-1.14,1.15-1.94,1.61-2.76,4-7,8.64-13.55,15.23-18.41,5.47-4,34.82-17.53,31.72-13.17-2.54,3.56-19.68,14.15-22.58,15.35-9,3.73-16.08,9.67-20.67,18.39-.68,1.28-1.34,2.57-2.1,4L59,163.78a8.18,8.18,0,0,0,.82-1.32,14,14,0,0,1,4.79-6.4c.77-.59,33.42-31.18,34.85-30.85.18-.21,1.18.71,1.49,1.21,1.76,1.2,1.94,2.46.15,4.51-.22.26-11.85,11.89-14.47,13.65-.53.53-8.42,8.34-9,8.68-1.76,1.12-10.6,10.92-12.28,15.1l13.28,7.27c2.5-6.06,4.2-9.88,9.42-14.4,5.38-4.68,10-10,16.42-13.24.72-.36,2.89-.18,3.46-.22a2.48,2.48,0,0,1-.14,2.7c-.05.79-12.07,10.55-15.06,13.19-2.21,2-7.4,11.71-7.86,14.46L94,181.3c0,.35,7.54.5,11.26,0,0-.22,0-.44,0-.66,0-9,2.85-16.37,9.62-22.22a19.88,19.88,0,0,1,3.13-1.86l.61.51a35.54,35.54,0,0,1-.59,4c-1.15,4.57-2.42,9.1-3.61,13.66a30.22,30.22,0,0,0-.85,10.17,101.49,101.49,0,0,0,25.73-.45,103.9,103.9,0,0,0,21.25-24.21c-3.59-1.41-5.47-4.07-6.83-7.18a11.66,11.66,0,0,0-1.26-2.58c-1.38-1.74-2.64-3.8-4.45-4.93-2.71-1.69-5.83-2.71-8.79-4-1.52-.66-3.14-1.11-4.59-1.9-2.16-1.18-2.37-2.9-.82-4.84,12-2,21.36,2.26,28.67,11.65,1.09,1.4,2.15,2.83,3.47,4.56,3.15-6.24,5.82-12.15,7.27-18.17-1.43-2.35-2.73-4.31-3.84-6.37a14.69,14.69,0,0,0-8-7.16,25.94,25.94,0,0,0-11.35-1.25c-3.91.32-7.8.89-11.71,1.23a22,22,0,0,1-11-1.49c-1.61-.71-2.83-1.7-2.67-3.62.92-1.67,2.5-1.63,4-1.75,9.64-.82,19.28-1.64,28.93-2.39,3.62-.28,7.18.06,10.23,2.36a17.9,17.9,0,0,1,6.41,9.31c.25.82.58,1.63.86,2.45l.58-.16a100.36,100.36,0,0,0,2.47-24.72c-7.42-.47-14.45-.9-21.49-1.38q-8.61-.59-17.22-1.28c-3-.25-3.59-.85-3.92-3.64a14.68,14.68,0,0,1,8.84-4.4,47.38,47.38,0,0,1,21.22,1.7c4,1.18,7.91,2.63,12.28,4.09A90.4,90.4,0,0,0,175,75.65c-5.57-.91-10.95-2.16-16.4-2.59-9-.7-17.68,1.24-26.31,3.49-7.42,1.94-14.83,3.92-22.27,5.79-1.14.29-2.56.79-3.79-1.23C116.49,75.66,127.61,73.66,138.65,71.44ZM124.18,92.73c.86.47,1.37,1.58,2.22,2.62-3.14,3-6.71,2.9-10.16,2.84-1.94,0-4-.47-4.77-2.9C114.4,92.33,121,91,124.18,92.73Z"/></svg>