<svg id="Layer_1" data-name="Layer 1" xmlns="http://www.w3.org/2000/svg" viewBox="0 0 300 300"><defs><style>.cls-1{fill:#010101;}</style></defs><title>Artboard 1 copy 4</title><path class="cls-1" d="M199.54,161.18a1.4,1.4,0,0,0-1.75.92,6,6,0,0,1-11.5,0,1.4,1.4,0,1,0-2.67.84,8.76,8.76,0,0,0,6,5.85,22.41,22.41,0,0,1-42.8,0,8.8,8.8,0,0,0,6-5.85,1.4,1.4,0,1,0-2.67-.84,6,6,0,0,1-11.5,0,1.4,1.4,0,1,0-2.67.84,8.78,8.78,0,0,0,8,6.17,25.21,25.21,0,0,0,48.45,0,8.79,8.79,0,0,0,8-6.17A1.41,1.41,0,0,0,199.54,161.18Z"/><path class="cls-1" d="M146.29,149.93c7.16,0,13-7.82,13-17.43s-5.83-17.43-13-17.43-13,7.82-13,17.43S139.13,149.93,146.29,149.93Zm0-32.06c5.62,0,10.2,6.56,10.2,14.63s-4.58,14.63-10.2,14.63-10.19-6.56-10.19-14.63S140.67,117.87,146.29,117.87Z"/><path class="cls-1" d="M146.29,141.48c2.39,0,4.44-2.19,5.36-5.32L148,132.5l3.66-3.65c-.92-3.14-3-5.33-5.36-5.33-3.24,0-5.87,4-5.87,9S143.05,141.48,146.29,141.48Z"/><path class="cls-1" d="M178.82,132.5c0,9.61,5.83,17.43,13,17.43s13-7.82,13-17.43-5.82-17.43-13-17.43S178.82,122.89,178.82,132.5Zm23.19,0c0,8.07-4.58,14.63-10.2,14.63s-10.19-6.56-10.19-14.63,4.57-14.63,10.19-14.63S202,124.43,202,132.5Z"/><path class="cls-1" d="M185.94,132.5c0,5,2.63,9,5.87,9,2.39,0,4.44-2.19,5.36-5.32l-3.66-3.66,3.66-3.65c-.92-3.14-3-5.33-5.36-5.33C188.57,123.52,185.94,127.54,185.94,132.5Z"/><path class="cls-1" d="M241.54,219.26c-.46-2.8-.61-6-1.61-8.78a12.65,12.65,0,0,0-3.47-5.13,1.38,1.38,0,0,0,.29-.65l7.62-48.14-24.21-32.21a1.34,1.34,0,0,0-1-.54V81.32h-.11c0-2-1.76-4.46-15.46-6.5a248,248,0,0,0-34.66-2.14,247.77,247.77,0,0,0-34.65,2.14c-13.71,2-15.47,4.54-15.47,6.5a2.72,2.72,0,0,0,.11.78v21.56a1.44,1.44,0,0,0,0,1.06v12l-32.59-4.52-11-20.81a11.66,11.66,0,0,0,6-11.62,9,9,0,0,0-3-5.56l0-.08a125.15,125.15,0,0,0,3.4-13.33c.56-3,1-6.66-1.94-8.65-2.24-1.53-4,.33-5,2.3a42.1,42.1,0,0,0-2.91,8.29c-.6-2.44-1.2-4.87-1.87-7.28S68.46,51.66,65.84,52c-5.79.63-3.05,8.92-1.68,13a4.46,4.46,0,0,0-3.24,1.5,4.2,4.2,0,0,0-4.48.66c-.87,1-.79,2.33-.79,3.52s.09,2.42.11,3.63a1.12,1.12,0,0,0-.13.6c.23,4.1-.47,9.45,2.24,12.87a15.13,15.13,0,0,0,6.75,4.48.29.29,0,0,0,0,.09L77,131.75l42,5v16.65a50.17,50.17,0,0,0,49.73,50.12V269a243.45,243.45,0,0,0-33,2.13c-13.71,2-15.47,4.54-15.47,6.5s1.76,4.47,15.47,6.5a247.88,247.88,0,0,0,34.65,2.14A248,248,0,0,0,205,284.13c13.71-2,15.46-4.54,15.46-6.5s-1.75-4.47-15.46-6.5A246,246,0,0,0,171.46,269V203.47a50.18,50.18,0,0,0,47.66-47.83l10.38,9.73L225,202.56h0a14.44,14.44,0,0,0-7,4.51c-1.85,2.12-3.28,4.7-5.38,6.57s-4.73,2.34-6.9,3.9c-3.37,2.46.07,6.18,3,7.15a5.36,5.36,0,0,0,4.69-.55c.86-.55,1.53-1.53,2.44-2,3-1.39,1.78,2.33,1.56,3.68-.55,3.48-1.19,7-1.56,10.47-.2,2-.71,4.72,0,6.71,1.34,3.51,4.25,2.5,6.38.68.41,1.47,1.25,2.76,2.93,2.89,2.47.2,4-1.89,4.89-4.57a2.48,2.48,0,0,0,2.75,1.08c2.67-.61,3.33-3.91,3.63-6.19.15-1.11.22-2.18.3-3.26a2.85,2.85,0,0,0,1.75,2c3.9,1,4.51-5.68,4.41-8A69.41,69.41,0,0,0,241.54,219.26ZM64.7,55.54c.49-1.81,2.1-1.52,2.84-.18.91,1.64,1.12,4.34,1.58,6.16.5,2,1,4.07,1.56,6.1a1.17,1.17,0,0,0,1.48.78,1.13,1.13,0,0,0,.78-.78l2.64-8.39c.38-1.22.65-2.92,1.43-4,1.43-1.89,2.33-.5,2.69,1.12.6,2.7-.71,6.26-1.36,8.92S77,70.42,76.23,73a8.09,8.09,0,0,0-1.08-.37,27,27,0,0,0-6.22-.32h-.31c-.09-2.34.27-5.22-1.86-6.62a1,1,0,0,0-.06-.36,49.17,49.17,0,0,1-1.53-6.11C65,58.23,64.44,56.48,64.7,55.54ZM62.54,68.17c.06-.69,1.31-.82,1.84-.83h0a1.51,1.51,0,0,1,1.63,1A9.31,9.31,0,0,1,66.3,72a5.92,5.92,0,0,0-3.45.39c0-.43,0-.85,0-1.27a10.65,10.65,0,0,0-.28-2.92ZM58,70c-.17-.88.32-1.37,1.44-1.48h0a.67.67,0,0,1,.73.31c.52.56.33,3.12.28,3.92-.12,1.77-1.11,2.06-2.36,1.75,0-.88,0-1.76-.08-2.65A8.19,8.19,0,0,1,58,70Zm4,18.27a7.51,7.51,0,0,1-3.67-6.36c-.15-1.67-.22-3.35-.29-5a3.89,3.89,0,0,0,4-1.39,4.5,4.5,0,0,0,2.34,2.75,11.72,11.72,0,0,0,2.41.56c.87.17,3.18.17,3.86.71,0,0,.61,1.43.69,1.54a6.37,6.37,0,0,0,1.41,1.33c1.21.91,2.39-1.12,1.19-2-1.42-1.08-1-2.41-2.67-3.11-1.49-.62-7-.26-6.91-2.76a47.17,47.17,0,0,1,6.08.15c2.6,0,5.15-.06,7,2.08,3.43,4,1,10.13-3.07,12.59S65.76,90.67,62,88.28Zm56.89,45.66L79.1,129.19,67.78,93a11.86,11.86,0,0,0,5-.45l11.79,22.27,34.39,4.76Zm50-58.46c29.42,0,46,3.7,47.29,5.84-1.31,2.14-17.87,5.84-47.29,5.84-29,0-45.48-3.59-47.21-5.74v-.1h-.08C123,79.18,139.53,75.48,168.94,75.48Zm48.68,202.15c-1.32,2.14-17.88,5.84-47.3,5.84s-46-3.7-47.29-5.84c1.29-2.1,17.26-5.7,45.63-5.83v2.47a1.4,1.4,0,0,0,2.8,0v-2.48C200.16,271.89,216.32,275.52,217.62,277.63Zm-1.25-124.22a47.32,47.32,0,1,1-94.64,0V105a41.06,41.06,0,0,1,35.55.48c4.7,2.24,10.5,3.36,17.35,3.36A94.28,94.28,0,0,0,196,106a155.4,155.4,0,0,0,20.42-6.36Zm0-56.76c-5.43,2.19-39.31,15.14-57.88,6.28-17.16-8.19-31.43-3.46-36.76-1.06V84.7c2.21,1.08,6,2.15,12.56,3.13A249.47,249.47,0,0,0,168.94,90a249.73,249.73,0,0,0,34.66-2.13c6.75-1,10.6-2.13,12.77-3.24Zm16.08,67.65-12.71-11.91a1.35,1.35,0,0,0-.57-.32V127.69l22.25,29.6-7.34,46.38a12.08,12.08,0,0,0-6.25-1.53Zm7.27,68.35c-1.23,1.09-1.33-1.64-1.61-2.67a42.69,42.69,0,0,1-1.41-7.61,1,1,0,0,0-.91-.94c-.68-.23-1.5,0-1.48.93.09,3.39.3,6.78.15,10.14-.1,2,0,5.31-1,7.08-1.79,2.92-2.19-2-2.25-3.31-.15-3.71-.26-7.43-.4-11.15-.06-1.51-2.37-1.1-2.32.39.08,2.21,0,4.5.07,6.76a1.06,1.06,0,0,0,0,.56v.08c0,1.26.08,2.51.19,3.76a16.54,16.54,0,0,1-1,4.49,5.8,5.8,0,0,1-1.26,2.28c-1.75,1.41-2.16-.85-2.14-2.3.2-5,.89-10,.69-15.11-.06-1.5-2.37-1.1-2.31.4.19,4.72-.48,9.38-.71,14.09l-.07.08c-.66,1-2.46,3.76-4,1.33-.39-.6-.07-2,0-2.72a81.93,81.93,0,0,1,1-8.4c.39-2.36.86-4.72,1.16-7.09.19-1.54.38-3.05-1.13-3.95-3.44-2.08-5.22,2.48-8.12,2.9-1.11.15-4.76-1.28-3.93-3.11h0a10.25,10.25,0,0,1,2.28-1.19,19,19,0,0,0,5.61-3.58c3.64-3.66,5.72-9,11.31-10.12a10.4,10.4,0,0,1,12.07,8.18c.63,2.75.82,5.64,1.33,8.43a36.88,36.88,0,0,1,1.06,7.24C240.56,229.65,240.64,231.81,239.72,232.65Z"/><path class="cls-1" d="M198.2,49.06A9.83,9.83,0,1,0,208,58.88,9.84,9.84,0,0,0,198.2,49.06Zm0,16.85a7,7,0,1,1,7-7A7,7,0,0,1,198.2,65.91Z"/><path class="cls-1" d="M191.19,42.1A6.16,6.16,0,1,0,185,35.94,6.17,6.17,0,0,0,191.19,42.1Zm0-9.53a3.37,3.37,0,1,1-3.37,3.37A3.37,3.37,0,0,1,191.19,32.57Z"/><path class="cls-1" d="M201.51,39.8a4.34,4.34,0,1,0,4.34-4.34A4.35,4.35,0,0,0,201.51,39.8Zm5.88,0a1.54,1.54,0,1,1-1.54-1.54A1.54,1.54,0,0,1,207.39,39.8Z"/><path class="cls-1" d="M216.93,25.3a5.79,5.79,0,1,0-5.78-5.79A5.8,5.8,0,0,0,216.93,25.3Zm0-8.77a3,3,0,1,1-3,3A3,3,0,0,1,216.93,16.53Z"/><path class="cls-1" d="M199.44,28.69h2.07v2.07a1.4,1.4,0,0,0,2.8,0V28.69h2.07a1.4,1.4,0,1,0,0-2.8h-2.07V23.82a1.4,1.4,0,0,0-2.8,0v2.07h-2.07a1.4,1.4,0,0,0,0,2.8Z"/></svg>