<svg id="Layer_1" data-name="Layer 1" xmlns="http://www.w3.org/2000/svg" viewBox="0 0 350 350"><defs><style>.cls-1{fill:#010101;}</style></defs><title>Artboard 1 copy 5</title><path class="cls-1" d="M185,149.77a1.49,1.49,0,1,1-1.46,1.45A1.38,1.38,0,0,1,185,149.77Zm-.06-2.9a1.51,1.51,0,0,0,.91-.31,9.24,9.24,0,0,0-1.73-2.41,1.49,1.49,0,0,0,.82,2.72Zm1.5,1.11a1,1,0,0,0,0,.35,1.44,1.44,0,0,0,.33.9A8.43,8.43,0,0,0,186.45,148ZM185,155.5a1.51,1.51,0,0,0-1.51,1.47A1.5,1.5,0,1,0,185,155.5Zm2-.27c0-.71,0-1.44,0-2.21a1.34,1.34,0,0,0-.62,1.08A1.48,1.48,0,0,0,187,155.23ZM185,164.37a2,2,0,0,0,.35-.06c.26-.77.52-1.58.74-2.44a1.33,1.33,0,0,0-1-.48,1.49,1.49,0,0,0,0,3Zm1.67-5.15a1.27,1.27,0,0,0-.21.73,1,1,0,0,0,0,.25Zm1.24,31.51a1.5,1.5,0,0,0,.37,0c-.5-.85-1-1.63-1.5-2.35a1.46,1.46,0,0,0-.31.9A1.53,1.53,0,0,0,187.86,190.73Zm-108.38-.06A1.5,1.5,0,1,0,81,192.18,1.51,1.51,0,0,0,79.48,190.67Zm0,11.78A1.49,1.49,0,1,0,81,204,1.51,1.51,0,0,0,79.48,202.45Zm0,5.89a1.49,1.49,0,1,0,1.4,1.5A1.37,1.37,0,0,0,79.48,208.34ZM78,221.55a1.37,1.37,0,0,0,1.44,1.38,1.41,1.41,0,1,0,0-2.81A1.37,1.37,0,0,0,78,221.55Zm1.44-25a1.49,1.49,0,1,0,1.41,1.51A1.38,1.38,0,0,0,79.47,196.56Zm0-67.37a1.49,1.49,0,1,0-1.4-1.5A1.37,1.37,0,0,0,79.44,129.19ZM158.58,138a1.7,1.7,0,0,0,.51-.08q-.53-1.38-1.17-2.7a1.55,1.55,0,0,0-.76,1.26A1.41,1.41,0,0,0,158.58,138Zm-1.42,4.46a1.49,1.49,0,0,0,1.5,1.48,1.58,1.58,0,0,0,1.48-1.54,1.47,1.47,0,0,0-1.53-1.43A1.41,1.41,0,0,0,157.16,142.46ZM79.44,214.22A1.5,1.5,0,1,0,81,215.69,1.51,1.51,0,0,0,79.44,214.22Zm79.19-67.41a1.49,1.49,0,0,0-1.47,1.5,1.4,1.4,0,0,0,1.48,1.46,1.48,1.48,0,0,0,1.5-1.46A1.55,1.55,0,0,0,158.63,146.81Zm2.58,0c-.09-.92-.23-1.83-.39-2.73a1.55,1.55,0,0,0-.74,1.22A1.53,1.53,0,0,0,161.21,146.82ZM189.38,198a1.45,1.45,0,0,0,1.45,1.51,1.43,1.43,0,0,0,.8-.21c-.22-1-.48-1.89-.76-2.75A1.45,1.45,0,0,0,189.38,198Zm1.42,7.35a1.43,1.43,0,1,0-1.43-1.49A1.4,1.4,0,0,0,190.8,205.37Zm-7.31-36.73.41-.9A1.5,1.5,0,0,0,183.49,168.64ZM182,161.39a1.47,1.47,0,0,0,1.52-1.45,1.58,1.58,0,0,0-1.5-1.52,1.51,1.51,0,0,0-1.49,1.5A1.41,1.41,0,0,0,182,161.39Zm5.84,52.89a1.5,1.5,0,0,0,1.53-1.46,1.4,1.4,0,0,0-1.43-1.51,1.49,1.49,0,0,0-1.56,1.49A1.6,1.6,0,0,0,187.86,214.28ZM182,228.77a1.5,1.5,0,0,0-1.48,1.5,1.4,1.4,0,0,0,1.48,1.46,1.48,1.48,0,0,0,1.51-1.45A1.58,1.58,0,0,0,182,228.77Zm1.49-74.63a1.45,1.45,0,0,0-1.48-1.39,1.39,1.39,0,0,0-1.48,1.37,1.5,1.5,0,0,0,1.46,1.44A1.56,1.56,0,0,0,183.52,154.14Zm1.43,66a1.41,1.41,0,1,0,.05,2.81,1.41,1.41,0,1,0-.05-2.81Zm0-5.9a1.5,1.5,0,0,0,0,3,1.52,1.52,0,0,0,1.52-1.48A1.51,1.51,0,0,0,185,214.22Zm2.92-8.85a1.57,1.57,0,0,0-1.5,1.51,1.46,1.46,0,0,0,1.51,1.45,1.39,1.39,0,0,0,1.47-1.45A1.5,1.5,0,0,0,187.91,205.37ZM182,170.2a1.5,1.5,0,0,0-1.48,1.51,1.38,1.38,0,0,0,1.25,1.43,14.76,14.76,0,0,1,.91-2.75A1.37,1.37,0,0,0,182,170.2ZM25.3,174.63a1.46,1.46,0,0,0,1.45,1.51l.21,0v-2.93l-.15,0A1.45,1.45,0,0,0,25.3,174.63Zm158.24-8.79a1.49,1.49,0,0,0-1.5-1.47,1.4,1.4,0,0,0-1.49,1.45,1.49,1.49,0,0,0,1.47,1.51A1.57,1.57,0,0,0,183.54,165.84Zm1.41,63a1.52,1.52,0,0,0,1.52-1.48,1.5,1.5,0,1,0-1.52,1.48Zm-3.11-49.74c-.06-.41-.12-.84-.17-1.31s-.09-1.08-.11-1.56a1.37,1.37,0,0,0-1,1.38A1.5,1.5,0,0,0,181.84,179.09Zm-2.68-8.89a1.38,1.38,0,0,0,1.41-1.43,1.41,1.41,0,1,0-2.82,0A1.39,1.39,0,0,0,179.16,170.2Zm0,5.94a1.49,1.49,0,1,0-1.38-1.51A1.47,1.47,0,0,0,179.14,176.14Zm.05-14.74a1.48,1.48,0,1,0,1.38,1.51A1.47,1.47,0,0,0,179.19,161.4ZM18,222.94a1.4,1.4,0,0,0-1.54,1.39,1.5,1.5,0,0,0,1.42,1.57,1.57,1.57,0,0,0,1.57-1.44A1.5,1.5,0,0,0,18,222.94Zm2.86,0a1.41,1.41,0,1,0,0-2.81,1.41,1.41,0,1,0,0,2.81Zm2.94-20.42a1.51,1.51,0,0,0,1.5-1.49,1.4,1.4,0,0,0-1.46-1.48A1.47,1.47,0,0,0,22.33,201,1.58,1.58,0,0,0,23.81,202.51ZM15,231.74a1.45,1.45,0,0,0-1.19.56,9.71,9.71,0,0,0,2.59.54A1.44,1.44,0,0,0,15,231.74Zm14-99.74-.82-1.36A1.51,1.51,0,0,0,29.07,132ZM15,225.91a1.42,1.42,0,1,0,0,2.84,1.42,1.42,0,1,0,0-2.84Zm-5.83-.06a1.44,1.44,0,0,0-1.21.78,9.41,9.41,0,0,0,1.2,2.18h0a1.49,1.49,0,0,0,0-3Zm14.68-5.74a1.39,1.39,0,0,0,1.45-1.48,1.5,1.5,0,0,0-1.51-1.48,1.56,1.56,0,0,0-1.47,1.53A1.46,1.46,0,0,0,23.86,220.11Zm0-5.83a1.49,1.49,0,0,0,1.49-1.49,1.39,1.39,0,0,0-1.46-1.47,1.47,1.47,0,0,0-1.52,1.44A1.56,1.56,0,0,0,23.82,214.28ZM18,228.77a1.5,1.5,0,0,0-1.48,1.51A1.4,1.4,0,0,0,18,231.73a1.48,1.48,0,0,0,1.5-1.46A1.57,1.57,0,0,0,18,228.77Zm5.87-20.44a1.39,1.39,0,0,0,1.49-1.44,1.49,1.49,0,0,0-1.46-1.52,1.58,1.58,0,0,0-1.53,1.49A1.49,1.49,0,0,0,23.82,208.33ZM12,228.77a1.58,1.58,0,0,0-1.47,1.54v0a9.59,9.59,0,0,0,1.88,1.34,1.39,1.39,0,0,0,1.09-1.45A1.49,1.49,0,0,0,12,228.77ZM23.8,179.11a1.5,1.5,0,0,0,1.51-1.48,1.41,1.41,0,0,0-1.45-1.49,1.47,1.47,0,0,0-1.53,1.43A1.58,1.58,0,0,0,23.8,179.11Zm0,5.83a1.4,1.4,0,0,0,1.5-1.44A1.49,1.49,0,0,0,23.85,182a1.57,1.57,0,0,0-1.53,1.48A1.49,1.49,0,0,0,23.81,184.94Zm0,5.79a1.5,1.5,0,0,0,1.49-1.5c0-.87-.49-1.31-1.47-1.31s-1.51.5-1.51,1.29A1.58,1.58,0,0,0,23.82,190.73Zm-4.2,41.81a9.86,9.86,0,0,0,1.86-.69,1.38,1.38,0,0,0-.59-.11A1.28,1.28,0,0,0,19.62,232.54Zm4.2-36a1.4,1.4,0,0,0,1.49-1.44,1.49,1.49,0,0,0-1.46-1.52,1.58,1.58,0,0,0-1.53,1.49A1.49,1.49,0,0,0,23.82,196.56Zm1.49-30.68a1.4,1.4,0,0,0-1.43-1.51,1.48,1.48,0,0,0-1.56,1.48,1.59,1.59,0,0,0,1.46,1.48A1.5,1.5,0,0,0,25.31,165.88Zm-3,64.39a1.44,1.44,0,0,0,.33.9,10.11,10.11,0,0,0,2.17-2,1.44,1.44,0,0,0-1-.39A1.58,1.58,0,0,0,22.32,230.27Zm-1.41-4.43a1.5,1.5,0,1,0,1.47,1.51A1.51,1.51,0,0,0,20.91,225.84Zm3-52.67a1.41,1.41,0,0,0,1.43-1.51,1.5,1.5,0,0,0-1.53-1.46,1.59,1.59,0,0,0-1.46,1.48A1.49,1.49,0,0,0,23.88,173.17Zm0,49.77a1.46,1.46,0,0,0-1.52,1.43,1.57,1.57,0,0,0,1.48,1.53,1.5,1.5,0,0,0,1.5-1.49A1.4,1.4,0,0,0,23.85,222.94Zm1.44-42.45A1.38,1.38,0,0,0,26.72,182H27v-2.82l-.12,0A1.41,1.41,0,0,0,25.29,180.49Zm0,17.58a1.45,1.45,0,0,0,1.5,1.46l.16,0v-2.92l-.2,0A1.45,1.45,0,0,0,25.3,198.07Zm0-5.9a1.37,1.37,0,0,0,1.49,1.41c.07,0,.12,0,.18,0v-2.78a1.08,1.08,0,0,0-.19,0A1.38,1.38,0,0,0,25.29,192.17Zm54.2-30.78a1.49,1.49,0,1,0,1.39,1.52A1.37,1.37,0,0,0,79.49,161.39Zm0,5.88a1.5,1.5,0,1,0,0,3,1.5,1.5,0,0,0,0-3ZM38,146.71l-.88-1.47a.25.25,0,0,0,0,.07A1.39,1.39,0,0,0,38,146.71ZM25.3,186.42a1.45,1.45,0,0,0,1.47,1.49l.19,0V185l-.17,0A1.45,1.45,0,0,0,25.3,186.42Zm54.18-7.37A1.5,1.5,0,1,0,81,180.56,1.51,1.51,0,0,0,79.48,179.05Zm0-23.55A1.5,1.5,0,1,0,81,157,1.51,1.51,0,0,0,79.44,155.5Zm0,17.67a1.49,1.49,0,1,0,1.41,1.49A1.37,1.37,0,0,0,79.46,173.17Zm0,11.77a1.49,1.49,0,1,0,1.41,1.5A1.37,1.37,0,0,0,79.47,184.94Zm-54.18,19a1.38,1.38,0,0,0,1.46,1.45,1.33,1.33,0,0,0,.21,0v-2.81h-.15A1.39,1.39,0,0,0,25.29,203.91ZM79.49,138a1.49,1.49,0,0,0-.06,3,1.49,1.49,0,0,0,.06-3Zm0,5.88A1.52,1.52,0,0,0,78,145.31a1.53,1.53,0,0,0,1.44,1.56,1.5,1.5,0,0,0,.12-3Zm-.08-11.78A1.5,1.5,0,1,0,81,133.58,1.51,1.51,0,0,0,79.44,132.1ZM25.3,209.8a1.45,1.45,0,0,0,1.45,1.51l.21,0v-2.93h-.15A1.45,1.45,0,0,0,25.3,209.8Zm21.53-48.47-1.06-1.75a1.48,1.48,0,0,0-.05.35A1.45,1.45,0,0,0,46.83,161.33Zm32.65-11.56a1.49,1.49,0,1,0,1.4,1.51A1.37,1.37,0,0,0,79.48,149.77ZM25.29,215.66a1.38,1.38,0,0,0,1.43,1.48H27v-2.82l-.12,0A1.41,1.41,0,0,0,25.29,215.66Zm0,5.93a1.46,1.46,0,0,0,1.46,1.34l.2,0v-2.77l-.16,0A1.45,1.45,0,0,0,25.3,221.59Zm0,5.73a1.41,1.41,0,0,0,.25.8,10.37,10.37,0,0,0,1-2.17A1.34,1.34,0,0,0,25.29,227.32ZM278.1,196.8a9.48,9.48,0,0,0,2,2,1.63,1.63,0,0,0,.18-.72,1.39,1.39,0,0,0-1.4-1.51A1.45,1.45,0,0,0,278.1,196.8Zm6.44-26.6a1.43,1.43,0,1,0-1.43-1.49A1.39,1.39,0,0,0,284.54,170.2Zm29.45.06a1.45,1.45,0,0,0,1.39-1.48,1.48,1.48,0,0,0-1.36-1.51,1.5,1.5,0,0,0,0,3Zm-23.49,0a1.5,1.5,0,1,0-1.51-1.47A1.51,1.51,0,0,0,290.5,170.26Zm11.78,0a1.5,1.5,0,1,0-1.51-1.47A1.51,1.51,0,0,0,302.28,170.26Zm5.85-.07a1.43,1.43,0,1,0-1.47-1.44A1.38,1.38,0,0,0,308.13,170.19Zm-11.75,0a1.42,1.42,0,1,0-1.49-1.41A1.37,1.37,0,0,0,296.38,170.18Zm-8.84-5.81a1.4,1.4,0,0,0-1.47,1.47,1.48,1.48,0,0,0,1.49,1.49,1.56,1.56,0,0,0,1.49-1.51A1.47,1.47,0,0,0,287.54,164.37Zm-1.37,6.81h2.77a1.58,1.58,0,0,0-1.38-1A1.47,1.47,0,0,0,286.17,171.18Zm-7.32-3.91a1.61,1.61,0,0,0-.68.19,9.67,9.67,0,0,0,2,2,1.54,1.54,0,0,0,.16-.67A1.52,1.52,0,0,0,278.85,167.27Zm2.81-2.9a1.49,1.49,0,0,0-1.36,1.49,1.58,1.58,0,0,0,1.35,1.47,1.49,1.49,0,0,0,1.48-1.5A1.4,1.4,0,0,0,281.66,164.37Zm-.11,5.85a10.41,10.41,0,0,0,1.2.49,1.46,1.46,0,0,0-1.08-.51Zm61.8-8.82a1.48,1.48,0,1,0,1.45,1.51A1.45,1.45,0,0,0,343.35,161.4Zm2.92,29.33a1.58,1.58,0,0,0,1.51-1.51c0-.78-.59-1.29-1.51-1.3s-1.48.43-1.48,1.3A1.5,1.5,0,0,0,346.27,190.73ZM292,171.18h2.78a1.48,1.48,0,0,0-1.41-1A1.58,1.58,0,0,0,292,171.18Zm27.67-1a1.44,1.44,0,1,0-1.42-1.42A1.38,1.38,0,0,0,319.7,170.2Zm23.48,29.32a9.54,9.54,0,0,0,1.55-1,1.17,1.17,0,0,0,.07-.46,1.48,1.48,0,1,0-1.62,1.5Zm.17-8.79a1.39,1.39,0,0,0-1.51,1.41,1.36,1.36,0,0,0,1.45,1.44,1.43,1.43,0,1,0,.06-2.85ZM343,170.14a8.91,8.91,0,0,0,1.72-1.12,1,1,0,0,0,.05-.23,1.39,1.39,0,0,0-1.47-1.45,1.37,1.37,0,0,0-1.5,1.41A1.33,1.33,0,0,0,343,170.14Zm-17.4.12a1.51,1.51,0,0,0,1.51-1.47,1.5,1.5,0,1,0-1.51,1.47Zm5.88-.07A1.37,1.37,0,0,0,333,168.8a1.49,1.49,0,1,0-1.51,1.39Zm5.93.07a1.5,1.5,0,1,0-1.51-1.47A1.51,1.51,0,0,0,337.45,170.26Zm8.91-2.94a9.58,9.58,0,0,0,1.22-2.19,1.51,1.51,0,0,0-1.21-.76,1.41,1.41,0,0,0-1.58,1.36,1.5,1.5,0,0,0,1.38,1.6Zm-.47,17.58a9.46,9.46,0,0,0-1.05-1.05A1.35,1.35,0,0,0,345.89,184.9Zm-36.17-13.72h2.78a1.6,1.6,0,0,0-1.38-1A1.48,1.48,0,0,0,309.72,171.18Zm30.65-6.81a1.48,1.48,0,0,0-1.5,1.46,1.56,1.56,0,0,0,1.51,1.5,1.49,1.49,0,0,0,1.47-1.5A1.4,1.4,0,0,0,340.37,164.37Zm-11.79,0a1.48,1.48,0,0,0-1.49,1.47,1.58,1.58,0,0,0,1.52,1.49,1.5,1.5,0,0,0,1.47-1.52A1.4,1.4,0,0,0,328.58,164.37Zm11.77,5.83a1.59,1.59,0,0,0-1.37,1,9.7,9.7,0,0,0,2.54-.4A1.46,1.46,0,0,0,340.35,170.2Zm-7.24,1h2.78a1.61,1.61,0,0,0-1.41-1A1.5,1.5,0,0,0,333.11,171.18Zm1.4-6.81a1.39,1.39,0,0,0-1.49,1.44,1.49,1.49,0,0,0,1.45,1.52,1.57,1.57,0,0,0,1.53-1.48A1.49,1.49,0,0,0,334.51,164.37Zm5.87,35.17a1.49,1.49,0,0,0-1.45,1.08,9.25,9.25,0,0,0,2.69-.45A1.42,1.42,0,0,0,340.38,199.54Zm2.94,23.39a1.45,1.45,0,0,0,1.48-1.39,1.49,1.49,0,1,0-1.48,1.39ZM348,193.06a9.5,9.5,0,0,0,.2-1.93v-.08a1.46,1.46,0,0,0-.2,2Zm-7.66,29.88a1.48,1.48,0,0,0-1.5,1.46,1.58,1.58,0,0,0,1.51,1.5,1.49,1.49,0,0,0,1.47-1.51A1.38,1.38,0,0,0,340.37,222.94Zm5.87-2.83a1.46,1.46,0,0,0,1.53-1.43,1.55,1.55,0,0,0-1.47-1.53,1.5,1.5,0,0,0-1.51,1.48A1.4,1.4,0,0,0,346.24,220.11Zm-5.9-26.52a1.58,1.58,0,0,0-1.47,1.54,1.46,1.46,0,0,0,1.53,1.43,1.4,1.4,0,0,0,1.45-1.49A1.5,1.5,0,0,0,340.34,193.59Zm-23.48-29.22a1.46,1.46,0,0,0-1.54,1.42,1.57,1.57,0,0,0,1.46,1.54,1.5,1.5,0,0,0,1.52-1.47A1.39,1.39,0,0,0,316.86,164.37Zm5.85,0a1.4,1.4,0,0,0-1.47,1.46,1.49,1.49,0,0,0,1.48,1.5,1.56,1.56,0,0,0,1.5-1.51A1.47,1.47,0,0,0,322.71,164.37Zm23.53,32.19.29,0a9.69,9.69,0,0,0,1.08-2.07,1.59,1.59,0,0,0-1.31-.88,1.5,1.5,0,0,0-1.51,1.48A1.4,1.4,0,0,0,346.24,196.56Zm-42.43-25.38h2.77a1.48,1.48,0,0,0-1.38-1A1.58,1.58,0,0,0,303.81,171.18Zm-4.52-6.81a1.41,1.41,0,0,0-1.45,1.49,1.5,1.5,0,0,0,1.52,1.47,1.58,1.58,0,0,0,1.47-1.54A1.47,1.47,0,0,0,299.29,164.37Zm-1.35,6.81h2.78a1.6,1.6,0,0,0-1.42-1A1.48,1.48,0,0,0,297.94,171.18Zm7.3-6.81a1.46,1.46,0,0,0-1.54,1.42,1.56,1.56,0,0,0,1.46,1.54,1.49,1.49,0,0,0,1.52-1.46A1.4,1.4,0,0,0,305.24,164.37Zm5.86,0a1.39,1.39,0,0,0-1.48,1.45,1.49,1.49,0,0,0,1.47,1.51,1.58,1.58,0,0,0,1.52-1.5A1.49,1.49,0,0,0,311.1,164.37Zm-17.67,0a1.48,1.48,0,0,0-1.51,1.45,1.57,1.57,0,0,0,1.5,1.51,1.48,1.48,0,0,0,1.48-1.5A1.39,1.39,0,0,0,293.43,164.37Zm27.91,6.81h2.77a1.58,1.58,0,0,0-1.41-1A1.47,1.47,0,0,0,321.34,171.18Zm-5.91,0h2.77a1.47,1.47,0,0,0-1.37-1A1.58,1.58,0,0,0,315.43,171.18Zm-19,28.35a1.48,1.48,0,1,0-1.51-1.45A1.46,1.46,0,0,0,296.4,199.53Zm-8.84-5.93a1.48,1.48,0,0,0-1.49,1.49,1.39,1.39,0,0,0,1.46,1.47,1.47,1.47,0,0,0,1.52-1.45A1.56,1.56,0,0,0,287.56,193.6Zm0,5.94a1.39,1.39,0,0,0-1.42,1.09H289A1.48,1.48,0,0,0,287.53,199.54Zm-5.91-5.95a1.6,1.6,0,0,0-1.32,1.5,1.48,1.48,0,0,0,1.38,1.47,1.41,1.41,0,0,0,1.45-1.49A1.51,1.51,0,0,0,281.62,193.59Zm2.95,5.94a1.48,1.48,0,1,0-1.45-1.51A1.45,1.45,0,0,0,284.57,199.53Zm-2.91,0a1.1,1.1,0,0,0-.27,0,8.94,8.94,0,0,0,1.53.63A1.41,1.41,0,0,0,281.66,199.54Zm7.4-1.54a1.43,1.43,0,1,0,1.48-1.44A1.39,1.39,0,0,0,289.06,198Zm10.27,1.54a1.39,1.39,0,0,0-1.44,1.09h2.88A1.5,1.5,0,0,0,299.33,199.54Zm0-5.95a1.51,1.51,0,0,0-1.51,1.48,1.41,1.41,0,0,0,1.45,1.49,1.47,1.47,0,0,0,1.54-1.43A1.58,1.58,0,0,0,299.35,193.59Zm-6,0a1.57,1.57,0,0,0-1.45,1.48,1.48,1.48,0,0,0,1.56,1.48,1.39,1.39,0,0,0,1.42-1.51A1.49,1.49,0,0,0,293.37,193.6Zm-29.2-43.83a1.56,1.56,0,0,0,1.16-.56,10.3,10.3,0,0,0-1.06-1.14c-.34-.31-.7-.62-1-.92a1.51,1.51,0,0,0-.55,1.18A1.4,1.4,0,0,0,264.17,149.77Zm29.24,49.77a1.48,1.48,0,0,0-1.43,1.09h2.86A1.38,1.38,0,0,0,293.41,199.54Zm54.81-37.77a1.51,1.51,0,0,0-.43,1.07,1.58,1.58,0,0,0,.22.88A9.63,9.63,0,0,0,348.22,161.77Zm-81.11,31.89.18,0a9.65,9.65,0,0,0-.93-1,8.81,8.81,0,0,0-.75-.62c0,.05,0,.1,0,.15A1.51,1.51,0,0,0,267.11,193.66ZM265.6,157a1.51,1.51,0,0,0,1.16,1.48,9.56,9.56,0,0,0,.6-2.92,1,1,0,0,0-.25,0A1.51,1.51,0,0,0,265.6,157Zm1.45-4.22h0a9.69,9.69,0,0,0-1.05-2.52,1.49,1.49,0,0,0-.36,1A1.38,1.38,0,0,0,267.05,152.75Zm-2.92,8.64a1.48,1.48,0,0,0,1.53-1.44,1.59,1.59,0,0,0-1.49-1.53,1.51,1.51,0,0,0-1.5,1.49A1.4,1.4,0,0,0,264.13,161.39Zm0-8.64a1.39,1.39,0,0,0-1.44,1.41,1.5,1.5,0,0,0,1.5,1.4,1.55,1.55,0,0,0,1.46-1.46A1.44,1.44,0,0,0,264.12,152.75Zm-4.39,7.17a1.5,1.5,0,0,0-1.49-1.5,1.58,1.58,0,0,0-1.49,1.53,1.47,1.47,0,0,0,1.52,1.44A1.39,1.39,0,0,0,259.73,159.92Zm16.86,33.85a9,9,0,0,0,.74,1.84,1.29,1.29,0,0,0,.1-.48A1.56,1.56,0,0,0,276.59,193.77ZM265.67,198a1.43,1.43,0,1,0,1.46-1.45A1.39,1.39,0,0,0,265.67,198Zm-5.14-33.81a9,9,0,0,0,2.08-.88,1.35,1.35,0,0,0,.07-.41,1.48,1.48,0,1,0-2.15,1.29Zm-1.58.32a1.53,1.53,0,0,0-.66-.15,1.61,1.61,0,0,0-.82.21A9.12,9.12,0,0,0,259,164.52Zm2.19-6.1a1.43,1.43,0,1,0-1.42-1.41A1.37,1.37,0,0,0,261.14,158.42ZM64.87,225.9a1.49,1.49,0,0,1-1.45-1.53,1.28,1.28,0,0,1,.09-.44,9.42,9.42,0,0,1-1.92-1.05,1.51,1.51,0,0,1-.82-.52l-.14-.23a9.6,9.6,0,0,1-1.87-2.23L27,167.38v2.78c-.07,0-.13,0-.21,0a1.43,1.43,0,1,1,.06-2.85h.13l-3.67-6.07a1.43,1.43,0,0,1-.95-1.37s0-.11,0-.16l-.84-1.4,0,0v3.13a1.43,1.43,0,0,1,.86,1.42,1.38,1.38,0,0,1-.86,1.34v3.13a1.49,1.49,0,0,1,0,2.75v3.13a1.41,1.41,0,0,1,.85,1.4,1.38,1.38,0,0,1-.85,1.37v3.12a1.49,1.49,0,0,1,0,2.76v3.14a1.4,1.4,0,0,1,.86,1.42,1.38,1.38,0,0,1-.86,1.33v3a1.49,1.49,0,0,1,0,2.76v3.13a1.55,1.55,0,0,1,0,2.77v3.12a1.49,1.49,0,0,1,0,2.76v3.13a1.43,1.43,0,0,1,.86,1.42,1.39,1.39,0,0,1-.86,1.34v3.13a1.54,1.54,0,0,1,.93,1.4,1.52,1.52,0,0,1-1.24,1.44,9.83,9.83,0,0,1-7.62,7.27A1.5,1.5,0,0,1,12,225.9a1.58,1.58,0,0,1-1.44-1.32,9.57,9.57,0,0,1-2.88-.76,1.7,1.7,0,0,1,.13.4,1.27,1.27,0,0,1-.28,1,9.34,9.34,0,0,1-.22-1.6,9.83,9.83,0,0,1-5.55-8.84V123A9.84,9.84,0,0,1,20,117.93l3.67,6a10.31,10.31,0,0,1,1.41,1.54,1.3,1.3,0,0,1-.28.34l.67,1.1a1.52,1.52,0,0,1,.3-.37l1.51,2.5a1.4,1.4,0,0,1-.47.09l3.71,6.12a1.56,1.56,0,0,1,.67,1.11l1,1.66a1.27,1.27,0,0,1,.48-.07L34,140.11a1.17,1.17,0,0,1-.27.42l.66,1.08a1.43,1.43,0,0,1,.32-.33l1.52,2.52a1.59,1.59,0,0,1-.44.12l3.77,6.22a1.52,1.52,0,0,1,.45.75l1.15,1.91a1.58,1.58,0,0,1,.38-.05l.13,0,1.18,1.95a2.12,2.12,0,0,1-.29.38l.63,1a1.31,1.31,0,0,1,.3-.36L45,158.3a1.57,1.57,0,0,1-.43.15L50,167.38a1.42,1.42,0,0,1,.2,0,1.75,1.75,0,0,1,.33.06l1.09,1.78a1.49,1.49,0,0,1-.24.47l.66,1.09a1.4,1.4,0,0,1,.33-.31L53.87,173a1.52,1.52,0,0,1-.42.16l1.37,2.27a1.77,1.77,0,0,1-.19-.79,3.11,3.11,0,0,1,0-.32l1.11,1.84a1.34,1.34,0,0,1-.79-.45l2.34,3.87V123A9.85,9.85,0,0,1,77,123v.31a1.68,1.68,0,0,1,1,1.38,1.51,1.51,0,0,1-1,1.42v3.13a1.51,1.51,0,0,1,1,1.43,1.7,1.7,0,0,1-1,1.38v3a1.66,1.66,0,0,1,1,1.45,1.52,1.52,0,0,1-1,1.37v3.12a1.51,1.51,0,0,1,1,1.45,1.65,1.65,0,0,1-1,1.35v3a1.69,1.69,0,0,1,1,1.41,1.53,1.53,0,0,1-1,1.4v3.12a1.47,1.47,0,0,1,1,1.35,1.64,1.64,0,0,1-1,1.3v3A1.65,1.65,0,0,1,78,160a1.49,1.49,0,0,1-1,1.34v3.12a1.5,1.5,0,0,1,1,1.43,1.67,1.67,0,0,1-1,1.38v3a1.69,1.69,0,0,1,1,1.43,1.49,1.49,0,0,1-1,1.38v3.13a1.51,1.51,0,0,1,1,1.41,1.72,1.72,0,0,1-1,1.4v3a1.67,1.67,0,0,1,1,1.43,1.49,1.49,0,0,1-1,1.38V188a1.31,1.31,0,0,1,1,1.29,1.7,1.7,0,0,1-1,1.37v3a1.69,1.69,0,0,1,1,1.42,1.53,1.53,0,0,1-1,1.39v3.13a1.51,1.51,0,0,1,1,1.44,1.68,1.68,0,0,1-1,1.36v3a1.67,1.67,0,0,1,1,1.45,1.49,1.49,0,0,1-1,1.37v3.12a1.52,1.52,0,0,1,1,1.41,1.71,1.71,0,0,1-1,1.4v.6a9.72,9.72,0,0,1-.29,2.36,1.64,1.64,0,0,1,1.3,1.46,1.5,1.5,0,0,1-1.4,1.5,1.44,1.44,0,0,1-1-.36,10.41,10.41,0,0,1-.69,1,1.44,1.44,0,0,1,.23.74,1.47,1.47,0,0,1-1.5,1.39,1.5,1.5,0,0,1-.72-.2,9.92,9.92,0,0,1-1.08.69,1.51,1.51,0,0,1,.35,1,1.5,1.5,0,0,1-1.5,1.49,1.56,1.56,0,0,1-1.48-1.51,10.12,10.12,0,0,1-2.1.25c-.27,0-.53,0-.8,0A1.57,1.57,0,0,1,64.87,225.9Zm-.62-6.47h.54a9,9,0,0,0,9-8.48,2,2,0,0,0-4-.24,5,5,0,0,1-5.29,4.71,2,2,0,1,0-.24,4ZM65,130a2,2,0,0,0,4,0v-8.6a2,2,0,0,0-4,0Zm0,10.68a2,2,0,0,0,4,0v-2.17a2,2,0,0,0-4,0Zm0,18.48a2,2,0,0,0,4,0V148.32a2,2,0,0,0-4,0ZM6.34,126.92a2,2,0,0,0,2-1.59,5,5,0,0,1,5.94-3.86,2,2,0,0,0,.83-3.92,9,9,0,0,0-10.69,7,2,2,0,0,0,2,2.42ZM334.5,199.54a1.39,1.39,0,0,0-1.44,1.09h2.88A1.48,1.48,0,0,0,334.5,199.54Zm-5.95-5.94a1.56,1.56,0,0,0-1.46,1.55,1.47,1.47,0,0,0,1.55,1.41,1.41,1.41,0,0,0,1.44-1.5A1.5,1.5,0,0,0,328.55,193.6Zm.1,5.94a1.47,1.47,0,0,0-1.5,1.09H330A1.38,1.38,0,0,0,328.65,199.54Zm2.88,0a1.48,1.48,0,1,0-1.47-1.5A1.45,1.45,0,0,0,331.53,199.53Zm-8.8-5.93a1.49,1.49,0,0,0-1.49,1.49,1.4,1.4,0,0,0,1.47,1.47,1.47,1.47,0,0,0,1.51-1.45A1.56,1.56,0,0,0,322.73,193.6Zm2.93,3a1.49,1.49,0,1,0,1.41,1.49A1.37,1.37,0,0,0,325.66,196.56Zm8.86-3a1.51,1.51,0,0,0-1.51,1.48,1.41,1.41,0,0,0,1.45,1.49,1.48,1.48,0,0,0,1.54-1.43A1.58,1.58,0,0,0,334.52,193.59ZM344.79,160a1.4,1.4,0,0,0,1.49,1.44,1.49,1.49,0,0,0,1.5-1.47,1.58,1.58,0,0,0-1.52-1.49A1.49,1.49,0,0,0,344.79,160Zm1.16-4.43a10.77,10.77,0,0,0-1.12-1.12A1.52,1.52,0,0,0,346,155.52Zm-68.58,10.71a1.28,1.28,0,0,0,.06-.34,1.47,1.47,0,0,0-.78-1.33A9.56,9.56,0,0,0,277.37,166.23Zm60.06,30.33a1.38,1.38,0,0,0-1.41,1.5,1.42,1.42,0,1,0,1.41-1.5Zm-20.59,3a1.48,1.48,0,0,0-1.47,1.09h2.88A1.37,1.37,0,0,0,316.84,199.54Zm-5.79,0a1.38,1.38,0,0,0-1.38,1.09h2.88A1.47,1.47,0,0,0,311.05,199.54Zm-5.87-5.95a1.58,1.58,0,0,0-1.48,1.54,1.47,1.47,0,0,0,1.53,1.43,1.4,1.4,0,0,0,1.45-1.48A1.5,1.5,0,0,0,305.18,193.59Zm2.93,5.94a1.48,1.48,0,1,0-1.44-1.52A1.46,1.46,0,0,0,308.11,199.53Zm-2.87,0a1.47,1.47,0,0,0-1.49,1.09h2.88A1.37,1.37,0,0,0,305.24,199.54Zm5.89-5.95a1.51,1.51,0,0,0-1.51,1.49,1.39,1.39,0,0,0,1.45,1.48,1.47,1.47,0,0,0,1.53-1.43A1.58,1.58,0,0,0,311.13,193.59Zm1.49,4.44a1.38,1.38,0,0,0,1.41,1.51c.81,0,1.27-.52,1.28-1.43s-.43-1.53-1.25-1.55A1.37,1.37,0,0,0,312.62,198Zm4.2-4.43a1.56,1.56,0,0,0-1.5,1.51,1.47,1.47,0,0,0,1.51,1.45,1.4,1.4,0,0,0,1.47-1.46A1.49,1.49,0,0,0,316.82,193.6Zm5.9,5.94a1.4,1.4,0,0,0-1.44,1.09h2.89A1.5,1.5,0,0,0,322.72,199.54Zm-20.4-3a1.49,1.49,0,1,0,1.37,1.54A1.38,1.38,0,0,0,302.32,196.56Zm17.47,3a1.48,1.48,0,1,0-1.5-1.46A1.46,1.46,0,0,0,319.79,199.53Zm7.41-28.35H330a1.47,1.47,0,0,0-1.38-1A1.59,1.59,0,0,0,327.2,171.18Zm-93.85,41.61a1.58,1.58,0,0,0,1.53,1.49,1.5,1.5,0,0,0,1.46-1.52,1.4,1.4,0,0,0-1.5-1.44A1.48,1.48,0,0,0,233.35,212.79Zm20.54-50a1.59,1.59,0,0,0,.32,1,10.57,10.57,0,0,0,1.44.48,1.37,1.37,0,0,0,1.09-1.4,1.43,1.43,0,1,0-2.85-.1ZM227.5,212.76a1.5,1.5,0,0,0,1.47,1.52,1.58,1.58,0,0,0,1.52-1.5,1.48,1.48,0,0,0-1.5-1.46A1.39,1.39,0,0,0,227.5,212.76Zm-13.27-4.41c-.91,0-1.31.51-1.3,1.62a1.22,1.22,0,0,0,1.35,1.34,1.48,1.48,0,1,0-.05-3Zm2.93,3a1.41,1.41,0,0,0-1.44,1.5,1.5,1.5,0,0,0,1.52,1.47,1.57,1.57,0,0,0,1.47-1.55A1.48,1.48,0,0,0,217.16,211.31Zm35.18,0a1.41,1.41,0,0,0-1.44,1.5,1.49,1.49,0,0,0,1.51,1.47,1.57,1.57,0,0,0,1.47-1.54A1.48,1.48,0,0,0,252.34,211.31ZM210,171.73a1.46,1.46,0,0,0,1.52,1.43,1.33,1.33,0,0,0,1.43-1.47,1.45,1.45,0,0,0-1.46-1.49A1.58,1.58,0,0,0,210,171.73Zm54.22,30.78a1.58,1.58,0,0,0,1.48-1.54,1.49,1.49,0,0,0-1.54-1.43,1.4,1.4,0,0,0-1.45,1.49A1.51,1.51,0,0,0,264.18,202.51Zm-14.75,8.8a1.48,1.48,0,1,0,0-3,1.48,1.48,0,0,0,0,3ZM211.5,164.37a1.47,1.47,0,0,0-1.54,1.42,1.56,1.56,0,0,0,1.46,1.54,1.44,1.44,0,0,0,1.49-1.46A1.35,1.35,0,0,0,211.5,164.37Zm49.73,38.14a1.38,1.38,0,0,0-1.51,1.4,1.36,1.36,0,0,0,1.45,1.45,1.43,1.43,0,1,0,.06-2.85Zm-14.68,8.81a1.47,1.47,0,0,0-1.42,1.46,1.58,1.58,0,0,0,1.44,1.5,1.5,1.5,0,0,0,1.39-1.51A1.39,1.39,0,0,0,246.55,211.32Zm-2.83,2.9a1.5,1.5,0,1,0,1.47,1.51A1.51,1.51,0,0,0,243.72,214.22Zm-2.93,2.93a1.49,1.49,0,0,0-1.51,1.47,1.58,1.58,0,0,0,.17.76c.92-.07,1.83-.16,2.74-.29a1.67,1.67,0,0,0,.07-.4A1.57,1.57,0,0,0,240.79,217.15Zm-3-2.86a1.42,1.42,0,1,0,1.48,1.43A1.37,1.37,0,0,0,237.81,214.29Zm11.64,0a1.42,1.42,0,1,0,0,2.84,1.42,1.42,0,1,0,0-2.84Zm-2.88,2.86a1.57,1.57,0,0,0-1.43,1.44c.88-.19,1.75-.42,2.62-.66A1.38,1.38,0,0,0,246.57,217.15Zm-20.51-2.86a1.43,1.43,0,1,0-.06,2.85,1.43,1.43,0,1,0,.06-2.85Zm-3-3a1.47,1.47,0,0,0-1.5,1.46,1.57,1.57,0,0,0,1.51,1.5,1.49,1.49,0,0,0,1.47-1.51A1.39,1.39,0,0,0,223.08,211.32Zm11.78,5.83a1.58,1.58,0,0,0-1.51,1.51,1.39,1.39,0,0,0,.2.7c.85.06,1.7.1,2.56.11a1.44,1.44,0,0,0,.23-.82A1.49,1.49,0,0,0,234.86,217.15Zm-11.85,0,1,.34a1.44,1.44,0,0,0-.94-.35Zm6,0a1.49,1.49,0,0,0-1.46,1.31c1,.21,1.93.41,2.91.56a1.51,1.51,0,0,0,.06-.36A1.58,1.58,0,0,0,229,217.15Zm3-2.93a1.51,1.51,0,0,0-1.51,1.48,1.49,1.49,0,1,0,1.51-1.48Zm-11.78,0a1.5,1.5,0,0,0-1.46,1.14c.87.43,1.77.81,2.68,1.18a1.48,1.48,0,0,0-1.22-2.32ZM244.82,158a1.49,1.49,0,1,0-2.62-1s0,.09,0,.13A21.49,21.49,0,0,1,244.82,158Zm-24.66-2.45a1.51,1.51,0,0,0-1.51,1.47,1.5,1.5,0,1,0,1.51-1.47Zm0,5.89a1.4,1.4,0,0,0-1.49,1.43,1.43,1.43,0,0,0,1,1.48,23.1,23.1,0,0,1,1.79-1.91A1.33,1.33,0,0,0,220.2,161.39Zm-6,11.78c-.87,0-1.29.5-1.29,1.48s.45,1.5,1.36,1.49a1.76,1.76,0,0,0,.4-.07,22.2,22.2,0,0,1,.44-2.61A1.48,1.48,0,0,0,214.22,173.17Zm0,6c-1,0-1.34.39-1.33,1.46s.36,1.38,1.32,1.38a1.76,1.76,0,0,0,.58-.09,21.84,21.84,0,0,1-.25-2.7A1.64,1.64,0,0,0,214.26,179.12Zm26.55-23.56a1.58,1.58,0,0,0,1.44-1.41,1.45,1.45,0,0,0-1.55-1.4,1.4,1.4,0,0,0-1.42,1.43A1.52,1.52,0,0,0,240.81,155.56Zm11.6,2.86a1.5,1.5,0,0,0-1.51,1.48,1.4,1.4,0,0,0,1.44,1.49,1.47,1.47,0,0,0,1.54-1.42A1.58,1.58,0,0,0,252.41,158.42Zm-5.82,0a1.11,1.11,0,0,0-.46.11q.88.42,1.74.93A1.46,1.46,0,0,0,246.59,158.42Zm-11.72-5.67a1.45,1.45,0,0,0-1.5,1.36,1.56,1.56,0,0,0,1.48,1.45,1.49,1.49,0,0,0,1.48-1.42A1.39,1.39,0,0,0,234.87,152.75Zm1.58,3.62h.17a20.4,20.4,0,0,1,2.6.18,1.38,1.38,0,0,0-1.39-1A1.42,1.42,0,0,0,236.45,156.37Zm1.33-6.59a1.48,1.48,0,1,0,1.51,1.45A1.45,1.45,0,0,0,237.78,149.78Zm-15.09,11.55a22.88,22.88,0,0,1,1.87-1.36v-.08a1.5,1.5,0,0,0-1.52-1.47,1.58,1.58,0,0,0-1.46,1.56A1.43,1.43,0,0,0,222.69,161.33Zm3.36-8.59a1.48,1.48,0,1,0-1.5-1.46A1.45,1.45,0,0,0,226.05,152.74Zm0,5.67a1.37,1.37,0,0,0,1.51-1.39,1.49,1.49,0,0,0-3-.05A1.37,1.37,0,0,0,226,158.41Zm5.91-5.66a1.49,1.49,0,1,0-1.42-1.49A1.37,1.37,0,0,0,231.92,152.75ZM76.63,225.9A1.6,1.6,0,0,0,78,224.45a1.48,1.48,0,0,0-1.37-1.51,1.38,1.38,0,0,0-1.45,1.4A1.49,1.49,0,0,0,76.63,225.9ZM229,155.56a1.56,1.56,0,0,0,1.51-1.42,1.45,1.45,0,0,0-1.48-1.39,1.39,1.39,0,0,0-1.48,1.37A1.48,1.48,0,0,0,229,155.56Zm-13.22,13.21a1.39,1.39,0,0,0-1.49-1.43c-1,0-1.33.4-1.32,1.47s.36,1.37,1.32,1.37A1.37,1.37,0,0,0,215.74,168.77Zm7.45-16a1.48,1.48,0,0,0-1.6,1.36,1.56,1.56,0,0,0,1.47,1.46,1.5,1.5,0,0,0,1.5-1.41A1.41,1.41,0,0,0,223.19,152.74Zm-6,14.6a2.2,2.2,0,0,0,.37-.07c.34-.57.7-1.13,1.08-1.66a1.47,1.47,0,0,0-1.5-1.24,1.41,1.41,0,0,0-1.46,1.48A1.52,1.52,0,0,0,217.23,167.34Zm-3-3a1.48,1.48,0,1,0,0-3c-.88,0-1.31.49-1.31,1.46S213.37,164.37,214.27,164.36Zm2.95-5.94a1.5,1.5,0,0,0-1.5,1.49,1.41,1.41,0,0,0,1.46,1.48,1.48,1.48,0,0,0,1.53-1.44A1.58,1.58,0,0,0,217.22,158.42Zm22.06,54.39a1.48,1.48,0,0,0,1.51,1.47,1.56,1.56,0,0,0,1.47-1.54,1.47,1.47,0,0,0-1.54-1.42A1.39,1.39,0,0,0,239.28,212.81Zm71.81,16a1.48,1.48,0,0,0-1.45,1.72h2.94a1.92,1.92,0,0,0,0-.22A1.58,1.58,0,0,0,311.09,228.77Zm-5.88,0a1.57,1.57,0,0,0-1.51,1.5,1.8,1.8,0,0,0,0,.22h2.92a1.3,1.3,0,0,0,0-.21A1.49,1.49,0,0,0,305.21,228.77Zm3-2.86a1.43,1.43,0,1,0,1.46,1.45A1.39,1.39,0,0,0,308.18,225.91Zm11.61,0a1.39,1.39,0,0,0-1.51,1.41,1.49,1.49,0,1,0,1.51-1.41Zm-32.2,2.86a1.49,1.49,0,0,0-1.52,1.46,2.26,2.26,0,0,0,0,.26H289a1.11,1.11,0,0,0,0-.17A1.56,1.56,0,0,0,287.59,228.77ZM314,225.84a1.5,1.5,0,0,0,0,3,1.5,1.5,0,0,0,0-3Zm-23.55,0a1.5,1.5,0,1,0,1.51,1.47A1.51,1.51,0,0,0,290.47,225.84Zm3,2.93a1.57,1.57,0,0,0-1.52,1.49,1.79,1.79,0,0,0,0,.23h2.93a1.38,1.38,0,0,0,0-.2A1.49,1.49,0,0,0,293.44,228.77Zm5.91,0a1.5,1.5,0,0,0-1.51,1.48,1.94,1.94,0,0,0,0,.24h2.94a1.25,1.25,0,0,0,0-.19A1.57,1.57,0,0,0,299.35,228.77Zm-2.94-2.87a1.39,1.39,0,0,0-1.52,1.39,1.49,1.49,0,0,0,3,.09A1.39,1.39,0,0,0,296.41,225.9Zm5.83-.06a1.5,1.5,0,1,0,1.52,1.47A1.51,1.51,0,0,0,302.24,225.84Zm14.57,2.93a1.56,1.56,0,0,0-1.49,1.52,1.36,1.36,0,0,0,0,.2h2.94a1.79,1.79,0,0,0,0-.23A1.49,1.49,0,0,0,316.81,228.77Zm23.52,0a1.58,1.58,0,0,0-1.46,1.55.78.78,0,0,0,0,.16,9.44,9.44,0,0,0,2.93-.52A1.5,1.5,0,0,0,340.33,228.77Zm3-2.87a1.39,1.39,0,0,0-1.53,1.39,1.38,1.38,0,0,0,1.43,1.47,1.43,1.43,0,1,0,.1-2.86Zm4.4-4.38a1.4,1.4,0,0,0,.34.91,9.76,9.76,0,0,0,.12-1.44c0-.17,0-.32,0-.48A1.44,1.44,0,0,0,347.77,221.52Zm-1.56,1.41a1.4,1.4,0,0,0-1.42,1.52A1.44,1.44,0,0,0,347,225.7a9.06,9.06,0,0,0,.75-1.68A1.5,1.5,0,0,0,346.21,222.93Zm-8.76,2.91a1.5,1.5,0,1,0,1.48,1.51A1.51,1.51,0,0,0,337.45,225.84Zm-2.93,2.93a1.51,1.51,0,0,0-1.51,1.47,2,2,0,0,0,0,.25h3c0-.06,0-.12,0-.18A1.58,1.58,0,0,0,334.52,228.77Zm-11.76,0a1.49,1.49,0,0,0-1.52,1.46,1.14,1.14,0,0,0,0,.26h2.94a1,1,0,0,0,0-.17A1.57,1.57,0,0,0,322.76,228.77Zm5.84,0a1.57,1.57,0,0,0-1.51,1.5,1.8,1.8,0,0,0,0,.22H330a1.3,1.3,0,0,0,0-.21A1.5,1.5,0,0,0,328.6,228.77Zm-2.92-2.93a1.5,1.5,0,1,0,0,3,1.5,1.5,0,0,0,0-3Zm5.92.06a1.4,1.4,0,0,0-1.54,1.38,1.49,1.49,0,0,0,3,.11A1.4,1.4,0,0,0,331.6,225.9Zm-77.78-10.21c.8-.37,1.59-.77,2.36-1.18a1.47,1.47,0,0,0-.85-.29A1.51,1.51,0,0,0,253.82,215.69Zm23.65,6.16a9.5,9.5,0,0,1,2.73-18.6h53a9.48,9.48,0,0,1,9.34,11.21,1.78,1.78,0,0,1,.83-.18,1.39,1.39,0,0,1,1.42,1.43,1.41,1.41,0,0,1-1.55,1.44,1.38,1.38,0,0,1-1.26-.77,9.46,9.46,0,0,1-.6,1.19,1.5,1.5,0,0,1,.45,1.06,1.39,1.39,0,0,1-1.45,1.48,1.45,1.45,0,0,1-.88-.26,10.6,10.6,0,0,1-1,.78,1.41,1.41,0,0,1,.34.9,1.44,1.44,0,0,1-2.84.3,9.65,9.65,0,0,1-2.81.42h-.41a1.56,1.56,0,0,1-1.28.68,1.53,1.53,0,0,1-1.25-.68h-3.39a1.46,1.46,0,0,1-2.47,0H321a1.51,1.51,0,0,1-2.52,0h-3.36a1.15,1.15,0,0,1-1.13.68,1.38,1.38,0,0,1-1.22-.68h-3.39a1.54,1.54,0,0,1-1.18.68,1.56,1.56,0,0,1-1.34-.68H303.5a1.46,1.46,0,0,1-2.47,0h-3.39a1.56,1.56,0,0,1-1.28.68,1.53,1.53,0,0,1-1.25-.68h-3.39a1.46,1.46,0,0,1-2.47,0h-3.39a1.53,1.53,0,0,1-1.27.68,1.51,1.51,0,0,1-1.25-.68h-3.23a1.42,1.42,0,0,1-1.21.68A1.37,1.37,0,0,1,277.47,221.85Zm21-9.1a2,2,0,0,0,2,2h12.28a2,2,0,0,0,0-4H300.45A2,2,0,0,0,298.45,212.75Zm-7.07,0a2,2,0,0,0,.59,1.42,2,2,0,0,0,1.41.58,2,2,0,0,0,2-2,2,2,0,0,0-.58-1.41,2.06,2.06,0,0,0-2.83,0A2,2,0,0,0,291.38,212.75Zm-13.65,0a2,2,0,0,0,2,2h6.7a2,2,0,0,0,0-4h-6.7A2,2,0,0,0,277.73,212.75Zm-10.62-10.3a1.49,1.49,0,0,0,0,3,1.25,1.25,0,0,0,.51-.09,8.81,8.81,0,0,0,1-1.63A1.5,1.5,0,0,0,267.11,202.45Zm54.13,22a1.49,1.49,0,0,0,1.5,1.48,1.57,1.57,0,0,0,1.48-1.53,1.46,1.46,0,0,0-1.53-1.43A1.39,1.39,0,0,0,321.24,224.42Zm5.85,0a1.58,1.58,0,0,0,1.48,1.53,1.5,1.5,0,0,0,1.51-1.48,1.4,1.4,0,0,0-1.45-1.48A1.47,1.47,0,0,0,327.09,224.37Zm5.93,0a1.48,1.48,0,0,0,1.44,1.54,1.57,1.57,0,0,0,1.54-1.48,1.49,1.49,0,0,0-1.48-1.48A1.38,1.38,0,0,0,333,224.36ZM268.52,201a1.54,1.54,0,0,0,.6,1.17,9.25,9.25,0,0,0,.33-2.51A1.46,1.46,0,0,0,268.52,201Zm-4.34,4.38a1.5,1.5,0,0,0-1.51,1.48,1.41,1.41,0,0,0,1.45,1.49,1.6,1.6,0,0,0,.88-.26l.37-.35a1.45,1.45,0,0,0,.29-.82A1.58,1.58,0,0,0,264.18,205.37Zm20.43,20.54a1.38,1.38,0,0,0-1.5,1.41,1.49,1.49,0,1,0,1.5-1.41Zm-26.3-17.57a1.4,1.4,0,0,0,1.42-1.51,1.5,1.5,0,0,0-1.53-1.46,1.58,1.58,0,0,0-1.45,1.49A1.48,1.48,0,0,0,258.31,208.34Zm2.89,0a1.48,1.48,0,0,0,0,3c.49-.37,1-.75,1.45-1.14a1.27,1.27,0,0,0,0-.34A1.45,1.45,0,0,0,261.2,208.35Zm-2.9,3a1.48,1.48,0,0,0-1.55,1.42,1.52,1.52,0,0,0,.54,1.16c.81-.47,1.61-1,2.39-1.51A1.39,1.39,0,0,0,258.3,211.31Zm-2.93-3a1.49,1.49,0,1,0,1.37,1.54A1.38,1.38,0,0,0,255.37,208.34Zm23.52,17.5a1.49,1.49,0,0,0-1.07.44,9.27,9.27,0,0,0,2,2.17,1.48,1.48,0,0,0-.95-2.61Zm36.42-1.44a1.58,1.58,0,0,0,1.52,1.5,1.49,1.49,0,0,0,1.47-1.51,1.39,1.39,0,0,0-1.48-1.45A1.49,1.49,0,0,0,315.31,224.4Zm-29.24,0a1.5,1.5,0,0,0,1.52,1.46,1.58,1.58,0,0,0,1.46-1.55,1.48,1.48,0,0,0-1.55-1.42A1.41,1.41,0,0,0,286.07,224.44Zm-4.45,4.33a1.19,1.19,0,0,0-.78.37,9.74,9.74,0,0,0,2.27,1A1.48,1.48,0,0,0,281.62,228.77Zm1.51-4.37a1.39,1.39,0,0,0-1.47-1.46,1.48,1.48,0,0,0-1.36,1.48,1.58,1.58,0,0,0,1.34,1.48A1.5,1.5,0,0,0,283.13,224.4Zm-6.7-1.37a9.72,9.72,0,0,0,.76,2.14,1.41,1.41,0,0,0-.76-2.14Zm15.49,1.34a1.58,1.58,0,0,0,1.49,1.53,1.5,1.5,0,0,0,1.5-1.49,1.41,1.41,0,0,0-1.47-1.47A1.47,1.47,0,0,0,291.92,224.37Zm11.78,0a1.57,1.57,0,0,0,1.46,1.55,1.5,1.5,0,0,0,1.52-1.46,1.41,1.41,0,0,0-1.43-1.51A1.48,1.48,0,0,0,303.7,224.35Zm5.92.08a1.51,1.51,0,0,0,1.51,1.47,1.57,1.57,0,0,0,1.47-1.54,1.48,1.48,0,0,0-1.54-1.43A1.41,1.41,0,0,0,309.62,224.43Zm-11.78,0a1.5,1.5,0,0,0,1.51,1.48,1.58,1.58,0,0,0,1.48-1.53,1.47,1.47,0,0,0-1.54-1.43A1.4,1.4,0,0,0,297.84,224.42Zm-64.49-67.81a1.48,1.48,0,0,0-2.92.36,1.27,1.27,0,0,0,0,.28A21.71,21.71,0,0,1,233.35,156.61Zm-152.46-26a1.57,1.57,0,0,0,1.51,1.5h.13v-.88a9.93,9.93,0,0,0-.22-2.06A1.47,1.47,0,0,0,80.89,130.66ZM114.68,138a1.38,1.38,0,0,0-1.48,1.44,1.39,1.39,0,0,0,1.36,1.53,14.76,14.76,0,0,1,1.46-1.69A1.34,1.34,0,0,0,114.68,138Zm-3,3a1.38,1.38,0,0,0-1.31,1.43,1.47,1.47,0,0,0,1.34,1.53,1.58,1.58,0,0,0,1.49-1.52A1.48,1.48,0,0,0,111.68,141Zm5.94-5.95a1.58,1.58,0,0,0-1.56,1.45,1.5,1.5,0,0,0,1.46,1.51h0a15.85,15.85,0,0,1,1.44-1,1.73,1.73,0,0,0,.09-.42A1.5,1.5,0,0,0,117.62,135Zm4.82.42c.47-.14.94-.26,1.42-.36a1.51,1.51,0,0,0-.36-.06A1.48,1.48,0,0,0,122.44,135.45ZM103,173.17a1.33,1.33,0,0,0-1.23.69q1,1,2,2a1.42,1.42,0,0,0,.59-1.2A1.37,1.37,0,0,0,103,173.17Zm-5.89-5.83-.15,0c.43.76.88,1.49,1.37,2.21a1.5,1.5,0,0,0,.25-.78A1.39,1.39,0,0,0,97.14,167.34Zm2.92,2.86a1.54,1.54,0,0,0-1,.39c.59.8,1.21,1.57,1.85,2.31a1.43,1.43,0,0,0,.65-1.2A1.58,1.58,0,0,0,100.06,170.2Zm8.86-26.26a1.39,1.39,0,0,0-1.51,1.41,1.49,1.49,0,0,0,3,.05A1.39,1.39,0,0,0,108.92,143.94ZM132.28,135a1.43,1.43,0,1,0-1.47-1.44A1.37,1.37,0,0,0,132.28,135ZM106,176.14a1.55,1.55,0,0,0-1.2.54c.76.64,1.55,1.24,2.36,1.81a1.51,1.51,0,0,0,.29-.86A1.41,1.41,0,0,0,106,176.14Zm4.39-27.79a1.39,1.39,0,0,0,1.09,1.39,14.77,14.77,0,0,1,.37-2.92l-.13,0A1.47,1.47,0,0,0,110.37,148.35ZM108.88,141a1.48,1.48,0,1,0-1.46-1.49A1.45,1.45,0,0,0,108.88,141Zm0,35.18a1.49,1.49,0,0,1-1.14-2.45c-.45-.19-.89-.39-1.33-.6a1.34,1.34,0,0,1-.46.08,1.49,1.49,0,0,1-1.49-1.11,34.47,34.47,0,1,1,49-42.68,1.37,1.37,0,0,1,.76,1.26,1.68,1.68,0,0,1-.1.55c.16.48.31,1,.45,1.45a1.5,1.5,0,0,1,1.18-.48,1.92,1.92,0,0,1,.55.11c.3.49.59,1,.86,1.48a1.39,1.39,0,0,1-1.53,1.28,1.85,1.85,0,0,1-.49-.09c.21,1,.37,2,.49,3.07h.05a1.48,1.48,0,0,1,.17,2.95c0,.36,0,.72,0,1.08,0,.65,0,1.3-.06,1.94a1.41,1.41,0,1,1-.14,2.82l-.14,0q-.22,1.62-.6,3.21a1.5,1.5,0,0,1,.77-.2,1.48,1.48,0,1,1,0,3,1.44,1.44,0,0,1-1.27-.74c-.13.45-.28.89-.44,1.34a1.33,1.33,0,0,1,.25.79,1.47,1.47,0,0,1-1.07,1.36,34.51,34.51,0,0,1-3.24,5.91,1.49,1.49,0,0,1-.15,3,1.34,1.34,0,0,1-1.3-1c-.31.4-.62.78-.95,1.16a1.45,1.45,0,0,1,.87,1.34,1.58,1.58,0,0,1-1.54,1.47,1.45,1.45,0,0,1-1.25-.76l-.92.89a1.34,1.34,0,0,1,.74,1.34,1.24,1.24,0,0,1-1.37,1.39,1.35,1.35,0,0,1-1.39-1q-.69.54-1.41,1.05a1.49,1.49,0,0,1,1.37,1.47,1.41,1.41,0,0,1-1.45,1.49,1.47,1.47,0,0,1-1.53-1.43,1.33,1.33,0,0,1,.09-.52,34,34,0,0,1-6,3,1.3,1.3,0,0,1,.06.44,1.48,1.48,0,0,1-2.87.5,35.5,35.5,0,0,1-4,.9,1.64,1.64,0,0,1-.46.07c-.71.1-1.43.18-2.15.24a1.42,1.42,0,0,1,.7,1.25,1.58,1.58,0,0,1-1.53,1.48,1.49,1.49,0,0,1-1.45-1.53,1.38,1.38,0,0,1,.51-1.1c-.36,0-.73,0-1.1,0-1,0-2.05-.06-3.05-.15a1.39,1.39,0,0,1,.7,1.24,1.49,1.49,0,0,1-1.47,1.51,1.58,1.58,0,0,1-1.52-1.5,1.45,1.45,0,0,1,1-1.38c-.59-.07-1.18-.16-1.75-.27a1.51,1.51,0,0,1-.77.18,1.32,1.32,0,0,1-1.08-.56c-1.06-.25-2.1-.54-3.12-.89A1.47,1.47,0,0,1,108.91,176.14Zm-1.67-40.33a1.62,1.62,0,0,1,.19.69,1.4,1.4,0,0,1-.93,1.4A15.12,15.12,0,0,0,106,141a1.38,1.38,0,0,1,1.45,1.42,1.49,1.49,0,0,1-1.38,1.52,15.71,15.71,0,0,0,.74,3.15,1.52,1.52,0,0,1,.64,1.18,1.76,1.76,0,0,1,0,.33c.23.48.48.94.75,1.39a1.44,1.44,0,0,1,.72-.2,1.46,1.46,0,0,1,1.51,1.45,1.44,1.44,0,0,1-.48,1.12c.27.3.55.59.83.87a1.3,1.3,0,0,1,.92-.46,13,13,0,0,0,.34,1.53,15.45,15.45,0,0,0,24.24-16.66,1.59,1.59,0,0,1-.21.15,16,16,0,0,0-2.25-1.36,1.51,1.51,0,0,1,1.42-1.39,15.58,15.58,0,0,0-7.38-7.07,1.35,1.35,0,0,1-1.46,1.23,1.38,1.38,0,0,1-1.37-1.54,1.61,1.61,0,0,1,.13-.63,15.14,15.14,0,0,0-3.65-.46,1.47,1.47,0,1,1-2,.13,15.48,15.48,0,0,0-3.41.85,1.43,1.43,0,0,1,0,.22,1.38,1.38,0,0,1-1.48,1.43,1.36,1.36,0,0,1-1-.47c-.37.22-.73.44-1.08.69a1.42,1.42,0,0,1,.72,1.22,1.56,1.56,0,0,1-1.47,1.53,1.4,1.4,0,0,1-1.28-1c-.36.37-.7.75-1,1.15a1.31,1.31,0,0,1,1,1.34A1.36,1.36,0,0,1,108.9,135a1.52,1.52,0,0,1-1.08-.39C107.61,135,107.42,135.41,107.24,135.81ZM132.52,121a24.81,24.81,0,0,1,3.16,2,2,2,0,0,0,1.2.4,2,2,0,0,0,1.6-.8,2,2,0,0,0-.4-2.8,28.25,28.25,0,0,0-3.68-2.34,2,2,0,0,0-1.88,3.53Zm-8.18-2.57c.59.07,1.19.17,1.78.28a1.81,1.81,0,0,0,.4,0,2,2,0,0,0,.39-4c-.69-.14-1.39-.25-2.09-.34a2,2,0,1,0-.48,4ZM95.69,139.31a2.19,2.19,0,0,0,.36,0,2,2,0,0,0,2-1.64,23.78,23.78,0,0,1,19.66-19.16,2,2,0,0,0-.62-4,27.78,27.78,0,0,0-23,22.39A2,2,0,0,0,95.69,139.31Zm16-1.32a1.48,1.48,0,0,0,1.49-1.47,1.58,1.58,0,0,0-1.52-1.49,1.48,1.48,0,0,0-1.31,1.57A1.36,1.36,0,0,0,111.71,138Zm41,29.34a1.5,1.5,0,0,0,1.53-1.45,1.4,1.4,0,0,0-1.43-1.51,1.48,1.48,0,0,0-1.56,1.48A1.59,1.59,0,0,0,152.69,167.33Zm-2.91-.06a1.52,1.52,0,0,0-1.47,1.52,1.49,1.49,0,1,0,1.47-1.52Zm-24.17-32.42c.43,0,.86-.06,1.3-.06l.36,0a1.5,1.5,0,1,0-1.66,0Zm3.7-2.69a1.49,1.49,0,0,0,1.51-1.46,1.39,1.39,0,0,0-1.43-1.5,1.47,1.47,0,0,0-1.55,1.41A1.57,1.57,0,0,0,129.31,132.16Zm-5.82,0a1.57,1.57,0,0,0,1.48-1.53,1.47,1.47,0,0,0-1.53-1.43,1.39,1.39,0,0,0-1.45,1.48A1.49,1.49,0,0,0,123.49,132.16Zm29.2,26.26a1.6,1.6,0,0,0-1.46,1.48,1.49,1.49,0,0,0,1.56,1.49,1.41,1.41,0,0,0,1.43-1.51A1.5,1.5,0,0,0,152.69,158.42ZM120.49,135a1.43,1.43,0,1,0,.06-2.85,1.43,1.43,0,1,0-.06,2.85Zm-5.84.07a1.5,1.5,0,1,0-1.51-1.47A1.51,1.51,0,0,0,114.65,135.09Zm2.94-2.93a1.49,1.49,0,0,0,1.46-1.53,1.39,1.39,0,0,0-1.5-1.43,1.49,1.49,0,0,0-1.49,1.48A1.57,1.57,0,0,0,117.59,132.16ZM76.68,228.77a1.49,1.49,0,0,0-1.48,1.5,1.41,1.41,0,0,0,1.4,1.47A1.49,1.49,0,0,0,78,230.27,1.59,1.59,0,0,0,76.68,228.77Zm2.8-2.93A1.5,1.5,0,1,0,81,227.35,1.51,1.51,0,0,0,79.48,225.84Zm1.41-1.44a1.57,1.57,0,0,0,1.21,1.46,9.84,9.84,0,0,0,.43-2.83V223l-.14,0A1.48,1.48,0,0,0,80.89,224.4Zm0-11.63a1.58,1.58,0,0,0,1.51,1.51h.13v-2.94H82.4A1.48,1.48,0,0,0,80.89,212.77Zm0,5.9a1.47,1.47,0,0,0,1.52,1.44h.12v-2.94h-.14A1.57,1.57,0,0,0,80.89,218.67Zm-16,10.1-.17,0a10,10,0,0,0,1.66,1.77,1.36,1.36,0,0,0,0-.29A1.57,1.57,0,0,0,64.89,228.77Zm16-21.91a1.48,1.48,0,0,0,1.49,1.47l.15,0v-2.92l-.12,0A1.58,1.58,0,0,0,80.89,206.86Zm-7.12,19a1.4,1.4,0,0,0-1.53,1.39,1.49,1.49,0,1,0,1.53-1.39Zm-.08,5.84a1.44,1.44,0,0,0-1.39,1.11c.13,0,.25,0,.38,0a10.23,10.23,0,0,0,2.38-.31A1.46,1.46,0,0,0,73.69,231.74Zm-5.83-5.9a1.5,1.5,0,1,0,1.47,1.51A1.51,1.51,0,0,0,67.86,225.84Zm2.9,2.93a1.58,1.58,0,0,0-1.49,1.53,1.47,1.47,0,0,0,1.53,1.43,1.4,1.4,0,0,0,1.46-1.48A1.49,1.49,0,0,0,70.76,228.77Zm10.13-57.06a1.48,1.48,0,0,0,1.51,1.45h.13v-2.94H82.4A1.58,1.58,0,0,0,80.89,171.71Zm0-17.6a1.55,1.55,0,0,0,1.47,1.45h.15v-2.79h-.11A1.44,1.44,0,0,0,80.91,154.11Zm0,5.82a1.48,1.48,0,0,0,1.5,1.46.7.7,0,0,0,.14,0v-2.92l-.13,0A1.58,1.58,0,0,0,80.89,159.93Zm0,5.9a1.57,1.57,0,0,0,1.51,1.5h.13v-2.93l-.14,0A1.48,1.48,0,0,0,80.89,165.83Zm0-17.47a1.48,1.48,0,0,0,1.56,1.41h.08v-2.94a.55.55,0,0,0-.18,0A1.57,1.57,0,0,0,80.89,148.36Zm0-5.9a1.58,1.58,0,0,0,1.46,1.48h.18v-3h-.08A1.48,1.48,0,0,0,80.89,142.46Zm0,35.16a1.58,1.58,0,0,0,1.53,1.49h.11v-2.93l-.15,0A1.48,1.48,0,0,0,80.89,177.62Zm0,17.47a1.49,1.49,0,0,0,1.5,1.47.7.7,0,0,0,.14,0v-2.92h-.12A1.58,1.58,0,0,0,80.89,195.09Zm0-5.89a1.58,1.58,0,0,0,1.49,1.53h.15v-2.78l-.11,0C81.5,187.92,80.91,188.41,80.89,189.2Zm0-52.63A1.47,1.47,0,0,0,82.43,138h.1v-3h-.16A1.58,1.58,0,0,0,80.89,136.57Zm0,64.38a1.56,1.56,0,0,0,1.45,1.55.55.55,0,0,0,.18,0v-2.94h-.08A1.47,1.47,0,0,0,80.9,201Zm0-17.46a1.47,1.47,0,0,0,1.52,1.45h.12V182h-.14A1.57,1.57,0,0,0,80.89,183.49ZM129.3,182a1.58,1.58,0,0,0-1.46,1.55,1.45,1.45,0,0,0,.67,1.17c.62,0,1.25-.07,1.86-.13a1.44,1.44,0,0,0,.45-1.13A1.49,1.49,0,0,0,129.3,182ZM180.55,242h0a9.15,9.15,0,0,0,2.41-1.12,1.45,1.45,0,0,0-.91-.37A1.5,1.5,0,0,0,180.55,242ZM152.74,170.2a1.58,1.58,0,0,0-1.51,1.51,1.47,1.47,0,0,0,1.43,1.44c.52-.58,1-1.19,1.51-1.82A1.5,1.5,0,0,0,152.74,170.2Zm26.51,67.46a1.41,1.41,0,0,0-1.49,1.36,1.41,1.41,0,1,0,2.81.18A1.43,1.43,0,0,0,179.25,237.66Zm4.23,1.43a1.46,1.46,0,0,0,.46,1.09,9.44,9.44,0,0,0,1.93-2.25,1.45,1.45,0,0,0-.88-.31A1.51,1.51,0,0,0,183.48,239.09Zm-1.43-4.37a1.39,1.39,0,0,0-1.5,1.43,1.51,1.51,0,0,0,1.47,1.53,1.58,1.58,0,0,0,1.52-1.5A1.47,1.47,0,0,0,182.05,234.72Zm-8.68,2.9a1.49,1.49,0,1,0,1.48,1.51A1.51,1.51,0,0,0,173.37,237.62ZM154.2,168.78a1.36,1.36,0,0,0,.88,1.31c.56-.78,1.08-1.59,1.57-2.43a1.49,1.49,0,0,0-.9-.33A1.4,1.4,0,0,0,154.2,168.78Zm1.51-7.38a1.48,1.48,0,1,0,1.46,1.5A1.45,1.45,0,0,0,155.71,161.4ZM185,231.74a1.49,1.49,0,1,0,1.4,1.5A1.37,1.37,0,0,0,185,231.74Zm-14.57,3a1.4,1.4,0,0,0-1.49,1.44,1.27,1.27,0,0,0,0,.28c.09.22.18.43.28.64a1.49,1.49,0,0,0,1.16.6,1.58,1.58,0,0,0,1.52-1.5A1.47,1.47,0,0,0,170.42,234.72Zm5.9,0a1.47,1.47,0,0,0-1.53,1.43,1.58,1.58,0,0,0,1.47,1.54,1.5,1.5,0,0,0,1.51-1.48A1.41,1.41,0,0,0,176.32,234.71Zm-.06,5.83A1.58,1.58,0,0,0,174.8,242a9.41,9.41,0,0,0,2.92.49,2,2,0,0,0,.05-.43A1.5,1.5,0,0,0,176.26,240.54Zm14.56-32.19a1.48,1.48,0,1,0,1.52,1.44A1.44,1.44,0,0,0,190.82,208.35Zm1.51-1.46a1.46,1.46,0,0,0,.29.89c0-.55,0-1.12-.06-1.71A1.53,1.53,0,0,0,192.33,206.89Zm-3,8.77a1.38,1.38,0,0,0,1.43,1.48,1.79,1.79,0,0,0,.53-.07c.23-.75.43-1.54.61-2.38a1.46,1.46,0,0,0-1-.41A1.4,1.4,0,0,0,189.37,215.66Zm-33.74-57.24A1.43,1.43,0,1,0,154.2,157,1.38,1.38,0,0,0,155.63,158.42Zm52.91,49.92c.45.42.9.82,1.36,1.22A1.34,1.34,0,0,0,208.54,208.34Zm-22.13,16a1.57,1.57,0,0,0,1.36,1.51c.29-.84.66-1.67,1.1-2.64a1.48,1.48,0,0,0-1-.31A1.47,1.47,0,0,0,186.41,224.38Zm3-2.83a1.15,1.15,0,0,0,.08.41c.24-.53.48-1.09.72-1.67A1.4,1.4,0,0,0,189.38,221.55ZM187.15,229a1.51,1.51,0,0,0-.74,1.3,1.44,1.44,0,0,0,.79,1.25A17.21,17.21,0,0,1,187.15,229Zm-.75,7.18a1.46,1.46,0,0,0,.12.5,10.14,10.14,0,0,0,.55-1.72A1.44,1.44,0,0,0,186.4,236.19Zm1.46-19a1.59,1.59,0,0,0-1.46,1.48,1.5,1.5,0,0,0,1.56,1.49,1.41,1.41,0,0,0,1.43-1.51A1.5,1.5,0,0,0,187.86,217.15Zm17.83-11.77c.45.52.92,1,1.4,1.53h0A1.59,1.59,0,0,0,205.69,205.38Zm-94-29.23a1.37,1.37,0,0,0-1.3,1.44,1.47,1.47,0,0,0,1.35,1.52,1.57,1.57,0,0,0,1.47-1.53A1.46,1.46,0,0,0,111.67,176.15Zm3,2.9a1.5,1.5,0,1,0,1.47,1.51A1.51,1.51,0,0,0,114.65,179.05Zm2.87,2.93a1.58,1.58,0,0,0-1.37,1c.94.3,1.89.57,2.86.8a2.33,2.33,0,0,0,0-.38A1.5,1.5,0,0,0,117.52,182Zm-8.62-2.86a1.62,1.62,0,0,0-.64.12c.69.45,1.39.88,2.12,1.27A1.37,1.37,0,0,0,108.9,179.12Zm11.64,0a1.42,1.42,0,1,0,1.46,1.44A1.38,1.38,0,0,0,120.54,179.12Zm13.22-1.51a1.5,1.5,0,0,0,1.49,1.5,1.58,1.58,0,0,0,1.5-1.51,1.48,1.48,0,0,0-1.51-1.45A1.4,1.4,0,0,0,133.76,177.61Zm3-2.93a1.42,1.42,0,1,0,1.4-1.51A1.37,1.37,0,0,0,136.76,174.68Zm5.83,0a1.45,1.45,0,0,0,1.48,1.48,1.49,1.49,0,0,0,0-3A1.46,1.46,0,0,0,142.59,174.66ZM123.49,182a1.51,1.51,0,0,0-1.5,1.49,1.46,1.46,0,0,0,.32,1q1,.13,2.07.21a1.43,1.43,0,0,0,.59-1.13A1.58,1.58,0,0,0,123.49,182Zm26.37-8.8a1.49,1.49,0,0,0-.19,3c.53-.47,1.05-.95,1.55-1.45A1.38,1.38,0,0,0,149.86,173.17Zm-22,4.4a1.58,1.58,0,0,0,1.47,1.54,1.5,1.5,0,0,0,1.51-1.48,1.4,1.4,0,0,0-1.44-1.49A1.48,1.48,0,0,0,127.84,177.57Zm7.41,4.41a1.49,1.49,0,0,0-1.49,1.49,1.7,1.7,0,0,0,.1.57c1-.2,1.93-.45,2.87-.73A1.58,1.58,0,0,0,135.25,182Zm-8.82-2.93a1.5,1.5,0,1,0,1.47,1.51A1.51,1.51,0,0,0,126.43,179.05Zm11.77,0a1.5,1.5,0,0,0,0,3,1.52,1.52,0,0,0,1.52-1.48A1.51,1.51,0,0,0,138.2,179.05Zm2.94-2.9a1.46,1.46,0,0,0-1.52,1.43,1.57,1.57,0,0,0,1.48,1.53,1.5,1.5,0,0,0,1.5-1.49A1.4,1.4,0,0,0,141.14,176.15Zm-8.82,3a1.43,1.43,0,1,0,1.46,1.45A1.38,1.38,0,0,0,132.32,179.12Zm14.59-8.92a1.52,1.52,0,0,0-1.53,1.46,1.41,1.41,0,0,0,1.43,1.51,1.49,1.49,0,0,0,1.56-1.49A1.59,1.59,0,0,0,146.91,170.2Zm-4.33,10.29a2.12,2.12,0,0,0,0,.44c.84-.43,1.65-.89,2.44-1.38a1.23,1.23,0,0,0-.95-.44A1.41,1.41,0,0,0,142.58,180.49Zm4.27-4.34a1.39,1.39,0,0,0-1.47,1.46,1.5,1.5,0,0,0,.72,1.28c.76-.51,1.5-1.06,2.22-1.63A1.47,1.47,0,0,0,146.85,176.15Zm22.05,57.43a1.48,1.48,0,0,1-.49.79,3.5,3.5,0,0,1-.07-.45c0-.21,0-.39-.05-.59a9.52,9.52,0,0,1-5.46-7.64,32.75,32.75,0,0,1,3.4-18.88c1.42-3.12,2.21-4.84,1.77-9s-1.54-5.73-3.57-8.49a32.74,32.74,0,0,1-7.17-17.79,34,34,0,0,1,.42-10.41,1.42,1.42,0,0,1-.52-1.13,1.49,1.49,0,0,1,1.19-1.49c.35-1.17.75-2.23,1.15-3.21a1.45,1.45,0,0,1-2.34-1.14,1.4,1.4,0,0,1,1.49-1.36,1.49,1.49,0,0,1,1.45,1.11l.56-1.25.07-.16a1.39,1.39,0,0,1-.57-1.19,1.35,1.35,0,0,1,1.21-1.45c0,.15,0,.3,0,.46s0,.51,0,.76a13,13,0,0,0,1.07-7.46,9.5,9.5,0,0,1,18.9-1.94c0,.22,0,.42,0,.63a9.37,9.37,0,0,1,1.81,1.07,1.54,1.54,0,0,1-1.18.61,1.31,1.31,0,0,1-.52-.11c.05,1.08.05,2.1,0,3.07a1.5,1.5,0,0,1,.52-.1,1.58,1.58,0,0,1,1.5,1.52,1.47,1.47,0,0,1-1.52,1.45,1.49,1.49,0,0,1-.71-.17,30.55,30.55,0,0,1-1.41,6.15,1.47,1.47,0,0,1,.67,1.29,1.36,1.36,0,0,1-1.45,1.37,1,1,0,0,1-.23,0c-.32.76-.64,1.48-.95,2.15a23.11,23.11,0,0,0-1.52,3.87,1.39,1.39,0,0,1,1.35,1.46,1.5,1.5,0,0,1-1.49,1.5l-.23,0a20.5,20.5,0,0,0,.11,2.24c0,.22.05.44.08.66h0a1.5,1.5,0,0,1,1.48,1.51,1.37,1.37,0,0,1-.91,1.36,17,17,0,0,0,2.88,5c.86,1.17,1.82,2.48,2.76,4l.17.07a11.82,11.82,0,0,0,.84,1.62l0,.07c.23.44.45.9.66,1.37l.23-.14c.27.39.56.78.88,1.21l.83,1.14a1.33,1.33,0,0,1-.87.48,33.77,33.77,0,0,1,1,3.4,1.52,1.52,0,0,1,.3.93,1.26,1.26,0,0,1-.05.28c.11.56.2,1.15.29,1.74a1.55,1.55,0,0,1,1.16-.65,1.51,1.51,0,0,1,1.52,1.48,1.39,1.39,0,0,1-1.44,1.49,1.51,1.51,0,0,1-1-.35c.11,1.26.17,2.44.17,3.56a1.56,1.56,0,0,1,.81-.23,1.4,1.4,0,0,1,1.47,1.46,1.5,1.5,0,0,1-1.48,1.51,1.58,1.58,0,0,1-.88-.32,29.93,29.93,0,0,1-1.15,6.46,1.49,1.49,0,0,1,.52,1.24,1.37,1.37,0,0,1-1.42,1.42h0c-.48,1.25-1,2.37-1.46,3.39s-.79,1.73-1.08,2.51a1.59,1.59,0,0,1,1.11,1.49,1.47,1.47,0,0,1-1.55,1.41l-.29,0a15,15,0,0,0,0,2.88,1.86,1.86,0,0,1,.33,0,1.48,1.48,0,0,1,1.55,1.42,1.57,1.57,0,0,1-1.47,1.55,1,1,0,0,1-.36,0,9.54,9.54,0,0,1-3.33,6.14,1.32,1.32,0,0,1,.8-.26,1.48,1.48,0,0,1,0,3,1.45,1.45,0,0,1-1.39-1.49,1.49,1.49,0,0,1,.6-1.2,9.41,9.41,0,0,1-3.74,1.9,1.32,1.32,0,0,1-1.27.8,1.35,1.35,0,0,1-1.08-.5A9.26,9.26,0,0,1,168.9,233.58Zm3.59-6.88a2,2,0,0,0,1.78-2.19,27.38,27.38,0,0,1-.15-2.79,2,2,0,1,0-4,0c0,1,.06,2.08.17,3.19A2,2,0,0,0,172.49,226.7ZM175,215.8a34.34,34.34,0,0,1,1.71-4.21c.56-1.24,1.14-2.51,1.64-3.93a2,2,0,1,0-3.78-1.32c-.43,1.25-1,2.38-1.5,3.59a39.29,39.29,0,0,0-1.89,4.68,2,2,0,0,0,1.31,2.51,2.21,2.21,0,0,0,.8.08A2,2,0,0,0,175,215.8Zm-5-60.63a2,2,0,0,0,2.57-1.18c.16-.44.31-.87.44-1.31a1.34,1.34,0,0,1-1.07-1.43,1.37,1.37,0,0,1,1.42-1.48,1.21,1.21,0,0,1,.34.07,22.84,22.84,0,0,0,.33-3.15,1.45,1.45,0,0,1-.74.18,1.52,1.52,0,0,1-1.43-1.56,1.5,1.5,0,0,1,1.55-1.43,1.79,1.79,0,0,1,.47.1,2,2,0,0,0-1.91-1.23,2,2,0,0,0-1.93,2.07,19.4,19.4,0,0,1-1.22,7.78A2,2,0,0,0,170,155.17Zm-5.28,15.55a25.26,25.26,0,0,0,3,10.06,2,2,0,0,0,1.95,1,2,2,0,0,0,.78-.25,2,2,0,0,0,.76-2.72,20.85,20.85,0,0,1-2.53-8.5,20.53,20.53,0,0,1,1-9.65,2,2,0,0,0-3.76-1.37A24.54,24.54,0,0,0,164.72,170.72ZM212.89,207a1.33,1.33,0,0,1-1.4,1.37,1.48,1.48,0,0,1-1.53-1.43,1.55,1.55,0,0,1,.6-1.2l-1.08-.64a1.43,1.43,0,0,1-.94.36A1.5,1.5,0,0,1,207,204a1.62,1.62,0,0,1,.08-.49c-.44-.32-.88-.65-1.31-1a.82.82,0,0,1-.22,0,1.49,1.49,0,0,1-1.47-1.42c-.58-.51-1.15-1-1.7-1.57a1.44,1.44,0,0,1-1.24-1.27,41,41,0,0,1,57.6-58.4,9.42,9.42,0,0,1,3.05,6.2c.16.12.32.22.47.35a1.57,1.57,0,0,1-.43.27,9.6,9.6,0,0,1-.46,3.14,1.48,1.48,0,0,1-.23,2.94,1.49,1.49,0,0,1-1-.43,10.9,10.9,0,0,1-.74.94,1.32,1.32,0,0,1,.33.89,1.5,1.5,0,0,1-1.49,1.42,1.58,1.58,0,0,1-1.07-.5,9.14,9.14,0,0,1-1.22.59,1.49,1.49,0,0,1,.86,1.36,1.5,1.5,0,1,1-3,0,1.62,1.62,0,0,1,.24-.78,9.25,9.25,0,0,1-3.4,0,1.37,1.37,0,0,1,.25.78,1.49,1.49,0,0,1-3,0,1.32,1.32,0,0,1,.9-1.26,10.56,10.56,0,0,1-1.27-.61,1.35,1.35,0,0,1-1,.5,1.56,1.56,0,0,1-1.45-1.39,1.35,1.35,0,0,1,.23-.78c-.32-.27-.64-.56-1-.81a1.55,1.55,0,0,1-.76.17,1.39,1.39,0,0,1-1.37-1.54v0a21.75,21.75,0,0,0-6-2.41,1.39,1.39,0,0,1-1.42,1,1.49,1.49,0,0,1-1.49-1.47s0,0,0-.05c-.74-.07-1.49-.12-2.24-.12l-.65,0a.67.67,0,0,1,0,.2,1.46,1.46,0,0,1-1.54,1.42,1.39,1.39,0,0,1-1.43-1.34,21.13,21.13,0,0,0-3.25.8,1.42,1.42,0,0,1-1.16.54l-.26,0c-.51.21-1,.43-1.51.68a1.65,1.65,0,0,1,.23.83,1.37,1.37,0,0,1-1.41,1.49,1.33,1.33,0,0,1-1.32-.87c-.43.29-.85.6-1.26.92a1.41,1.41,0,0,1,1.12,1.35,1.56,1.56,0,0,1-1.51,1.41,1.52,1.52,0,0,1-1.42-1.18,16.72,16.72,0,0,0-1.16,1.22,1.35,1.35,0,0,1,1.14,1.41,1.37,1.37,0,0,1-1.51,1.4c-.68,0-1.08-.25-1.23-.79-.24.35-.48.71-.7,1.07a1.51,1.51,0,0,1,.64,1.23,1.4,1.4,0,0,1-1.46,1.47,1.53,1.53,0,0,1-.54-.1,21.72,21.72,0,0,0-1.71,6.17,1.48,1.48,0,0,1-.17,2.7v0a22.25,22.25,0,0,0,.23,3.18,1.56,1.56,0,0,1,.42,2.13c.12.49.26,1,.41,1.45a1.52,1.52,0,0,1,1.39-.81,1.36,1.36,0,0,1,1.4,1.5,1.45,1.45,0,0,1-1.49,1.47,1.53,1.53,0,0,1-.53-.13,22.22,22.22,0,0,0,4,6.09,1.39,1.39,0,0,1,.79.82,22,22,0,0,0,31.8-.85,9.5,9.5,0,0,1,16.26,8.64,1.51,1.51,0,0,1,.47-.09,1.59,1.59,0,0,1,1.5,1.53,1.48,1.48,0,0,1-1.52,1.44,1.4,1.4,0,0,1-1.28-.71,10.29,10.29,0,0,1-.67,1.09,1.42,1.42,0,0,1,.49,1.12,1.45,1.45,0,0,1-1.49,1.47,1.47,1.47,0,0,1-1-.37l-.86.83a1.44,1.44,0,0,1,.38,1,1.49,1.49,0,0,1-1.46,1.52,1.51,1.51,0,0,1-1.14-.55c-.32.26-.65.51-1,.76a1.49,1.49,0,1,1-2.27,1.63q-.81.54-1.65,1l.15,0a1.58,1.58,0,0,1,1.5,1.52,1.47,1.47,0,0,1-1.51,1.44,1.38,1.38,0,0,1-1.47-1.46,1.48,1.48,0,0,1,.28-.87c-1.13.63-2.29,1.22-3.48,1.74a1.35,1.35,0,0,1-1.2.6l-.17,0c-.51.2-1,.39-1.52.57a1.55,1.55,0,0,1,.31,1,1.42,1.42,0,1,1-2.84,0c0-.05,0-.08,0-.13-1,.3-2.08.55-3.14.76a1.49,1.49,0,0,1-2.43.41,40.35,40.35,0,0,1-4.26.37,1.48,1.48,0,0,1-.57.09,1.43,1.43,0,0,1-.37-.07h-.41a42,42,0,0,1-4.22-.21,1.62,1.62,0,0,1-.85.27,1.47,1.47,0,0,1-1.16-.53c-1.14-.17-2.27-.41-3.38-.67a1.32,1.32,0,0,1-1.36,1.2,1.36,1.36,0,0,1-1.42-1.48,2.31,2.31,0,0,1,.07-.47A41,41,0,0,1,212.89,207Zm28.8-65.09a2,2,0,0,0,.83,2.7,28,28,0,0,1,3.69,2.35,2,2,0,0,0,1.2.4,2,2,0,0,0,1.2-3.6,32,32,0,0,0-4.22-2.68A2,2,0,0,0,241.69,141.88Zm-8.76-.32c.7.09,1.4.2,2.09.34a1.81,1.81,0,0,0,.4,0,2,2,0,0,0,.39-4c-.79-.16-1.6-.29-2.39-.39a2,2,0,0,0-2.23,1.75A2,2,0,0,0,232.93,141.56Zm-33.14,24.17a2.19,2.19,0,0,0,.36,0,2,2,0,0,0,2-1.64,27.82,27.82,0,0,1,23-22.43,2,2,0,0,0-.62-3.95,31.83,31.83,0,0,0-26.34,25.66A2,2,0,0,0,199.79,165.73Zm70.91-12.28a9.5,9.5,0,0,1,9.5-9.5h53a9.5,9.5,0,0,1,9.5,9.5,9.59,9.59,0,0,1-.32,2.41,1.6,1.6,0,0,1,1-.3,1.39,1.39,0,0,1,1.46,1.46,1.37,1.37,0,0,1-1.51,1.39,1.35,1.35,0,0,1-1.41-1.09,9.11,9.11,0,0,1-.73,1.34,1.51,1.51,0,0,1,.69,1.25,1.4,1.4,0,0,1-1.46,1.48,1.55,1.55,0,0,1-1.2-.56,7.74,7.74,0,0,1-1.06.74,1.44,1.44,0,0,1,.73,1.34,1.43,1.43,0,1,1-2.85-.06,1.84,1.84,0,0,1,0-.33,9.35,9.35,0,0,1-2.82.43H333a1.48,1.48,0,0,1-2.95,0h-3a1.41,1.41,0,1,1-2.81,0h-3a1.48,1.48,0,0,1-2.95,0h-3c0,.91-.46,1.41-1.24,1.42a1.38,1.38,0,0,1-1.44-1.42h-3a1.44,1.44,0,0,1-1.44,1.41,1.46,1.46,0,0,1-1.51-1.41h-3a1.42,1.42,0,1,1-2.84,0h-3a1.48,1.48,0,0,1-3,0h-3a1.41,1.41,0,1,1-2.81,0h-3a1.48,1.48,0,0,1-2.95,0h-2.83a1.43,1.43,0,1,1-2.85-.12,1.27,1.27,0,0,1,0-.28A9.5,9.5,0,0,1,270.7,153.45Zm37,0a2,2,0,0,0,2,2h11.72a2,2,0,0,0,0-4H309.71A2,2,0,0,0,307.71,153.45Zm-19.19,0a2,2,0,0,0,2,2h11.16a2,2,0,0,0,0-4H290.52A2,2,0,0,0,288.52,153.45Zm-10.79,0a2,2,0,0,0,2,2h3.72a2,2,0,0,0,0-4h-3.72A2,2,0,0,0,277.73,153.45Zm-7,29.44a9.5,9.5,0,0,1,9.5-9.5h53a9.5,9.5,0,0,1,9.5,9.5,9.14,9.14,0,0,1-.31,2.36,1.48,1.48,0,0,1,.91-.3,1.48,1.48,0,1,1-1.44,1.83,9.09,9.09,0,0,1-.71,1.3,1.12,1.12,0,0,1,.68,1.13,1.5,1.5,0,0,1-1.47,1.52,1.51,1.51,0,0,1-1.1-.52,10.27,10.27,0,0,1-1,.72,1.49,1.49,0,1,1-2.33,1.25,1.23,1.23,0,0,1,0-.19,9.56,9.56,0,0,1-2.74.4H333a1.47,1.47,0,0,1-2.89,0h-3a1.49,1.49,0,0,1-2.94,0h-3a1.47,1.47,0,0,1-2.89,0h-3a1.45,1.45,0,0,1-1.32,1.27,1.51,1.51,0,0,1-1.46-1.27h-3a1.36,1.36,0,0,1-1.45,1.19,1.34,1.34,0,0,1-1.44-1.19h-3a1.49,1.49,0,0,1-2.94,0h-3a1.47,1.47,0,0,1-2.89,0h-3a1.49,1.49,0,0,1-2.94,0h-3a1.34,1.34,0,0,1-1.46,1.19,1.36,1.36,0,0,1-1.43-1.19h-2.81a1.49,1.49,0,0,1-3-.25c0-.06,0-.11,0-.17A9.51,9.51,0,0,1,270.7,182.89Zm44.87,0a2,2,0,0,0,2,2h7.7a2,2,0,0,0,0-4h-7.7A2,2,0,0,0,315.57,182.89Zm-25.19,0a2,2,0,0,0,2,2h17.33a2,2,0,0,0,0-4H292.38A2,2,0,0,0,290.38,182.89Z"/></svg>