<svg id="Layer_1" data-name="Layer 1" xmlns="http://www.w3.org/2000/svg" viewBox="0 0 300 300"><defs><style>.cls-1{fill:#010101;}</style></defs><title>Artboard 1 copy 7</title><path class="cls-1" d="M100.36,8.17v.2c0,16.58-4,15.59-10.65,28.06q-9.39,3.59-3,9.93A18,18,0,0,0,94.47,56q8.61,4.5,5.89,14.46V80.59c2.11,6.39,8.83,13.5,12.51,19.14-1.62,5-9.16,11.3-14.32,15.92-9.85,9.23-8.37,11.88-12.64,19.4a3.16,3.16,0,0,1-2.77,1.59H72.05a3.18,3.18,0,0,1-2.77-1.59c-4.27-7.52-10-10.17-8.74-19.4.41-4.62,5.18-10.87,6.81-15.92C63.64,94.07,57,87,54.83,80.54V70.36q2.69-10-6-14.49a17.08,17.08,0,0,1-7.75-9.63q-6.18-6.43,3.21-10C51,23.85,54.83,24.75,54.83,8.17A3.26,3.26,0,0,1,58,5h6.33A3.4,3.4,0,0,1,67.5,8.17c0,16.58-3.81,15.68-10.52,28.12q-9.39,3.51-3.21,10a17.08,17.08,0,0,0,7.75,9.63q8.66,4.49,6,14.49V80.54C69.62,87,76.31,94.07,80,99.73a30.36,30.36,0,0,1-1.45,3.73c-1.38,8.43-4.84,13.5-1,20.31,4-8.18,13.55-14.61,20.17-20.31a9.89,9.89,0,0,0,2.43-3.73C96.5,94.07,89.81,87,87.69,80.54V70.36q2.69-10-6-14.49A17.08,17.08,0,0,1,74,46.24q-6.18-6.43,3.21-10C83.88,23.85,87.69,24.75,87.69,8.17A3.26,3.26,0,0,1,90.86,5h6.33A3.26,3.26,0,0,1,100.36,8.17Zm23.75,9.5c2.6,14.1-10.8,12.86-14.26,23.46-2.61,8,8.9,15.75,14.26,23.45h17.22a3.13,3.13,0,0,1,3.17,3.17v6.33a3.25,3.25,0,0,1-3.17,3.17H124.11c-1.36,12.09,9.27,10.65,11.23,19.9,1.58,7.43-8.28,18.53-11.23,26.82h17.22a3.25,3.25,0,0,1,3.17,3.17v6.33a3.13,3.13,0,0,1-3.17,3.17H117.78a6.26,6.26,0,0,1-6.34-6.34q-2.4-11.87,5.91-20,8.39-7.18,4.05-17.68l-9-7.4a74.29,74.29,0,0,1-1-14.43A11.32,11.32,0,0,0,109,61,28,28,0,0,0,95.25,45.93q3.1-5.35,6.2-10.71,14.08-8.53,10-23.89A6.38,6.38,0,0,1,117.78,5h23.55a3.25,3.25,0,0,1,3.17,3.17V14.5a3.13,3.13,0,0,1-3.17,3.17Zm68.65,36.62c8.44,6.53,4.6,12.27.24,16.43,4.36,4.16,4.06,11,9.08,16,20.14,16-4.71,25.22-2.15,46.78a3.13,3.13,0,0,1-3.17,3.17h-6.33a3.13,3.13,0,0,1-3.17-3.17c-2.56-21.56,22.29-30.74,2.15-46.78-4.41-4.39-6.7-9.64-12.25-9.64H167.07q.56,10,8.28,15.19,8,3.51,1.74,9.94a108.75,108.75,0,0,1-10,18.92v12.37a3.26,3.26,0,0,1-3.17,3.17h-6.33a3.13,3.13,0,0,1-3.17-3.17q-3.3-11.53,4.39-20A33.77,33.77,0,0,0,166,94.38q-4.68-3.78-9.35-7.57A31.07,31.07,0,0,1,154.4,72.4a15.48,15.48,0,0,0-1.77-10.06q-2.37-10.83-13.84-15.49,2.4-5.51,4.81-11,15.1-8.48,10.8-24.52A6.38,6.38,0,0,1,160.73,5h16.43c11.58.49,24.33,10.21,21.21,23C184.68,39.58,179.34,41.18,192.76,54.29ZM185.7,28c4.57-5.74-3-10.29-8.54-10.29H167.07c2.63,14-10.73,12.84-14.24,23.36-2.7,8.07,8.76,15.72,14.24,23.35h10.09c5.55,0,10.1-4.55,2.93-10.09C166.67,41.18,172,39.58,185.7,28ZM254.56,8.17c.86,12-.22,14.38-5.56,23.06-8.24,13.38-13.94,10.1-1.6,23.06,12.93,7.87-.63,19.38-9.27,22q-.27,10.47,7.93,15.55,8.1,3.33,2.18,10a76.2,76.2,0,0,1-10.11,19.17v12.54a3.26,3.26,0,0,1-3.16,3.17h-6.34a3.13,3.13,0,0,1-3.17-3.17q0-6.27,0-12.54a76.49,76.49,0,0,0,10.1-19.17q5.91-6.63-2.18-10-8.2-5.09-7.93-15.55c-10.87-3.17-15.9-14.79-23.79-22-12.34-13-6.64-9.68,1.6-23.06,5.34-8.68,6.42-11.08,5.57-23.06A3.25,3.25,0,0,1,212,5h6.34a3.26,3.26,0,0,1,3.17,3.17c.85,12-.23,14.38-5.57,23.06-8.24,13.38-13.94,10.1-1.6,23.06,7.16,5.54,11.72,10.09,17.46,10.09,5.54,0,10.09-4.55,2.93-10.09-12.34-13-6.64-9.68,1.6-23.06,5.34-8.68,6.42-11.08,5.56-23.06A3.26,3.26,0,0,1,245.06,5h6.34A3.25,3.25,0,0,1,254.56,8.17ZM74.15,192.06c2.85-2.52,5.09-3.74,8.37-6.24,6.73-5.14.62-9.79-4.92-9.79s-8.54,4.65-15.27,9.79c-16.79,15-9.11,11.29.1,25.39,5.13,7.85,4.13,8.71,5.07,18a25,25,0,0,0,2.34,12.9l8.48,8.53c3.24,9-4.74,15.5-9.75,21.54-3.23,5.79,3.48,10.18,9,10.18s7.93-4.39,11.16-10.18c1.71-3.06,3.56-4.67,6.45-7.82,1.75-1.91,4.27-3.39,6.06-3.39h6.33c1.78,0,2,1.48.27,3.39-2.88,3.15-4.73,4.76-6.44,7.82-2.11,12.17-11.13,23-23.83,22.85-11.54-.13-23.67-10.05-21.7-22.85,5-6,13-12.55,9.75-21.54l-8.48-8.53a25,25,0,0,1-2.34-12.9c-.94-9.26.06-10.12-5.07-18-9.21-14.1-16.89-10.38-.1-25.39C58.29,176.3,63,163.13,77.6,163.36c7.58.12,30.92,12.84,17.58,22.46-3.27,2.5-5.51,3.72-8.36,6.24-1.89,1.67-4,3-5.79,3H74.69C72.91,195.07,72.26,193.73,74.15,192.06ZM149.58,186c-16.63,15.09-8.69,11.26.47,25.35,5.07,7.8,4,8.74,4.94,17.92,1.14,11.21,7.79,12.83,10.86,21.38,3.2,8.94-4.81,15.5-9.78,21.49C154,284.37,145,295.16,132.23,295c-11.61-.14-23.86-9.94-21.89-22.85,5-6,13-12.55,9.78-21.49-3.07-8.55-9.71-10.17-10.85-21.38-.94-9.18.12-10.12-5-17.92-9.16-14.09-17.1-10.26-.47-25.35,10.62-8.94,12.8-22.68,28.38-22.65C139.79,163.38,163.39,176.52,149.58,186Zm-12.67,0c7.05-5.33.86-10-4.68-10-5.74,0-8.65,4.65-15.71,10-16.63,15.09-8.69,11.26.47,25.35,5.07,7.8,4,8.74,5,17.92,1.13,11.21,7.78,12.83,10.85,21.38,3.21,8.94-4.81,15.5-9.78,21.49-3.23,5.79,3.48,10.18,9.22,10.18,5.54,0,7.94-4.39,11.17-10.18,5-6,13-12.55,9.78-21.49-3.07-8.55-9.72-10.17-10.86-21.38-.93-9.18.13-10.12-4.94-17.92C128.22,197.27,120.28,201.1,136.91,186Zm69.28,0c-16.63,15.09-8.69,11.26.47,25.35,5.07,7.8,4,8.74,5,17.92,1.13,11.21,7.78,12.83,10.85,21.38,3.21,8.94-4.81,15.5-9.78,21.49-2.06,12.22-11.08,23-23.84,22.85-11.61-.14-23.85-9.94-21.89-22.85,5-6,13-12.55,9.78-21.49-3.07-8.55-9.71-10.17-10.85-21.38-.93-9.18.13-10.12-4.95-17.92-9.16-14.09-17.1-10.26-.47-25.35,10.62-8.94,12.8-22.68,28.38-22.65C196.41,163.38,220,176.52,206.19,186Zm-12.67,0c7.06-5.33.86-10-4.68-10-5.74,0-8.65,4.65-15.71,10-16.63,15.09-8.69,11.26.47,25.35,5.08,7.8,4,8.74,5,17.92,1.14,11.21,7.78,12.83,10.85,21.38,3.21,8.94-4.8,15.5-9.78,21.49-3.23,5.79,3.48,10.18,9.22,10.18,5.54,0,7.94-4.39,11.17-10.18,5-6,13-12.55,9.78-21.49-3.07-8.55-9.71-10.17-10.85-21.38-.94-9.18.12-10.12-4.95-17.92C184.83,197.27,176.89,201.1,193.52,186Zm61.83,99.49v6.33a3.12,3.12,0,0,1-3.16,3.17H228.83a6.25,6.25,0,0,1-6.34-6.34q-3.53-11.16,4.13-19a35.56,35.56,0,0,0,7.81-17.48l-9.23-9.73a28.81,28.81,0,0,1-2.71-14.9A18.37,18.37,0,0,0,221,217.45q-1.8-11.28-13.71-16.3,1.88-5.39,3.74-10.78,16-7.55,11.46-23.84a3.26,3.26,0,0,1,3.17-3.17H232a3.41,3.41,0,0,1,3.17,3.17q4.13,14.9-9.85,22.67-3.27,5-6.53,10c.07,2.1,15.13,18.35,16.38,25.19q-.07,7.15.3,14.31l8.1,9.27c6.46,13.5-5.53,20.09-8.4,34.32h17A3.25,3.25,0,0,1,255.35,285.5Z"/></svg>