<svg width="142" height="131" viewBox="0 0 142 131" fill="none" xmlns="http://www.w3.org/2000/svg">
<path d="M61.4 24.43C33.94 24.43 16.78 69.67 16.78 69.67C16.78 69.67 25.78 112.73 58.59 111.79C91.4 110.85 72 69.67 72 69.67C72 69.67 88.86 24.43 61.4 24.43V24.43ZM55.51 30C70.3 26.77 71.69 33.24 72.61 40.17C73.53 47.1 69.38 46.64 66.61 47.11C63.84 47.58 35.61 45.72 35.61 45.72C37.5024 41.7513 40.2808 38.27 43.7309 35.5446C47.1811 32.8191 51.211 30.9222 55.51 30V30ZM48.58 72C57.82 57.71 66.8 73.29 68 75.27C69.39 77.58 73.08 85.9 62.92 89.14C52.76 92.38 32.92 85.9 32.92 85.9C29.69 84.51 27.38 81.74 26.45 73.9C25 56.32 45.34 67.41 48.58 72V72ZM71.23 100.2C69.84 105.75 64.75 107.13 58.75 107.6C40.75 107.6 29.63 90.03 29.63 90.03C41.18 93.73 59.48 96.14 67.07 92.34C71.69 90.06 72.58 94.83 71.23 100.23V100.2ZM82.55 67.64C82.55 67.64 107.55 0.639999 66.83 0.639999C26.11 0.639999 0.740005 67.64 0.740005 67.64C0.740005 67.64 13.86 130.06 61.12 130.06H62.67C111.21 128.66 82.55 67.64 82.55 67.64V67.64ZM83.81 116.7C80.05 122.81 72.91 126.05 62.57 126.35H61.12C51.3485 126.395 41.8319 123.234 34.03 117.35C27.47 112.5 21.57 105.68 16.49 97.09C11.2054 87.9626 7.20444 78.1502 4.60001 67.93C9.20414 56.7776 14.9196 46.1171 21.66 36.11C28.08 26.72 34.81 19.28 41.66 13.98C49.94 7.57 58.4 4.32 66.82 4.32C73.94 4.32 78.95 6.55 82.13 11.13C86.66 17.65 87.63 29.13 84.92 44.32C83.5614 51.798 81.6052 59.1549 79.07 66.32L78.53 67.78L79.19 69.19C81.7766 74.989 83.822 81.0147 85.3 87.19C87.42 96.14 88.87 108.47 83.81 116.7V116.7ZM119.31 33.7H119.51C120.592 33.6951 121.65 34.0197 122.543 34.6306C123.436 35.2415 124.122 36.1098 124.51 37.12C124.742 37.635 124.913 38.1753 125.02 38.73V38.9L125.95 43.09L129.39 40.52H129.45L129.57 40.43C130.566 39.6674 131.753 39.1935 133 39.06H133.63C134.407 39.0605 135.173 39.2384 135.87 39.58C137.039 40.0898 137.969 41.027 138.47 42.2C138.907 43.1869 139.009 44.2898 138.76 45.34C138.55 46.1437 138.251 46.9218 137.87 47.66C137.524 48.4031 137.083 49.0988 136.56 49.73C135.772 50.6504 134.815 51.4108 133.74 51.97C132.334 52.7003 130.881 53.3351 129.39 53.87L126.54 54.94C125.13 55.47 123.67 56.01 122.24 56.56L120.79 57.13C119.72 55.13 118.59 52.97 117.45 50.82L117 50C116.23 48.55 115.49 47.19 114.88 45.77C114.373 44.6602 114.036 43.4803 113.88 42.27C113.779 41.3385 113.826 40.3967 114.02 39.48C114.206 38.5939 114.474 37.7269 114.82 36.89C115.183 35.9719 115.81 35.1819 116.622 34.6195C117.433 34.0572 118.393 33.7477 119.38 33.73L119.31 33.7ZM119.38 30.95C117.846 30.9634 116.352 31.4327 115.085 32.2981C113.819 33.1635 112.839 34.386 112.27 35.81C111.833 36.8103 111.498 37.8523 111.27 38.92C111.012 40.1254 110.948 41.3643 111.08 42.59C111.285 44.0734 111.706 45.5188 112.33 46.88C113.11 48.66 114.05 50.35 114.96 52.06C116.08 54.1533 117.19 56.25 118.29 58.35C118.69 59.1 119.05 59.86 119.43 60.63H119.57C120.79 60.14 121.99 59.63 123.21 59.16C125.59 58.25 127.97 57.37 130.35 56.47C131.947 55.8761 133.501 55.171 135 54.36C137.335 53.1548 139.198 51.2003 140.29 48.81C140.767 47.8817 141.136 46.902 141.39 45.89C141.764 44.2703 141.607 42.573 140.94 41.05C140.293 39.6295 139.254 38.4232 137.945 37.573C136.635 36.7227 135.111 36.2637 133.55 36.25C133.236 36.2501 132.922 36.2701 132.61 36.31C130.925 36.5314 129.332 37.2053 128 38.26L127.83 38.38C127.827 38.3234 127.827 38.2666 127.83 38.21C127.646 37.4418 127.367 36.6995 127 36C126.393 34.5322 125.368 33.2755 124.052 32.3864C122.737 31.4972 121.188 31.0151 119.6 31L119.38 30.95ZM113.66 79.23C113.859 79.2313 114.058 79.2582 114.25 79.31C114.797 79.4206 115.296 79.7 115.677 80.109C116.057 80.518 116.299 81.036 116.37 81.59C116.427 81.8865 116.45 82.1883 116.44 82.49V87L120.36 85.24H120.46C120.947 85.005 121.479 84.8788 122.02 84.87H122.36C122.85 84.9205 123.316 85.1115 123.7 85.42C124.22 85.785 124.578 86.3368 124.7 86.96C124.799 87.4792 124.725 88.0166 124.49 88.49C124.271 88.9197 124.002 89.3224 123.69 89.69C123.397 90.0616 123.062 90.3973 122.69 90.69C122.132 91.1021 121.501 91.4042 120.83 91.58C119.844 91.8417 118.842 92.0355 117.83 92.16L115.83 92.44L112.83 92.87H112.6C112.26 91.61 111.91 90.32 111.6 89.02L111.45 88.47C111.16 87.47 110.88 86.47 110.69 85.47C110.529 84.7587 110.478 84.0267 110.54 83.3C110.597 82.7728 110.742 82.2589 110.97 81.78C111.19 81.2832 111.462 80.8106 111.78 80.37C111.998 80.0375 112.295 79.7634 112.643 79.5717C112.992 79.38 113.382 79.2764 113.78 79.27L113.66 79.23ZM113.78 76.5C112.943 76.5105 112.12 76.7211 111.381 77.1142C110.641 77.5074 110.007 78.0717 109.53 78.76C109.111 79.3506 108.749 79.9802 108.45 80.64C108.043 81.3764 107.756 82.1731 107.6 83C107.512 84.0039 107.576 85.0153 107.79 86C108.03 87.27 108.4 88.51 108.79 89.76C109.21 91.29 109.63 92.83 110.04 94.36C110.19 94.91 110.32 95.46 110.45 96.02H110.55C111.42 95.88 112.28 95.72 113.14 95.6C114.83 95.35 116.52 95.13 118.2 94.89C119.337 94.7462 120.463 94.5257 121.57 94.23C122.581 93.952 123.53 93.4874 124.37 92.86C124.919 92.4259 125.416 91.9292 125.85 91.38C126.295 90.8417 126.677 90.2546 126.99 89.63C127.473 88.6262 127.617 87.4927 127.4 86.4C127.181 85.2492 126.596 84.1997 125.733 83.4071C124.871 82.6146 123.775 82.1211 122.61 82C122.4 81.9851 122.19 81.9851 121.98 82C121.043 82.0113 120.119 82.2227 119.27 82.62L119.14 82.68V82.57C119.158 82.0429 119.111 81.5157 119 81C118.818 79.9515 118.331 78.9799 117.6 78.2063C116.869 77.4328 115.926 76.8915 114.89 76.65C114.465 76.5394 114.029 76.4823 113.59 76.48L113.78 76.5Z" fill="#010101"/>
</svg>
