<svg id="Layer_1" data-name="Layer 1" xmlns="http://www.w3.org/2000/svg" viewBox="0 0 155 155"><defs><style>.cls-1{fill:#010101;}</style></defs><title>Artboard 1</title><path class="cls-1" d="M66.4,35.43c-27.46,0-44.62,45.24-44.62,45.24s9,43.06,41.81,42.12S77,80.67,77,80.67,93.86,35.43,66.4,35.43ZM60.51,41c14.79-3.23,16.18,3.24,17.1,10.17s-3.23,6.47-6,6.94-31-1.39-31-1.39A28.72,28.72,0,0,1,60.51,41ZM53.58,83C62.82,68.71,71.8,84.29,73,86.27c1.39,2.31,5.08,10.63-5.08,13.87s-30-3.24-30-3.24c-3.23-1.39-5.54-4.16-6.47-12C30,67.32,50.34,78.41,53.58,83Zm22.65,28.2c-1.39,5.55-6.48,6.93-12.48,7.4-18,0-29.12-17.57-29.12-17.57,11.55,3.7,29.85,6.11,37.44,2.31C76.69,101.06,77.58,105.83,76.23,111.23ZM87.55,78.64s25-67-15.72-67-66.09,67-66.09,67,13.12,62.42,60.38,62.42c.52,0,1,0,1.55,0C116.21,139.66,87.55,78.64,87.55,78.64Zm1.26,49.06c-3.76,6.11-10.9,9.35-21.24,9.65l-1.45,0a44.65,44.65,0,0,1-27.09-9c-6.56-4.85-12.46-11.67-17.54-20.26A114.75,114.75,0,0,1,9.6,78.93,179.72,179.72,0,0,1,26.66,47.11c6.42-9.39,13.15-16.83,20-22.13,8.28-6.41,16.74-9.66,25.16-9.66,7.12,0,12.13,2.23,15.31,6.81,4.53,6.52,5.5,18,2.79,33.19a142.11,142.11,0,0,1-5.85,22l-.54,1.46.66,1.41a103.1,103.1,0,0,1,6.11,18C92.42,107.14,93.87,119.47,88.81,127.7Zm35.5-83h.2a5.33,5.33,0,0,1,5,3.42,7.27,7.27,0,0,1,.51,1.61c0,.05,0,.1,0,.17v0l.93,4.19,3.44-2.57.06,0,.12-.09A6.84,6.84,0,0,1,138,50.06c.21,0,.43,0,.63,0a5.1,5.1,0,0,1,2.24.52,5,5,0,0,1,2.6,2.62,4.94,4.94,0,0,1,.29,3.14,11.29,11.29,0,0,1-.89,2.32,9.6,9.6,0,0,1-1.31,2.07,9.46,9.46,0,0,1-2.82,2.24,35.27,35.27,0,0,1-4.35,1.9l-2.85,1.07c-1.41.53-2.87,1.07-4.3,1.62l-1.45.57,0,0c-1.07-2-2.2-4.16-3.34-6.31L122,61c-.77-1.45-1.51-2.81-2.12-4.23a12.15,12.15,0,0,1-1-3.5,8.85,8.85,0,0,1,.14-2.79,14.7,14.7,0,0,1,.8-2.59,5,5,0,0,1,4.56-3.16m0-2.78a7.73,7.73,0,0,0-7.11,4.86,16.21,16.21,0,0,0-1,3.11,11.59,11.59,0,0,0-.19,3.67,15.32,15.32,0,0,0,1.25,4.29c.78,1.78,1.72,3.47,2.63,5.18q1.68,3.14,3.33,6.29c.4.75.76,1.51,1.14,2.28l.14,0c1.22-.49,2.42-1,3.64-1.47,2.38-.91,4.76-1.79,7.14-2.69A36.5,36.5,0,0,0,140,65.36a11.73,11.73,0,0,0,5.29-5.55,13.7,13.7,0,0,0,1.1-2.92,7.73,7.73,0,0,0-.45-4.84,8.2,8.2,0,0,0-7.39-4.8,7.42,7.42,0,0,0-.94.06A9.4,9.4,0,0,0,133,49.26l-.17.12a1.55,1.55,0,0,1,0-.17A9.55,9.55,0,0,0,132,47a8.09,8.09,0,0,0-7.4-5Zm-5.72,48.28a2.33,2.33,0,0,1,.59.08,2.67,2.67,0,0,1,2.12,2.28,4.06,4.06,0,0,1,.07.9V98l3.92-1.76,0,0,.1,0a3.73,3.73,0,0,1,1.56-.37h.34a2.56,2.56,0,0,1,1.34.55,2.46,2.46,0,0,1,1,1.54,2.42,2.42,0,0,1-.21,1.53,6.21,6.21,0,0,1-.8,1.2,6,6,0,0,1-1,1,5.46,5.46,0,0,1-1.86.89,22.3,22.3,0,0,1-3,.58l-2,.28-3,.43-.23,0c-.34-1.26-.69-2.55-1-3.85l-.15-.55c-.29-1-.57-2-.76-3a7.1,7.1,0,0,1-.15-2.17,4.72,4.72,0,0,1,.43-1.52,7.83,7.83,0,0,1,.81-1.41,2.44,2.44,0,0,1,2-1.1m0-2.77a5.25,5.25,0,0,0-4.25,2.26,11.31,11.31,0,0,0-1.08,1.88A7.9,7.9,0,0,0,112.6,94a10,10,0,0,0,.19,3c.24,1.27.61,2.51,1,3.76.42,1.53.84,3.07,1.25,4.6.15.55.28,1.1.41,1.66l.1,0c.87-.14,1.73-.3,2.59-.42,1.69-.25,3.38-.47,5.06-.71a25.41,25.41,0,0,0,3.37-.66,8.4,8.4,0,0,0,2.8-1.37,9,9,0,0,0,1.48-1.48,9.23,9.23,0,0,0,1.14-1.75,5.14,5.14,0,0,0,.41-3.23A5.45,5.45,0,0,0,127.61,93a4.44,4.44,0,0,0-.63,0,6.58,6.58,0,0,0-2.71.62l-.13.06v-.11A6.46,6.46,0,0,0,124,92a5.42,5.42,0,0,0-4.11-4.35,5.27,5.27,0,0,0-1.3-.17Z"/></svg>