<svg width="190" height="196" viewBox="0 0 190 196" fill="none" xmlns="http://www.w3.org/2000/svg">
<path d="M187.68 96.8H139.6C139.07 96.8 138.561 97.0107 138.186 97.3858C137.811 97.7609 137.6 98.2696 137.6 98.8C137.6 99.3304 137.811 99.8391 138.186 100.214C138.561 100.589 139.07 100.8 139.6 100.8H187.68C188.21 100.8 188.719 100.589 189.094 100.214C189.469 99.8391 189.68 99.3304 189.68 98.8C189.68 98.2696 189.469 97.7609 189.094 97.3858C188.719 97.0107 188.21 96.8 187.68 96.8Z" fill="#010101"/>
<path d="M139.6 86.43C139.843 86.4315 140.084 86.3874 140.31 86.3L174.31 73.3C174.809 73.109 175.211 72.7278 175.428 72.2402C175.646 71.7527 175.661 71.1986 175.47 70.7C175.279 70.2014 174.898 69.7991 174.41 69.5815C173.923 69.364 173.369 69.349 172.87 69.54L138.87 82.54C138.417 82.6959 138.035 83.0093 137.793 83.4232C137.552 83.8371 137.467 84.324 137.554 84.7952C137.641 85.2664 137.895 85.6906 138.268 85.9907C138.642 86.2907 139.111 86.4466 139.59 86.43H139.6Z" fill="#010101"/>
<path d="M174.28 124.3L140.28 111.3C139.781 111.11 139.228 111.127 138.741 111.345C138.255 111.564 137.875 111.966 137.685 112.465C137.495 112.964 137.512 113.517 137.73 114.004C137.949 114.49 138.351 114.87 138.85 115.06L172.85 128.06C173.097 128.156 173.36 128.203 173.625 128.196C173.89 128.19 174.151 128.131 174.392 128.024C174.634 127.916 174.852 127.761 175.034 127.568C175.215 127.375 175.357 127.148 175.45 126.9C175.546 126.653 175.592 126.389 175.585 126.123C175.578 125.858 175.519 125.597 175.41 125.355C175.301 125.113 175.145 124.895 174.951 124.714C174.757 124.533 174.529 124.392 174.28 124.3V124.3Z" fill="#010101"/>
<path d="M52.32 98.81C52.32 98.2796 52.1093 97.7709 51.7342 97.3958C51.3591 97.0207 50.8504 96.81 50.32 96.81H2.22C1.68957 96.81 1.18086 97.0207 0.805788 97.3958C0.430715 97.7709 0.220001 98.2796 0.220001 98.81C0.220001 99.3404 0.430715 99.8491 0.805788 100.224C1.18086 100.599 1.68957 100.81 2.22 100.81H50.3C50.5643 100.813 50.8265 100.763 51.0715 100.664C51.3165 100.564 51.5393 100.417 51.7272 100.231C51.915 100.045 52.0641 99.824 52.1659 99.58C52.2676 99.3361 52.32 99.0743 52.32 98.81Z" fill="#010101"/>
<path d="M15.62 73.33L49.62 86.33C49.8465 86.4174 50.0873 86.4615 50.33 86.46C50.8223 86.4904 51.3084 86.3378 51.6951 86.0315C52.0817 85.7253 52.3415 85.2869 52.4246 84.8008C52.5077 84.3146 52.4082 83.8148 52.1453 83.3975C51.8823 82.9803 51.4744 82.6749 51 82.54L17 69.54C16.5014 69.349 15.9474 69.364 15.4598 69.5815C14.9722 69.7991 14.591 70.2014 14.4 70.7C14.209 71.1986 14.224 71.7527 14.4415 72.2402C14.6591 72.7278 15.0614 73.109 15.56 73.3L15.62 73.33Z" fill="#010101"/>
<path d="M52.18 112.49C52.0869 112.243 51.9458 112.017 51.765 111.825C51.5842 111.633 51.3671 111.479 51.1264 111.371C50.8857 111.263 50.626 111.204 50.3623 111.197C50.0986 111.19 49.8362 111.235 49.59 111.33L15.59 124.33C15.1369 124.486 14.7548 124.799 14.5132 125.213C14.2717 125.627 14.1869 126.114 14.2741 126.585C14.3613 127.056 14.6148 127.481 14.9885 127.781C15.3621 128.081 15.8311 128.237 16.31 128.22C16.556 128.221 16.8 128.177 17.03 128.09L51.03 115.09C51.2771 114.996 51.5031 114.854 51.6949 114.672C51.8867 114.49 52.0405 114.272 52.1474 114.03C52.2544 113.788 52.3123 113.528 52.3179 113.263C52.3235 112.999 52.2766 112.736 52.18 112.49V112.49Z" fill="#010101"/>
<path d="M148.56 67.72C148.85 65.72 149.75 61.16 151.26 59.64C152.717 58.1859 154.603 57.2393 156.64 56.94C154.603 56.6407 152.717 55.6941 151.26 54.24C149.75 52.72 148.85 48.12 148.56 46.16C148.27 48.16 147.37 52.72 145.86 54.24C144.403 55.6941 142.517 56.6407 140.48 56.94C142.517 57.2393 144.403 58.1859 145.86 59.64C147.37 61.16 148.27 65.75 148.56 67.72Z" fill="#010101"/>
<path d="M157.5 46.57C157.648 45.5619 158.117 44.6284 158.838 43.9079C159.558 43.1874 160.492 42.7182 161.5 42.57C160.492 42.4218 159.558 41.9526 158.838 41.2321C158.117 40.5116 157.648 39.5781 157.5 38.57C157.352 39.5781 156.883 40.5116 156.162 41.2321C155.442 41.9526 154.508 42.4218 153.5 42.57C154.508 42.7182 155.442 43.1874 156.162 43.9079C156.883 44.6284 157.352 45.5619 157.5 46.57Z" fill="#010101"/>
<path d="M55.59 124C55.31 126 54.41 130.11 52.89 131.63C51.4346 133.086 49.5475 134.033 47.51 134.33C49.5475 134.627 51.4346 135.574 52.89 137.03C54.41 138.55 55.31 142.24 55.59 144.21C55.88 142.21 56.78 138.55 58.3 137.03C59.7554 135.574 61.6425 134.627 63.68 134.33C61.6425 134.033 59.7554 133.086 58.3 131.63C56.78 130.13 55.88 126 55.59 124V124Z" fill="#010101"/>
<path d="M46.66 145.17C46.5067 146.179 46.0376 147.114 45.32 147.84C44.5964 148.561 43.6605 149.031 42.65 149.18C43.6581 149.328 44.5916 149.797 45.3121 150.518C46.0326 151.238 46.5018 152.172 46.65 153.18C46.7982 152.172 47.2674 151.238 47.9879 150.518C48.7084 149.797 49.6419 149.328 50.65 149.18C49.6453 149.031 48.7157 148.561 48 147.84C47.279 147.116 46.8092 146.181 46.66 145.17V145.17Z" fill="#010101"/>
<path d="M38.72 139.19C38.3668 139.19 38.0216 139.295 37.7276 139.49C37.4337 139.686 37.2043 139.965 37.0683 140.29C36.9322 140.616 36.8956 140.975 36.9631 141.322C37.0305 141.669 37.199 141.988 37.4474 142.239C37.6957 142.49 38.0128 142.662 38.3587 142.733C38.7046 142.804 39.0639 142.772 39.3913 142.639C39.7187 142.507 39.9996 142.281 40.1987 141.989C40.3977 141.697 40.5061 141.353 40.51 141C40.5126 140.763 40.4683 140.528 40.3795 140.309C40.2908 140.089 40.1593 139.89 39.9928 139.721C39.8264 139.553 39.6281 139.419 39.4097 139.328C39.1912 139.237 38.9568 139.19 38.72 139.19Z" fill="#010101"/>
<path d="M127.09 28.36C121.09 26.46 120.68 46.36 120.64 49.36C120.64 51.3 121.58 66.02 118.83 65.89C117.3 65.81 117.25 49.37 118.53 37.37C119.81 25.37 124.12 11.37 118.42 9.79C112.72 8.21 111.81 21.54 111.29 27.24C110.42 36.66 108.38 45.96 108.29 55.46C108.29 60.46 107.68 61.61 106.53 61.02C103.53 59.49 104.85 50.28 105 48.02C105.8 36.28 108.75 24.78 110.83 13.23C111.38 10.23 113.59 1.89 109.11 0.580002C103.24 -1.13 103.27 5.24 102.44 7.79C100.58 13.46 99.83 19.71 98.73 25.56C97.24 33.56 95.73 41.33 95.73 49.47C95.73 50.6 95.94 55.23 94.28 55.47C88.63 56.47 96.51 19.66 97.28 16.23C97.89 13.49 99.6 6.87 95.99 5.37C92.76 4.02 89.76 7.37 86.99 17.47C84.22 27.57 79.57 46.35 78.73 65.29C78.73 69.54 77.82 69.37 77.65 69.29C77.48 69.21 75.52 65.03 75.65 56.29C75.78 47.55 72.25 37 66.65 36.77C61.05 36.54 64.24 40.02 64.42 45.83C64.6 51.64 60.83 86.66 66.13 100.9C70.37 112.3 72.49 118.57 77.97 127.3C75.2 148.3 66.47 181.99 66.28 183.71L66.44 183.55H66.6C80.82 192.69 91.87 195.64 100.21 195.64C113.48 195.64 119.89 188.17 121.32 186.25L121.17 186.47L121.39 186.15L121.64 185.8L121.33 185.54L112.44 135.02C116.47 131.19 119.872 126.749 122.52 121.86C130.29 106.73 130.57 88.17 128.76 65.67C126.95 43.17 132.67 30.11 127.09 28.36V28.36ZM100.26 192.41C91.93 192.41 82.36 189.22 71.74 182.92C77.3456 178.468 84.2721 176.006 91.43 175.92C99.82 175.92 108.49 179.37 117.21 186.16C114.66 188.62 109.28 192.41 100.26 192.41ZM90.52 98.6C90.52 97.8979 90.7282 97.2115 91.1183 96.6277C91.5084 96.0439 92.0628 95.5889 92.7115 95.3202C93.3601 95.0515 94.0739 94.9812 94.7626 95.1182C95.4512 95.2552 96.0838 95.5933 96.5802 96.0898C97.0767 96.5862 97.4148 97.2188 97.5518 97.9074C97.6888 98.5961 97.6185 99.3098 97.3498 99.9585C97.0811 100.607 96.6261 101.162 96.0423 101.552C95.4585 101.942 94.7721 102.15 94.07 102.15C93.1285 102.15 92.2255 101.776 91.5598 101.11C90.894 100.444 90.52 99.5415 90.52 98.6ZM100.22 106.13C101.612 104.999 102.665 103.506 103.261 101.814C103.858 100.123 103.975 98.2991 103.601 96.545C103.226 94.791 102.374 93.1746 101.138 91.8745C99.9027 90.5744 98.3318 89.6411 96.599 89.1778C94.8663 88.7144 93.0392 88.7391 91.3196 89.2489C89.6 89.7588 88.0547 90.734 86.8546 92.0669C85.6544 93.3998 84.8461 95.0386 84.5188 96.8021C84.1915 98.5656 84.358 100.385 85 102.06C81.9408 100.031 79.1778 97.588 76.79 94.8C76.79 94.8 86.12 83.27 97.63 83.27C109.14 83.27 118.47 94.8 118.47 94.8C118.47 94.8 110.49 104.62 100.22 106.13V106.13Z" fill="#010101"/>
</svg>
