<svg id="Layer_1" data-name="Layer 1" xmlns="http://www.w3.org/2000/svg" viewBox="0 0 163.96 163.96"><defs><style>.cls-1{fill:#010101;}</style></defs><title>Artboard 15</title><path class="cls-1" d="M27.75,75.85a1.69,1.69,0,1,1-.27,3.36l-1.12-.09a.52.52,0,0,0-.57.48l-.09,1.06a.53.53,0,0,0,.49.57l1.12.09a3.8,3.8,0,1,0,.61-7.58c-1.05-.09-1.05-.09-2.17.62l-6.44,4.09c-.13.08-.13.08-.56,0A1.69,1.69,0,1,1,19,75.14l1.12.09a.52.52,0,0,0,.57-.49l.09-1a.52.52,0,0,0-.49-.57L19.19,73a3.8,3.8,0,1,0-.61,7.58c1.05.08,1.05.08,2.17-.62l6.43-4.09C27.32,75.81,27.32,75.81,27.75,75.85Z"/><path class="cls-1" d="M16.49,68.94l1,.23a.53.53,0,0,0,.63-.41l.32-1.45,13.41,2.91a.56.56,0,0,0,.63-.41l.22-1a.55.55,0,0,0-.41-.63l-13.4-2.91.31-1.45a.52.52,0,0,0-.4-.63l-1-.23a.53.53,0,0,0-.63.41l-1.08,5A.52.52,0,0,0,16.49,68.94Z"/><path class="cls-1" d="M22.3,58.91l11.22,4.27a.52.52,0,0,0,.68-.3l.38-1a.54.54,0,0,0-.31-.69l-6.15-2.34,1.21-3.18L35.48,58a.51.51,0,0,0,.68-.31l.38-1a.54.54,0,0,0-.31-.69L25,51.78a3.81,3.81,0,0,0-2.71,7.13Zm-.21-4.18a1.69,1.69,0,0,1,2.17-1l3.09,1.18-1.21,3.18-3.09-1.17A1.71,1.71,0,0,1,22.09,54.73Z"/><path class="cls-1" d="M24.24,45.59,28.44,48A3.8,3.8,0,0,0,33,47.47l5.86,3.41a.54.54,0,0,0,.72-.19l.53-.92a.55.55,0,0,0-.19-.72l-5.86-3.41a3.8,3.8,0,0,0-1.79-4.21L28.08,39a.54.54,0,0,0-.73.2l-.53.91a.52.52,0,0,0,.19.72l4.21,2.45A1.7,1.7,0,1,1,29.5,46.2l-4.2-2.44a.52.52,0,0,0-.72.19l-.53.91A.53.53,0,0,0,24.24,45.59Z"/><path class="cls-1" d="M46.53,39.67a.53.53,0,0,0,.75,0l.74-.76a.51.51,0,0,0,0-.74L43.3,33.53l2.37-2.41,4.71,4.64a.55.55,0,0,0,.75,0l.74-.76a.52.52,0,0,0,0-.75L41,23.52a.51.51,0,0,0-.74,0l-.75.76a.55.55,0,0,0,0,.75l4.69,4.61L41.79,32l-4.68-4.61a.52.52,0,0,0-.75,0l-.75.75a.53.53,0,0,0,0,.75Z"/><path class="cls-1" d="M52.42,29.34a3.82,3.82,0,1,0,6.18-4.48l-7-9.72a.52.52,0,0,0-.74-.11l-.86.62a.52.52,0,0,0-.12.73l7,9.72a1.7,1.7,0,1,1-2.76,2l-7-9.72a.52.52,0,0,0-.73-.12l-.86.62a.55.55,0,0,0-.12.74Z"/><path class="cls-1" d="M63.37,25.75a.55.55,0,0,0,.71.24l1-.47a.54.54,0,0,0,.24-.71L59.93,14a1.7,1.7,0,0,1,3-1.51L68.32,23.3a.55.55,0,0,0,.71.24l1-.47a.55.55,0,0,0,.24-.71L64.87,11.58A3.82,3.82,0,0,0,58,15Z"/><path class="cls-1" d="M72.37,18a3.8,3.8,0,0,0,7.28-2.2L78.21,11a.52.52,0,0,0-.66-.35l-2.62.79a.53.53,0,0,0-.36.66l.31,1a.52.52,0,0,0,.65.33l1.11-.34,1,3.26a1.68,1.68,0,0,1-3.22,1L71.86,9a1.69,1.69,0,0,1,3.23-1l.32,1.08a.53.53,0,0,0,.66.35l1-.3a.53.53,0,0,0,.36-.66l-.33-1.08a3.8,3.8,0,1,0-7.28,2.2Z"/><path class="cls-1" d="M83.23,18.21a.54.54,0,0,0,.59.45l1.05-.14a.56.56,0,0,0,.45-.59l-.89-6.56,1.68-.22A1.68,1.68,0,0,1,88,12.59l.66,4.88a.55.55,0,0,0,.6.46l1-.15a.54.54,0,0,0,.45-.59l-.66-4.88a3.75,3.75,0,0,0-1.52-2.57,3.81,3.81,0,0,0,.78-2.9l-.22-1.58A3.79,3.79,0,0,0,84.87,2l-2.72.37a1,1,0,0,0-.91,1.19ZM85.15,4.1a1.7,1.7,0,0,1,1.9,1.45l.21,1.57a1.7,1.7,0,0,1-1.44,1.93l-1.67.23-.67-4.95Z"/><path class="cls-1" d="M96.76,10.25,96.57,17a.54.54,0,0,0,.51.54l1.06,0a.55.55,0,0,0,.54-.51l.19-6.78a3.81,3.81,0,0,0,2.85-3.59l.13-4.86a.51.51,0,0,0-.51-.54l-1.06,0a.51.51,0,0,0-.54.51L99.6,6.66a1.7,1.7,0,1,1-3.4-.09l.13-4.86a.52.52,0,0,0-.51-.55l-1.06,0a.52.52,0,0,0-.54.52l-.14,4.86A3.79,3.79,0,0,0,96.76,10.25Z"/><path class="cls-1" d="M60.38,86.58A15,15,0,0,0,56,92.88a10.69,10.69,0,0,0-.34,1.38l-1.49,8a9.1,9.1,0,0,0-.09,2.81,7.82,7.82,0,0,0,1.71,4,8.46,8.46,0,0,0,3,2.23,14.3,14.3,0,0,0,3.23,1,45.12,45.12,0,0,1,5.61,1.15c2.82,1,5.14,3.5,7.17,6.27s3.94,6,6.87,8.61a19.75,19.75,0,0,0,13,4.86,21.12,21.12,0,0,0,13-4.6,21.86,21.86,0,0,0,7.72-12.25c.06-.27.11-.55.17-.83l1.48-8a21.7,21.7,0,0,0-1.88-13.59,25.36,25.36,0,0,0-10.56-10.68,33.45,33.45,0,0,0-5.42-2.39L104.35,71l18.13-34.66a1.21,1.21,0,0,0,.08-.93,1.23,1.23,0,0,0-.6-.72l-4.16-2.18c-3.79-2-7-2.54-9.44-1.67a5.3,5.3,0,0,0-3.12,2.69,1.22,1.22,0,0,0,.05,1.07c1.63,3,.21,4.34.06,4.47l-.15.14c-6.16,6.88-10.44,17-10.62,17.46l0,.07a29.45,29.45,0,0,0-1.47,7L90,62.06a1.22,1.22,0,0,0-1.65.52L84.41,70a64.5,64.5,0,0,0-3.68,8.42,37.78,37.78,0,0,0-6.07.87A31.36,31.36,0,0,0,60.38,86.58Zm48.68-44.13a1.84,1.84,0,1,1,.78,2.47A1.84,1.84,0,0,1,109.06,42.45Zm-3.52,83.49a17.77,17.77,0,0,1-10.91,3.86,16.42,16.42,0,0,1-10.73-4c-2.41-2.13-4.22-5.11-6.38-8.07s-4.89-6.06-8.77-7.46A38.37,38.37,0,0,0,62.66,109a11,11,0,0,1-2.47-.76,5.19,5.19,0,0,1-1.78-1.31,4.55,4.55,0,0,1-.95-2.26,6.08,6.08,0,0,1,.29-2.65,2.3,2.3,0,0,1,.12-.34h0a8.72,8.72,0,0,0,2.37,1.59,14.34,14.34,0,0,0,3.23,1,43,43,0,0,1,5.61,1.15c2.82,1,5.15,3.49,7.17,6.26s4,6,6.88,8.61a19.66,19.66,0,0,0,13,4.86,21.13,21.13,0,0,0,13-4.59c.61-.49,1.19-1,1.75-1.56A18.49,18.49,0,0,1,105.54,125.94Zm-5-67.2a1.84,1.84,0,1,1,.77,2.48A1.83,1.83,0,0,1,100.54,58.74Zm-5.1,8.95,6.16,3.23L87.33,98.19a23.34,23.34,0,0,1-2.8-3.9A147.23,147.23,0,0,1,95.44,67.69Zm1.79,33.36h0c3.15.58,5.35,3,4.92,5.3s-3.34,3.76-6.49,3.18-5.35-3-4.92-5.3h0C91.18,101.89,94.08,100.46,97.23,101.05ZM86.58,71.17l3.33-6.37,3.36,1.76A149.38,149.38,0,0,0,82.62,92.15a8.65,8.65,0,0,0-2.61-1A63.94,63.94,0,0,1,86.58,71.17ZM79.57,82q-.51,1.69-.93,3.42c-.84.11-1.68.25-2.5.44A24.77,24.77,0,0,0,64.89,91.5a9.06,9.06,0,0,0-2.55,3.44,2.89,2.89,0,0,0-.15,1.23,1.38,1.38,0,0,0,.22.59,2,2,0,0,0,.66.44,7.5,7.5,0,0,0,1.74.52,37,37,0,0,1,6.55,1.42c4.88,1.77,8,5.44,10.28,8.61s4,5.86,5.91,7.54a13.21,13.21,0,0,0,8.57,3.19,14.65,14.65,0,0,0,8.89-3.15,15,15,0,0,0,4.17-18.44,19.06,19.06,0,0,0-7.83-7.81A27.63,27.63,0,0,0,96,86.85l1.54-2.93a30.73,30.73,0,0,1,5.36,2.31,22.1,22.1,0,0,1,9.16,9.21A18.26,18.26,0,0,1,107,117.88a17.83,17.83,0,0,1-10.91,3.86,16.38,16.38,0,0,1-10.73-4c-2.4-2.12-4.22-5.1-6.38-8.06s-4.89-6.06-8.76-7.47a39.9,39.9,0,0,0-6.09-1.28,11.54,11.54,0,0,1-2.47-.76,5.13,5.13,0,0,1-1.79-1.32A4.46,4.46,0,0,1,59,96.59a6.22,6.22,0,0,1,.28-2.65,12,12,0,0,1,3.44-4.84,28,28,0,0,1,12.74-6.44A35.9,35.9,0,0,1,79.57,82Z"/><path class="cls-1" d="M149.09,38.26a70.6,70.6,0,0,0-36.26-24.89,1.1,1.1,0,0,0-.61,2.11,68.54,68.54,0,0,1,35.12,24.11A68,68,0,1,1,26.23,92a1.1,1.1,0,0,0-2.18.36A70.17,70.17,0,0,0,163.43,80.76,69.52,69.52,0,0,0,149.09,38.26Z"/></svg>