<svg id="Layer_1" data-name="Layer 1" xmlns="http://www.w3.org/2000/svg" viewBox="0 0 308.55 304.36"><title>circle</title><path class="cls-1" d="M46,121.14l-10.42,4.43,1.8,2.93,4.4,1c3,.71,4.33,2.61,3.68,5.35s-2.76,4.08-5.75,3.37l-21.23-5c-3-.71-4.31-2.67-3.65-5.46s2.73-4,5.72-3.26l7,1.66.12-.51-7.87-11.5a4.37,4.37,0,0,1-.89-3.63,3.87,3.87,0,0,1,4.71-3,4.29,4.29,0,0,1,2.64,2.14l5.39,8.09,10.62-4.65c2-.86,3-1,4.16-.75a4,4,0,0,1,3.11,5.1C49.22,119.13,48.12,120.23,46,121.14Z"/><path class="cls-1" d="M36.69,101.93c-7.87-4.5-10-11.7-5.54-19.53s11.77-9.62,19.62-5.14l2.92,1.66c7.8,4.46,9.91,11.62,5.44,19.45S47.39,108,39.61,103.59ZM44,95.79c4,2.26,7.21,1.89,8.85-1s.3-5.84-3.66-8.1l-3-1.69c-4-2.26-7.21-1.92-8.86,1s-.29,5.87,3.67,8.13Z"/><path class="cls-1" d="M72.5,78.72c-2.1,2-4.51,1.89-6.63-.33L51.94,63.82c-2.89-3-2.94-5.83-.12-8.53L58,49.4c5.27-5,11-5.44,15.24-1A9.12,9.12,0,0,1,75.43,58l6.69,1.9a5.27,5.27,0,0,1,2.41,1.43,4.17,4.17,0,0,1-.32,6.15c-1.72,1.64-3.26,1.84-6.28.79l-7.34-2.53-2.28,2.19,4.06,4.25C74.51,74.41,74.57,76.74,72.5,78.72Zm-5.38-18c1.79-1.71,2-3.82.3-5.6s-3.68-1.54-5.53.24l-3,2.82,5.18,5.42Z"/><path class="cls-1" d="M95.05,54.43,85.74,37.5,81.22,40a3.62,3.62,0,0,1-3.48-6.33l17-9.32a3.43,3.43,0,0,1,4.72,1.52,3.44,3.44,0,0,1-1.24,4.81L93.6,33.18l9.31,16.93c1.4,2.55.76,4.92-1.67,6.25S96.46,57,95.05,54.43Z"/><path class="cls-1" d="M119.92,47.87c-2.54.59-4.45-.75-5.11-3.56l-5-21.11c-.78-3.29.26-5.33,3-6,1.81-.43,3,.08,5.3,2.11l11.6,10.49.33-.08-2.64-11.2c-.67-2.85.42-4.86,2.91-5.45s4.47.72,5.14,3.55l5,21.4c.72,3.07-.26,5-2.85,5.64-1.86.44-3.19-.07-5.5-2.14l-11.7-10.65-.35.08,2.7,11.45C123.51,45.27,122.44,47.27,119.92,47.87Z"/><path class="cls-1" d="M148.46,38.1l-.16-21.83c0-3.08,1.58-4.82,4.44-4.84s4.51,1.71,4.53,4.78L157.43,38c0,3.09-1.54,4.83-4.4,4.85S148.48,41.16,148.46,38.1Z"/><path class="cls-1" d="M183.55,19.05A4.29,4.29,0,0,1,189.4,16l9.51,3c5.8,1.84,8.55,5.78,7.14,10.24a6.5,6.5,0,0,1-7.53,4.67l-.12.39A7.24,7.24,0,0,1,203,43.53c-1.59,5-6.87,7.09-12.93,5.17l-10-3.16c-2.78-.87-3.92-3-3-5.86Zm5.64,23c3,1,4.75-.17,5.37-2.14s-.24-3.83-3-4.71l-3.46-1.1L185.9,41Zm3.52-12.16c2.55.81,4.07-.21,4.58-1.83s-.32-3.34-2.53-4l-3.16-1L189.72,29Z"/><path class="cls-1" d="M213.21,39.4c5.09-7.5,12.43-9.07,19.9-4s8.68,12.47,3.62,20l-1.89,2.78c-5,7.44-12.35,9-19.81,3.94s-8.73-12.45-3.7-19.88Zm5.56,7.8c-2.57,3.78-2.45,7,.3,8.9s5.8.75,8.36-3l1.91-2.82c2.56-3.78,2.47-7-.27-8.91s-5.83-.74-8.39,3Z"/><path class="cls-1" d="M237.66,74.66l14.67-12.58L249,58.17a3.61,3.61,0,0,1,5.48-4.7l12.59,14.69a3.62,3.62,0,0,1-5.48,4.7l-3.4-4L243.5,81.47c-2.21,1.89-4.66,1.75-6.46-.35S235.44,76.57,237.66,74.66Z"/><path class="cls-1" d="M254,97.15l17.26-8.69-2.32-4.6a3.62,3.62,0,0,1,6.45-3.25L284,97.9a3.62,3.62,0,0,1-6.45,3.24l-2.35-4.66L258,105.16c-2.6,1.31-4.94.59-6.19-1.89S251.33,98.47,254,97.15Z"/><path class="cls-1" d="M262.92,117.6l21-5.82c3-.83,5.07.27,5.83,3s-.49,4.8-3.44,5.62l-21,5.82c-3,.82-5.05-.23-5.82-3S260,118.41,262.92,117.6Z"/><path class="cls-1" d="M262.9,138.24c-.12-2.61,1.56-4.23,4.44-4.36l21.66-1c3.38-.15,5.19,1.24,5.32,4.08.09,1.86-.64,3-3.05,4.82l-12.46,9.45v.34l11.5-.52c2.93-.13,4.7,1.31,4.82,3.87s-1.54,4.25-4.44,4.38l-22,1c-3.15.14-4.89-1.19-5-3.84-.09-1.91.65-3.12,3.11-5l12.64-9.53,0-.36-11.75.53C264.79,142.25,263,140.83,262.9,138.24Z"/><path class="cls-1" d="M267.23,168.1l21.48,3.82c3,.54,4.46,2.43,4,5.25s-2.51,4.12-5.52,3.58l-21.49-3.82c-3-.54-4.46-2.38-4-5.2S264.21,167.56,267.23,168.1Z"/><path class="cls-1" d="M279.52,206.3c2.59,1.41,3.28,3.75,1.87,6.32l-4,7.38c-4.4,8.07-11.56,9.85-20.39,5s-11.21-11.81-6.8-19.88l4-7.37c1.4-2.57,3.74-3.26,6.33-1.85Zm-22.48.8c-2.21,4.05-.91,7,4.33,9.88s8.44,2.36,10.65-1.69l1.22-2.23-15-8.19Z"/><path class="cls-1" d="M253,232.83c6.35,6.46,6.45,14,0,20.29s-13.94,6.06-20.27-.39l-2.36-2.39c-6.3-6.41-6.38-13.88,0-20.2s13.92-6.1,20.21.29Zm-8.73,3.9c-3.2-3.25-6.42-3.78-8.79-1.45s-1.88,5.54,1.32,8.79l2.39,2.43c3.2,3.25,6.42,3.81,8.78,1.49s1.88-5.57-1.32-8.83Z"/><path class="cls-1" d="M228.74,266.52a4.29,4.29,0,0,1-1.82,6.34l-12.63,7a3.47,3.47,0,0,1-3.35-6.08l8.93-4.93-2.6-4.71-8.55,4.72a2.94,2.94,0,0,1-4.14-1.35,2.89,2.89,0,0,1,1.09-4.18l8.55-4.72-2.61-4.73-8.81,4.86a3.47,3.47,0,0,1-3.34-6.09L212,245.72c2.54-1.41,4.91-.74,6.34,1.85Z"/><path class="cls-1" d="M191.74,266.37a5.92,5.92,0,0,1-3.87-.52,10.7,10.7,0,0,0-6.39-.78c-2.71.67-3.86,1.86-3.46,3.52.33,1.34,1.74,1.81,4.95,1.68l4-.19c5.94-.29,9.4,1.89,10.6,6.74,1.48,6-2.23,10.91-9.63,12.74-4.17,1-8.24.74-10.83-.75a5.25,5.25,0,0,1-2.76-3.25,3.15,3.15,0,0,1,2.57-3.9,5.68,5.68,0,0,1,3.56.5,8,8,0,0,0,5.72.72c2.13-.53,3.26-1.77,2.9-3.2s-1.78-2.11-4.68-1.91l-4.05.27c-5.91.39-9.46-1.76-10.61-6.43-1.52-6.15,2.62-11.4,10.53-13.35,4.41-1.09,8.63-.77,11.27.75a5.15,5.15,0,0,1,2.65,3.06A3.44,3.44,0,0,1,191.74,266.37Z"/><path class="cls-1" d="M147.25,288.9c-.42,2.92-2.37,4.38-5.27,4l-8.32-1.2c-9.1-1.3-13.27-7.38-11.85-17.34S129,259.69,138.06,261l8.32,1.2c2.9.41,4.36,2.37,3.94,5.29Zm-8.63-20.78c-4.56-.66-6.88,1.6-7.73,7.51s.75,8.73,5.31,9.39l2.52.36,2.42-16.9Z"/><path class="cls-1" d="M108.69,281.19a4.29,4.29,0,0,1-6.14,2.4l-13.2-5.8a3.29,3.29,0,0,1-1.63-4.54,3.25,3.25,0,0,1,4.42-1.82l9.34,4.1,2.16-4.92-8.93-3.93a2.93,2.93,0,0,1-1.45-4.11,2.9,2.9,0,0,1,4-1.67l8.93,3.93,2.18-4.95-9.21-4a3.47,3.47,0,0,1,2.82-6.35l13,5.74c2.66,1.17,3.57,3.45,2.38,6.16Z"/><path class="cls-1" d="M86.35,251.68a6,6,0,0,1-1.94-3.4,10.69,10.69,0,0,0-3.25-5.55c-2.18-1.75-3.83-1.94-4.89-.62-.87,1.08-.4,2.48,1.66,5l2.56,3.05c3.84,4.54,4.2,8.62,1.07,12.51-3.89,4.83-10,4.85-16,.07-3.35-2.69-5.59-6.1-6-9.06a5.28,5.28,0,0,1,.91-4.17,3.16,3.16,0,0,1,4.66-.33A5.7,5.7,0,0,1,67,252.28a8.05,8.05,0,0,0,2.9,5c1.72,1.38,3.38,1.52,4.3.37s.6-2.69-1.32-4.88l-2.67-3.05q-5.84-6.7-1.32-12.34c4-4.93,10.65-4.83,17,.27,3.54,2.85,5.84,6.39,6.24,9.42a5.18,5.18,0,0,1-.83,4A3.46,3.46,0,0,1,86.35,251.68Z"/><path class="cls-1" d="M68.1,228.09,51.19,241.87c-2.4,1.95-4.75,1.79-6.56-.43s-1.48-4.58.89-6.52l16.92-13.78c2.39-1.95,4.72-1.83,6.52.39S70.48,226.15,68.1,228.09Z"/><path class="cls-1" d="M46.47,221.8c-7.68,3.88-15,1.54-18.94-6.19a16.77,16.77,0,0,1-1.89-9c.23-2.66,1.3-4.83,3.07-5.72a3.4,3.4,0,0,1,4.77,1.61,4,4,0,0,1,.4,2.4c-.27,2.19-1.22,4.3,0,6.75,1.75,3.47,4.72,4.11,9,2l2.9-1.46c4.17-2.11,5.52-4.93,3.88-8.19-1.23-2.44-3.48-3.36-5.52-2.33l-.57.29.62,1.23c1,2,.59,3.6-1.17,4.49s-3.22.27-4.24-1.76l-2.22-4.4c-1.54-3-.92-5,2-6.46l1.09-.56c6.43-3.24,13-.65,16.65,6.59,4,7.95,1.57,15.06-6.44,19.1Z"/><path class="cls-1" d="M47.59,180.35c.45,2.57-1,4.39-3.84,4.89L22.4,189c-3.34.58-5.31-.57-5.8-3.36-.32-1.84.25-3,2.41-5.17l11.14-11-.06-.34-11.33,2c-2.89.51-4.83-.7-5.27-3.22s1-4.42,3.84-4.92L39,159.2c3.11-.54,5,.56,5.47,3.17.33,1.88-.25,3.18-2.45,5.36L30.68,178.8l.06.36,11.59-2C45.21,176.62,47.15,177.8,47.59,180.35Z"/></svg>
