<svg width="164" height="179" viewBox="0 0 164 179" fill="none" xmlns="http://www.w3.org/2000/svg">
<path d="M123.65 64.44C134.899 62.1355 146.357 61.0061 157.84 61.07C154.42 49.9632 149.157 39.5107 142.27 30.15C141.09 31.58 140.27 32.66 139.33 33.7C138.07 35.14 136.86 36.64 135.48 37.95C131.12 42.09 125.74 44.68 120.48 47.48C114.87 50.48 109.26 53.48 103.62 56.48C99.4533 58.66 95.2567 60.79 91.03 62.87C89.96 63.4 88.79 63.87 87.61 63.05C88.51 60.05 91.09 57.98 111.79 43.05C120.39 36.86 128.42 29.81 138.85 25.53C131.45 17.01 124.21 9.13999 114.43 4.10999C113.09 4.83999 111.99 5.37 110.97 6.02C106.9 8.73578 103.348 12.1561 100.48 16.12C95.0902 23.3243 90.4936 31.0893 86.77 39.28C86 41 85 42.57 84.14 44.2L83.37 44.13C82.94 43.13 82.1 42.13 82.16 41.25C82.1725 38.463 82.549 35.6895 83.28 33C87.46 20.59 95.67 11.13 105.81 3.16999C106.283 2.74007 106.731 2.28261 107.15 1.79999C106.26 1.57999 105.77 1.40999 105.27 1.33999C99.9115 0.613687 94.4602 1.02254 89.27 2.53999C83.4192 4.18861 78.3123 7.79714 74.8043 12.7614C71.2963 17.7258 69.6003 23.7445 70 29.81C70.31 33.9 71.79 37.58 73.36 41.29C74.2763 43.429 74.3054 45.8443 73.4409 48.0048C72.5763 50.1652 70.889 51.8937 68.75 52.81C66.611 53.7263 64.1957 53.7554 62.0352 52.8909C59.8748 52.0263 58.1463 50.339 57.23 48.2C56.83 47.33 56.46 46.44 56.06 45.57C53.7641 40.5736 49.9664 36.418 45.1965 33.6826C40.4265 30.9472 34.9219 29.7682 29.45 30.31C20.72 31.31 14.02 35.87 8.44999 42.38C8.27999 42.58 8.32999 42.98 8.24999 43.38C8.56441 43.3784 8.87719 43.3347 9.17999 43.25C14.18 40.68 18.51 42.25 22.36 45.68C24.3626 47.4937 26.2465 49.4344 28 51.49C31.3607 55.4298 35.9323 58.1447 41 59.21C44.75 60.06 48.45 61.09 52.13 62.21C53.2845 62.663 54.3929 63.2255 55.44 63.89C55.2 65.47 54.53 66.1 53.29 66.17C52.05 66.24 50.67 66.47 49.38 66.41C39.38 65.98 29.87 63.89 21.66 57.57C18.6505 55.3262 15.4709 53.3202 12.15 51.57C10.8369 50.8067 9.37004 50.346 7.85633 50.2215C6.34263 50.0969 4.8202 50.3116 3.39999 50.85C-0.60001 59.85 0.449991 69.24 0.709991 78.67C1.04429 78.6723 1.37837 78.6523 1.70999 78.61C2.35999 78.37 3.02999 78.15 3.65999 77.86C8.08618 75.8421 13.046 75.3089 17.8 76.34C19.4364 76.6221 21.0556 76.996 22.65 77.46C29.5362 79.5405 36.86 79.6996 43.83 77.92C49 76.7 54.18 75.5 59.38 74.42C61.55 73.96 63.8 73.85 66.2 73.56C66.41 75.1 66.55 76.18 66.71 77.4C65.57 78.01 64.6 78.59 63.59 79.05C61.29 80.05 58.91 80.96 56.66 82.05C51.12 84.85 45.52 87.3 39.28 88.35C30.62 89.82 22.03 91.74 13.44 93.62C10.31 94.3 7.27999 95.41 3.89999 96.42C6.27821 106.232 10.1178 115.63 15.29 124.3C16.9263 120.983 19.5545 118.256 22.81 116.5C26.8491 114.241 31.0086 112.205 35.27 110.4C45.27 106.29 54.8 101.55 63.06 94.52C63.06 94.45 68.5 90.52 70.92 88.37C73.34 86.22 76 90 73.6 92.11C71.6 93.89 47.26 110.52 37.52 115.48C33.9465 117.302 30.5136 119.388 27.25 121.72C23.6345 124.111 21.0612 127.785 20.05 132C23.4426 136.872 27.2609 141.433 31.46 145.63C32.12 144.49 32.61 143.69 33.07 142.87C37.07 135.87 41.71 129.32 48.3 124.46C53.77 120.46 83.12 106.93 80.02 111.29C77.48 114.85 60.34 125.44 57.44 126.64C48.44 130.37 41.36 136.31 36.77 145.03C36.09 146.31 35.43 147.6 34.67 149.03L44 156.78C44.3146 156.367 44.5892 155.925 44.82 155.46C45.7607 152.906 47.4252 150.682 49.61 149.06C50.38 148.47 83.03 117.88 84.46 118.21C84.64 118 85.64 118.92 85.95 119.42C87.71 120.62 87.89 121.88 86.1 123.93C85.88 124.19 74.25 135.82 71.63 137.58C71.1 138.11 63.21 145.92 62.63 146.26C60.87 147.38 52.03 157.18 50.35 161.36L63.63 168.63C66.13 162.57 67.83 158.75 73.05 154.23C78.43 149.55 83.05 144.23 89.47 140.99C90.19 140.63 92.36 140.81 92.93 140.77C93.1704 141.185 93.2851 141.662 93.2603 142.141C93.2354 142.62 93.0721 143.082 92.79 143.47C92.74 144.26 80.72 154.02 77.73 156.66C75.52 158.66 70.33 168.37 69.87 171.12L79 174.3C79 174.65 86.54 174.8 90.26 174.3C90.26 174.08 90.26 173.86 90.26 173.64C90.26 164.64 93.11 157.27 99.88 151.42C100.864 150.706 101.912 150.083 103.01 149.56L103.62 150.07C103.499 151.413 103.302 152.749 103.03 154.07C101.88 158.64 100.61 163.17 99.42 167.73C98.5622 171.047 98.2747 174.486 98.57 177.9C107.131 178.842 115.777 178.691 124.3 177.45C132.599 170.534 139.768 162.366 145.55 153.24C141.96 151.83 140.08 149.17 138.72 146.06C138.408 145.151 137.985 144.285 137.46 143.48C136.08 141.74 134.82 139.68 133.01 138.55C130.3 136.86 127.18 135.84 124.22 134.55C122.7 133.89 121.08 133.44 119.63 132.65C117.47 131.47 117.26 129.75 118.81 127.81C130.81 125.81 140.17 130.07 147.48 139.46C148.57 140.86 149.63 142.29 150.95 144.02C154.1 137.78 156.77 131.87 158.22 125.85C156.79 123.5 155.49 121.54 154.38 119.48C152.712 116.169 149.855 113.612 146.38 112.32C142.736 111.065 138.859 110.638 135.03 111.07C131.12 111.39 127.23 111.96 123.32 112.3C119.586 112.752 115.799 112.239 112.32 110.81C110.71 110.1 109.49 109.11 109.65 107.19C110.57 105.52 112.15 105.56 113.65 105.44C123.29 104.62 132.93 103.8 142.58 103.05C146.2 102.77 149.76 103.11 152.81 105.41C155.896 107.74 158.145 111.006 159.22 114.72C159.47 115.54 159.8 116.35 160.08 117.17L160.66 117.01C162.504 108.904 163.334 100.6 163.13 92.29C155.71 91.82 148.68 91.39 141.64 90.91C135.9 90.5167 130.16 90.09 124.42 89.63C121.42 89.38 120.83 88.78 120.5 85.99C122.85 83.5466 125.974 81.9919 129.34 81.59C136.451 80.5397 143.707 81.1211 150.56 83.29C154.56 84.47 158.47 85.92 162.84 87.38C162.552 81.0544 161.6 74.7766 160 68.65C154.43 67.74 149.05 66.49 143.6 66.06C134.6 65.36 125.92 67.3 117.29 69.55C109.87 71.49 102.46 73.47 95.02 75.34C93.88 75.63 92.46 76.13 91.23 74.11C101.49 68.66 112.61 66.66 123.65 64.44V64.44ZM109.18 85.73C110.04 86.2 110.55 87.31 111.4 88.35C108.26 91.35 104.69 91.25 101.24 91.19C99.3 91.19 97.24 90.72 96.47 88.29C99.4 85.33 106 84 109.18 85.73Z" fill="#010101"/>
</svg>
