<svg id="Layer_1" data-name="Layer 1" xmlns="http://www.w3.org/2000/svg" viewBox="0 0 320 320"><defs><style>.cls-1{fill:#010101;}</style></defs><title>Artboard 18</title><path class="cls-1" d="M150.53,121.43c5,0,8.9-3.41,10.63-7.82a42.64,42.64,0,0,0-6.5-.83c-4.83,0-8.64,1.58-8.79,4.91C145.76,119.94,147.39,121.43,150.53,121.43Z"/><path class="cls-1" d="M145.84,180c-5.17,0-9.81,3.16-11.72,9.59h22.21A10.35,10.35,0,0,0,145.84,180Z"/><path class="cls-1" d="M313,99,294.72,70.85l0,.05A11.21,11.21,0,0,0,285,65.82a12.4,12.4,0,0,0-8.69,3.56,11.84,11.84,0,0,0-3.66,7.78,10.56,10.56,0,0,0,1.64,6.33l0,0,.54.82-1.62.88h0a19.5,19.5,0,0,0-9.34-2.28,26.1,26.1,0,0,0-7,1H250l-9.39-14.5v0A12.38,12.38,0,0,0,239,67.47a12.59,12.59,0,0,0-9.12-3.81,13.81,13.81,0,0,0-9.47,3.81,13.34,13.34,0,0,0-4.31,9.11,12.11,12.11,0,0,0,1.94,7.21l.06.09h0l-.06-.08h-4.95L199.05,62.07h-22.8L176,67.35l-1.11,23.8a18.83,18.83,0,0,0-2.11-2.37c-4.14-3.92-10-6-17-6A26,26,0,0,0,134.69,93l-.34-.52.33.53q-.48-.8-1-1.53c-2.85-3.9-8.45-8.54-18.88-8.54a27.13,27.13,0,0,0-17.86,6.45,11.87,11.87,0,0,0-8.31-5.06L76.86,66.22l-5.38,0L35.2,66.3C21.4,66.3,9.65,77.33,9,90.87a23.22,23.22,0,0,0,3.85,14l-.16-.23L30.94,132.8c.26.4.52.78.8,1.16l0,1.07,3.38,5.22C19,142,5.79,155.32,5,171.51a29.81,29.81,0,0,0,5.42,18.69c-.23-.34-.47-.68-.69-1L28,217.3a29.76,29.76,0,0,0,8.06,8.3l-.18,3.92,18.23,28.13H81.19l.25-5.28.57-12.3L93.4,257.65h26.86l.24-5.28,1.34-28.83L135.12,244a29,29,0,0,0,3.38,4.28c5.91,6.21,14.38,9.63,23.83,9.63,12.08,0,19.41-3.49,25.29-9.11,6.43,6.05,15.2,9.11,26.14,9.11a32.2,32.2,0,0,0,17.28-4.7l2.31,3.57H260.2l.25-5.27.43-9.25,9.4,14.52h27l.24-5.27L299,218.8c.34-7.19-1.17-13.5-4.39-18.45L276.4,172.22l.3.47a23.11,23.11,0,0,0-2.09-2.89,22.4,22.4,0,0,0-9.61-6.64h7.67l.25-5.28.06-1.36,4.3,6.64H300l.24-5.28,1.13-24.13a27.8,27.8,0,0,0-.72-8l.3-.09a20.94,20.94,0,0,0,14-18.4A14,14,0,0,0,313,99ZM133.77,118.69c.32-6.74,6.22-13.32,17.76-13.32a54.68,54.68,0,0,1,10,1l.06-1.33c.18-4-2.49-6.66-7.07-6.66a9,9,0,0,0-7.74,4.08l-8-6.07c.26-.42,5.14-8.32,16.85-8.32a24.82,24.82,0,0,1,6.12.72l.33.09c.7.2,1.37.42,2,.67a16.87,16.87,0,0,1,2.9,1.5l.58.4.19.14q.38.27.72.57c.23.2.46.4.68.62l.21.21c.15.15.29.3.43.46a11.51,11.51,0,0,1,.77.93c.18.23.35.48.51.73a15.64,15.64,0,0,1,2.36,9.43l-.56,12.23h0a2.16,2.16,0,0,0,0,.36s0,0,0,0v.06a1.84,1.84,0,0,0,.05.25s0,0,0,.07v0a1.42,1.42,0,0,0,.1.29v0a1.82,1.82,0,0,0,.15.27,1.73,1.73,0,0,0,.48.53l-.52,11h-.82a10.22,10.22,0,0,1-10.11-6.9,17.82,17.82,0,0,1-15.12,7.74C137.89,130.59,133.49,124.76,133.77,118.69Zm2,26.63c2.49,2,4,3.18,7.72,3.18s5.34-1.2,8-3.18c3.2-2.37,7.57-5.6,15.3-5.6s11.81,3.23,14.78,5.6c2.49,2,4,3.18,7.72,3.18s5.34-1.2,8-3.18c3.2-2.37,7.57-5.6,15.3-5.6l-.53,11.42c-3.72,0-5.34,1.19-8,3.17-3.19,2.37-7.57,5.61-15.3,5.61S177,156.68,174,154.31c-2.49-2-4-3.17-7.72-3.17s-5.34,1.19-8,3.17c-3.2,2.37-7.57,5.61-15.3,5.61s-11.81-3.24-14.78-5.61c-2.49-2-4-3.17-7.72-3.17s-5.34,1.19-8,3.17c-3.19,2.37-7.56,5.61-15.3,5.61l.54-11.42c3.72,0,5.33-1.2,8-3.18,3.2-2.37,7.57-5.6,15.3-5.6S132.8,143,135.77,145.32ZM98.9,96.51a11.56,11.56,0,0,0-.05-1.77,21.12,21.12,0,0,1,15.68-6.51q.6,0,1.17,0l.35,0c.26,0,.51,0,.77,0l.42,0,.65.07.44.06.6.1.43.08.56.12q.49.11,1,.24c.46.13.89.27,1.32.43l.47.18.39.16.45.2c.4.19.78.39,1.16.6l.4.24.34.22.38.25.33.24.36.27.3.25.35.3.29.26.32.31.27.29.23.24c.26.29.52.59.76.9,2.62,3.39,3.88,8,4,13.13a18.69,18.69,0,0,0-3,4.44H104.69c.54,6.74,4.66,9.23,9.33,9.23a12,12,0,0,0,10-5l4.37,3.2a16.41,16.41,0,0,0,.81,5.15c-4,4-8.5,6-16.28,6-12.14,0-20.64-8.74-20.06-21.22a26.43,26.43,0,0,1,.3-2.85A12.88,12.88,0,0,0,98.9,96.51ZM80.05,89.15l-.23,4.94a7.55,7.55,0,0,1,6.9-4.58,6.68,6.68,0,0,1,6.81,7,7.48,7.48,0,0,1-7.46,7,6.73,6.73,0,0,1-6.48-4.58l-1.43,30.82H66.28L67.2,110l1.12-20.83ZM21,112.4l.2.11h0ZM34.44,83A8.47,8.47,0,0,0,26,90.87a7.57,7.57,0,0,0,7.7,7.92l-.53,11.39a18.74,18.74,0,0,1-15.89-8.5l-.08-.12-.36-.59a2.53,2.53,0,0,0-.13-.22l-.29-.55-.1-.2c-.15-.28-.28-.57-.41-.86s-.19-.44-.27-.66l-.09-.24c-.08-.2-.15-.39-.21-.59a2,2,0,0,1-.08-.22q-.13-.41-.24-.81c-.08-.27-.14-.55-.2-.83l-.06-.25c0-.21-.08-.41-.11-.62s0-.17-.05-.25l-.12-.9c0-.27-.05-.55-.07-.83,0-.08,0-.17,0-.26s0-.43,0-.65v-.26c0-.3,0-.6,0-.9.49-10.64,9.72-19.3,20.57-19.3l36.27-.06-.51,11H51.56L51,93.72H64.1l-.51,11H50.52l-1.16,25h-12L39.49,83Zm-11,117.57.29.12h0Zm53.73-10.26H59.42l-1.58,34H41.5l3-63.47H37.6a11.49,11.49,0,0,0-11.44,10.74A10.26,10.26,0,0,0,36.6,182.24l-.71,15.45a25.45,25.45,0,0,1-21.57-11.52l-.1-.17c-.23-.36-.45-.72-.66-1.1s-.27-.49-.4-.74l-.14-.27c-.17-.33-.33-.67-.49-1l-.06-.15c-.13-.29-.25-.59-.37-.9,0-.1-.08-.21-.13-.32s-.19-.53-.28-.8l-.1-.3c-.12-.36-.23-.73-.33-1.1l0-.11c-.09-.34-.17-.67-.24-1,0-.11-.05-.23-.08-.34-.06-.28-.11-.56-.16-.85,0-.11,0-.22-.05-.33-.06-.38-.12-.77-.16-1.16,0,0,0,0,0-.06,0-.37-.07-.75-.09-1.12,0-.12,0-.24,0-.36l0-.89v-.35c0-.4,0-.81,0-1.21.68-14.44,13.2-26.18,27.91-26.18l49.2-.09-.7,14.9h-26l-.71,15.23H77.83Zm30.49-1.63a9.11,9.11,0,0,1-8.78-6.2l-1.95,41.8H80.79l1.34-28.7.38-5.27.7-14.9.24-5.27-.1-.93H99.46l-.31,6.7a10.24,10.24,0,0,1,9.36-6.21,9.08,9.08,0,0,1,9.24,9.49A10.15,10.15,0,0,1,107.63,188.64Zm64,7.24c0,.46,0,.92,0,1.38a.15.15,0,0,0,0,.07l-.09,1.92H133.21c.72,9.14,6.32,12.52,12.65,12.52A16.22,16.22,0,0,0,159.41,205l10.44,7.54-4,4.36c-5,4.8-10.73,7.36-20,7.6l-1.46,0h-.08c-.43,0-.86,0-1.28,0h-.31q-.67,0-1.32-.09h0l-.13,0h0c-.4,0-.8-.08-1.2-.13h0l-1.06-.17-.48-.08h0l-.19,0h0l-1.08-.23h0l-.26-.06h0l-.44-.12c-.33-.09-.66-.17-1-.27h0l-.08,0c-11.52-3.49-18.91-13.83-18.27-27.5a32.85,32.85,0,0,1,.8-5.91,61.33,61.33,0,0,1,5.19-11.36c5.12-6.89,13.26-11.39,23.42-11.39,18.44,0,25.44,12.57,25.1,28.8Zm28.08-7.13c6.09,1.79,13.37,5,16.74,10.64l-.73,15.76a17.22,17.22,0,0,1-2.33,2.87l0,0c-.3.3-.61.58-.93.86l-.09.08c-.34.3-.7.59-1.07.87h0a25.9,25.9,0,0,1-15.52,4.66c-10.13,0-18.28-2.82-24.08-9.25l9.57-10.38c3.71,4.4,9.84,6.2,15.25,6.2,3.45,0,6-1.35,6.14-3.38a3.29,3.29,0,0,0-.68-2.22l0-.05c-.09-.11-.19-.23-.29-.33l-.09-.09-.27-.24-.1-.09c-.13-.1-.26-.2-.4-.29l0,0-.41-.26h0l-.14-.08-.39-.21-.12-.06-.55-.26-.11,0-.37-.16-.12-.05-.18-.07h0c-.89-.35-1.91-.67-3-1-8.63-2.48-19.22-7.22-18.7-18.4.49-10.61,11.24-16.59,20.67-16.59,8.52,0,14.37,2.82,19.19,8l-9.42,9.49c-2.29-2.6-6.67-5-10-5-3,0-5.24,1.35-5.34,3.5C191.59,185.93,194.75,187.28,199.74,188.75ZM202.28,105,215.49,125v.3h0l-.21,4.43h-9.56l-10.83-17.06-3.75,4-.61,13.06h-12l2.9-62.4h12.05l-1.66,35.53L204,89.06h13.2Zm27.39-36c.24,0,.47,0,.7,0a6.86,6.86,0,0,1,.81.12c.24,0,.47.11.7.18l.1,0a7.93,7.93,0,0,1,1.34.57A7.54,7.54,0,0,1,235,71.14c.18.18.34.36.5.55a1,1,0,0,0,.08.11,6.42,6.42,0,0,1,.38.53,7.16,7.16,0,0,1,1.16,4.25A8.29,8.29,0,0,1,229,84.24a7.49,7.49,0,0,1-6.63-4l-.09-.17c-.07-.15-.14-.29-.2-.45a7,7,0,0,1-.28-.81,6.68,6.68,0,0,1-.23-1.35,1.36,1.36,0,0,1,0-.2,5.45,5.45,0,0,1,0-.7A8.28,8.28,0,0,1,229.67,68.92Zm-7.14,20.23h3.11a13,13,0,0,0,3.07.36,13.55,13.55,0,0,0,3.11-.36H234l-1.89,40.6H220.64Zm42.6,79.9.32.18c.2.11.41.22.6.34l.35.22c.19.12.37.23.55.36l.34.24.52.39.33.26.5.43.3.27c.26.24.51.49.76.75a18.37,18.37,0,0,1,1.39,1.65c.08.1.15.21.22.31l.42.59c2.6,4,4,9.24,3.69,15.63L273.9,223.4H257.67l1.48-31.83c.36-7.67-4.4-11.62-9.81-11.62a9.88,9.88,0,0,0-6.43,2.42c-.26.23-.51.46-.76.72a14.88,14.88,0,0,0-3.83,8.59l-1.47,31.72H220.74l3.94-84.65h16.11L239.24,172a28.71,28.71,0,0,1-.53,3.84A21.35,21.35,0,0,1,256.16,167a19.65,19.65,0,0,1,8.14,1.69h0Zm12.62-63.43-.52,11.31-.13,2.66-.47,10.16h-12l1.09-23.46c.26-5.66-3.25-8.57-7.23-8.57-3.57,0-7.69,2.83-8.11,8.23l-1.11,23.8H237.44l1.88-40.6H251.2l-.13,2.74a21.7,21.7,0,0,1-.38,2.83,15.74,15.74,0,0,1,12.86-6.57h0l.85,0,.27,0,.57,0,.32,0,.5.07.33.06q.66.12,1.29.3l.29.09.52.17.23.08c.25.1.49.19.73.3l.09,0,.62.3.68.38.26.16.39.26a2.48,2.48,0,0,1,.26.19c.13.09.26.18.38.28s.42.34.62.51l.22.2.56.55a15.3,15.3,0,0,1,1.19,1.45C276.84,96.63,278,100.68,277.75,105.62Zm13.62-26.46a15.38,15.38,0,0,1-10.12,13.4L278.83,88c3.22-1.74,4.49-3.49,5.06-4.74-2.48-.28-4.4-1.38-5.32-3.16l-.06-.13a2.07,2.07,0,0,1-.15-.34,3.84,3.84,0,0,1-.2-.6v0A6.09,6.09,0,0,1,278,77.9c0-.24,0-.48,0-.74a6.78,6.78,0,0,1,6.74-6.07,8.49,8.49,0,0,1,.88,0l.27,0c.19,0,.37,0,.55.09l.3.08.45.14a4.89,4.89,0,0,1,.7.29l.28.16.35.21.26.19.31.25a5.51,5.51,0,0,1,.71.74l.25.33A8.88,8.88,0,0,1,291.37,79.16Z"/><path class="cls-1" d="M114,97.72c-3.82,0-7.24,2.33-8.65,7.07h16.38A7.63,7.63,0,0,0,114,97.72Z"/></svg>