<svg id="Layer_1" data-name="Layer 1" xmlns="http://www.w3.org/2000/svg" viewBox="0 0 320.55 202.65"><defs><style>.cls-1{fill:#010101;}</style></defs><title>Artboard 18</title><path class="cls-1" d="M150.8,62.76c5,0,8.9-3.41,10.63-7.82a41.43,41.43,0,0,0-6.49-.84c-4.84,0-8.64,1.59-8.8,4.91C146,61.26,147.66,62.76,150.8,62.76Z"/><path class="cls-1" d="M146.12,121.27c-5.18,0-9.82,3.16-11.72,9.59h22.2A10.35,10.35,0,0,0,146.12,121.27Z"/><path class="cls-1" d="M313.22,40.31,295,12.18l0,0a11.23,11.23,0,0,0-9.8-5.07,12.39,12.39,0,0,0-8.68,3.55,11.84,11.84,0,0,0-3.66,7.79,10.46,10.46,0,0,0,1.64,6.32l0,0,.53.83-1.61.88h0a19.46,19.46,0,0,0-9.35-2.29,26.1,26.1,0,0,0-7,1h-6.86l-9.4-14.49,0,0a13.45,13.45,0,0,0-1.55-1.94A12.61,12.61,0,0,0,230.19,5a13.86,13.86,0,0,0-9.47,3.81,13.37,13.37,0,0,0-4.31,9.12,12.14,12.14,0,0,0,1.94,7.21l.05.08h0l-.05-.08H213.4L199.32,3.4H176.53l-.25,5.27-1.11,23.81a18.16,18.16,0,0,0-2.11-2.37c-4.13-3.92-10-6-17-6A26,26,0,0,0,135,34.35l-.34-.53c.12.18.23.36.34.54a17.78,17.78,0,0,0-1-1.53c-2.85-3.9-8.44-8.54-18.88-8.54a27.16,27.16,0,0,0-17.86,6.44,11.8,11.8,0,0,0-8.31-5.05L77.14,7.55H71.75l-36.27.07c-13.8,0-25.56,11-26.19,24.57a23.25,23.25,0,0,0,3.86,14L13,46,31.21,74.13c.26.39.53.78.81,1.15L32,76.35l3.38,5.22c-16.12,1.71-29.28,15.08-30,31.26a29.67,29.67,0,0,0,5.42,18.69c-.24-.33-.47-.67-.7-1l18.23,28.13a29.79,29.79,0,0,0,8.07,8.3l-.19,3.91L54.38,199H81.47l.24-5.27.58-12.3L93.68,199h26.85l.25-5.27,1.34-28.84,13.27,20.48a29.13,29.13,0,0,0,3.38,4.29c5.92,6.2,14.38,9.62,23.83,9.62,12.08,0,19.41-3.49,25.3-9.1,6.42,6,15.2,9.1,26.13,9.1a32.24,32.24,0,0,0,17.28-4.69l2.31,3.56h26.86l.24-5.27.43-9.24,9.41,14.51h27l.25-5.27,1.52-32.73c.33-7.18-1.18-13.49-4.39-18.45l-18.23-28.13.29.48a24.1,24.1,0,0,0-2.08-2.89,22.51,22.51,0,0,0-9.62-6.65h7.67l.25-5.27.06-1.37,4.3,6.64h22.71l.25-5.27,1.12-24.13a28.1,28.1,0,0,0-.71-8l.3-.1a20.92,20.92,0,0,0,14-18.39A13.93,13.93,0,0,0,313.22,40.31ZM134.05,60c.31-6.74,6.22-13.31,17.76-13.31a54.57,54.57,0,0,1,10,1l.06-1.33c.19-4-2.49-6.66-7.07-6.66A9.05,9.05,0,0,0,147,43.79l-8-6.08c.25-.41,5.14-8.32,16.84-8.32a24.8,24.8,0,0,1,6.12.73l.34.09a18,18,0,0,1,2,.67,16.14,16.14,0,0,1,2.9,1.49l.58.4.19.14.72.57c.24.2.46.41.68.62l.22.22c.14.15.29.3.42.45s.53.61.77.93.36.49.52.74a15.64,15.64,0,0,1,2.36,9.43l-.57,12.23h0a2.26,2.26,0,0,0,0,.37v.05s0,0,0,.06a2.17,2.17,0,0,0,0,.25.25.25,0,0,0,0,.07v0a2.47,2.47,0,0,0,.1.29h0l.15.28a2.2,2.2,0,0,0,.48.53l-.51,11h-.82a10.21,10.21,0,0,1-10.11-6.91,17.82,17.82,0,0,1-15.13,7.74C138.16,71.91,133.77,66.09,134.05,60Zm2,26.64c2.49,2,4,3.18,7.72,3.18s5.33-1.2,8-3.18C155,84.28,159.34,81,167.08,81s11.8,3.24,14.78,5.61c2.49,2,4,3.18,7.72,3.18s5.33-1.2,8-3.18c3.19-2.37,7.57-5.61,15.3-5.61l-.54,11.42c-3.72,0-5.33,1.2-8,3.18-3.19,2.37-7.57,5.61-15.3,5.61s-11.8-3.24-14.78-5.61c-2.49-2-4-3.18-7.71-3.18s-5.34,1.2-8,3.18c-3.19,2.37-7.57,5.61-15.3,5.61s-11.8-3.24-14.78-5.61c-2.49-2-4-3.18-7.72-3.18s-5.33,1.2-8,3.18c-3.2,2.37-7.57,5.61-15.3,5.61L98,89.83c3.72,0,5.34-1.2,8-3.18,3.19-2.37,7.56-5.61,15.29-5.61S133.07,84.28,136.05,86.65ZM99.18,37.84a13,13,0,0,0-.05-1.77,21.1,21.1,0,0,1,15.68-6.51l1.16,0,.35,0,.77,0,.42.05.66.07.43.06.6.09.44.09.56.11,1,.25c.46.13.9.27,1.33.43L123,31l.39.17.44.2c.4.18.79.39,1.16.6l.4.24.34.21.39.26.32.24.36.27.31.25.34.29.29.27.32.31c.1.09.19.19.28.28s.15.16.22.25c.27.29.52.59.77.9,2.62,3.39,3.87,8,4,13.13a18.74,18.74,0,0,0-3,4.43H105c.53,6.74,4.66,9.24,9.33,9.24a12,12,0,0,0,10-5l4.37,3.19a16.35,16.35,0,0,0,.8,5.15c-4,4-8.49,6-16.28,6-12.13,0-20.63-8.73-20.05-21.22a22.57,22.57,0,0,1,.3-2.85A12.88,12.88,0,0,0,99.18,37.84ZM80.32,30.47l-.23,4.94A7.56,7.56,0,0,1,87,30.84a6.68,6.68,0,0,1,6.81,7,7.48,7.48,0,0,1-7.46,7,6.72,6.72,0,0,1-6.47-4.57L78.43,71.08H66.55l.92-19.77L68.6,30.47Zm-59,23.26.2.1h0ZM34.71,24.29a8.47,8.47,0,0,0-8.43,7.91A7.56,7.56,0,0,0,34,40.11L33.45,51.5A18.75,18.75,0,0,1,17.55,43l-.08-.12c-.12-.2-.24-.39-.35-.59L17,42.07l-.3-.54-.1-.2c-.14-.28-.28-.57-.41-.86l-.27-.66-.09-.24L15.61,39l-.08-.23-.24-.8c-.07-.28-.14-.55-.2-.83a2.21,2.21,0,0,1-.05-.25c0-.21-.08-.42-.12-.62s0-.17,0-.25q-.08-.45-.12-.9c0-.28,0-.55-.07-.83,0-.09,0-.17,0-.26s0-.43,0-.65V33.1c0-.3,0-.6,0-.9.49-10.64,9.72-19.3,20.57-19.3l36.27-.07-.51,11H51.83l-.52,11.24H64.37l-.51,11H50.8l-1.17,25H37.58l2.18-46.79Zm-11,117.57L24,142h0ZM77.41,131.6H59.69l-1.58,34H41.77l3-63.47H37.88a11.48,11.48,0,0,0-11.44,10.73,10.25,10.25,0,0,0,10.44,10.74L36.16,139a25.44,25.44,0,0,1-21.57-11.53l-.1-.16c-.23-.36-.45-.73-.66-1.1s-.27-.49-.39-.74l-.15-.27q-.25-.51-.48-1l-.06-.15c-.13-.3-.26-.6-.38-.9l-.12-.32c-.1-.27-.2-.53-.29-.8l-.1-.3c-.12-.37-.23-.73-.33-1.1l0-.12c-.08-.33-.17-.66-.24-1,0-.12,0-.23-.07-.34-.06-.29-.11-.57-.16-.85L11,118c-.06-.39-.11-.78-.16-1.17v0c0-.37-.07-.75-.1-1.13,0-.11,0-.23,0-.35,0-.3,0-.59,0-.89,0-.12,0-.23,0-.35,0-.4,0-.81,0-1.22C11.36,98.4,23.88,86.66,38.6,86.66l49.19-.09-.69,14.89h-26l-.7,15.24H78.11ZM107.9,130a9.11,9.11,0,0,1-8.78-6.21l-1.94,41.81H81.07l1.33-28.7.39-5.27.69-14.9.25-5.27-.1-.94H99.74l-.31,6.7a10.23,10.23,0,0,1,9.35-6.21,9.07,9.07,0,0,1,9.24,9.5A10.15,10.15,0,0,1,107.9,130Zm64,7.24c0,.45,0,.91,0,1.37v.07l-.09,1.92H133.48c.73,9.14,6.32,12.53,12.65,12.53a16.18,16.18,0,0,0,13.55-6.78l10.44,7.55-4,4.36c-5,4.8-10.74,7.36-20,7.6l-1.45,0h-.09c-.43,0-.85,0-1.27,0h-.32l-1.32-.1h-.13c-.4,0-.8-.08-1.19-.14h0l-1.07-.16-.48-.08h0l-.2,0h0c-.37-.07-.73-.15-1.09-.24h0l-.26-.06h0l-.45-.12-1-.26h0l-.09,0c-11.52-3.49-18.91-13.84-18.27-27.5a32.86,32.86,0,0,1,.81-5.91,60.52,60.52,0,0,1,5.18-11.36c5.13-6.9,13.26-11.39,23.42-11.39,18.44,0,25.44,12.56,25.1,28.8ZM200,130.07c6.08,1.8,13.37,5,16.74,10.65L216,156.47a17.23,17.23,0,0,1-2.32,2.88l0,0q-.45.45-.93.87l-.08.08c-.35.3-.71.59-1.08.86h0a25.87,25.87,0,0,1-15.53,4.67c-10.12,0-18.28-2.82-24.08-9.25l9.58-10.39c3.7,4.4,9.83,6.21,15.24,6.21,3.45,0,6.05-1.36,6.14-3.38a3.27,3.27,0,0,0-.68-2.22l0,0a3.17,3.17,0,0,0-.3-.34l-.09-.08a2.1,2.1,0,0,0-.27-.24l-.1-.09-.4-.3h0a4.1,4.1,0,0,0-.41-.26h0l-.14-.08-.39-.21-.13-.06c-.17-.09-.35-.18-.54-.26l-.12-.05-.37-.15-.11,0-.18-.07h0c-.9-.35-1.91-.68-3-1-8.63-2.49-19.22-7.23-18.7-18.4.49-10.61,11.24-16.59,20.68-16.59,8.51,0,14.37,2.82,19.19,8L207.34,126c-2.29-2.59-6.67-5-10-5-3,0-5.24,1.36-5.34,3.5C191.86,127.25,195,128.61,200,130.07Zm2.54-83.79,13.21,20.07,0,.3h0l-.2,4.43H206L195.16,54l-3.75,4-.61,13.06H178.75l2.9-62.41h12L192.05,44.2l12.18-13.81h13.21Zm27.38-36c.24,0,.47,0,.71,0a7.5,7.5,0,0,1,.81.11l.69.18.1,0a7.64,7.64,0,0,1,1.34.58,7.84,7.84,0,0,1,1.69,1.28c.17.18.34.36.49.55l.09.11c.13.17.26.35.38.53a7.2,7.2,0,0,1,1.15,4.25,8.27,8.27,0,0,1-8.16,7.65,7.49,7.49,0,0,1-6.63-4c0-.06,0-.12-.08-.17s-.14-.3-.2-.45a7.06,7.06,0,0,1-.29-.81,7.62,7.62,0,0,1-.23-1.35c0-.07,0-.14,0-.21q0-.34,0-.69A8.28,8.28,0,0,1,229.94,10.25Zm-7.13,20.22h3.1a13.05,13.05,0,0,0,3.08.37,13.41,13.41,0,0,0,3.1-.37h2.14l-1.89,40.61H220.92Zm42.6,79.91.31.17.61.35.35.22.54.35.35.25.51.38.33.27.51.43.29.27c.26.24.52.49.76.75a16,16,0,0,1,1.4,1.65l.22.31c.14.19.28.39.41.59,2.6,3.95,4,9.24,3.7,15.62l-1.53,32.73H258l1.48-31.82c.35-7.68-4.41-11.63-9.82-11.63a9.88,9.88,0,0,0-6.42,2.43,10.14,10.14,0,0,0-.76.71,14.81,14.81,0,0,0-3.83,8.6l-1.48,31.71H221L225,80.08h16.11l-1.55,33.29a27.54,27.54,0,0,1-.53,3.84,21.35,21.35,0,0,1,17.45-8.92,19.58,19.58,0,0,1,8.15,1.69h0C264.86,110.11,265.14,110.24,265.41,110.38ZM278,47l-.53,11.3-.12,2.66-.47,10.17h-12L266,47.62c.27-5.66-3.24-8.57-7.23-8.57-3.57,0-7.68,2.82-8.11,8.23l-1.1,23.8H237.71l1.89-40.61h11.88l-.13,2.75a20.78,20.78,0,0,1-.39,2.83,15.73,15.73,0,0,1,12.86-6.57h0c.29,0,.57,0,.85,0l.28,0,.56.05.32,0,.51.07.33.06c.43.08.86.18,1.28.3l.29.08.53.18.23.08c.24.09.49.19.73.3l.08,0c.21.09.42.19.62.3s.46.24.68.38l.26.16.4.26L272,32l.37.29c.21.16.42.33.62.51l.22.2c.19.17.38.36.56.55A12.94,12.94,0,0,1,275,35C277.12,38,278.26,42,278,47Zm13.62-26.46c-.26,5.41-4.19,11.48-10.13,13.39l-2.42-4.57c3.22-1.75,4.49-3.49,5.06-4.74-2.47-.29-4.4-1.39-5.32-3.16l-.06-.13-.15-.34a4.69,4.69,0,0,1-.2-.6v0a5.3,5.3,0,0,1-.16-1.08,6.06,6.06,0,0,1,0-.74A6.76,6.76,0,0,1,285,12.42a8.38,8.38,0,0,1,.88,0l.28,0a4.68,4.68,0,0,1,.54.09l.31.08.45.13a7.17,7.17,0,0,1,.69.3l.28.15c.12.07.24.14.35.22l.26.18a3.88,3.88,0,0,1,.31.26,5.6,5.6,0,0,1,.72.74l.24.33A8.93,8.93,0,0,1,291.65,20.49Z"/><path class="cls-1" d="M114.28,39.05c-3.81,0-7.23,2.33-8.64,7.07H122A7.63,7.63,0,0,0,114.28,39.05Z"/></svg>