<svg width="190" height="274" viewBox="0 0 190 274" fill="none" xmlns="http://www.w3.org/2000/svg">
<path d="M144.54 148.18C144.186 148.07 143.803 148.106 143.475 148.278C143.147 148.451 142.901 148.746 142.79 149.1C142.421 150.338 141.662 151.424 140.626 152.197C139.59 152.969 138.332 153.386 137.04 153.386C135.748 153.386 134.49 152.969 133.454 152.197C132.418 151.424 131.659 150.338 131.29 149.1C131.239 148.92 131.152 148.753 131.035 148.607C130.917 148.461 130.772 148.341 130.607 148.252C130.443 148.163 130.262 148.109 130.076 148.091C129.89 148.073 129.702 148.093 129.524 148.149C129.345 148.205 129.18 148.297 129.038 148.418C128.895 148.539 128.778 148.687 128.694 148.854C128.61 149.021 128.56 149.203 128.547 149.389C128.534 149.576 128.559 149.763 128.62 149.94C129.052 151.339 129.827 152.607 130.875 153.629C131.923 154.651 133.211 155.394 134.62 155.79C133.201 160.356 130.358 164.348 126.508 167.184C122.658 170.019 118.002 171.548 113.22 171.548C108.438 171.548 103.782 170.019 99.9321 167.184C96.0818 164.348 93.2393 160.356 91.82 155.79C93.2276 155.391 94.5134 154.646 95.561 153.625C96.6087 152.604 97.3851 151.337 97.82 149.94C97.8808 149.763 97.9056 149.576 97.8929 149.389C97.8802 149.203 97.8302 149.021 97.746 148.854C97.6618 148.687 97.5449 148.539 97.4024 148.418C97.2599 148.297 97.0946 148.205 96.9163 148.149C96.7379 148.093 96.5501 148.073 96.364 148.091C96.1779 148.109 95.9972 148.163 95.8325 148.252C95.6679 148.341 95.5227 148.461 95.4054 148.607C95.2882 148.753 95.2014 148.92 95.15 149.1C94.7809 150.338 94.0219 151.424 92.9858 152.197C91.9498 152.969 90.6922 153.386 89.4 153.386C88.1078 153.386 86.8502 152.969 85.8142 152.197C84.7781 151.424 84.0191 150.338 83.65 149.1C83.5986 148.92 83.5118 148.753 83.3945 148.607C83.2773 148.461 83.1321 148.341 82.9675 148.252C82.8029 148.163 82.6221 148.109 82.436 148.091C82.2499 148.073 82.0621 148.093 81.8837 148.149C81.7054 148.205 81.5401 148.297 81.3976 148.418C81.2551 148.539 81.1382 148.687 81.054 148.854C80.9698 149.021 80.9198 149.203 80.9071 149.389C80.8944 149.576 80.9192 149.763 80.98 149.94C81.5158 151.667 82.5718 153.187 84.0037 154.291C85.4355 155.395 87.1735 156.031 88.98 156.11C90.4938 161.365 93.6756 165.986 98.0454 169.275C102.415 172.563 107.736 174.342 113.205 174.342C118.674 174.342 123.995 172.563 128.365 169.275C132.734 165.986 135.916 161.365 137.43 156.11C139.236 156.029 140.973 155.393 142.405 154.289C143.837 153.185 144.893 151.666 145.43 149.94C145.541 149.589 145.51 149.207 145.344 148.879C145.178 148.55 144.889 148.299 144.54 148.18V148.18Z" fill="#010101"/>
<path d="M91.29 136.93C98.45 136.93 104.29 129.11 104.29 119.5C104.29 109.89 98.46 102.07 91.29 102.07C84.12 102.07 78.29 109.89 78.29 119.5C78.29 129.11 84.13 136.93 91.29 136.93ZM91.29 104.87C96.91 104.87 101.49 111.43 101.49 119.5C101.49 127.57 96.91 134.13 91.29 134.13C85.67 134.13 81.1 127.57 81.1 119.5C81.1 111.43 85.67 104.87 91.29 104.87Z" fill="#010101"/>
<path d="M91.29 128.48C93.68 128.48 95.73 126.29 96.65 123.16L93 119.5L96.66 115.85C95.74 112.71 93.66 110.52 91.3 110.52C88.06 110.52 85.43 114.52 85.43 119.52C85.43 124.52 88.05 128.48 91.29 128.48Z" fill="#010101"/>
<path d="M123.82 119.5C123.82 129.11 129.65 136.93 136.82 136.93C143.99 136.93 149.82 129.11 149.82 119.5C149.82 109.89 144 102.07 136.82 102.07C129.64 102.07 123.82 109.89 123.82 119.5ZM147.01 119.5C147.01 127.57 142.43 134.13 136.81 134.13C131.19 134.13 126.62 127.57 126.62 119.5C126.62 111.43 131.19 104.87 136.81 104.87C142.43 104.87 147 111.43 147 119.5H147.01Z" fill="#010101"/>
<path d="M130.94 119.5C130.94 124.5 133.57 128.5 136.81 128.5C139.2 128.5 141.25 126.31 142.17 123.18L138.51 119.52L142.17 115.87C141.25 112.73 139.17 110.54 136.81 110.54C133.57 110.52 130.94 114.54 130.94 119.5Z" fill="#010101"/>
<path d="M186.54 206.26C186.08 203.46 185.93 200.26 184.93 197.48C184.216 195.509 183.024 193.746 181.46 192.35C181.612 192.162 181.712 191.938 181.75 191.7L189.37 143.56L165.16 111.35C165.043 111.192 164.893 111.062 164.72 110.969C164.547 110.875 164.356 110.821 164.16 110.81V68.32H164.05C164.05 66.32 162.29 63.86 148.59 61.82C137.101 60.2977 125.519 59.5826 113.93 59.68C102.344 59.5823 90.7658 60.2974 79.28 61.82C65.57 63.82 63.81 66.36 63.81 68.32C63.8086 68.5839 63.8457 68.8467 63.92 69.1V90.66C63.7852 91.0005 63.7852 91.3795 63.92 91.72V103.72L31.33 99.2L20.33 78.39C22.3771 77.2748 24.0429 75.5716 25.1124 73.5003C26.1819 71.429 26.606 69.0847 26.33 66.77C26.0347 64.615 24.969 62.6399 23.33 61.21V61.13C24.7069 56.7523 25.8419 52.3023 26.73 47.8C27.29 44.8 27.73 41.14 24.79 39.15C22.55 37.62 20.79 39.48 19.79 41.45C18.5335 44.1043 17.5582 46.8827 16.88 49.74C16.28 47.3 15.68 44.87 15.01 42.46C14.34 40.05 13.46 38.66 10.84 39C5.04999 39.63 7.79 47.92 9.16 52C8.54575 52.0134 7.94089 52.1535 7.38335 52.4116C6.82581 52.6698 6.32761 53.0403 5.91999 53.5C5.18823 53.1705 4.37739 53.0575 3.58343 53.1745C2.78948 53.2915 2.04565 53.6335 1.43999 54.16C0.569995 55.16 0.649998 56.49 0.649998 57.68C0.649998 58.87 0.739995 60.1 0.759995 61.31C0.661623 61.494 0.616601 61.7018 0.629997 61.91C0.859997 66.01 0.159995 71.36 2.87 74.78C4.67093 76.8591 7.00459 78.408 9.62 79.26C9.61532 79.2898 9.61532 79.3202 9.62 79.35L22 118.75L64 123.75V140.4C64.0127 153.621 69.2438 166.303 78.5561 175.689C87.8685 185.074 100.509 190.404 113.73 190.52V256C102.694 255.961 91.669 256.673 80.73 258.13C67.02 260.13 65.26 262.67 65.26 264.63C65.26 266.59 67.02 269.1 80.73 271.13C92.2158 272.652 103.794 273.367 115.38 273.27C126.956 273.366 138.524 272.65 150 271.13C163.71 269.13 165.46 266.59 165.46 264.63C165.46 262.67 163.71 260.16 150 258.13C138.882 256.656 127.675 255.945 116.46 256V190.47C128.931 189.856 140.725 184.615 149.538 175.77C158.351 166.925 163.55 155.113 164.12 142.64L174.5 152.37L170 189.56C167.274 190.343 164.84 191.912 163 194.07C161.15 196.19 159.72 198.77 157.62 200.64C155.52 202.51 152.89 202.98 150.72 204.54C147.35 207 150.79 210.72 153.72 211.69C154.492 211.963 155.316 212.055 156.129 211.959C156.942 211.864 157.722 211.584 158.41 211.14C159.27 210.59 159.94 209.61 160.85 209.14C163.85 207.75 162.63 211.47 162.41 212.82C161.86 216.3 161.22 219.82 160.85 223.29C160.65 225.29 160.14 228.01 160.85 230C162.19 233.51 165.1 232.5 167.23 230.68C167.64 232.15 168.48 233.44 170.16 233.57C172.63 233.77 174.16 231.68 175.05 229C175.332 229.451 175.751 229.8 176.247 229.994C176.742 230.189 177.286 230.219 177.8 230.08C180.47 229.47 181.13 226.17 181.43 223.89C181.58 222.78 181.65 221.71 181.73 220.63C181.837 221.08 182.053 221.498 182.358 221.846C182.663 222.195 183.048 222.464 183.48 222.63C187.38 223.63 187.99 216.95 187.89 214.63C187.611 211.815 187.16 209.02 186.54 206.26V206.26ZM9.69999 42.54C10.19 40.73 11.8 41.02 12.54 42.36C13.45 44 13.66 46.7 14.12 48.52C14.62 50.52 15.12 52.59 15.68 54.62C15.7244 54.7694 15.7983 54.9083 15.8972 55.0288C15.9961 55.1492 16.118 55.2487 16.2559 55.3213C16.3938 55.394 16.5448 55.4384 16.7 55.4519C16.8553 55.4654 17.0117 55.4478 17.16 55.4C17.3458 55.3475 17.5151 55.2482 17.6516 55.1116C17.7882 54.9751 17.8875 54.8058 17.94 54.62L20.58 46.23C20.96 45.01 21.23 43.31 22.01 42.23C23.44 40.34 24.34 41.73 24.7 43.35C25.3 46.05 23.99 49.61 23.34 52.27C22.69 54.93 22 57.42 21.23 60C20.8792 59.8514 20.5183 59.7277 20.15 59.63C18.0959 59.2837 16.0087 59.1764 13.93 59.31H13.62C13.53 56.97 13.89 54.09 11.76 52.69C11.7623 52.5673 11.7419 52.4453 11.7 52.33C11.0599 50.3281 10.5489 48.2873 10.17 46.22C9.99999 45.23 9.43999 43.48 9.69999 42.54V42.54ZM7.54 55.17C7.6 54.48 8.84999 54.35 9.37999 54.34C9.72536 54.2929 10.0764 54.3668 10.3735 54.5491C10.6706 54.7313 10.8955 55.0108 11.01 55.34C11.3486 56.5286 11.4472 57.7728 11.3 59C10.1369 58.7823 8.93517 58.9181 7.84999 59.39C7.84999 58.96 7.84999 58.54 7.84999 58.12C7.8918 57.1384 7.79757 56.1557 7.57 55.2L7.54 55.17ZM3 57C2.83 56.12 3.32 55.63 4.44 55.52C4.57883 55.4872 4.7245 55.4996 4.85579 55.5554C4.98709 55.6111 5.09716 55.7073 5.16999 55.83C5.68999 56.39 5.5 58.95 5.45 59.75C5.33 61.52 4.34 61.81 3.09 61.5C3.09 60.62 3.08999 59.74 3.00999 58.85C2.9368 58.2357 2.93345 57.6151 3 57V57ZM7 75.27C5.89501 74.6127 4.97729 73.6827 4.33469 72.5691C3.6921 71.4555 3.34616 70.1956 3.33 68.91C3.18 67.24 3.11 65.56 3.04 63.91C3.76975 64.0894 4.53586 64.0536 5.24571 63.807C5.95556 63.5603 6.57877 63.1133 7.04 62.52C7.21901 63.1151 7.51934 63.6667 7.92207 64.14C8.32481 64.6133 8.82121 64.998 9.37999 65.27C10.1613 65.5412 10.9692 65.7289 11.79 65.83C12.66 66 14.97 66 15.65 66.54C15.65 66.54 16.26 67.97 16.34 68.08C16.7394 68.5927 17.2149 69.0412 17.75 69.41C18.96 70.32 20.14 68.29 18.94 67.41C17.52 66.33 17.94 65 16.27 64.3C14.78 63.68 9.27 64.04 9.36 61.54C11.3878 61.4591 13.4187 61.5093 15.44 61.69C18.04 61.69 20.59 61.63 22.44 63.77C25.87 67.77 23.44 73.9 19.37 76.36C15.3 78.82 10.76 77.67 7 75.28V75.27ZM63.89 120.93L24.1 116.19L12.78 80C14.4597 80.2085 16.1645 80.0551 17.78 79.55L29.57 101.82L63.96 106.58L63.89 120.93ZM113.89 62.47C143.31 62.47 159.89 66.17 161.18 68.31C159.87 70.45 143.31 74.15 113.89 74.15C84.89 74.15 68.41 70.56 66.68 68.41V68.31H66.6C68 66.18 84.53 62.48 113.94 62.48L113.89 62.47ZM162.57 264.62C161.25 266.76 144.69 270.46 115.27 270.46C85.85 270.46 69.27 266.76 67.98 264.62C69.27 262.52 85.24 258.92 113.61 258.79V261.26C113.61 261.631 113.757 261.987 114.02 262.25C114.283 262.512 114.639 262.66 115.01 262.66C115.381 262.66 115.737 262.512 116 262.25C116.263 261.987 116.41 261.631 116.41 261.26V258.78C145.16 258.89 161.32 262.52 162.62 264.63L162.57 264.62ZM161.32 140.4C161.32 152.95 156.335 164.986 147.46 173.86C138.586 182.734 126.55 187.72 114 187.72C101.45 187.72 89.4139 182.734 80.5397 173.86C71.6655 164.986 66.68 152.95 66.68 140.4V92C72.2628 89.4108 78.3562 88.1096 84.5096 88.1927C90.6631 88.2758 96.7191 89.741 102.23 92.48C106.93 94.72 112.73 95.84 119.58 95.84C126.805 95.7173 133.992 94.7644 141 93C147.945 91.3515 154.767 89.2264 161.42 86.64L161.32 140.4ZM161.32 83.64C155.89 85.83 122.01 98.78 103.44 89.92C86.28 81.73 72.01 86.46 66.68 88.86V71.7C68.89 72.78 72.68 73.85 79.24 74.83C90.7421 76.3594 102.337 77.0845 113.94 77C125.529 77.0951 137.11 76.3834 148.6 74.87C155.35 73.87 159.2 72.74 161.37 71.63L161.32 83.64ZM177.4 151.29L164.69 139.38C164.529 139.228 164.333 139.118 164.12 139.06V114.69L186.37 144.29L179.03 190.67C177.123 189.604 174.963 189.076 172.78 189.14L177.4 151.29ZM184.67 219.64C183.44 220.73 183.34 218 183.06 216.97C182.361 214.481 181.889 211.934 181.65 209.36C181.637 209.12 181.537 208.893 181.37 208.721C181.203 208.548 180.979 208.441 180.74 208.42C180.06 208.19 179.24 208.42 179.26 209.35C179.35 212.74 179.56 216.13 179.41 219.49C179.31 221.49 179.41 224.8 178.41 226.57C176.62 229.49 176.22 224.57 176.16 223.26C176.01 219.55 175.9 215.83 175.76 212.11C175.7 210.6 173.39 211.01 173.44 212.5C173.52 214.71 173.44 217 173.51 219.26C173.46 219.443 173.46 219.637 173.51 219.82V219.9C173.51 221.16 173.59 222.41 173.7 223.66C173.577 225.196 173.241 226.707 172.7 228.15C172.458 228.996 172.027 229.775 171.44 230.43C169.69 231.84 169.28 229.58 169.3 228.13C169.5 223.13 170.19 218.13 169.99 213.02C169.93 211.52 167.62 211.92 167.68 213.42C167.87 218.14 167.2 222.8 166.97 227.51L166.9 227.59C166.24 228.59 164.44 231.35 162.9 228.92C162.51 228.32 162.83 226.92 162.9 226.2C163.088 223.385 163.422 220.581 163.9 217.8C164.29 215.44 164.76 213.08 165.06 210.71C165.25 209.17 165.44 207.66 163.93 206.76C160.49 204.68 158.71 209.24 155.81 209.66C154.7 209.81 151.05 208.38 151.88 206.55C152.587 206.059 153.353 205.659 154.16 205.36C156.226 204.506 158.125 203.294 159.77 201.78C163.41 198.12 165.49 192.78 171.08 191.66C173.763 191.169 176.531 191.751 178.789 193.281C181.046 194.811 182.612 197.166 183.15 199.84C183.78 202.59 183.97 205.48 184.48 208.27C185.072 210.642 185.428 213.067 185.54 215.51C185.56 216.65 185.64 218.81 184.72 219.65L184.67 219.64Z" fill="#010101"/>
<path d="M143.2 36.06C141.254 36.054 139.35 36.6258 137.73 37.7027C136.109 38.7797 134.844 40.3134 134.096 42.1097C133.348 43.9059 133.149 45.8839 133.526 47.7929C133.903 49.702 134.838 51.4564 136.212 52.8337C137.587 54.2111 139.339 55.1495 141.247 55.5301C143.156 55.9107 145.134 55.7163 146.932 54.9717C148.73 54.227 150.266 52.9656 151.346 51.3471C152.426 49.7286 153.002 47.8259 153 45.88C152.995 43.2806 151.961 40.789 150.125 38.9491C148.289 37.1092 145.799 36.0705 143.2 36.06V36.06ZM143.2 52.91C141.816 52.91 140.462 52.4994 139.311 51.7303C138.16 50.9611 137.263 49.8678 136.733 48.5888C136.203 47.3097 136.064 45.9022 136.334 44.5443C136.605 43.1865 137.271 41.9392 138.25 40.9602C139.229 39.9813 140.476 39.3146 141.834 39.0445C143.192 38.7744 144.6 38.913 145.879 39.4428C147.158 39.9726 148.251 40.8698 149.02 42.021C149.789 43.1721 150.2 44.5255 150.2 45.91C150.2 47.7665 149.462 49.547 148.15 50.8597C146.837 52.1725 145.057 52.91 143.2 52.91Z" fill="#010101"/>
<path d="M136.19 29.1C137.407 29.0941 138.595 28.7278 139.604 28.0473C140.613 27.3668 141.398 26.4027 141.86 25.2766C142.321 24.1505 142.439 22.9129 142.198 21.7199C141.957 20.527 141.368 19.4322 140.505 18.5737C139.643 17.7152 138.545 17.1315 137.351 16.8962C136.157 16.661 134.92 16.7847 133.796 17.2518C132.672 17.7189 131.712 18.5085 131.036 19.5208C130.361 20.5332 130 21.7229 130 22.94C130.001 23.7511 130.163 24.554 130.474 25.3027C130.786 26.0514 131.243 26.7313 131.818 27.3035C132.393 27.8756 133.075 28.3288 133.825 28.637C134.575 28.9453 135.379 29.1026 136.19 29.1ZM136.19 19.57C136.857 19.57 137.508 19.7676 138.062 20.1379C138.616 20.5082 139.048 21.0346 139.303 21.6503C139.559 22.2661 139.625 22.9437 139.495 23.5974C139.365 24.2512 139.044 24.8516 138.573 25.3229C138.102 25.7942 137.501 26.1152 136.847 26.2452C136.194 26.3753 135.516 26.3085 134.9 26.0535C134.285 25.7984 133.758 25.3665 133.388 24.8123C133.018 24.2581 132.82 23.6065 132.82 22.94C132.82 22.0462 133.175 21.189 133.807 20.557C134.439 19.925 135.296 19.57 136.19 19.57Z" fill="#010101"/>
<path d="M146.51 26.8C146.51 27.6584 146.765 28.4975 147.241 29.2112C147.718 29.9249 148.396 30.4811 149.189 30.8096C149.982 31.1381 150.855 31.2241 151.697 31.0566C152.539 30.8891 153.312 30.4758 153.919 29.8688C154.526 29.2619 154.939 28.4886 155.107 27.6467C155.274 26.8048 155.188 25.9322 154.86 25.1391C154.531 24.3461 153.975 23.6683 153.261 23.1914C152.547 22.7145 151.708 22.46 150.85 22.46C149.7 22.4626 148.597 22.9207 147.784 23.7341C146.971 24.5474 146.513 25.6498 146.51 26.8V26.8ZM152.39 26.8C152.39 27.1046 152.3 27.4023 152.13 27.6556C151.961 27.9088 151.721 28.1062 151.439 28.2228C151.158 28.3393 150.848 28.3698 150.55 28.3104C150.251 28.251 149.976 28.1043 149.761 27.8889C149.546 27.6736 149.399 27.3992 149.34 27.1004C149.28 26.8017 149.311 26.4921 149.427 26.2107C149.544 25.9293 149.741 25.6887 149.994 25.5195C150.248 25.3503 150.545 25.26 150.85 25.26C151.258 25.26 151.65 25.4222 151.939 25.711C152.228 25.9999 152.39 26.3916 152.39 26.8V26.8Z" fill="#010101"/>
<path d="M161.93 12.3C163.076 12.302 164.196 11.9641 165.149 11.3291C166.103 10.6941 166.847 9.79048 167.286 8.73267C167.726 7.67486 167.842 6.51037 167.62 5.38657C167.398 4.26276 166.847 3.23014 166.038 2.4194C165.228 1.60865 164.197 1.05621 163.073 0.831991C161.95 0.607771 160.785 0.721846 159.727 1.15978C158.668 1.59772 157.763 2.33983 157.126 3.29221C156.49 4.24458 156.15 5.36442 156.15 6.51C156.153 8.04306 156.762 9.51273 157.845 10.5977C158.928 11.6827 160.397 12.2947 161.93 12.3V12.3ZM161.93 3.53C162.523 3.53 163.103 3.70594 163.597 4.03559C164.09 4.36523 164.475 4.83377 164.702 5.38195C164.929 5.93012 164.988 6.53332 164.872 7.11527C164.757 7.69721 164.471 8.23176 164.051 8.65131C163.632 9.07087 163.097 9.35659 162.515 9.47235C161.933 9.58811 161.33 9.5287 160.782 9.30163C160.234 9.07457 159.765 8.69005 159.436 8.19671C159.106 7.70336 158.93 7.12334 158.93 6.53C158.93 5.73435 159.246 4.97128 159.809 4.40867C160.371 3.84607 161.134 3.53 161.93 3.53Z" fill="#010101"/>
<path d="M144.44 15.69H146.51V17.76C146.51 18.1313 146.657 18.4874 146.92 18.7499C147.183 19.0125 147.539 19.16 147.91 19.16C148.281 19.16 148.637 19.0125 148.9 18.7499C149.162 18.4874 149.31 18.1313 149.31 17.76V15.69H151.38C151.751 15.69 152.107 15.5425 152.37 15.2799C152.632 15.0174 152.78 14.6613 152.78 14.29C152.78 13.9187 152.632 13.5626 152.37 13.3C152.107 13.0375 151.751 12.89 151.38 12.89H149.31V10.82C149.31 10.4487 149.162 10.0926 148.9 9.83003C148.637 9.56748 148.281 9.41998 147.91 9.41998C147.539 9.41998 147.183 9.56748 146.92 9.83003C146.657 10.0926 146.51 10.4487 146.51 10.82V12.89H144.44C144.069 12.89 143.713 13.0375 143.45 13.3C143.187 13.5626 143.04 13.9187 143.04 14.29C143.04 14.6613 143.187 15.0174 143.45 15.2799C143.713 15.5425 144.069 15.69 144.44 15.69V15.69Z" fill="#010101"/>
</svg>
