<svg width="218" height="291" viewBox="0 0 218 291" fill="none" xmlns="http://www.w3.org/2000/svg">
<path d="M62.36 3.17V3.37C62.36 19.95 58.36 18.96 51.71 31.43C45.45 33.8233 44.45 37.1333 48.71 41.36C50.076 45.3895 52.8253 48.8048 56.47 51C62.21 54 64.1733 58.82 62.36 65.46V75.59C64.47 81.98 71.19 89.09 74.87 94.73C73.25 99.73 65.71 106.03 60.55 110.65C50.7 119.88 52.18 122.53 47.91 130.05C47.6311 130.537 47.2275 130.941 46.7407 131.221C46.2538 131.5 45.7013 131.645 45.14 131.64H34.05C33.4891 131.643 32.9374 131.497 32.4509 131.218C31.9644 130.939 31.5604 130.536 31.28 130.05C27.01 122.53 21.28 119.88 22.54 110.65C22.95 106.03 27.72 99.78 29.35 94.73C25.64 89.07 19 82 16.83 75.54V65.36C18.6233 58.6933 16.6233 53.8633 10.83 50.87C7.13495 48.7402 4.37041 45.305 3.07999 41.24C-1.04001 36.9533 0.0299916 33.62 6.28999 31.24C13 18.85 16.83 19.75 16.83 3.17C16.8527 2.33643 17.194 1.54326 17.7836 0.953622C18.3733 0.363984 19.1664 0.0227117 20 0H26.33C27.153 0.0540211 27.9283 0.405346 28.5115 0.988536C29.0946 1.57173 29.446 2.34702 29.5 3.17C29.5 19.75 25.69 18.85 18.98 31.29C12.72 33.63 11.65 36.9633 15.77 41.29C17.0604 45.355 19.8249 48.7902 23.52 50.92C29.2933 53.9133 31.2933 58.7433 29.52 65.41V75.54C31.62 82 38.31 89.07 42 94.73C41.5992 96.0039 41.1148 97.2499 40.55 98.46C39.17 106.89 35.71 111.96 39.55 118.77C43.55 110.59 53.1 104.16 59.72 98.46C60.8029 97.4175 61.634 96.1418 62.15 94.73C58.5 89.07 51.81 82 49.69 75.54V65.36C51.4833 58.6933 49.4833 53.8633 43.69 50.87C40.0176 48.7288 37.2756 45.2951 36 41.24C31.88 36.9533 32.95 33.62 39.21 31.24C45.88 18.85 49.69 19.75 49.69 3.17C49.7127 2.33643 50.054 1.54326 50.6436 0.953622C51.2333 0.363984 52.0264 0.0227117 52.86 0H59.19C60.0236 0.0227117 60.8167 0.363984 61.4064 0.953622C61.996 1.54326 62.3373 2.33643 62.36 3.17V3.17ZM86.11 12.67C88.71 26.77 75.31 25.53 71.85 36.13C69.24 44.13 80.75 51.88 86.11 59.58H103.33C103.748 59.5746 104.162 59.653 104.549 59.8104C104.936 59.9678 105.288 60.2011 105.583 60.4965C105.879 60.7919 106.112 61.1435 106.27 61.5306C106.427 61.9176 106.505 62.3322 106.5 62.75V69.08C106.48 69.9143 106.139 70.7089 105.549 71.2991C104.959 71.8892 104.164 72.2297 103.33 72.25H86.11C84.75 84.34 95.38 82.9 97.34 92.15C98.92 99.58 89.06 110.68 86.11 118.97H103.33C104.164 118.99 104.959 119.331 105.549 119.921C106.139 120.511 106.48 121.306 106.5 122.14V128.47C106.505 128.888 106.427 129.302 106.27 129.689C106.112 130.076 105.879 130.428 105.583 130.724C105.288 131.019 104.936 131.252 104.549 131.41C104.162 131.567 103.748 131.645 103.33 131.64H79.78C78.9444 131.651 78.1152 131.494 77.3411 131.179C76.5671 130.864 75.8639 130.398 75.273 129.807C74.6821 129.216 74.2155 128.513 73.9007 127.739C73.5859 126.965 73.4292 126.136 73.44 125.3C71.84 117.387 73.81 110.72 79.35 105.3C84.9433 100.513 86.2933 94.62 83.4 87.62L74.4 80.22C73.5981 75.454 73.2632 70.6211 73.4 65.79C73.7834 64.0837 73.7662 62.3117 73.3498 60.6131C72.9334 58.9145 72.1291 57.3355 71 56C68.4748 49.4263 63.5653 44.0455 57.25 40.93C59.3167 37.3633 61.3833 33.7933 63.45 30.22C72.8367 24.5333 76.17 16.57 73.45 6.33C73.4631 4.65522 74.1342 3.05275 75.3185 1.86846C76.5027 0.684182 78.1052 0.0130746 79.78 0H103.33C104.164 0.020297 104.959 0.360794 105.549 0.950942C106.139 1.54109 106.48 2.33565 106.5 3.17V9.5C106.505 9.91778 106.427 10.3324 106.27 10.7194C106.112 11.1065 105.879 11.4581 105.583 11.7535C105.288 12.0489 104.936 12.2822 104.549 12.4396C104.162 12.5971 103.748 12.6754 103.33 12.67H86.11ZM154.76 49.29C163.2 55.82 159.36 61.56 155 65.72C159.36 69.88 159.06 76.72 164.08 81.72C184.22 97.72 159.37 106.94 161.93 128.5C161.935 128.918 161.857 129.332 161.7 129.719C161.542 130.106 161.309 130.458 161.013 130.754C160.718 131.049 160.366 131.282 159.979 131.44C159.592 131.597 159.178 131.675 158.76 131.67H152.43C152.012 131.675 151.598 131.597 151.211 131.44C150.824 131.282 150.472 131.049 150.176 130.754C149.881 130.458 149.648 130.106 149.49 129.719C149.333 129.332 149.255 128.918 149.26 128.5C146.7 106.94 171.55 97.76 151.41 81.72C147 77.33 144.71 72.08 139.16 72.08H129.07C129.443 78.7467 132.203 83.81 137.35 87.27C142.683 89.61 143.263 92.9233 139.09 97.21C136.387 103.83 133.037 110.167 129.09 116.13V128.5C129.067 129.334 128.726 130.127 128.136 130.716C127.547 131.306 126.754 131.647 125.92 131.67H119.59C119.172 131.675 118.758 131.597 118.371 131.44C117.984 131.282 117.632 131.049 117.336 130.754C117.041 130.458 116.808 130.106 116.65 129.719C116.493 129.332 116.415 128.918 116.42 128.5C114.22 120.813 115.683 114.147 120.81 108.5C125.123 103.022 127.635 96.3428 128 89.38C124.88 86.86 121.763 84.3367 118.65 81.81C116.767 77.2532 115.996 72.3138 116.4 67.4C116.965 63.943 116.341 60.3965 114.63 57.34C113.05 50.12 108.437 44.9567 100.79 41.85C102.39 38.1767 103.993 34.51 105.6 30.85C115.667 25.1967 119.267 17.0233 116.4 6.33C116.413 4.65522 117.084 3.05275 118.268 1.86846C119.453 0.684182 121.055 0.0130746 122.73 0H139.16C150.74 0.49 163.49 10.21 160.37 23C146.68 34.58 141.34 36.18 154.76 49.29V49.29ZM147.7 23C152.27 17.26 144.7 12.71 139.16 12.71H129.07C131.7 26.71 118.34 25.55 114.83 36.07C112.13 44.14 123.59 51.79 129.07 59.42H139.16C144.71 59.42 149.26 54.87 142.09 49.33C128.67 36.18 134 34.58 147.7 23V23ZM216.56 3.17C217.42 15.17 216.34 17.55 211 26.23C202.76 39.61 197.06 36.33 209.4 49.29C222.33 57.16 208.77 68.67 200.13 71.29C199.95 78.27 202.593 83.4533 208.06 86.84C213.46 89.06 214.187 92.3933 210.24 96.84C207.801 103.679 204.396 110.134 200.13 116.01V128.55C200.107 129.382 199.768 130.174 199.18 130.763C198.592 131.352 197.802 131.695 196.97 131.72H190.63C190.212 131.725 189.798 131.647 189.411 131.49C189.024 131.332 188.672 131.099 188.376 130.803C188.081 130.508 187.848 130.156 187.69 129.769C187.533 129.382 187.455 128.968 187.46 128.55C187.46 124.37 187.46 120.19 187.46 116.01C191.719 110.132 195.12 103.677 197.56 96.84C201.5 92.42 200.773 89.0867 195.38 86.84C189.913 83.4467 187.27 78.2633 187.45 71.29C176.58 68.12 171.55 56.5 163.66 49.29C151.32 36.29 157.02 39.61 165.26 26.23C170.6 17.55 171.68 15.15 170.83 3.17C170.85 2.33565 171.191 1.54109 171.781 0.950942C172.371 0.360794 173.166 0.020297 174 0H180.34C181.174 0.0227117 181.967 0.363984 182.556 0.953622C183.146 1.54326 183.487 2.33643 183.51 3.17C184.36 15.17 183.28 17.55 177.94 26.23C169.7 39.61 164 36.33 176.34 49.29C183.5 54.83 188.06 59.38 193.8 59.38C199.34 59.38 203.89 54.83 196.73 49.29C184.39 36.29 190.09 39.61 198.33 26.23C203.67 17.55 204.75 15.15 203.89 3.17C203.913 2.33643 204.254 1.54326 204.844 0.953622C205.433 0.363984 206.226 0.0227117 207.06 0H213.4C214.233 0.0228205 215.025 0.36443 215.613 0.954316C216.201 1.5442 216.54 2.33734 216.56 3.17V3.17ZM36.15 187.06C39 184.54 41.24 183.32 44.52 180.82C51.25 175.68 45.14 171.03 39.6 171.03C34.06 171.03 31.06 175.68 24.33 180.82C7.53999 195.82 15.22 192.11 24.43 206.21C29.56 214.06 28.56 214.92 29.5 224.21C29.1185 228.642 29.9263 233.095 31.84 237.11L40.32 245.64C43.56 254.64 35.58 261.14 30.57 267.18C27.34 272.97 34.05 277.36 39.57 277.36C45.09 277.36 47.5 272.97 50.73 267.18C52.44 264.12 54.29 262.51 57.18 259.36C58.93 257.45 61.45 255.97 63.24 255.97H69.57C71.35 255.97 71.57 257.45 69.84 259.36C66.96 262.51 65.11 264.12 63.4 267.18C61.29 279.35 52.27 290.18 39.57 290.03C28.03 289.9 15.9 279.98 17.87 267.18C22.87 261.18 30.87 254.63 27.62 245.64L19.14 237.11C17.2263 233.095 16.4185 228.642 16.8 224.21C15.86 214.95 16.86 214.09 11.73 206.21C2.51999 192.11 -5.16001 195.83 11.63 180.82C20.29 171.3 25 158.13 39.6 158.36C47.18 158.48 70.52 171.2 57.18 180.82C53.91 183.32 51.67 184.54 48.82 187.06C46.93 188.73 44.82 190.06 43.03 190.06H36.69C34.91 190.07 34.26 188.73 36.15 187.06V187.06ZM111.58 181C94.95 196.09 102.89 192.26 112.05 206.35C117.12 214.15 116.05 215.09 116.99 224.27C118.13 235.48 124.78 237.1 127.85 245.65C131.05 254.59 123.04 261.15 118.07 267.14C116 279.37 107 290.16 94.23 290C82.62 289.86 70.37 280.06 72.34 267.15C77.34 261.15 85.34 254.6 82.12 245.66C79.05 237.11 72.41 235.49 71.27 224.28C70.33 215.1 71.39 214.16 66.27 206.36C57.11 192.27 49.17 196.1 65.8 181.01C76.42 172.07 78.6 158.33 94.18 158.36C101.79 158.38 125.39 171.52 111.58 181V181ZM98.91 181C105.96 175.67 99.77 171 94.23 171C88.49 171 85.58 175.65 78.52 181C61.89 196.09 69.83 192.26 78.99 206.35C84.06 214.15 82.99 215.09 83.99 224.27C85.12 235.48 91.77 237.1 94.84 245.65C98.05 254.59 90.03 261.15 85.06 267.14C81.83 272.93 88.54 277.32 94.28 277.32C99.82 277.32 102.22 272.93 105.45 267.14C110.45 261.14 118.45 254.59 115.23 245.65C112.16 237.1 105.51 235.48 104.37 224.27C103.44 215.09 104.5 214.15 99.43 206.35C90.22 192.27 82.28 196.1 98.91 181V181ZM168.19 181C151.56 196.09 159.5 192.26 168.66 206.35C173.73 214.15 172.66 215.09 173.66 224.27C174.79 235.48 181.44 237.1 184.51 245.65C187.72 254.59 179.7 261.15 174.73 267.14C172.67 279.36 163.65 290.14 150.89 289.99C139.28 289.85 127.04 280.05 129 267.14C134 261.14 142 254.59 138.78 245.65C135.71 237.1 129.07 235.48 127.93 224.27C127 215.09 128.06 214.15 122.98 206.35C113.82 192.26 105.88 196.09 122.51 181C133.13 172.06 135.31 158.32 150.89 158.35C158.41 158.38 182 171.52 168.19 181V181ZM155.52 181C162.58 175.67 156.38 171 150.84 171C145.1 171 142.19 175.65 135.13 181C118.5 196.09 126.44 192.26 135.6 206.35C140.68 214.15 139.6 215.09 140.6 224.27C141.74 235.48 148.38 237.1 151.45 245.65C154.66 254.59 146.65 261.15 141.67 267.14C138.44 272.93 145.15 277.32 150.89 277.32C156.43 277.32 158.83 272.93 162.06 267.14C167.06 261.14 175.06 254.59 171.84 245.65C168.77 237.1 162.13 235.48 160.99 224.27C160.05 215.09 161.11 214.15 156.04 206.35C146.83 192.27 138.89 196.1 155.52 181V181ZM217.35 280.49V286.82C217.357 287.237 217.28 287.652 217.123 288.039C216.967 288.426 216.735 288.777 216.44 289.073C216.145 289.369 215.794 289.602 215.408 289.76C215.021 289.917 214.607 289.995 214.19 289.99H190.83C189.994 290.002 189.164 289.846 188.389 289.532C187.615 289.218 186.911 288.751 186.32 288.16C185.729 287.569 185.262 286.865 184.948 286.09C184.634 285.316 184.478 284.486 184.49 283.65C182.137 276.21 183.513 269.877 188.62 264.65C192.772 259.647 195.474 253.601 196.43 247.17L187.2 237.44C184.984 232.804 184.048 227.659 184.49 222.54C184.956 219.103 184.439 215.605 183 212.45C181.8 204.93 177.23 199.497 169.29 196.15C170.543 192.557 171.79 188.963 173.03 185.37C183.697 180.337 187.517 172.39 184.49 161.53C184.513 160.696 184.854 159.903 185.444 159.314C186.033 158.724 186.826 158.383 187.66 158.36H194C194.822 158.416 195.596 158.768 196.179 159.351C196.762 159.934 197.114 160.708 197.17 161.53C199.923 171.463 196.64 179.02 187.32 184.2C185.14 187.533 182.963 190.867 180.79 194.2C180.86 196.3 195.92 212.55 197.17 219.39C197.123 224.157 197.223 228.927 197.47 233.7L205.57 242.97C212.03 256.47 200.04 263.06 197.17 277.29H214.17C215.013 277.308 215.816 277.653 216.409 278.252C217.002 278.851 217.34 279.657 217.35 280.5V280.49Z" fill="#010101"/>
</svg>
