<svg id="Layer_1" data-name="Layer 1" xmlns="http://www.w3.org/2000/svg" viewBox="0 0 203.9 213.77"><defs><style>.cls-1{fill:#010101;}</style></defs><title>Artboard 12</title><path class="cls-1" d="M73.5,192.68h-.17s0,0,0,0Z"/><path class="cls-1" d="M73.33,192.68v-.05l0,.05Z"/><path class="cls-1" d="M194.68,105.8H146.6a2,2,0,1,0,0,4h48.08a2,2,0,0,0,0-4Z"/><path class="cls-1" d="M146.6,95.43a1.94,1.94,0,0,0,.71-.13l34-13a2,2,0,0,0-1.44-3.76l-34,13a2,2,0,0,0,.72,3.89Z"/><path class="cls-1" d="M181.28,133.3l-34-13a2,2,0,0,0-1.43,3.76l34,13a2,2,0,0,0,2.6-1.16A2,2,0,0,0,181.28,133.3Z"/><path class="cls-1" d="M59.32,107.81a2,2,0,0,0-2-2H9.22a2,2,0,0,0,0,4H57.3A2,2,0,0,0,59.32,107.81Z"/><path class="cls-1" d="M22.62,82.33l34,13a1.94,1.94,0,0,0,.71.13A2,2,0,0,0,58,91.54l-34-13a2,2,0,1,0-1.44,3.76Z"/><path class="cls-1" d="M59.18,121.49a2,2,0,0,0-2.59-1.16l-34,13a2,2,0,0,0,.72,3.89,2,2,0,0,0,.72-.13l34-13A2,2,0,0,0,59.18,121.49Z"/><path class="cls-1" d="M155.56,76.72c.29-2,1.19-6.56,2.7-8.08a9.59,9.59,0,0,1,5.38-2.7,9.59,9.59,0,0,1-5.38-2.7c-1.51-1.52-2.41-6.12-2.7-8.08-.29,2-1.19,6.56-2.7,8.08a9.59,9.59,0,0,1-5.38,2.7,9.59,9.59,0,0,1,5.38,2.7C154.37,70.16,155.27,74.75,155.56,76.72Z"/><path class="cls-1" d="M164.5,55.57a4.74,4.74,0,0,1,4-4,4.74,4.74,0,0,1-4-4,4.74,4.74,0,0,1-4,4,4.74,4.74,0,0,1,4,4Z"/><path class="cls-1" d="M62.59,133c-.28,2-1.18,6.11-2.7,7.63a9.55,9.55,0,0,1-5.38,2.7,9.55,9.55,0,0,1,5.38,2.7c1.52,1.52,2.42,5.21,2.7,7.18.29-2,1.19-5.66,2.71-7.18a9.55,9.55,0,0,1,5.38-2.7,9.55,9.55,0,0,1-5.38-2.7C63.78,139.13,62.88,135,62.59,133Z"/><path class="cls-1" d="M53.66,154.17a4.83,4.83,0,0,1-1.34,2.67,4.77,4.77,0,0,1-2.67,1.34,4.74,4.74,0,0,1,4,4,4.74,4.74,0,0,1,4-4A4.71,4.71,0,0,1,55,156.84,4.77,4.77,0,0,1,53.66,154.17Z"/><path class="cls-1" d="M45.72,148.19A1.79,1.79,0,1,0,47.51,150,1.79,1.79,0,0,0,45.72,148.19Z"/><path class="cls-1" d="M134.09,37.36c-6-1.9-6.41,18-6.45,21,0,1.94.94,16.66-1.81,16.53-1.53-.08-1.58-16.52-.3-28.52s5.59-26-.11-27.58-6.61,11.75-7.13,17.45c-.87,9.42-2.91,18.72-3,28.22,0,5-.61,6.15-1.76,5.56-3-1.53-1.68-10.74-1.53-13,.8-11.74,3.75-23.24,5.83-34.79.55-3,2.76-11.34-1.72-12.65-5.87-1.71-5.84,4.66-6.67,7.21-1.86,5.67-2.61,11.92-3.71,17.77-1.49,8-3,15.77-3,23.91,0,1.13.21,5.76-1.45,6-5.65,1,2.23-35.81,3-39.24.61-2.74,2.32-9.36-1.29-10.86-3.23-1.35-6.23,2-9,12.1s-7.42,28.88-8.26,47.82c0,4.25-.91,4.08-1.08,4s-2.13-4.26-2-13-3.4-19.29-9-19.52-2.41,3.25-2.23,9.06-3.59,40.83,1.71,55.07c4.24,11.4,6.36,17.67,11.84,26.4-2.77,21-11.5,54.69-11.69,56.41l.16-.16h.16c14.22,9.14,25.27,12.09,33.61,12.09,13.27,0,19.68-7.47,21.11-9.39l-.15.22.22-.32.25-.35h0l-.31-.26-8.89-50.52a52.93,52.93,0,0,0,10.08-13.16c7.77-15.13,8.05-33.69,6.24-56.19S139.67,39.11,134.09,37.36ZM107.26,201.41c-8.33,0-17.9-3.19-28.52-9.49a32.28,32.28,0,0,1,19.69-7c8.39,0,17.06,3.45,25.78,10.24C121.66,197.62,116.28,201.41,107.26,201.41ZM97.52,107.6a3.55,3.55,0,1,1,3.55,3.55A3.55,3.55,0,0,1,97.52,107.6Zm9.7,7.53A9.73,9.73,0,1,0,92,111.06a39.69,39.69,0,0,1-8.21-7.26s9.33-11.53,20.84-11.53,20.84,11.53,20.84,11.53S117.49,113.62,107.22,115.13Z"/></svg>