<svg width="149" height="150" viewBox="0 0 149 150" fill="none" xmlns="http://www.w3.org/2000/svg">
<path d="M12.75 74.85C12.9824 74.8515 13.212 74.901 13.4244 74.9952C13.6369 75.0895 13.8276 75.2265 13.9847 75.3979C14.1417 75.5692 14.2618 75.771 14.3373 75.9908C14.4128 76.2106 14.4422 76.4437 14.4236 76.6753C14.4049 76.907 14.3387 77.1323 14.2291 77.3373C14.1194 77.5422 13.9687 77.7223 13.7863 77.8663C13.6039 78.0104 13.3937 78.1152 13.169 78.1743C12.9442 78.2335 12.7097 78.2456 12.48 78.21L11.36 78.12C11.2909 78.1131 11.2211 78.1202 11.1547 78.1408C11.0884 78.1613 11.0268 78.195 10.9737 78.2397C10.9206 78.2845 10.8769 78.3394 10.8454 78.4013C10.8138 78.4631 10.795 78.5307 10.79 78.6L10.7 79.66C10.6945 79.7296 10.7029 79.7997 10.7246 79.8661C10.7463 79.9325 10.7809 79.9939 10.8265 80.0469C10.872 80.0999 10.9276 80.1433 10.99 80.1747C11.0523 80.2062 11.1203 80.2249 11.19 80.23L12.31 80.32C13.3152 80.4009 14.3113 80.0792 15.0793 79.4256C15.8472 78.772 16.3241 77.8402 16.405 76.835C16.4859 75.8298 16.1642 74.8337 15.5106 74.0657C14.857 73.2978 13.9252 72.8209 12.92 72.74C11.87 72.65 11.87 72.65 10.75 73.36L4.30999 77.45C4.17999 77.53 4.17999 77.53 3.74999 77.45C3.50269 77.4784 3.25217 77.4518 3.01634 77.3721C2.78052 77.2924 2.5652 77.1616 2.3858 76.989C2.2064 76.8164 2.06733 76.6064 1.97855 76.3738C1.88976 76.1412 1.85344 75.892 1.87219 75.6437C1.89093 75.3955 1.96429 75.1545 2.087 74.9379C2.20971 74.7213 2.37875 74.5345 2.58204 74.3909C2.78532 74.2472 3.01784 74.1502 3.26296 74.1069C3.50808 74.0635 3.75976 74.0748 3.99999 74.14L5.12 74.23C5.18991 74.2369 5.26048 74.2295 5.32746 74.2083C5.39444 74.1871 5.45644 74.1526 5.50971 74.1068C5.56297 74.061 5.60641 74.0049 5.6374 73.9419C5.66838 73.8788 5.68628 73.8101 5.69 73.74L5.78 72.74C5.78685 72.6701 5.77947 72.5995 5.75829 72.5325C5.73712 72.4656 5.70259 72.4036 5.6568 72.3503C5.61101 72.297 5.5549 72.2536 5.49185 72.2226C5.42881 72.1916 5.36014 72.1737 5.29 72.17L4.19 72C3.18482 71.9191 2.18869 72.2408 1.42073 72.8944C0.652766 73.548 0.175886 74.4798 0.094995 75.485C0.0141039 76.4902 0.335828 77.4863 0.989393 78.2543C1.64296 79.0222 2.57482 79.4991 3.57999 79.58C4.62999 79.66 4.62999 79.66 5.74999 78.96L12.18 74.87C12.32 74.81 12.32 74.81 12.75 74.85V74.85Z" fill="#010101"/>
<path d="M1.49 67.94L2.49 68.17C2.5583 68.1847 2.62882 68.1857 2.69752 68.173C2.76621 68.1603 2.83171 68.1341 2.89026 68.096C2.9488 68.0579 2.99924 68.0086 3.03867 67.9509C3.0781 67.8933 3.10574 67.8284 3.12 67.76L3.44 66.31L16.85 69.22C16.9872 69.242 17.1276 69.2122 17.244 69.1364C17.3604 69.0606 17.4445 68.9443 17.48 68.81L17.7 67.81C17.7244 67.6726 17.6955 67.531 17.6194 67.414C17.5433 67.2971 17.4255 67.2134 17.29 67.18L3.89 64.27L4.2 62.82C4.21618 62.7523 4.2186 62.6821 4.20713 62.6134C4.19566 62.5448 4.17053 62.4792 4.13323 62.4204C4.09593 62.3617 4.04722 62.311 3.98998 62.2714C3.93274 62.2318 3.86813 62.2042 3.8 62.19L2.8 61.96C2.7317 61.9453 2.66118 61.9443 2.59249 61.957C2.52379 61.9697 2.45829 61.9959 2.39974 62.034C2.3412 62.0721 2.29076 62.1214 2.25133 62.1791C2.2119 62.2367 2.18426 62.3016 2.17 62.37L1.09 67.37C1.07438 67.4977 1.10663 67.6266 1.1805 67.7318C1.25438 67.8371 1.36464 67.9113 1.49 67.94V67.94Z" fill="#010101"/>
<path d="M7.3 57.91L18.52 62.18C18.5843 62.2057 18.653 62.2183 18.7222 62.2171C18.7915 62.2159 18.8597 62.2009 18.9231 62.173C18.9864 62.145 19.0435 62.1047 19.0911 62.0544C19.1386 62.0041 19.1757 61.9448 19.2 61.88L19.58 60.88C19.629 60.7473 19.624 60.6007 19.566 60.4717C19.508 60.3426 19.4017 60.2415 19.27 60.19L13.12 57.85L14.33 54.67L20.48 57C20.5448 57.027 20.6144 57.0403 20.6845 57.0391C20.7546 57.0379 20.8238 57.0223 20.8876 56.9932C20.9514 56.9641 21.0085 56.9222 21.0554 56.87C21.1023 56.8178 21.1379 56.7566 21.16 56.69L21.54 55.69C21.589 55.5573 21.584 55.4107 21.526 55.2816C21.468 55.1526 21.3617 55.0515 21.23 55L10 50.78C9.0545 50.4206 8.00497 50.4516 7.0823 50.866C6.15962 51.2805 5.43937 52.0445 5.08 52.99C4.72063 53.9355 4.75158 54.985 5.16604 55.9077C5.58049 56.8304 6.34451 57.5506 7.29 57.91H7.3ZM7.09 53.73C7.24526 53.3097 7.56106 52.9683 7.96798 52.7808C8.3749 52.5932 8.83963 52.575 9.26 52.73L12.35 53.91L11.14 57.09L8.05 55.92C7.63554 55.7528 7.303 55.43 7.12358 55.0207C6.94415 54.6114 6.9321 54.1481 7.09 53.73V53.73Z" fill="#010101"/>
<path d="M9.23999 44.59L13.44 47C14.1539 47.421 14.9858 47.5971 15.8091 47.5014C16.6323 47.4057 17.4017 47.0435 18 46.47L23.86 49.88C23.9815 49.9468 24.1239 49.9643 24.258 49.929C24.392 49.8936 24.5073 49.808 24.58 49.69L25.11 48.77C25.1744 48.648 25.1906 48.5063 25.1554 48.373C25.1202 48.2396 25.0362 48.1243 24.92 48.05L19.06 44.64C19.2593 43.8391 19.1924 42.995 18.8695 42.2355C18.5465 41.4759 17.9851 40.8421 17.27 40.43L13.08 38C12.9564 37.931 12.8106 37.9133 12.6741 37.9507C12.5376 37.9881 12.4212 38.0776 12.35 38.2L11.82 39.11C11.7843 39.1695 11.7609 39.2356 11.7511 39.3043C11.7414 39.373 11.7455 39.443 11.7632 39.5101C11.7809 39.5772 11.8119 39.64 11.8542 39.695C11.8966 39.7499 11.9496 39.7958 12.01 39.83L16.22 42.28C16.4313 42.3825 16.619 42.5276 16.7714 42.7062C16.9238 42.8848 17.0375 43.0931 17.1055 43.3179C17.1734 43.5426 17.194 43.779 17.166 44.0122C17.138 44.2453 17.0621 44.4701 16.9429 44.6724C16.8237 44.8747 16.6639 45.0501 16.4736 45.1876C16.2833 45.3251 16.0665 45.4217 15.837 45.4713C15.6075 45.5208 15.3702 45.5223 15.1401 45.4756C14.91 45.429 14.692 45.3351 14.5 45.2L10.3 42.76C10.2405 42.7243 10.1744 42.7009 10.1057 42.6912C10.037 42.6814 9.96703 42.6855 9.89993 42.7032C9.83283 42.7209 9.76996 42.7519 9.71501 42.7943C9.66006 42.8366 9.61415 42.8896 9.57999 42.95L9.04999 43.86C9.01408 43.9203 8.9905 43.9871 8.98062 44.0566C8.97074 44.1261 8.97475 44.1968 8.99243 44.2647C9.0101 44.3326 9.04109 44.3963 9.08359 44.4522C9.12608 44.508 9.17925 44.5549 9.23999 44.59V44.59Z" fill="#010101"/>
<path d="M31.53 38.67C31.5792 38.7193 31.6377 38.7584 31.702 38.7851C31.7664 38.8117 31.8353 38.8255 31.905 38.8255C31.9747 38.8255 32.0436 38.8117 32.108 38.7851C32.1723 38.7584 32.2308 38.7193 32.28 38.67L33.02 37.91C33.0702 37.8624 33.1102 37.805 33.1376 37.7414C33.1649 37.6778 33.179 37.6092 33.179 37.54C33.179 37.4708 33.1649 37.4023 33.1376 37.3386C33.1102 37.275 33.0702 37.2177 33.02 37.17L28.3 32.53L30.67 30.12L35.38 34.76C35.4818 34.8549 35.6158 34.9077 35.755 34.9077C35.8942 34.9077 36.0282 34.8549 36.13 34.76L36.87 34C36.9205 33.9515 36.9607 33.8932 36.9882 33.8288C37.0156 33.7644 37.0298 33.695 37.0298 33.625C37.0298 33.555 37.0156 33.4856 36.9882 33.4212C36.9607 33.3568 36.9205 33.2985 36.87 33.25L26 22.52C25.9523 22.4698 25.895 22.4298 25.8314 22.4024C25.7677 22.3751 25.6992 22.361 25.63 22.361C25.5608 22.361 25.4922 22.3751 25.4286 22.4024C25.365 22.4298 25.3076 22.4698 25.26 22.52L24.51 23.28C24.4151 23.3818 24.3623 23.5158 24.3623 23.655C24.3623 23.7942 24.4151 23.9282 24.51 24.03L29.2 28.64L26.79 31L22.11 26.39C22.0615 26.3395 22.0032 26.2993 21.9388 26.2718C21.8744 26.2444 21.805 26.2302 21.735 26.2302C21.665 26.2302 21.5956 26.2444 21.5312 26.2718C21.4667 26.2993 21.4085 26.3395 21.36 26.39L20.61 27.14C20.5607 27.1892 20.5216 27.2477 20.4949 27.312C20.4683 27.3764 20.4545 27.4453 20.4545 27.515C20.4545 27.5847 20.4683 27.6536 20.4949 27.718C20.5216 27.7823 20.5607 27.8408 20.61 27.89L31.53 38.67Z" fill="#010101"/>
<path d="M37.42 28.34C37.7044 28.7699 38.0728 29.1377 38.5031 29.4214C38.9334 29.7051 39.4166 29.8989 39.9237 29.9909C40.4309 30.0829 40.9514 30.0714 41.4539 29.957C41.9565 29.8426 42.4307 29.6276 42.8479 29.3251C43.2652 29.0226 43.617 28.6388 43.8821 28.1968C44.1471 27.7547 44.32 27.2636 44.3902 26.753C44.4605 26.2425 44.4267 25.7229 44.2909 25.2257C44.1551 24.7285 43.9201 24.264 43.6 23.86L36.6 14.14C36.5594 14.0832 36.5078 14.0351 36.4482 13.9987C36.3887 13.9623 36.3224 13.9382 36.2533 13.9279C36.1843 13.9177 36.1139 13.9214 36.0463 13.939C35.9787 13.9565 35.9153 13.9875 35.86 14.03L35 14.65C34.9438 14.6898 34.8962 14.7403 34.8597 14.7987C34.8232 14.857 34.7987 14.922 34.7875 14.9899C34.7764 15.0578 34.7788 15.1273 34.7947 15.1942C34.8105 15.2612 34.8395 15.3243 34.88 15.38L41.88 25.1C42.0113 25.2812 42.1057 25.4865 42.1576 25.7042C42.2096 25.9219 42.2182 26.1477 42.1829 26.3687C42.1476 26.5897 42.0691 26.8016 41.952 26.9923C41.8348 27.1829 41.6812 27.3487 41.5 27.48C41.3188 27.6113 41.1134 27.7057 40.8958 27.7576C40.6781 27.8096 40.4523 27.8182 40.2313 27.7829C40.0103 27.7476 39.7984 27.6692 39.6077 27.552C39.417 27.4348 39.2513 27.2812 39.12 27.1L32.12 17.38C32.0802 17.3239 32.0297 17.2762 31.9713 17.2397C31.913 17.2032 31.848 17.1787 31.7801 17.1675C31.7122 17.1564 31.6427 17.1588 31.5758 17.1747C31.5088 17.1905 31.4457 17.2195 31.39 17.26L30.53 17.88C30.4201 17.9653 30.3467 18.0891 30.3244 18.2264C30.3021 18.3637 30.3327 18.5043 30.41 18.62L37.42 28.34Z" fill="#010101"/>
<path d="M48.37 24.75C48.4361 24.8723 48.5461 24.9651 48.6778 25.0096C48.8095 25.0542 48.9532 25.0472 49.08 24.99L50.08 24.52C50.2041 24.4557 50.2985 24.3458 50.3432 24.2134C50.388 24.081 50.3797 23.9364 50.32 23.81L44.93 13C44.8064 12.6143 44.8246 12.1971 44.9813 11.8236C45.138 11.4502 45.4228 11.1449 45.7846 10.9628C46.1464 10.7807 46.5613 10.7337 46.9546 10.8304C47.3479 10.9271 47.6938 11.161 47.93 11.49L53.32 22.3C53.3861 22.4223 53.4961 22.5151 53.6278 22.5597C53.7595 22.6042 53.9032 22.5972 54.03 22.54L55.03 22.07C55.1523 22.0039 55.2451 21.8939 55.2897 21.7622C55.3342 21.6305 55.3272 21.4868 55.27 21.36L49.87 10.58C49.4165 9.66898 48.6196 8.97543 47.6548 8.65193C46.6899 8.32843 45.636 8.40148 44.725 8.855C43.814 9.30852 43.1204 10.1054 42.7969 11.0702C42.4734 12.0351 42.5465 13.089 43 14L48.37 24.75Z" fill="#010101"/>
<path d="M57.37 17C57.6617 17.9654 58.325 18.7753 59.2139 19.2517C60.1029 19.728 61.1446 19.8317 62.11 19.54C63.0754 19.2483 63.8853 18.585 64.3617 17.6961C64.838 16.8071 64.9417 15.7654 64.65 14.8L63.21 10C63.1906 9.93306 63.158 9.8707 63.114 9.81662C63.0701 9.76255 63.0157 9.71786 62.9541 9.68521C62.8926 9.65256 62.8251 9.63262 62.7556 9.62657C62.6862 9.62052 62.6163 9.62849 62.55 9.65L59.93 10.44C59.8629 10.4595 59.8003 10.4921 59.7459 10.5359C59.6914 10.5797 59.6462 10.6338 59.6127 10.6951C59.5793 10.7565 59.5583 10.8238 59.5509 10.8933C59.5436 10.9628 59.5501 11.033 59.57 11.1L59.88 12.1C59.9234 12.2292 60.0159 12.3362 60.1375 12.398C60.2591 12.4597 60.4 12.4712 60.53 12.43L61.64 12.09L62.64 15.35C62.7726 15.777 62.7302 16.2392 62.522 16.6349C62.3138 17.0306 61.957 17.3274 61.53 17.46C61.103 17.5926 60.6408 17.5502 60.2451 17.342C59.8494 17.1338 59.5526 16.777 59.42 16.35L56.86 8C56.7274 7.57168 56.7704 7.10822 56.9795 6.71158C57.1886 6.31494 57.5467 6.01761 57.975 5.885C58.4033 5.75239 58.8668 5.79537 59.2634 6.00447C59.6601 6.21357 59.9574 6.57168 60.09 7L60.41 8.08C60.4515 8.21366 60.5442 8.32548 60.6678 8.39105C60.7915 8.45663 60.9361 8.47063 61.07 8.43L62.07 8.13C62.1371 8.11049 62.1997 8.0779 62.2541 8.03412C62.3086 7.99033 62.3538 7.93622 62.3873 7.87488C62.4207 7.81354 62.4417 7.74619 62.4491 7.6767C62.4564 7.60722 62.4499 7.53697 62.43 7.47L62.1 6.39C61.9555 5.91199 61.7183 5.46711 61.402 5.08076C61.0856 4.69442 60.6962 4.37417 60.256 4.13831C59.8159 3.90245 59.3336 3.7556 58.8367 3.70613C58.3398 3.65666 57.838 3.70555 57.36 3.85C56.882 3.99445 56.4371 4.23165 56.0508 4.54803C55.6644 4.86442 55.3442 5.2538 55.1083 5.69395C54.8724 6.1341 54.7256 6.61639 54.6761 7.1133C54.6266 7.6102 54.6755 8.11199 54.82 8.59L57.37 17Z" fill="#010101"/>
<path d="M68.23 17.21C68.2522 17.3462 68.3257 17.4687 68.4355 17.5524C68.5452 17.6361 68.6828 17.6746 68.82 17.66L69.87 17.52C70.0041 17.4935 70.1238 17.4189 70.2067 17.3102C70.2896 17.2016 70.3299 17.0663 70.32 16.93L69.43 10.37L71.11 10.15C71.3286 10.1204 71.551 10.1342 71.7643 10.1906C71.9776 10.247 72.1778 10.3448 72.3533 10.4785C72.5288 10.6122 72.6762 10.7792 72.7872 10.9699C72.8981 11.1606 72.9705 11.3713 73 11.59L73.66 16.47C73.6823 16.6088 73.7568 16.7339 73.8684 16.8194C73.98 16.905 74.1201 16.9446 74.26 16.93L75.26 16.78C75.3962 16.7578 75.5187 16.6843 75.6024 16.5745C75.6861 16.4648 75.7246 16.3272 75.71 16.19L75.05 11.31C74.9861 10.8004 74.8183 10.3093 74.5568 9.86719C74.2953 9.42511 73.9458 9.04145 73.53 8.74C73.8497 8.33467 74.0837 7.86861 74.2178 7.37009C74.3519 6.87158 74.3832 6.35101 74.31 5.84L74.09 4.26C73.9579 3.27029 73.4405 2.37271 72.6503 1.76229C71.8601 1.15187 70.861 0.877932 69.87 1L67.15 1.37C67.0087 1.3801 66.8712 1.42009 66.7466 1.48732C66.6219 1.55455 66.513 1.6475 66.4269 1.76001C66.3409 1.87251 66.2797 2.00201 66.2475 2.13992C66.2153 2.27783 66.2127 2.42102 66.24 2.56L68.23 17.21ZM70.15 3.1C70.5938 3.04302 71.0421 3.1633 71.3978 3.43474C71.7535 3.70619 71.9878 4.10691 72.05 4.55L72.26 6.12C72.2925 6.34133 72.2811 6.5669 72.2263 6.78379C72.1715 7.00067 72.0744 7.20461 71.9406 7.38391C71.8068 7.56321 71.639 7.71434 71.4467 7.82864C71.2544 7.94294 71.0414 8.01817 70.82 8.05L69.15 8.28L68.48 3.33L70.15 3.1Z" fill="#010101"/>
<path d="M81.76 9.25L81.57 16C81.5698 16.1382 81.6225 16.2712 81.7174 16.3716C81.8123 16.4721 81.942 16.5323 82.08 16.54H83.14C83.2774 16.5379 83.4091 16.4843 83.5091 16.3899C83.609 16.2955 83.67 16.1671 83.68 16.03L83.87 9.25C84.6703 9.04192 85.3811 8.57914 85.8952 7.93152C86.4094 7.28391 86.6988 6.48661 86.72 5.66L86.85 0.799999C86.8541 0.730545 86.8439 0.660987 86.8201 0.595606C86.7963 0.530225 86.7594 0.470403 86.7116 0.419821C86.6639 0.369239 86.6063 0.328966 86.5423 0.301481C86.4784 0.273996 86.4096 0.259879 86.34 0.259999H85.28C85.2105 0.255907 85.141 0.266068 85.0756 0.289859C85.0102 0.31365 84.9504 0.350567 84.8998 0.398339C84.8492 0.446111 84.8089 0.503728 84.7815 0.567644C84.754 0.63156 84.7399 0.700424 84.74 0.769999L84.6 5.66C84.588 6.11087 84.3975 6.53853 84.0702 6.8489C83.743 7.15927 83.3059 7.32693 82.855 7.315C82.4041 7.30306 81.9765 7.11251 81.6661 6.78526C81.3557 6.45801 81.188 6.02087 81.2 5.57L81.33 0.709999C81.334 0.640065 81.3239 0.570032 81.3002 0.504106C81.2765 0.438179 81.2398 0.377718 81.1922 0.326351C81.1445 0.274984 81.087 0.23377 81.023 0.205184C80.9591 0.176598 80.89 0.161229 80.82 0.159999H79.76C79.69 0.157307 79.6203 0.168766 79.5548 0.193691C79.4894 0.218615 79.4297 0.256491 79.3793 0.305048C79.3289 0.353605 79.2888 0.411844 79.2614 0.476274C79.234 0.540703 79.2199 0.609996 79.22 0.679999L79.08 5.54C79.0613 6.36599 79.313 7.17547 79.7968 7.8452C80.2805 8.51494 80.9699 9.00824 81.76 9.25V9.25Z" fill="#010101"/>
<path d="M45.38 85.58C43.3985 87.2648 41.8891 89.4358 41 91.88C40.8562 92.3319 40.7426 92.793 40.66 93.26L39.17 101.26C38.9946 102.186 38.9643 103.134 39.08 104.07C39.2602 105.538 39.8532 106.925 40.79 108.07C41.6112 109.028 42.6362 109.79 43.79 110.3C44.8233 110.76 45.9076 111.096 47.02 111.3C48.9125 111.564 50.7862 111.948 52.63 112.45C55.45 113.45 57.77 115.95 59.8 118.72C61.83 121.49 63.74 124.72 66.67 127.33C70.2727 130.469 74.8914 132.196 79.67 132.19C84.396 132.154 88.9734 130.535 92.67 127.59C96.5602 124.502 99.283 120.182 100.39 115.34C100.45 115.07 100.5 114.79 100.56 114.51L102.04 106.51C102.9 101.896 102.24 97.1275 100.16 92.92C97.7991 88.3754 94.1176 84.6521 89.6 82.24C87.8676 81.2846 86.0538 80.4848 84.18 79.85L89.35 70L107.48 35.34C107.554 35.198 107.6 35.0427 107.613 34.883C107.627 34.7234 107.609 34.5626 107.56 34.41C107.463 34.1002 107.247 33.8414 106.96 33.69L102.8 31.51C99.01 29.51 95.8 28.97 93.36 29.84C92.6867 30.0574 92.0638 30.4075 91.528 30.8695C90.9921 31.3315 90.5542 31.8961 90.24 32.53C90.1664 32.7004 90.1326 32.8854 90.1413 33.0708C90.15 33.2562 90.2008 33.4372 90.29 33.6C91.92 36.6 90.5 37.94 90.35 38.07L90.2 38.21C84.04 45.09 79.76 55.21 79.58 55.67V55.74C78.8074 58.0049 78.3138 60.3556 78.11 62.74L75 61.06C74.8576 60.9854 74.7019 60.9396 74.5417 60.9254C74.3816 60.9111 74.2202 60.9286 74.0669 60.977C73.9136 61.0253 73.7713 61.1034 73.6483 61.2069C73.5252 61.3104 73.4239 61.4372 73.35 61.58L69.41 69C67.9847 71.7156 66.7549 74.5294 65.73 77.42C63.6864 77.545 61.6564 77.836 59.66 78.29C54.3487 79.4416 49.4279 81.9537 45.38 85.58V85.58ZM94.06 41.45C94.2267 41.1257 94.4861 40.8583 94.8051 40.6817C95.1241 40.5051 95.4884 40.4272 95.8517 40.458C96.215 40.4888 96.561 40.6268 96.8458 40.8546C97.1305 41.0824 97.3411 41.3896 97.4509 41.7373C97.5607 42.085 97.5648 42.4575 97.4625 42.8075C97.3602 43.1575 97.1562 43.4692 96.8765 43.7031C96.5967 43.937 96.2538 44.0825 95.8912 44.1211C95.5286 44.1597 95.1627 44.0897 94.84 43.92C94.4107 43.6942 94.0878 43.3081 93.9418 42.8455C93.7957 42.3829 93.8382 41.8814 94.06 41.45V41.45ZM90.54 124.94C87.4359 127.408 83.5955 128.767 79.63 128.8C75.6892 128.797 71.8808 127.378 68.9 124.8C66.49 122.67 64.68 119.69 62.52 116.73C60.36 113.77 57.63 110.67 53.75 109.27C51.7577 108.683 49.721 108.258 47.66 108C46.8097 107.845 45.9806 107.59 45.19 107.24C44.5095 106.936 43.9024 106.489 43.41 105.93C42.8925 105.278 42.5639 104.496 42.46 103.67C42.3594 102.776 42.4585 101.871 42.75 101.02C42.781 100.904 42.8212 100.79 42.87 100.68C43.5673 101.337 44.368 101.874 45.24 102.27C46.2735 102.73 47.3577 103.065 48.47 103.27C50.3635 103.528 52.2376 103.912 54.08 104.42C56.9 105.42 59.23 107.91 61.25 110.68C63.27 113.45 65.25 116.68 68.13 119.29C71.7284 122.437 76.3499 124.164 81.13 124.15C85.8546 124.116 90.4317 122.5 94.13 119.56C94.74 119.07 95.32 118.56 95.88 118C94.6814 120.708 92.85 123.088 90.54 124.94V124.94ZM85.54 57.74C85.7089 57.4173 85.9699 57.152 86.2897 56.9777C86.6095 56.8034 86.9739 56.728 87.3366 56.761C87.6994 56.7939 88.0442 56.9338 88.3274 57.1629C88.6106 57.392 88.8194 57.7 88.9274 58.0478C89.0354 58.3957 89.0377 58.7678 88.9341 59.1169C88.8304 59.4661 88.6255 59.7767 88.3452 60.0093C88.0649 60.2419 87.7219 60.3861 87.3596 60.4236C86.9973 60.4611 86.632 60.3903 86.31 60.22C86.096 60.1083 85.9062 59.9555 85.7516 59.7701C85.5969 59.5848 85.4805 59.3707 85.4089 59.1402C85.3373 58.9097 85.3121 58.6673 85.3346 58.427C85.3571 58.1867 85.4269 57.9532 85.54 57.74ZM80.44 66.69L86.6 69.92L72.33 97.19C71.2651 95.9897 70.3268 94.6828 69.53 93.29C72.2902 84.0886 75.9443 75.1795 80.44 66.69ZM82.23 100.05C85.38 100.63 87.58 103.05 87.15 105.35C86.72 107.65 83.81 109.11 80.66 108.53C77.51 107.95 75.31 105.53 75.74 103.23C76.18 100.89 79.08 99.46 82.23 100.05ZM71.58 70.17L74.91 63.8L78.27 65.56C73.9346 73.7415 70.3692 82.3084 67.62 91.15C66.81 90.6774 65.9285 90.3396 65.01 90.15C66.0821 83.173 68.3021 76.4217 71.58 70.17V70.17ZM64.57 81C64.23 82.1267 63.92 83.2667 63.64 84.42C62.8 84.53 61.96 84.67 61.14 84.86C56.967 85.7402 53.0919 87.6829 49.89 90.5C48.7773 91.4264 47.9029 92.6061 47.34 93.94C47.2017 94.3343 47.1505 94.754 47.19 95.17C47.2169 95.381 47.2922 95.5829 47.41 95.76C47.5984 95.9493 47.8228 96.0989 48.07 96.2C48.6268 96.4432 49.2111 96.6178 49.81 96.72C52.0318 96.9942 54.2241 97.4695 56.36 98.14C61.24 99.91 64.36 103.58 66.64 106.75C68.92 109.92 70.64 112.61 72.55 114.29C74.9358 116.34 77.9747 117.471 81.12 117.48C84.3496 117.439 87.4749 116.331 90.01 114.33C92.7155 112.202 94.6065 109.207 95.3658 105.85C96.1251 102.492 95.7064 98.9755 94.18 95.89C92.3992 92.57 89.6745 89.8523 86.35 88.08C84.6498 87.1512 82.8566 86.4037 81 85.85L82.54 82.92C84.3959 83.5182 86.1907 84.2917 87.9 85.23C91.807 87.3131 94.9982 90.5217 97.06 94.44C98.9179 98.1934 99.4291 102.471 98.5078 106.557C97.5866 110.642 95.2889 114.287 92 116.88C88.8937 119.344 85.0547 120.702 81.09 120.74C77.1486 120.741 73.3389 119.321 70.36 116.74C67.96 114.62 66.14 111.64 63.98 108.68C61.82 105.72 59.09 102.62 55.22 101.21C53.2264 100.625 51.1902 100.197 49.13 99.93C48.2808 99.7699 47.4523 99.515 46.66 99.17C45.974 98.8662 45.363 98.4156 44.87 97.85C44.3771 97.1913 44.076 96.4092 44 95.59C43.9008 94.6968 43.9963 93.7927 44.28 92.94C45.0031 91.064 46.186 89.3997 47.72 88.1C51.3389 84.8887 55.7283 82.6699 60.46 81.66C61.8161 81.3607 63.1884 81.1403 64.57 81V81Z" fill="#010101"/>
<path d="M134.09 37.26C124.962 25.3142 112.258 16.5943 97.83 12.37C97.5562 12.3075 97.2688 12.3522 97.0268 12.4948C96.7849 12.6374 96.6066 12.8671 96.5286 13.137C96.4506 13.4068 96.4788 13.6962 96.6073 13.9459C96.7359 14.1956 96.9551 14.3867 97.22 14.48C111.19 18.5823 123.491 27.027 132.34 38.59C138.613 46.7966 142.934 56.3244 144.975 66.4503C147.016 76.5762 146.723 87.034 144.119 97.0299C141.515 107.026 136.668 116.297 129.945 124.14C123.223 131.983 114.802 138.191 105.322 142.293C95.8422 146.396 85.5522 148.284 75.2332 147.816C64.9143 147.348 54.8377 144.535 45.7682 139.591C36.6988 134.647 28.8749 127.701 22.8904 119.282C16.9059 110.863 12.9182 101.191 11.23 91C11.1822 90.7109 11.0216 90.4526 10.7835 90.282C10.5453 90.1113 10.2491 90.0423 9.95998 90.09C9.6709 90.1377 9.41262 90.2984 9.24196 90.5365C9.0713 90.7747 9.00225 91.0709 9.04998 91.36C11.9527 108.728 21.2789 124.369 35.1778 135.18C49.0766 145.991 66.5321 151.181 84.0798 149.721C101.628 148.26 117.985 140.256 129.905 127.296C141.826 114.336 148.438 97.3684 148.43 79.76C148.477 64.3981 143.434 49.4532 134.09 37.26V37.26Z" fill="#010101"/>
</svg>
