<svg id="Layer_1" data-name="Layer 1" xmlns="http://www.w3.org/2000/svg" viewBox="0 0 220 220"><defs><style>.cls-1{fill:#010101;}</style></defs><title>Artboard 16 copy</title><path class="cls-1" d="M218.88,177.3a6,6,0,0,1-5.87,6h-.08a6,6,0,0,1-6-5.87l-.43-32.66a96.77,96.77,0,0,0-193.53,0l.43,32.54a6,6,0,0,1-5.87,6H7.5a5.94,5.94,0,0,1-5.94-5.87L1.12,144.8a108.66,108.66,0,0,1,217.32,0ZM174.52,80.65c-16.54-17.54-39.4-27.2-64.37-27.2-25.38,0-48.41,9.16-64.85,25.78-17.49,17.7-26.83,42.7-27,72.29l.37,25.82a5.95,5.95,0,0,0,11.89-.17l-.36-25.64c.16-26.39,8.31-48.5,23.56-63.94C67.94,73.25,88,65.35,110.15,65.35c45.81,0,78.41,35.76,79.29,87l.36,25.7a6,6,0,0,0,5.95,5.86h.08a6,6,0,0,0,5.87-6l-.37-25.71C200.84,123.44,191.57,98.73,174.52,80.65ZM70.36,152.19a4.47,4.47,0,0,0-.43-.69c-.13-.15-.3-.37-.52-.65l-1-.71c-.63-.48-2.9-1.29-6.81-2.45s-11.28-10.27-12.89-11.48a14.11,14.11,0,0,1-3.61-4.36,15.1,15.1,0,0,0-2.35-3.42,2,2,0,0,0-1.56-.34,2.39,2.39,0,0,0-1.57,1,8.06,8.06,0,0,0-.94,1.57c-.18.44-.35.85-.5,1.23l-.62,1.84-.49,1.81a3.7,3.7,0,0,0,.24,1.78,3.08,3.08,0,0,0,1,1.13l1.55.8a4.33,4.33,0,0,1,.88.36,4.23,4.23,0,0,1,.5.3,31.3,31.3,0,0,1,3.17,5.84,5.15,5.15,0,0,1-.41,1.78l-.42,1.08-.38,1c-.42.62-.75,1-1,1.06a1,1,0,0,1-.94-.27l-1.14-1.16A8.58,8.58,0,0,0,38.9,148a1.53,1.53,0,0,0-1.22-.37,8.3,8.3,0,0,0-2.69,4,26.28,26.28,0,0,0-1,3.3,6.13,6.13,0,0,0-.13,2.81,2.73,2.73,0,0,0,1,1.64,30.33,30.33,0,0,0,3.94,1.16,14.66,14.66,0,0,1,4.83,1.94c1.85,1.38,5.8,7,7.87,10.19s3.71,5.25,4.88,6.13a7.68,7.68,0,0,0,2.93,1.31,2.79,2.79,0,0,0,2.8-.85,12.18,12.18,0,0,0,2.13-3.8,15.9,15.9,0,0,0,1.07-4,5.27,5.27,0,0,0-.62-3.19,12.86,12.86,0,0,0-1.43-2.13A13.26,13.26,0,0,0,62.13,165c-.32-.27-.63-.53-1-.77a20.27,20.27,0,0,0-4.41-2.17c-2.07-.8-3.53-1.42-4.37-1.84a14.94,14.94,0,0,1-2.18-1.33,13,13,0,0,1-2-1.82,4.4,4.4,0,0,1-.06-3.56,1.34,1.34,0,0,1,1.81-.93,8.91,8.91,0,0,1,2.68,1.43,16.76,16.76,0,0,1,1.76,1.62c.71.74,1.85,2,3.39,3.69a29.19,29.19,0,0,0,3.81,3.69,10.09,10.09,0,0,0,3.63,1.8,4.8,4.8,0,0,0,2.26-.46,2.53,2.53,0,0,0,1.3-1.36l.9-1.76.62-1.59a12,12,0,0,0,.83-3.42,6.47,6.47,0,0,0-.23-2.62A11.78,11.78,0,0,0,70.36,152.19ZM81,133.65a14.12,14.12,0,0,1,.35,6.27,17.48,17.48,0,0,1-.75,2.55A16.94,16.94,0,0,1,79.33,145a13.29,13.29,0,0,1-1.9,2.57,6,6,0,0,1-3.1,1.43q-2.11.44-5.25-1.26a22.69,22.69,0,0,1-6-5l-2.41-2.92a18.77,18.77,0,0,1-1.68-2.3L57.29,135c-2.09-4.22-8.78-14-9.48-16.23a8.26,8.26,0,0,1-.14-5.62l1.19-2.78.58-1a6.86,6.86,0,0,1,1.45-1.8,3.46,3.46,0,0,1,2-.74c2.2-.14,9.85,7.12,12.37,8.57s5.9,4.53,10.1,9.25l2.9,3.26A19.66,19.66,0,0,1,81,133.65ZM63.5,124.09l-6.52-8-.45-.5-.33-.37c-.13-.16-.23-.27-.29-.33a3.93,3.93,0,0,0-1.19-.86,3.56,3.56,0,0,0-1.39-.59c-.37,0-.7.17-1,.67a2.35,2.35,0,0,0-.21,1.75,6.75,6.75,0,0,0,.61,1.72l.93,1.38,6.15,7.59,1.35,1.51a.77.77,0,0,0,1.07.2,3,3,0,0,0,1.06-1.13,4.08,4.08,0,0,0,.57-1.7A1.76,1.76,0,0,0,63.5,124.09Zm26,4.46a6.55,6.55,0,0,0,.47-4.26,22,22,0,0,0-1.81-5.45l-1.6-3.08-1.89-3.2-1-1.84-1-1.81-.56-1.4a4.56,4.56,0,0,1-.24-1.66,1.54,1.54,0,0,1,.45-1.06c.43-.38,1-.25,1.64.38a9.26,9.26,0,0,1,2.14,3.24,49.35,49.35,0,0,1,1.69,4.9,45.75,45.75,0,0,0,1.9,5.35,10.44,10.44,0,0,0,2.13,3.14,4.9,4.9,0,0,0,3,1.38,5.65,5.65,0,0,0,3.44-1.46,7.69,7.69,0,0,0,1.65-2.07,6.83,6.83,0,0,0,.81-2.3,13.1,13.1,0,0,0-.08-3.25l-.23-.49-.34-.84a38.78,38.78,0,0,0-5.41-7.6,38.9,38.9,0,0,1-5.43-7.65L85,89.16a17.34,17.34,0,0,1-.57-2.07c-.09-.49-.19-1.27-.31-2.35s-.21-2.22-.27-3.41a8,8,0,0,0-.59-2.87,2.93,2.93,0,0,0-.76-1,3.25,3.25,0,0,0-1.08-.56,6.3,6.3,0,0,0-2.77,1.44,9.14,9.14,0,0,0-1.89,2.43,4.69,4.69,0,0,0-.26,1.81,4.63,4.63,0,0,0,.43,1.53l.68,1.17.89,1.23.18.41.29.51c.52,1.14.61,1.86.27,2.17s-.93.18-1.56-.55a10,10,0,0,1-1.5-2.32l-1.29-2.78a1.3,1.3,0,0,0-1-.53,1.24,1.24,0,0,0-.91.29A7.1,7.1,0,0,0,72.27,85a4.51,4.51,0,0,0-.07,2.57,17.49,17.49,0,0,0,1.32,3.77,6.15,6.15,0,0,1,.58,2.33c.05.8,0,1.29-.21,1.46s-.68-.12-1.15-1.14l-.38-.8L72,92.06l-.42-1.9A8.33,8.33,0,0,0,71,88.25l-.56-.91L70,86.93a1,1,0,0,0-.79-.11l-1.26.73-1,.89a8.44,8.44,0,0,0-1.13,1.2,12.78,12.78,0,0,0-1.11,1.71,7.35,7.35,0,0,0-.85,2.56,6,6,0,0,0,.42,1.4,5.4,5.4,0,0,0,2.11,2.11A5.88,5.88,0,0,1,68.41,99c.73.66,4.66,7.32,5.18,8.09a17.33,17.33,0,0,1,1.46,2.62,58.87,58.87,0,0,1,2.68,9.47,58.22,58.22,0,0,0,3,10.05,6.35,6.35,0,0,0,1.57,2.21,4.06,4.06,0,0,0,2.43.82,4,4,0,0,0,2.79-1.2A10.41,10.41,0,0,0,89.47,128.55Zm24.66-38.47A23.19,23.19,0,0,1,113,93.86q-.86,2.28-3,7a35,35,0,0,0-2.77,7.82l-.14.77-.18.93a28.27,28.27,0,0,0,.27,3.74,4,4,0,0,0,1.14,2.28,5.79,5.79,0,0,0,2.55,1.7l1.49.53,1.78.26a7.05,7.05,0,0,0,2.59-2.42,10.58,10.58,0,0,0,1.27-3.46l-.34-12.14q-.12-4.23-.09-4.83a10.16,10.16,0,0,1,.18-1.37c.27-1.41.75-2.26,1.44-2.56.15.09.23.15.24.2l.16.44a73.21,73.21,0,0,1,.08,9.78L119.12,113c0,.31,0,.83,0,1.57s0,1.57,0,2.49a7.84,7.84,0,0,0,1.13,3.74c.53.42.93.71,1.2.88s.55.34.83.49a4,4,0,0,0,.67.33l.49.18a4,4,0,0,0,2.09.17,3.25,3.25,0,0,0,1.88-1,11.11,11.11,0,0,0,.5-1.17c.16-.44.28-.79.36-1.06l.56-2.33a57.51,57.51,0,0,0,.28-10.34,56.82,56.82,0,0,1,.36-10.79l.16-1A19.5,19.5,0,0,1,132,89.88c1.35-2.35,2.11-8.61,2.28-9.54l.15-1.6a6,6,0,0,0-1.35-2.34,5.58,5.58,0,0,0-2-1.26l-1.48-.37L128,74.58a2,2,0,0,0-1.71.7,3.62,3.62,0,0,0-1,2,25.17,25.17,0,0,0,.11,3.18c.13,1.85.17,8.86.11,11.78a52.21,52.21,0,0,1-.91,8.71.65.65,0,0,1-.27.4c-.21-.15-.33-1.2-.36-3.16L123.84,89c-.06-4.18-.36-12.24-.89-14.93a6.29,6.29,0,0,0-1.47-2.21,5.87,5.87,0,0,0-2.12-1.29,5.28,5.28,0,0,0-2.68-.28,4.39,4.39,0,0,0-2.29,1.07,4.67,4.67,0,0,0-.58,1.61,8.06,8.06,0,0,0-.15,2l.3,2.87a19.14,19.14,0,0,1,.47,3.64c0,1,0,1.69-.06,2.21S114.24,89.46,114.13,90.08Zm32.45,37.6,1.15-2,1.16-1.92,7.87-11.13a5.41,5.41,0,0,0,.42-3.07,4,4,0,0,0-.6-1.38q-.32-.37-2,.06c-1.15.29-1.93.2-2.34-.28l-.7-1c-.28-.47-.16-1.15.38-2a1.63,1.63,0,0,1,.69-.64,1.14,1.14,0,0,1,.94,0,2.83,2.83,0,0,1,1,.74l.44.52c.35.26.6.3.78.13a5,5,0,0,0,.62-.88l.54-1c.4-.65.27-1.5-.38-2.53a6.79,6.79,0,0,1-1-2.15,1.77,1.77,0,0,1,.29-.94c.28-.42.58-.57.87-.45a1.59,1.59,0,0,1,.66.41,4.1,4.1,0,0,1,.65,2.08l.09,2.26a3.37,3.37,0,0,0,.62,1.55,1.12,1.12,0,0,0,1,.48,3.09,3.09,0,0,0,1.23-1.21,7.1,7.1,0,0,0,.78-2.16,10.44,10.44,0,0,0,.22-2.66,4.84,4.84,0,0,0-.1-1.24,2,2,0,0,0-.44-.93l-1.95-2.67-1-1.11-.9-1A14.13,14.13,0,0,0,154.84,89a3.82,3.82,0,0,0-2.68-.46l-.68.88a8.39,8.39,0,0,0-1,2.77L150,95.51a13,13,0,0,1-.66,2.33c-.2.45-.38.88-.53,1.3s-.52.86-.77,1.27c-.89,1.47-7.47,8.2-9.16,9.62l-5,4.06a18.57,18.57,0,0,0-3.93,4.49,5.73,5.73,0,0,0-.84,2.68,9.31,9.31,0,0,0,.36,2.95,12.56,12.56,0,0,0,1.61,3.68,28.48,28.48,0,0,0,2.78,3.85,18.47,18.47,0,0,0,3.05,2.84,4.32,4.32,0,0,0,2.79.83,4.68,4.68,0,0,0,2.61-1.59A39.51,39.51,0,0,0,146.58,127.68Zm6.56,34.52a13.16,13.16,0,0,1-1.66-1.81c-.47-.61-.83-1.12-1.09-1.51s-.5-.82-.73-1.25a12.82,12.82,0,0,1-.95-2.46,6.15,6.15,0,0,1-.06-2.58,8.53,8.53,0,0,1,1-2.83,11.26,11.26,0,0,1,1.94-2.49,25.73,25.73,0,0,1,4.31-3.19c1.86-1.15,8.46-7.27,9.22-7.78a13.53,13.53,0,0,0,1.77-1.39,5.42,5.42,0,0,0,1.32-2,3.1,3.1,0,0,0,0-2.28,3.31,3.31,0,0,0-1.15-1.39,1.08,1.08,0,0,0-1.24,0l-.89.66-.47.46c-1.08,1-7.69,8-9.27,10.47a31.81,31.81,0,0,1-3.74,4.94,10.34,10.34,0,0,1-2.13,1.64,8.09,8.09,0,0,1-2.2.79,2.46,2.46,0,0,1-2.35-.92,11.89,11.89,0,0,1-2-2.93c-.12-.23-.25-.5-.38-.8s-.31-.75-.52-1.35a8,8,0,0,1-.41-1.89,10.2,10.2,0,0,1,.07-2.24,15.25,15.25,0,0,1,.77-2.38c.32-.43.62-.83.9-1.19a11.06,11.06,0,0,1,1-1.1,10.75,10.75,0,0,1,4.94-2.69l6-1.47c2.06-.52,9-6.67,10.27-7.89a10.19,10.19,0,0,0,1.59-1.87,17.73,17.73,0,0,0,1.51-3,9.54,9.54,0,0,1,1.43-2.65,3,3,0,0,1,1-.6,3.79,3.79,0,0,1,2.26,1.42,17,17,0,0,1,2.06,3.25l.84,1.66,1.3,2.59.48,1c.13.26.27.52.4.79a4,4,0,0,1,.49.69q.51,1,.9,1.89c.27.59.5,1.16.7,1.7s.36,1.1.5,1.66a16.1,16.1,0,0,1,.35,1.95,3.6,3.6,0,0,1-1,2.29,4.83,4.83,0,0,1-2.06.89,7.58,7.58,0,0,0-2.17.78,11.77,11.77,0,0,0-2.41,1.75c-1.32,1.28-7.8,8.39-8.86,10.76l-3.05,6.91a26.33,26.33,0,0,1-2,3.46,16.39,16.39,0,0,1-2.22,2.67,5.13,5.13,0,0,1-2.32,1.46A2.39,2.39,0,0,1,153.14,162.2ZM171.24,125l.19.75.47.74.43.58a2.65,2.65,0,0,1,.28,1.12c.21.22.46.18.75-.1l.79-.76a2.85,2.85,0,0,0,0-2.73,1.36,1.36,0,0,0-1.38-.51A3.33,3.33,0,0,0,171.24,125Zm13.48,26.62L183.3,145c-.1-.25-.26-.63-.5-1.14a6.19,6.19,0,0,0-.54-1,2.65,2.65,0,0,0-2.29-.75,7.94,7.94,0,0,0-1.7.58,13.38,13.38,0,0,0-1.48.9l-1.47,1-1.27.88a3.55,3.55,0,0,0-.57,3.2c.67.83,1.71.94,3.13.3a6.77,6.77,0,0,1,2.78-.84,1.24,1.24,0,0,1,.21,1,1,1,0,0,1-.31.58l-.41.28-.62.43c-1.87,1.29-5.38,8.08-9.21,8.47a56.66,56.66,0,0,0-7,1l-1.8.88c-.19.1-.51.23-.93.41l-1.25.85a8.8,8.8,0,0,0-2.42,2.45,7,7,0,0,0-1,3.29,15.64,15.64,0,0,0,.27,3.39c.1.66.18,1.16.26,1.5a17.42,17.42,0,0,0,.55,1.71,7.7,7.7,0,0,0,2.14,3.43,4.1,4.1,0,0,0,3.56,1.34,10.58,10.58,0,0,0,4-1.86,22.36,22.36,0,0,0,5-5.05l5-6.67a22.55,22.55,0,0,1,5-5.07.79.79,0,0,1,.64.12.65.65,0,0,1,.29.56,4.66,4.66,0,0,1-.44,1.21l-.67.95-1.87,1.89a3.77,3.77,0,0,0-.78,2.6c.61,1.15,1.34,1.57,2.18,1.28l1.27-.88,1.35-.93A12.37,12.37,0,0,0,184,166a14.05,14.05,0,0,0,1.39-1.59,4.92,4.92,0,0,0,.87-2.83,14.84,14.84,0,0,0-.72-2.48Zm-86.94-4.73c0,4.8,1.08,8.69,2.42,8.69s2.41-3.89,2.41-8.69-1.08-8.69-2.41-8.69S97.78,142.11,97.78,146.91Zm22-8.69c-1.33,0-2.41,3.89-2.41,8.69s1.08,8.69,2.41,8.69,2.42-3.89,2.42-8.69S121.14,138.22,119.8,138.22Zm3.74,23.23a1.32,1.32,0,1,0,0,2.64,8.08,8.08,0,0,1,3.14.63,1.3,1.3,0,0,0-.39.5,18.32,18.32,0,0,1-33.11.35,1.5,1.5,0,0,0-.15-.25,8.13,8.13,0,0,1,3-.57,1.32,1.32,0,1,0,0-2.64,10.63,10.63,0,0,0-9.79,6.29,1.32,1.32,0,0,0,.68,1.74,1.24,1.24,0,0,0,.53.12,1.32,1.32,0,0,0,1.21-.8,7.64,7.64,0,0,1,2.11-2.81,0,0,0,0,1,0,0,21,21,0,0,0,37.93-.4,1.8,1.8,0,0,0,.09-.28,7.63,7.63,0,0,1,2,2.65,1.32,1.32,0,0,0,1.2.76,1.37,1.37,0,0,0,.55-.12,1.33,1.33,0,0,0,.65-1.76A10.7,10.7,0,0,0,123.54,161.45Z"/></svg>